<svg xmlns="http://www.w3.org/2000/svg" width="256" height="256" viewBox="0 0 100 100"><rect width="100" height="100" rx="0" fill="#000000"></rect><path d="M36.76 18.00L42.76 18.00L18.28 82L12.28 82L36.76 18.00ZM68.04 77.20L68.04 77.20Q63.08 77.20 58.92 74.72Q54.76 72.24 52.28 67.56Q49.80 62.88 49.80 56.40L49.80 56.40Q49.80 49.76 52.44 45.12Q55.08 40.48 59.40 38.04Q63.72 35.60 68.68 35.60L68.68 35.60Q73.64 35.60 77.28 38.16Q80.92 40.72 82.12 44.96L82.12 44.96L81.32 45.52L81.32 18.00L87.72 18.00L87.72 76.40L82.12 76.40L81.56 66.72L82.44 66.24Q81.88 69.76 79.76 72.20Q77.64 74.64 74.56 75.92Q71.48 77.20 68.04 77.20ZM68.68 71.60L68.68 71.60Q72.52 71.60 75.36 69.68Q78.20 67.76 79.76 64.20Q81.32 60.64 81.32 55.84L81.32 55.84Q81.32 51.28 79.76 48Q78.20 44.72 75.44 42.96Q72.68 41.20 69 41.20L69 41.20Q62.92 41.20 59.56 45.36Q56.20 49.52 56.20 56.40L56.20 56.40Q56.20 63.28 59.48 67.44Q62.76 71.60 68.68 71.60Z" fill="#fff"></path></svg>