<?xml version="1.0" encoding="UTF-8" standalone="no"?>
<!DOCTYPE svg PUBLIC "-//W3C//DTD SVG 1.1//EN" "http://www.w3.org/Graphics/SVG/1.1/DTD/svg11.dtd">
<svg xmlns="http://www.w3.org/2000/svg" version="1.1" viewBox="0.00 0.00 524.00 468.00">
<g stroke-width="2.00" fill="none" stroke-linecap="butt">
<path stroke="#808080" vector-effect="non-scaling-stroke" d="
  M 251.10 350.01
  Q 260.56 352.84 270.03 355.68
  Q 271.48 356.12 275.13 358.54
  C 278.40 360.72 282.18 361.44 285.51 363.64
  C 290.68 367.06 296.58 371.16 302.87 371.50
  Q 310.04 371.90 318.31 375.71
  A 3.58 3.56 48.7 0 0 320.85 375.88
  Q 323.72 375.00 324.15 373.05
  Q 324.82 370.01 322.02 368.64
  Q 312.57 364.03 304.10 363.57
  C 298.33 363.25 292.53 358.76 287.73 355.78
  C 284.84 353.98 281.53 353.47 278.69 351.63
  C 274.50 348.92 269.86 347.46 265.09 346.27
  Q 256.88 344.22 250.38 342.17
  Q 249.78 341.98 249.70 341.36
  Q 248.83 335.09 247.38 329.54
  Q 247.22 328.92 247.84 329.07
  C 265.91 333.44 283.71 334.12 301.75 329.93
  Q 307.54 328.59 313.72 325.73
  Q 327.82 319.20 338.54 310.04
  Q 352.44 298.15 362.98 283.92
  Q 368.16 276.93 375.11 265.53
  C 377.00 262.43 378.79 258.63 379.88 255.20
  Q 383.22 244.73 387.07 235.25
  Q 390.39 227.06 391.29 221.98
  Q 393.12 211.70 392.44 201.03
  C 392.35 199.70 392.00 198.11 391.46 196.88
  Q 388.26 189.57 386.38 182.03
  Q 384.94 176.29 381.95 172.53
  Q 376.28 165.42 372.32 157.94
  C 368.98 151.64 362.61 147.79 358.86 141.66
  C 356.55 137.88 353.68 133.68 349.70 131.73
  Q 343.56 128.73 336.74 124.76
  C 334.74 123.59 327.34 119.68 325.78 123.12
  Q 325.30 124.18 325.40 123.02
  Q 327.34 101.61 323.27 82.15
  C 321.55 73.94 316.94 67.57 310.39 62.28
  Q 304.82 57.78 299.52 52.14
  Q 294.67 46.98 288.16 46.73
  Q 268.16 45.97 249.39 55.89
  C 246.47 57.43 240.88 60.63 240.27 64.25
  Q 240.17 64.86 239.73 64.43
  Q 236.86 61.59 233.63 59.85
  Q 226.83 56.19 220.73 52.67
  Q 213.98 48.77 208.90 48.08
  Q 201.18 47.03 195.05 49.37
  Q 187.61 52.22 179.71 55.44
  Q 177.60 56.30 176.73 58.52
  Q 176.55 58.99 176.08 59.20
  C 167.86 62.95 161.92 67.36 158.05 76.13
  Q 152.09 89.68 148.80 104.08
  Q 148.63 104.83 147.87 104.75
  C 136.13 103.53 125.77 106.28 116.36 112.58
  C 109.95 116.88 103.52 121.32 98.17 127.01
  Q 94.68 130.73 91.23 136.39
  C 85.48 145.82 79.19 154.79 74.25 165.07
  Q 68.67 176.67 68.60 190.78
  Q 68.58 194.88 69.94 198.88
  Q 72.39 206.11 74.71 212.72
  Q 79.51 226.41 87.56 237.43
  C 92.55 244.25 99.53 250.03 105.15 256.48
  C 110.95 263.14 116.80 268.77 124.09 273.84
  C 131.67 279.12 138.44 284.97 145.54 290.95
  Q 153.50 297.65 163.30 302.07
  C 169.43 304.84 175.51 307.39 181.28 310.70
  C 187.76 314.42 194.04 317.97 201.38 319.56
  C 210.73 321.58 219.58 322.95 228.50 325.70
  Q 234.26 327.48 239.89 327.99
  Q 240.39 328.03 240.47 328.52
  L 243.11 344.10
  Q 243.19 344.56 242.75 344.69
  Q 239.75 345.65 237.27 348.22
  Q 226.51 359.35 219.74 371.02
  C 215.19 378.86 228.97 385.67 234.34 387.35
  Q 240.38 389.25 246.83 386.85
  Q 247.42 386.63 247.46 387.25
  L 247.78 392.21
  A 1.16 1.15 70.9 0 1 247.29 393.23
  Q 246.20 394.00 245.40 394.98
  Q 231.86 411.64 221.19 429.47
  C 219.81 431.77 218.96 434.17 218.72 436.90
  C 218.26 442.31 225.63 443.28 226.37 437.83
  Q 226.75 435.07 228.10 432.81
  Q 237.78 416.64 250.44 400.50
  A 0.54 0.54 0.0 0 1 251.19 400.40
  Q 262.23 408.48 268.90 418.08
  C 272.91 423.84 275.78 431.02 278.77 437.53
  Q 280.12 440.47 283.26 439.65
  Q 283.68 439.54 284.02 439.28
  Q 286.14 437.67 285.12 435.21
  Q 281.22 425.77 277.29 418.67
  C 272.32 409.72 264.43 402.23 255.35 395.24
  Q 254.88 394.88 254.91 394.29
  Q 255.06 390.65 254.61 387.23
  Q 252.28 369.64 251.10 353.00
  Q 251.00 351.64 250.72 350.37
  Q 250.60 349.87 251.10 350.01"
/>
<path stroke="#808080" vector-effect="non-scaling-stroke" d="
  M 374.45 389.85
  C 370.85 391.36 367.79 393.61 364.11 395.36
  Q 350.96 401.60 337.70 410.95
  Q 337.24 411.28 336.74 411.01
  L 334.99 410.06
  A 1.67 1.63 -35.1 0 0 333.92 409.89
  C 331.83 410.29 330.07 412.36 331.31 414.50
  Q 332.90 417.23 335.89 417.96
  Q 336.28 418.05 336.23 418.44
  C 335.74 422.39 339.19 422.91 342.13 422.34
  C 345.93 421.60 349.56 420.67 353.53 420.78
  Q 360.95 420.98 368.56 421.02
  C 373.15 421.04 377.59 419.89 382.18 419.88
  Q 386.82 419.87 391.26 419.12
  Q 399.14 417.78 406.50 416.28
  C 412.15 415.12 418.05 415.55 423.70 415.39
  A 0.50 0.50 0.0 0 1 424.20 415.78
  C 424.91 418.94 428.82 419.67 430.21 416.52
  C 431.55 413.47 432.97 410.92 435.52 408.50
  Q 445.47 399.05 454.10 390.21
  Q 455.25 389.03 456.87 387.78
  Q 459.26 385.93 460.16 382.76
  Q 463.60 370.69 466.79 358.91
  Q 469.96 347.19 470.30 335.26
  Q 470.31 334.67 470.89 334.82
  C 473.71 335.55 479.89 337.44 480.65 333.01
  C 481.26 329.40 474.71 328.19 472.21 328.00
  Q 471.58 327.95 471.95 327.44
  C 472.66 326.49 472.84 325.07 472.03 324.13
  C 469.36 321.06 465.65 324.21 464.70 327.00
  Q 464.50 327.58 463.90 327.72
  Q 457.22 329.33 450.90 331.57
  Q 449.56 332.04 448.10 332.20
  Q 446.68 332.36 445.24 332.51
  Q 437.69 333.31 430.56 333.87
  C 422.36 334.53 414.32 334.09 406.16 333.84
  Q 399.09 333.62 392.28 334.81
  Q 390.82 335.06 390.38 336.47
  Q 387.10 346.76 384.93 356.28
  C 382.99 364.76 380.93 373.80 377.01 381.76
  Q 376.77 382.25 376.31 382.53
  C 375.13 383.25 373.61 383.40 372.89 384.72
  Q 371.72 386.88 373.35 388.64
  A 2.34 2.31 79.8 0 0 374.12 389.18
  Q 374.26 389.23 374.40 389.26
  Q 375.38 389.46 374.45 389.85"
/>
<path stroke="#808080" vector-effect="non-scaling-stroke" d="
  M 323.54 349.87
  C 328.24 344.58 333.39 340.58 332.99 332.66
  Q 332.87 330.28 330.71 329.28
  Q 330.11 329.00 329.51 329.08
  Q 326.35 329.48 326.46 332.68
  Q 326.62 337.20 323.85 339.94
  Q 320.78 342.96 318.03 347.10
  C 315.28 351.22 315.65 355.94 316.86 360.62
  C 317.55 363.33 320.58 364.77 322.60 362.50
  C 324.03 360.90 323.26 358.66 322.73 356.85
  Q 322.52 356.13 323.25 356.33
  C 325.37 356.94 327.39 362.83 327.93 365.00
  C 328.70 368.10 327.77 370.37 325.86 372.66
  C 324.34 374.49 324.31 377.23 326.89 378.17
  C 330.12 379.35 332.71 374.67 333.73 372.26
  C 336.30 366.17 333.16 358.12 329.46 353.10
  Q 327.08 349.88 323.85 350.43
  Q 322.89 350.60 323.54 349.87"
/>
<path stroke="#808080" vector-effect="non-scaling-stroke" d="
  M 251.33 67.03
  Q 250.11 69.04 246.54 69.06
  Q 245.17 69.06 246.26 69.90
  C 252.08 74.36 257.03 79.81 257.22 87.44
  Q 257.48 98.15 256.91 107.08
  Q 256.91 107.14 256.97 107.14
  Q 257.02 107.15 257.06 107.13
  Q 257.12 107.10 257.13 107.03
  Q 257.65 102.01 261.71 99.78
  C 263.84 98.61 266.05 99.90 268.22 100.19
  C 271.54 100.61 275.33 100.82 277.43 103.68
  C 280.30 107.60 279.16 113.18 276.73 117.05
  Q 272.78 123.35 266.22 123.84
  C 260.66 124.25 257.31 120.85 256.07 115.84
  A 0.09 0.09 0.0 0 0 255.89 115.86
  Q 255.93 119.08 254.39 122.15
  Q 247.16 136.64 234.15 146.20
  Q 233.68 146.54 234.11 146.94
  C 237.00 149.63 238.88 152.80 240.17 156.47
  Q 240.86 158.47 242.63 160.00
  Q 250.73 167.07 260.83 165.39
  Q 267.30 164.30 273.55 163.57
  C 280.77 162.73 286.66 161.13 292.50 157.35
  C 298.01 153.77 303.33 149.80 308.38 145.42
  Q 313.26 141.19 314.67 135.84
  C 316.32 129.58 317.23 123.15 317.47 116.63
  Q 317.96 103.12 316.81 92.34
  C 315.86 83.45 314.06 75.66 307.07 69.72
  Q 299.01 62.87 293.72 56.92
  C 290.71 53.54 285.09 53.70 280.87 54.09
  Q 265.37 55.52 251.46 62.98
  Q 250.76 63.35 251.20 64.02
  Q 252.21 65.57 251.33 67.03"
/>
<path stroke="#808080" vector-effect="non-scaling-stroke" d="
  M 208.14 62.90
  A 2.85 2.84 -33.7 0 1 204.18 62.11
  Q 202.06 58.90 197.73 59.83
  Q 190.35 61.42 183.00 64.54
  C 176.03 67.51 169.12 70.65 165.85 77.74
  C 159.94 90.56 154.85 105.64 155.42 120.00
  C 155.53 122.98 156.28 126.04 158.05 128.47
  Q 162.34 134.35 168.74 140.92
  C 174.85 147.20 181.79 149.94 190.51 150.62
  C 199.27 151.30 207.54 151.68 214.65 148.31
  Q 232.45 139.88 243.15 123.93
  Q 248.18 116.42 248.22 109.28
  Q 248.28 99.90 248.26 88.54
  C 248.26 86.26 247.80 83.98 246.21 82.27
  Q 240.03 75.68 232.29 69.87
  Q 228.66 67.14 222.51 63.92
  C 218.35 61.75 213.56 58.30 208.77 56.92
  Q 208.10 56.72 208.52 57.27
  Q 211.25 60.80 208.14 62.90"
/>
<path stroke="#808080" vector-effect="non-scaling-stroke" d="
  M 170.64 296.37
  Q 178.80 299.63 188.20 305.14
  C 192.29 307.54 196.57 309.84 201.06 310.94
  C 209.89 313.08 219.23 314.48 228.15 317.09
  Q 234.99 319.09 237.52 319.43
  Q 246.87 320.68 254.79 322.29
  Q 274.48 326.29 293.42 323.37
  Q 302.01 322.05 309.12 318.90
  C 320.05 314.07 330.62 307.34 339.29 298.63
  Q 345.48 292.40 349.60 287.77
  Q 360.01 276.07 369.87 258.25
  C 371.00 256.21 372.02 253.57 372.71 251.35
  Q 376.25 240.00 379.87 231.47
  C 384.01 221.68 384.99 212.16 384.41 201.71
  Q 384.34 200.52 383.87 199.42
  Q 380.75 192.06 378.83 184.45
  Q 377.66 179.80 375.15 176.65
  Q 370.08 170.29 366.23 162.94
  C 363.22 157.18 357.74 153.60 354.15 148.25
  C 352.20 145.34 349.51 140.20 346.32 138.66
  Q 339.24 135.25 331.85 130.87
  C 329.44 129.44 326.20 130.03 325.09 126.94
  Q 324.90 126.40 324.84 126.97
  C 324.03 135.18 322.34 143.39 316.41 149.45
  C 311.29 154.69 305.05 159.12 299.03 163.30
  Q 291.99 168.18 285.10 170.22
  Q 282.26 171.07 276.06 171.83
  C 267.84 172.83 259.50 175.00 251.19 173.74
  C 245.08 172.81 235.03 166.96 232.54 159.95
  Q 231.00 155.61 227.63 151.64
  Q 227.29 151.24 226.85 151.53
  Q 220.47 155.78 213.04 158.11
  Q 207.65 159.79 199.87 159.61
  Q 192.73 159.43 186.57 158.70
  C 170.70 156.80 161.10 145.87 152.02 133.82
  C 147.16 127.37 146.99 119.80 147.86 112.09
  Q 147.92 111.57 147.39 111.56
  C 137.15 111.31 128.85 113.06 120.67 118.66
  C 112.91 123.99 104.27 130.04 99.60 137.51
  Q 93.86 146.69 87.25 157.33
  Q 80.12 168.79 77.87 178.27
  Q 76.64 183.49 76.46 190.42
  Q 76.38 193.42 77.37 196.30
  Q 79.48 202.49 81.63 208.80
  Q 84.04 215.90 89.10 225.15
  C 92.91 232.11 97.43 237.19 103.03 242.50
  C 111.33 250.37 117.90 259.59 127.37 266.13
  Q 137.49 273.11 148.20 282.53
  Q 158.31 291.42 170.64 296.37"
/>
<path stroke="#808080" vector-effect="non-scaling-stroke" d="
  M 245.97 380.40
  A 0.34 0.34 0.0 0 0 246.31 380.03
  L 243.73 352.06
  A 0.34 0.34 0.0 0 0 243.12 351.88
  L 226.51 373.67
  A 0.34 0.34 0.0 0 0 226.61 374.17
  L 236.83 380.17
  A 0.34 0.34 0.0 0 0 237.00 380.21
  L 245.97 380.40"
/>
<path stroke="#808080" vector-effect="non-scaling-stroke" d="
  M 225.67 99.87
  Q 223.81 100.80 221.65 100.46
  Q 220.96 100.35 220.39 100.75
  C 218.25 102.27 218.75 103.86 219.55 105.94
  Q 219.78 106.54 219.68 107.18
  C 218.76 113.13 219.79 120.24 226.59 122.01
  C 234.37 124.04 238.14 115.19 239.70 109.02
  Q 240.28 106.72 239.43 104.67
  Q 235.42 95.02 225.67 99.87"
/>
<path stroke="#808080" vector-effect="non-scaling-stroke" d="
  M 233.71 201.52
  A 0.17 0.16 -26.4 0 1 233.62 201.77
  L 224.32 204.83
  Q 221.91 205.62 221.77 208.16
  Q 221.74 208.72 221.95 209.20
  Q 223.20 212.17 226.27 211.20
  Q 231.90 209.41 236.82 207.71
  C 242.75 205.65 241.18 200.12 237.94 196.56
  C 234.73 193.03 231.30 190.53 226.90 188.80
  Q 223.90 187.62 221.37 185.66
  C 219.67 184.34 217.36 185.08 216.46 186.95
  C 215.15 189.70 218.84 192.34 220.83 193.20
  C 225.59 195.26 230.53 197.25 233.71 201.52"
/>
<path stroke="#808080" vector-effect="non-scaling-stroke" d="
  M 252.82 264.92
  C 249.91 270.89 247.09 274.78 240.52 277.37
  Q 236.56 278.94 232.35 278.30
  Q 224.27 277.07 218.85 274.77
  Q 211.45 271.63 202.05 262.72
  C 195.36 256.38 191.16 244.64 191.26 236.20
  C 191.30 232.60 185.88 232.25 185.38 235.96
  Q 184.68 241.25 185.45 245.36
  C 187.09 254.06 191.27 262.92 198.16 269.34
  C 203.71 274.50 210.11 279.95 217.14 282.62
  C 223.76 285.14 233.97 287.85 241.12 285.56
  C 251.99 282.08 256.83 275.74 261.24 265.59
  C 264.56 257.95 266.26 247.48 263.73 239.62
  Q 262.91 237.05 260.21 236.89
  C 257.41 236.72 255.86 239.07 256.40 241.59
  Q 258.77 252.72 252.82 264.92"
/>
<path stroke="#808080" vector-effect="non-scaling-stroke" d="
  M 384.65 380.92
  Q 384.26 381.85 383.70 382.65
  Q 383.33 383.18 383.98 383.19
  Q 397.94 383.48 402.44 382.79
  Q 426.32 379.11 447.95 378.25
  Q 449.39 378.20 453.47 379.36
  Q 453.97 379.50 454.11 379.00
  Q 457.83 365.52 461.22 353.50
  Q 463.60 345.08 464.05 336.22
  Q 464.13 334.67 462.67 335.20
  C 455.69 337.74 448.98 339.87 441.35 340.24
  Q 434.70 340.56 428.15 341.13
  C 423.35 341.55 418.10 341.37 413.29 341.06
  Q 404.91 340.52 397.02 340.85
  Q 395.27 340.93 394.83 342.62
  Q 392.07 353.12 388.91 367.48
  Q 387.42 374.27 384.65 380.92"
/>
<path stroke="#808080" vector-effect="non-scaling-stroke" d="
  M 370.12 408.74
  C 368.05 408.04 367.83 404.82 369.76 403.78
  C 372.98 402.04 375.67 399.78 379.19 398.61
  Q 383.29 397.24 387.14 394.69
  C 389.41 393.18 392.04 392.64 394.71 392.60
  Q 408.78 392.36 422.73 392.60
  Q 427.40 392.68 431.24 394.35
  C 433.11 395.16 433.58 397.37 432.05 398.80
  Q 427.72 402.86 423.50 407.51
  Q 423.07 407.99 423.71 407.98
  L 425.94 407.95
  A 1.65 1.65 0.0 0 0 427.13 407.42
  C 434.10 399.88 442.14 393.32 449.43 386.25
  Q 449.87 385.83 449.26 385.85
  Q 428.36 386.79 407.06 389.77
  Q 400.58 390.67 395.05 390.63
  Q 388.46 390.57 382.37 390.47
  Q 381.69 390.45 382.07 391.02
  C 383.33 392.93 381.69 394.80 379.80 395.25
  C 375.37 396.31 371.79 399.16 367.62 401.16
  Q 356.03 406.74 342.89 415.07
  Q 342.45 415.35 342.93 415.17
  Q 346.28 413.92 349.50 413.79
  Q 358.37 413.43 366.66 413.49
  C 372.28 413.53 377.30 412.23 382.86 412.18
  C 387.14 412.14 391.18 411.29 395.31 410.59
  Q 395.37 410.58 395.39 410.53
  Q 395.41 410.48 395.38 410.43
  Q 395.34 410.38 395.28 410.38
  Q 379.98 411.69 375.15 411.65
  Q 373.60 411.64 372.53 409.90
  A 1.36 1.33 -5.6 0 0 371.82 409.33
  Q 370.98 409.03 370.12 408.74"
/>
<path stroke="#808080" vector-effect="non-scaling-stroke" d="
  M 389.37 400.44
  C 386.28 402.87 382.64 404.07 378.92 405.16
  Q 377.41 405.61 378.98 405.43
  C 391.71 403.96 404.74 403.99 417.71 404.34
  Q 417.99 404.35 418.18 404.15
  L 423.31 399.03
  Q 423.40 398.93 423.27 398.94
  Q 409.27 399.06 395.26 398.87
  C 393.10 398.84 391.16 399.03 389.37 400.44"
/>
<path stroke="#808080" vector-effect="non-scaling-stroke" d="
  M 416.00 351.96
  C 413.35 351.74 410.26 348.99 408.00 351.01
  C 406.64 352.22 406.94 354.33 408.43 355.31
  C 411.85 357.57 415.52 358.53 419.39 357.76
  C 422.10 357.22 424.66 356.70 427.46 356.74
  Q 433.84 356.83 439.69 356.54
  Q 442.40 356.40 442.64 353.70
  Q 442.70 353.03 442.30 352.40
  Q 441.28 350.81 439.40 350.78
  Q 431.74 350.63 424.36 350.85
  C 422.34 350.91 418.80 352.19 416.00 351.96"
/>
<path stroke="#808080" vector-effect="non-scaling-stroke" d="
  M 407.99 366.12
  C 404.07 364.81 399.91 365.58 395.83 364.81
  C 393.47 364.36 392.07 366.49 392.59 368.68
  A 1.75 1.72 -79.0 0 0 393.24 369.66
  C 396.80 372.29 402.53 370.84 406.78 372.00
  Q 412.71 373.62 420.59 372.72
  C 424.37 372.29 427.56 370.55 431.46 370.27
  C 437.70 369.82 443.45 367.92 449.37 366.71
  Q 451.48 366.28 451.72 364.14
  Q 451.87 362.83 450.37 361.60
  A 2.45 2.41 -29.1 0 0 448.46 361.07
  Q 442.31 361.97 436.59 363.75
  Q 433.49 364.72 430.35 364.79
  Q 430.29 364.79 430.28 364.74
  Q 430.27 364.69 430.28 364.64
  Q 430.30 364.56 430.38 364.55
  C 432.92 364.13 436.46 363.38 435.25 360.18
  C 434.57 358.39 432.38 358.23 430.78 358.60
  Q 423.16 360.36 416.03 362.40
  Q 413.94 362.99 411.79 362.06
  C 409.71 361.17 407.43 362.58 407.72 364.94
  Q 407.76 365.26 407.99 365.49
  L 408.23 365.73
  Q 408.92 366.43 407.99 366.12"
/>
</g>
<path fill="#ffffff" d="
  M 0.00 0.00
  L 524.00 0.00
  L 524.00 468.00
  L 0.00 468.00
  L 0.00 0.00
  Z
  M 251.10 350.01
  Q 260.56 352.84 270.03 355.68
  Q 271.48 356.12 275.13 358.54
  C 278.40 360.72 282.18 361.44 285.51 363.64
  C 290.68 367.06 296.58 371.16 302.87 371.50
  Q 310.04 371.90 318.31 375.71
  A 3.58 3.56 48.7 0 0 320.85 375.88
  Q 323.72 375.00 324.15 373.05
  Q 324.82 370.01 322.02 368.64
  Q 312.57 364.03 304.10 363.57
  C 298.33 363.25 292.53 358.76 287.73 355.78
  C 284.84 353.98 281.53 353.47 278.69 351.63
  C 274.50 348.92 269.86 347.46 265.09 346.27
  Q 256.88 344.22 250.38 342.17
  Q 249.78 341.98 249.70 341.36
  Q 248.83 335.09 247.38 329.54
  Q 247.22 328.92 247.84 329.07
  C 265.91 333.44 283.71 334.12 301.75 329.93
  Q 307.54 328.59 313.72 325.73
  Q 327.82 319.20 338.54 310.04
  Q 352.44 298.15 362.98 283.92
  Q 368.16 276.93 375.11 265.53
  C 377.00 262.43 378.79 258.63 379.88 255.20
  Q 383.22 244.73 387.07 235.25
  Q 390.39 227.06 391.29 221.98
  Q 393.12 211.70 392.44 201.03
  C 392.35 199.70 392.00 198.11 391.46 196.88
  Q 388.26 189.57 386.38 182.03
  Q 384.94 176.29 381.95 172.53
  Q 376.28 165.42 372.32 157.94
  C 368.98 151.64 362.61 147.79 358.86 141.66
  C 356.55 137.88 353.68 133.68 349.70 131.73
  Q 343.56 128.73 336.74 124.76
  C 334.74 123.59 327.34 119.68 325.78 123.12
  Q 325.30 124.18 325.40 123.02
  Q 327.34 101.61 323.27 82.15
  C 321.55 73.94 316.94 67.57 310.39 62.28
  Q 304.82 57.78 299.52 52.14
  Q 294.67 46.98 288.16 46.73
  Q 268.16 45.97 249.39 55.89
  C 246.47 57.43 240.88 60.63 240.27 64.25
  Q 240.17 64.86 239.73 64.43
  Q 236.86 61.59 233.63 59.85
  Q 226.83 56.19 220.73 52.67
  Q 213.98 48.77 208.90 48.08
  Q 201.18 47.03 195.05 49.37
  Q 187.61 52.22 179.71 55.44
  Q 177.60 56.30 176.73 58.52
  Q 176.55 58.99 176.08 59.20
  C 167.86 62.95 161.92 67.36 158.05 76.13
  Q 152.09 89.68 148.80 104.08
  Q 148.63 104.83 147.87 104.75
  C 136.13 103.53 125.77 106.28 116.36 112.58
  C 109.95 116.88 103.52 121.32 98.17 127.01
  Q 94.68 130.73 91.23 136.39
  C 85.48 145.82 79.19 154.79 74.25 165.07
  Q 68.67 176.67 68.60 190.78
  Q 68.58 194.88 69.94 198.88
  Q 72.39 206.11 74.71 212.72
  Q 79.51 226.41 87.56 237.43
  C 92.55 244.25 99.53 250.03 105.15 256.48
  C 110.95 263.14 116.80 268.77 124.09 273.84
  C 131.67 279.12 138.44 284.97 145.54 290.95
  Q 153.50 297.65 163.30 302.07
  C 169.43 304.84 175.51 307.39 181.28 310.70
  C 187.76 314.42 194.04 317.97 201.38 319.56
  C 210.73 321.58 219.58 322.95 228.50 325.70
  Q 234.26 327.48 239.89 327.99
  Q 240.39 328.03 240.47 328.52
  L 243.11 344.10
  Q 243.19 344.56 242.75 344.69
  Q 239.75 345.65 237.27 348.22
  Q 226.51 359.35 219.74 371.02
  C 215.19 378.86 228.97 385.67 234.34 387.35
  Q 240.38 389.25 246.83 386.85
  Q 247.42 386.63 247.46 387.25
  L 247.78 392.21
  A 1.16 1.15 70.9 0 1 247.29 393.23
  Q 246.20 394.00 245.40 394.98
  Q 231.86 411.64 221.19 429.47
  C 219.81 431.77 218.96 434.17 218.72 436.90
  C 218.26 442.31 225.63 443.28 226.37 437.83
  Q 226.75 435.07 228.10 432.81
  Q 237.78 416.64 250.44 400.50
  A 0.54 0.54 0.0 0 1 251.19 400.40
  Q 262.23 408.48 268.90 418.08
  C 272.91 423.84 275.78 431.02 278.77 437.53
  Q 280.12 440.47 283.26 439.65
  Q 283.68 439.54 284.02 439.28
  Q 286.14 437.67 285.12 435.21
  Q 281.22 425.77 277.29 418.67
  C 272.32 409.72 264.43 402.23 255.35 395.24
  Q 254.88 394.88 254.91 394.29
  Q 255.06 390.65 254.61 387.23
  Q 252.28 369.64 251.10 353.00
  Q 251.00 351.64 250.72 350.37
  Q 250.60 349.87 251.10 350.01
  Z
  M 374.45 389.85
  C 370.85 391.36 367.79 393.61 364.11 395.36
  Q 350.96 401.60 337.70 410.95
  Q 337.24 411.28 336.74 411.01
  L 334.99 410.06
  A 1.67 1.63 -35.1 0 0 333.92 409.89
  C 331.83 410.29 330.07 412.36 331.31 414.50
  Q 332.90 417.23 335.89 417.96
  Q 336.28 418.05 336.23 418.44
  C 335.74 422.39 339.19 422.91 342.13 422.34
  C 345.93 421.60 349.56 420.67 353.53 420.78
  Q 360.95 420.98 368.56 421.02
  C 373.15 421.04 377.59 419.89 382.18 419.88
  Q 386.82 419.87 391.26 419.12
  Q 399.14 417.78 406.50 416.28
  C 412.15 415.12 418.05 415.55 423.70 415.39
  A 0.50 0.50 0.0 0 1 424.20 415.78
  C 424.91 418.94 428.82 419.67 430.21 416.52
  C 431.55 413.47 432.97 410.92 435.52 408.50
  Q 445.47 399.05 454.10 390.21
  Q 455.25 389.03 456.87 387.78
  Q 459.26 385.93 460.16 382.76
  Q 463.60 370.69 466.79 358.91
  Q 469.96 347.19 470.30 335.26
  Q 470.31 334.67 470.89 334.82
  C 473.71 335.55 479.89 337.44 480.65 333.01
  C 481.26 329.40 474.71 328.19 472.21 328.00
  Q 471.58 327.95 471.95 327.44
  C 472.66 326.49 472.84 325.07 472.03 324.13
  C 469.36 321.06 465.65 324.21 464.70 327.00
  Q 464.50 327.58 463.90 327.72
  Q 457.22 329.33 450.90 331.57
  Q 449.56 332.04 448.10 332.20
  Q 446.68 332.36 445.24 332.51
  Q 437.69 333.31 430.56 333.87
  C 422.36 334.53 414.32 334.09 406.16 333.84
  Q 399.09 333.62 392.28 334.81
  Q 390.82 335.06 390.38 336.47
  Q 387.10 346.76 384.93 356.28
  C 382.99 364.76 380.93 373.80 377.01 381.76
  Q 376.77 382.25 376.31 382.53
  C 375.13 383.25 373.61 383.40 372.89 384.72
  Q 371.72 386.88 373.35 388.64
  A 2.34 2.31 79.8 0 0 374.12 389.18
  Q 374.26 389.23 374.40 389.26
  Q 375.38 389.46 374.45 389.85
  Z
  M 323.54 349.87
  C 328.24 344.58 333.39 340.58 332.99 332.66
  Q 332.87 330.28 330.71 329.28
  Q 330.11 329.00 329.51 329.08
  Q 326.35 329.48 326.46 332.68
  Q 326.62 337.20 323.85 339.94
  Q 320.78 342.96 318.03 347.10
  C 315.28 351.22 315.65 355.94 316.86 360.62
  C 317.55 363.33 320.58 364.77 322.60 362.50
  C 324.03 360.90 323.26 358.66 322.73 356.85
  Q 322.52 356.13 323.25 356.33
  C 325.37 356.94 327.39 362.83 327.93 365.00
  C 328.70 368.10 327.77 370.37 325.86 372.66
  C 324.34 374.49 324.31 377.23 326.89 378.17
  C 330.12 379.35 332.71 374.67 333.73 372.26
  C 336.30 366.17 333.16 358.12 329.46 353.10
  Q 327.08 349.88 323.85 350.43
  Q 322.89 350.60 323.54 349.87
  Z"
/>
<path fill="#000000" d="
  M 250.72 350.37
  Q 251.00 351.64 251.10 353.00
  Q 252.28 369.64 254.61 387.23
  Q 255.06 390.65 254.91 394.29
  Q 254.88 394.88 255.35 395.24
  C 264.43 402.23 272.32 409.72 277.29 418.67
  Q 281.22 425.77 285.12 435.21
  Q 286.14 437.67 284.02 439.28
  Q 283.68 439.54 283.26 439.65
  Q 280.12 440.47 278.77 437.53
  C 275.78 431.02 272.91 423.84 268.90 418.08
  Q 262.23 408.48 251.19 400.40
  A 0.54 0.54 0.0 0 0 250.44 400.50
  Q 237.78 416.64 228.10 432.81
  Q 226.75 435.07 226.37 437.83
  C 225.63 443.28 218.26 442.31 218.72 436.90
  C 218.96 434.17 219.81 431.77 221.19 429.47
  Q 231.86 411.64 245.40 394.98
  Q 246.20 394.00 247.29 393.23
  A 1.16 1.15 70.9 0 0 247.78 392.21
  L 247.46 387.25
  Q 247.42 386.63 246.83 386.85
  Q 240.38 389.25 234.34 387.35
  C 228.97 385.67 215.19 378.86 219.74 371.02
  Q 226.51 359.35 237.27 348.22
  Q 239.75 345.65 242.75 344.69
  Q 243.19 344.56 243.11 344.10
  L 240.47 328.52
  Q 240.39 328.03 239.89 327.99
  Q 234.26 327.48 228.50 325.70
  C 219.58 322.95 210.73 321.58 201.38 319.56
  C 194.04 317.97 187.76 314.42 181.28 310.70
  C 175.51 307.39 169.43 304.84 163.30 302.07
  Q 153.50 297.65 145.54 290.95
  C 138.44 284.97 131.67 279.12 124.09 273.84
  C 116.80 268.77 110.95 263.14 105.15 256.48
  C 99.53 250.03 92.55 244.25 87.56 237.43
  Q 79.51 226.41 74.71 212.72
  Q 72.39 206.11 69.94 198.88
  Q 68.58 194.88 68.60 190.78
  Q 68.67 176.67 74.25 165.07
  C 79.19 154.79 85.48 145.82 91.23 136.39
  Q 94.68 130.73 98.17 127.01
  C 103.52 121.32 109.95 116.88 116.36 112.58
  C 125.77 106.28 136.13 103.53 147.87 104.75
  Q 148.63 104.83 148.80 104.08
  Q 152.09 89.68 158.05 76.13
  C 161.92 67.36 167.86 62.95 176.08 59.20
  Q 176.55 58.99 176.73 58.52
  Q 177.60 56.30 179.71 55.44
  Q 187.61 52.22 195.05 49.37
  Q 201.18 47.03 208.90 48.08
  Q 213.98 48.77 220.73 52.67
  Q 226.83 56.19 233.63 59.85
  Q 236.86 61.59 239.73 64.43
  Q 240.17 64.86 240.27 64.25
  C 240.88 60.63 246.47 57.43 249.39 55.89
  Q 268.16 45.97 288.16 46.73
  Q 294.67 46.98 299.52 52.14
  Q 304.82 57.78 310.39 62.28
  C 316.94 67.57 321.55 73.94 323.27 82.15
  Q 327.34 101.61 325.40 123.02
  Q 325.30 124.18 325.78 123.12
  C 327.34 119.68 334.74 123.59 336.74 124.76
  Q 343.56 128.73 349.70 131.73
  C 353.68 133.68 356.55 137.88 358.86 141.66
  C 362.61 147.79 368.98 151.64 372.32 157.94
  Q 376.28 165.42 381.95 172.53
  Q 384.94 176.29 386.38 182.03
  Q 388.26 189.57 391.46 196.88
  C 392.00 198.11 392.35 199.70 392.44 201.03
  Q 393.12 211.70 391.29 221.98
  Q 390.39 227.06 387.07 235.25
  Q 383.22 244.73 379.88 255.20
  C 378.79 258.63 377.00 262.43 375.11 265.53
  Q 368.16 276.93 362.98 283.92
  Q 352.44 298.15 338.54 310.04
  Q 327.82 319.20 313.72 325.73
  Q 307.54 328.59 301.75 329.93
  C 283.71 334.12 265.91 333.44 247.84 329.07
  Q 247.22 328.92 247.38 329.54
  Q 248.83 335.09 249.70 341.36
  Q 249.78 341.98 250.38 342.17
  Q 256.88 344.22 265.09 346.27
  C 269.86 347.46 274.50 348.92 278.69 351.63
  C 281.53 353.47 284.84 353.98 287.73 355.78
  C 292.53 358.76 298.33 363.25 304.10 363.57
  Q 312.57 364.03 322.02 368.64
  Q 324.82 370.01 324.15 373.05
  Q 323.72 375.00 320.85 375.88
  A 3.58 3.56 48.7 0 1 318.31 375.71
  Q 310.04 371.90 302.87 371.50
  C 296.58 371.16 290.68 367.06 285.51 363.64
  C 282.18 361.44 278.40 360.72 275.13 358.54
  Q 271.48 356.12 270.03 355.68
  Q 260.56 352.84 251.10 350.01
  Q 250.60 349.87 250.72 350.37
  Z
  M 251.33 67.03
  Q 250.11 69.04 246.54 69.06
  Q 245.17 69.06 246.26 69.90
  C 252.08 74.36 257.03 79.81 257.22 87.44
  Q 257.48 98.15 256.91 107.08
  Q 256.91 107.14 256.97 107.14
  Q 257.02 107.15 257.06 107.13
  Q 257.12 107.10 257.13 107.03
  Q 257.65 102.01 261.71 99.78
  C 263.84 98.61 266.05 99.90 268.22 100.19
  C 271.54 100.61 275.33 100.82 277.43 103.68
  C 280.30 107.60 279.16 113.18 276.73 117.05
  Q 272.78 123.35 266.22 123.84
  C 260.66 124.25 257.31 120.85 256.07 115.84
  A 0.09 0.09 0.0 0 0 255.89 115.86
  Q 255.93 119.08 254.39 122.15
  Q 247.16 136.64 234.15 146.20
  Q 233.68 146.54 234.11 146.94
  C 237.00 149.63 238.88 152.80 240.17 156.47
  Q 240.86 158.47 242.63 160.00
  Q 250.73 167.07 260.83 165.39
  Q 267.30 164.30 273.55 163.57
  C 280.77 162.73 286.66 161.13 292.50 157.35
  C 298.01 153.77 303.33 149.80 308.38 145.42
  Q 313.26 141.19 314.67 135.84
  C 316.32 129.58 317.23 123.15 317.47 116.63
  Q 317.96 103.12 316.81 92.34
  C 315.86 83.45 314.06 75.66 307.07 69.72
  Q 299.01 62.87 293.72 56.92
  C 290.71 53.54 285.09 53.70 280.87 54.09
  Q 265.37 55.52 251.46 62.98
  Q 250.76 63.35 251.20 64.02
  Q 252.21 65.57 251.33 67.03
  Z
  M 208.14 62.90
  A 2.85 2.84 -33.7 0 1 204.18 62.11
  Q 202.06 58.90 197.73 59.83
  Q 190.35 61.42 183.00 64.54
  C 176.03 67.51 169.12 70.65 165.85 77.74
  C 159.94 90.56 154.85 105.64 155.42 120.00
  C 155.53 122.98 156.28 126.04 158.05 128.47
  Q 162.34 134.35 168.74 140.92
  C 174.85 147.20 181.79 149.94 190.51 150.62
  C 199.27 151.30 207.54 151.68 214.65 148.31
  Q 232.45 139.88 243.15 123.93
  Q 248.18 116.42 248.22 109.28
  Q 248.28 99.90 248.26 88.54
  C 248.26 86.26 247.80 83.98 246.21 82.27
  Q 240.03 75.68 232.29 69.87
  Q 228.66 67.14 222.51 63.92
  C 218.35 61.75 213.56 58.30 208.77 56.92
  Q 208.10 56.72 208.52 57.27
  Q 211.25 60.80 208.14 62.90
  Z
  M 170.64 296.37
  Q 178.80 299.63 188.20 305.14
  C 192.29 307.54 196.57 309.84 201.06 310.94
  C 209.89 313.08 219.23 314.48 228.15 317.09
  Q 234.99 319.09 237.52 319.43
  Q 246.87 320.68 254.79 322.29
  Q 274.48 326.29 293.42 323.37
  Q 302.01 322.05 309.12 318.90
  C 320.05 314.07 330.62 307.34 339.29 298.63
  Q 345.48 292.40 349.60 287.77
  Q 360.01 276.07 369.87 258.25
  C 371.00 256.21 372.02 253.57 372.71 251.35
  Q 376.25 240.00 379.87 231.47
  C 384.01 221.68 384.99 212.16 384.41 201.71
  Q 384.34 200.52 383.87 199.42
  Q 380.75 192.06 378.83 184.45
  Q 377.66 179.80 375.15 176.65
  Q 370.08 170.29 366.23 162.94
  C 363.22 157.18 357.74 153.60 354.15 148.25
  C 352.20 145.34 349.51 140.20 346.32 138.66
  Q 339.24 135.25 331.85 130.87
  C 329.44 129.44 326.20 130.03 325.09 126.94
  Q 324.90 126.40 324.84 126.97
  C 324.03 135.18 322.34 143.39 316.41 149.45
  C 311.29 154.69 305.05 159.12 299.03 163.30
  Q 291.99 168.18 285.10 170.22
  Q 282.26 171.07 276.06 171.83
  C 267.84 172.83 259.50 175.00 251.19 173.74
  C 245.08 172.81 235.03 166.96 232.54 159.95
  Q 231.00 155.61 227.63 151.64
  Q 227.29 151.24 226.85 151.53
  Q 220.47 155.78 213.04 158.11
  Q 207.65 159.79 199.87 159.61
  Q 192.73 159.43 186.57 158.70
  C 170.70 156.80 161.10 145.87 152.02 133.82
  C 147.16 127.37 146.99 119.80 147.86 112.09
  Q 147.92 111.57 147.39 111.56
  C 137.15 111.31 128.85 113.06 120.67 118.66
  C 112.91 123.99 104.27 130.04 99.60 137.51
  Q 93.86 146.69 87.25 157.33
  Q 80.12 168.79 77.87 178.27
  Q 76.64 183.49 76.46 190.42
  Q 76.38 193.42 77.37 196.30
  Q 79.48 202.49 81.63 208.80
  Q 84.04 215.90 89.10 225.15
  C 92.91 232.11 97.43 237.19 103.03 242.50
  C 111.33 250.37 117.90 259.59 127.37 266.13
  Q 137.49 273.11 148.20 282.53
  Q 158.31 291.42 170.64 296.37
  Z
  M 245.97 380.40
  A 0.34 0.34 0.0 0 0 246.31 380.03
  L 243.73 352.06
  A 0.34 0.34 0.0 0 0 243.12 351.88
  L 226.51 373.67
  A 0.34 0.34 0.0 0 0 226.61 374.17
  L 236.83 380.17
  A 0.34 0.34 0.0 0 0 237.00 380.21
  L 245.97 380.40
  Z"
/>
<path fill="#ffffff" d="
  M 251.33 67.03
  Q 252.21 65.57 251.20 64.02
  Q 250.76 63.35 251.46 62.98
  Q 265.37 55.52 280.87 54.09
  C 285.09 53.70 290.71 53.54 293.72 56.92
  Q 299.01 62.87 307.07 69.72
  C 314.06 75.66 315.86 83.45 316.81 92.34
  Q 317.96 103.12 317.47 116.63
  C 317.23 123.15 316.32 129.58 314.67 135.84
  Q 313.26 141.19 308.38 145.42
  C 303.33 149.80 298.01 153.77 292.50 157.35
  C 286.66 161.13 280.77 162.73 273.55 163.57
  Q 267.30 164.30 260.83 165.39
  Q 250.73 167.07 242.63 160.00
  Q 240.86 158.47 240.17 156.47
  C 238.88 152.80 237.00 149.63 234.11 146.94
  Q 233.68 146.54 234.15 146.20
  Q 247.16 136.64 254.39 122.15
  Q 255.93 119.08 255.89 115.86
  A 0.09 0.09 0.0 0 1 256.07 115.84
  C 257.31 120.85 260.66 124.25 266.22 123.84
  Q 272.78 123.35 276.73 117.05
  C 279.16 113.18 280.30 107.60 277.43 103.68
  C 275.33 100.82 271.54 100.61 268.22 100.19
  C 266.05 99.90 263.84 98.61 261.71 99.78
  Q 257.65 102.01 257.13 107.03
  Q 257.12 107.10 257.06 107.13
  Q 257.02 107.15 256.97 107.14
  Q 256.91 107.14 256.91 107.08
  Q 257.48 98.15 257.22 87.44
  C 257.03 79.81 252.08 74.36 246.26 69.90
  Q 245.17 69.06 246.54 69.06
  Q 250.11 69.04 251.33 67.03
  Z"
/>
<path fill="#ffffff" d="
  M 208.14 62.90
  Q 211.25 60.80 208.52 57.27
  Q 208.10 56.72 208.77 56.92
  C 213.56 58.30 218.35 61.75 222.51 63.92
  Q 228.66 67.14 232.29 69.87
  Q 240.03 75.68 246.21 82.27
  C 247.80 83.98 248.26 86.26 248.26 88.54
  Q 248.28 99.90 248.22 109.28
  Q 248.18 116.42 243.15 123.93
  Q 232.45 139.88 214.65 148.31
  C 207.54 151.68 199.27 151.30 190.51 150.62
  C 181.79 149.94 174.85 147.20 168.74 140.92
  Q 162.34 134.35 158.05 128.47
  C 156.28 126.04 155.53 122.98 155.42 120.00
  C 154.85 105.64 159.94 90.56 165.85 77.74
  C 169.12 70.65 176.03 67.51 183.00 64.54
  Q 190.35 61.42 197.73 59.83
  Q 202.06 58.90 204.18 62.11
  A 2.85 2.84 -33.7 0 0 208.14 62.90
  Z
  M 225.67 99.87
  Q 223.81 100.80 221.65 100.46
  Q 220.96 100.35 220.39 100.75
  C 218.25 102.27 218.75 103.86 219.55 105.94
  Q 219.78 106.54 219.68 107.18
  C 218.76 113.13 219.79 120.24 226.59 122.01
  C 234.37 124.04 238.14 115.19 239.70 109.02
  Q 240.28 106.72 239.43 104.67
  Q 235.42 95.02 225.67 99.87
  Z"
/>
<path fill="#000000" d="
  M 225.67 99.87
  Q 235.42 95.02 239.43 104.67
  Q 240.28 106.72 239.70 109.02
  C 238.14 115.19 234.37 124.04 226.59 122.01
  C 219.79 120.24 218.76 113.13 219.68 107.18
  Q 219.78 106.54 219.55 105.94
  C 218.75 103.86 218.25 102.27 220.39 100.75
  Q 220.96 100.35 221.65 100.46
  Q 223.81 100.80 225.67 99.87
  Z"
/>
<path fill="#ffffff" d="
  M 170.64 296.37
  Q 158.31 291.42 148.20 282.53
  Q 137.49 273.11 127.37 266.13
  C 117.90 259.59 111.33 250.37 103.03 242.50
  C 97.43 237.19 92.91 232.11 89.10 225.15
  Q 84.04 215.90 81.63 208.80
  Q 79.48 202.49 77.37 196.30
  Q 76.38 193.42 76.46 190.42
  Q 76.64 183.49 77.87 178.27
  Q 80.12 168.79 87.25 157.33
  Q 93.86 146.69 99.60 137.51
  C 104.27 130.04 112.91 123.99 120.67 118.66
  C 128.85 113.06 137.15 111.31 147.39 111.56
  Q 147.92 111.57 147.86 112.09
  C 146.99 119.80 147.16 127.37 152.02 133.82
  C 161.10 145.87 170.70 156.80 186.57 158.70
  Q 192.73 159.43 199.87 159.61
  Q 207.65 159.79 213.04 158.11
  Q 220.47 155.78 226.85 151.53
  Q 227.29 151.24 227.63 151.64
  Q 231.00 155.61 232.54 159.95
  C 235.03 166.96 245.08 172.81 251.19 173.74
  C 259.50 175.00 267.84 172.83 276.06 171.83
  Q 282.26 171.07 285.10 170.22
  Q 291.99 168.18 299.03 163.30
  C 305.05 159.12 311.29 154.69 316.41 149.45
  C 322.34 143.39 324.03 135.18 324.84 126.97
  Q 324.90 126.40 325.09 126.94
  C 326.20 130.03 329.44 129.44 331.85 130.87
  Q 339.24 135.25 346.32 138.66
  C 349.51 140.20 352.20 145.34 354.15 148.25
  C 357.74 153.60 363.22 157.18 366.23 162.94
  Q 370.08 170.29 375.15 176.65
  Q 377.66 179.80 378.83 184.45
  Q 380.75 192.06 383.87 199.42
  Q 384.34 200.52 384.41 201.71
  C 384.99 212.16 384.01 221.68 379.87 231.47
  Q 376.25 240.00 372.71 251.35
  C 372.02 253.57 371.00 256.21 369.87 258.25
  Q 360.01 276.07 349.60 287.77
  Q 345.48 292.40 339.29 298.63
  C 330.62 307.34 320.05 314.07 309.12 318.90
  Q 302.01 322.05 293.42 323.37
  Q 274.48 326.29 254.79 322.29
  Q 246.87 320.68 237.52 319.43
  Q 234.99 319.09 228.15 317.09
  C 219.23 314.48 209.89 313.08 201.06 310.94
  C 196.57 309.84 192.29 307.54 188.20 305.14
  Q 178.80 299.63 170.64 296.37
  Z
  M 233.71 201.52
  A 0.17 0.16 -26.4 0 1 233.62 201.77
  L 224.32 204.83
  Q 221.91 205.62 221.77 208.16
  Q 221.74 208.72 221.95 209.20
  Q 223.20 212.17 226.27 211.20
  Q 231.90 209.41 236.82 207.71
  C 242.75 205.65 241.18 200.12 237.94 196.56
  C 234.73 193.03 231.30 190.53 226.90 188.80
  Q 223.90 187.62 221.37 185.66
  C 219.67 184.34 217.36 185.08 216.46 186.95
  C 215.15 189.70 218.84 192.34 220.83 193.20
  C 225.59 195.26 230.53 197.25 233.71 201.52
  Z
  M 252.82 264.92
  C 249.91 270.89 247.09 274.78 240.52 277.37
  Q 236.56 278.94 232.35 278.30
  Q 224.27 277.07 218.85 274.77
  Q 211.45 271.63 202.05 262.72
  C 195.36 256.38 191.16 244.64 191.26 236.20
  C 191.30 232.60 185.88 232.25 185.38 235.96
  Q 184.68 241.25 185.45 245.36
  C 187.09 254.06 191.27 262.92 198.16 269.34
  C 203.71 274.50 210.11 279.95 217.14 282.62
  C 223.76 285.14 233.97 287.85 241.12 285.56
  C 251.99 282.08 256.83 275.74 261.24 265.59
  C 264.56 257.95 266.26 247.48 263.73 239.62
  Q 262.91 237.05 260.21 236.89
  C 257.41 236.72 255.86 239.07 256.40 241.59
  Q 258.77 252.72 252.82 264.92
  Z"
/>
<path fill="#000000" d="
  M 233.71 201.52
  C 230.53 197.25 225.59 195.26 220.83 193.20
  C 218.84 192.34 215.15 189.70 216.46 186.95
  C 217.36 185.08 219.67 184.34 221.37 185.66
  Q 223.90 187.62 226.90 188.80
  C 231.30 190.53 234.73 193.03 237.94 196.56
  C 241.18 200.12 242.75 205.65 236.82 207.71
  Q 231.90 209.41 226.27 211.20
  Q 223.20 212.17 221.95 209.20
  Q 221.74 208.72 221.77 208.16
  Q 221.91 205.62 224.32 204.83
  L 233.62 201.77
  A 0.17 0.16 -26.4 0 0 233.71 201.52
  Z"
/>
<path fill="#000000" d="
  M 252.82 264.92
  Q 258.77 252.72 256.40 241.59
  C 255.86 239.07 257.41 236.72 260.21 236.89
  Q 262.91 237.05 263.73 239.62
  C 266.26 247.48 264.56 257.95 261.24 265.59
  C 256.83 275.74 251.99 282.08 241.12 285.56
  C 233.97 287.85 223.76 285.14 217.14 282.62
  C 210.11 279.95 203.71 274.50 198.16 269.34
  C 191.27 262.92 187.09 254.06 185.45 245.36
  Q 184.68 241.25 185.38 235.96
  C 185.88 232.25 191.30 232.60 191.26 236.20
  C 191.16 244.64 195.36 256.38 202.05 262.72
  Q 211.45 271.63 218.85 274.77
  Q 224.27 277.07 232.35 278.30
  Q 236.56 278.94 240.52 277.37
  C 247.09 274.78 249.91 270.89 252.82 264.92
  Z"
/>
<path fill="#000000" d="
  M 374.40 389.26
  Q 374.26 389.23 374.12 389.18
  A 2.34 2.31 79.8 0 1 373.35 388.64
  Q 371.72 386.88 372.89 384.72
  C 373.61 383.40 375.13 383.25 376.31 382.53
  Q 376.77 382.25 377.01 381.76
  C 380.93 373.80 382.99 364.76 384.93 356.28
  Q 387.10 346.76 390.38 336.47
  Q 390.82 335.06 392.28 334.81
  Q 399.09 333.62 406.16 333.84
  C 414.32 334.09 422.36 334.53 430.56 333.87
  Q 437.69 333.31 445.24 332.51
  Q 446.68 332.36 448.10 332.20
  Q 449.56 332.04 450.90 331.57
  Q 457.22 329.33 463.90 327.72
  Q 464.50 327.58 464.70 327.00
  C 465.65 324.21 469.36 321.06 472.03 324.13
  C 472.84 325.07 472.66 326.49 471.95 327.44
  Q 471.58 327.95 472.21 328.00
  C 474.71 328.19 481.26 329.40 480.65 333.01
  C 479.89 337.44 473.71 335.55 470.89 334.82
  Q 470.31 334.67 470.30 335.26
  Q 469.96 347.19 466.79 358.91
  Q 463.60 370.69 460.16 382.76
  Q 459.26 385.93 456.87 387.78
  Q 455.25 389.03 454.10 390.21
  Q 445.47 399.05 435.52 408.50
  C 432.97 410.92 431.55 413.47 430.21 416.52
  C 428.82 419.67 424.91 418.94 424.20 415.78
  A 0.50 0.50 0.0 0 0 423.70 415.39
  C 418.05 415.55 412.15 415.12 406.50 416.28
  Q 399.14 417.78 391.26 419.12
  Q 386.82 419.87 382.18 419.88
  C 377.59 419.89 373.15 421.04 368.56 421.02
  Q 360.95 420.98 353.53 420.78
  C 349.56 420.67 345.93 421.60 342.13 422.34
  C 339.19 422.91 335.74 422.39 336.23 418.44
  Q 336.28 418.05 335.89 417.96
  Q 332.90 417.23 331.31 414.50
  C 330.07 412.36 331.83 410.29 333.92 409.89
  A 1.67 1.63 -35.1 0 1 334.99 410.06
  L 336.74 411.01
  Q 337.24 411.28 337.70 410.95
  Q 350.96 401.60 364.11 395.36
  C 367.79 393.61 370.85 391.36 374.45 389.85
  Q 375.38 389.46 374.40 389.26
  Z
  M 384.65 380.92
  Q 384.26 381.85 383.70 382.65
  Q 383.33 383.18 383.98 383.19
  Q 397.94 383.48 402.44 382.79
  Q 426.32 379.11 447.95 378.25
  Q 449.39 378.20 453.47 379.36
  Q 453.97 379.50 454.11 379.00
  Q 457.83 365.52 461.22 353.50
  Q 463.60 345.08 464.05 336.22
  Q 464.13 334.67 462.67 335.20
  C 455.69 337.74 448.98 339.87 441.35 340.24
  Q 434.70 340.56 428.15 341.13
  C 423.35 341.55 418.10 341.37 413.29 341.06
  Q 404.91 340.52 397.02 340.85
  Q 395.27 340.93 394.83 342.62
  Q 392.07 353.12 388.91 367.48
  Q 387.42 374.27 384.65 380.92
  Z
  M 370.12 408.74
  C 368.05 408.04 367.83 404.82 369.76 403.78
  C 372.98 402.04 375.67 399.78 379.19 398.61
  Q 383.29 397.24 387.14 394.69
  C 389.41 393.18 392.04 392.64 394.71 392.60
  Q 408.78 392.36 422.73 392.60
  Q 427.40 392.68 431.24 394.35
  C 433.11 395.16 433.58 397.37 432.05 398.80
  Q 427.72 402.86 423.50 407.51
  Q 423.07 407.99 423.71 407.98
  L 425.94 407.95
  A 1.65 1.65 0.0 0 0 427.13 407.42
  C 434.10 399.88 442.14 393.32 449.43 386.25
  Q 449.87 385.83 449.26 385.85
  Q 428.36 386.79 407.06 389.77
  Q 400.58 390.67 395.05 390.63
  Q 388.46 390.57 382.37 390.47
  Q 381.69 390.45 382.07 391.02
  C 383.33 392.93 381.69 394.80 379.80 395.25
  C 375.37 396.31 371.79 399.16 367.62 401.16
  Q 356.03 406.74 342.89 415.07
  Q 342.45 415.35 342.93 415.17
  Q 346.28 413.92 349.50 413.79
  Q 358.37 413.43 366.66 413.49
  C 372.28 413.53 377.30 412.23 382.86 412.18
  C 387.14 412.14 391.18 411.29 395.31 410.59
  Q 395.37 410.58 395.39 410.53
  Q 395.41 410.48 395.38 410.43
  Q 395.34 410.38 395.28 410.38
  Q 379.98 411.69 375.15 411.65
  Q 373.60 411.64 372.53 409.90
  A 1.36 1.33 -5.6 0 0 371.82 409.33
  Q 370.98 409.03 370.12 408.74
  Z
  M 389.37 400.44
  C 386.28 402.87 382.64 404.07 378.92 405.16
  Q 377.41 405.61 378.98 405.43
  C 391.71 403.96 404.74 403.99 417.71 404.34
  Q 417.99 404.35 418.18 404.15
  L 423.31 399.03
  Q 423.40 398.93 423.27 398.94
  Q 409.27 399.06 395.26 398.87
  C 393.10 398.84 391.16 399.03 389.37 400.44
  Z"
/>
<path fill="#000000" d="
  M 323.85 350.43
  Q 327.08 349.88 329.46 353.10
  C 333.16 358.12 336.30 366.17 333.73 372.26
  C 332.71 374.67 330.12 379.35 326.89 378.17
  C 324.31 377.23 324.34 374.49 325.86 372.66
  C 327.77 370.37 328.70 368.10 327.93 365.00
  C 327.39 362.83 325.37 356.94 323.25 356.33
  Q 322.52 356.13 322.73 356.85
  C 323.26 358.66 324.03 360.90 322.60 362.50
  C 320.58 364.77 317.55 363.33 316.86 360.62
  C 315.65 355.94 315.28 351.22 318.03 347.10
  Q 320.78 342.96 323.85 339.94
  Q 326.62 337.20 326.46 332.68
  Q 326.35 329.48 329.51 329.08
  Q 330.11 329.00 330.71 329.28
  Q 332.87 330.28 332.99 332.66
  C 333.39 340.58 328.24 344.58 323.54 349.87
  Q 322.89 350.60 323.85 350.43
  Z"
/>
<path fill="#ffffff" d="
  M 384.65 380.92
  Q 387.42 374.27 388.91 367.48
  Q 392.07 353.12 394.83 342.62
  Q 395.27 340.93 397.02 340.85
  Q 404.91 340.52 413.29 341.06
  C 418.10 341.37 423.35 341.55 428.15 341.13
  Q 434.70 340.56 441.35 340.24
  C 448.98 339.87 455.69 337.74 462.67 335.20
  Q 464.13 334.67 464.05 336.22
  Q 463.60 345.08 461.22 353.50
  Q 457.83 365.52 454.11 379.00
  Q 453.97 379.50 453.47 379.36
  Q 449.39 378.20 447.95 378.25
  Q 426.32 379.11 402.44 382.79
  Q 397.94 383.48 383.98 383.19
  Q 383.33 383.18 383.70 382.65
  Q 384.26 381.85 384.65 380.92
  Z
  M 416.00 351.96
  C 413.35 351.74 410.26 348.99 408.00 351.01
  C 406.64 352.22 406.94 354.33 408.43 355.31
  C 411.85 357.57 415.52 358.53 419.39 357.76
  C 422.10 357.22 424.66 356.70 427.46 356.74
  Q 433.84 356.83 439.69 356.54
  Q 442.40 356.40 442.64 353.70
  Q 442.70 353.03 442.30 352.40
  Q 441.28 350.81 439.40 350.78
  Q 431.74 350.63 424.36 350.85
  C 422.34 350.91 418.80 352.19 416.00 351.96
  Z
  M 407.99 366.12
  C 404.07 364.81 399.91 365.58 395.83 364.81
  C 393.47 364.36 392.07 366.49 392.59 368.68
  A 1.75 1.72 -79.0 0 0 393.24 369.66
  C 396.80 372.29 402.53 370.84 406.78 372.00
  Q 412.71 373.62 420.59 372.72
  C 424.37 372.29 427.56 370.55 431.46 370.27
  C 437.70 369.82 443.45 367.92 449.37 366.71
  Q 451.48 366.28 451.72 364.14
  Q 451.87 362.83 450.37 361.60
  A 2.45 2.41 -29.1 0 0 448.46 361.07
  Q 442.31 361.97 436.59 363.75
  Q 433.49 364.72 430.35 364.79
  Q 430.29 364.79 430.28 364.74
  Q 430.27 364.69 430.28 364.64
  Q 430.30 364.56 430.38 364.55
  C 432.92 364.13 436.46 363.38 435.25 360.18
  C 434.57 358.39 432.38 358.23 430.78 358.60
  Q 423.16 360.36 416.03 362.40
  Q 413.94 362.99 411.79 362.06
  C 409.71 361.17 407.43 362.58 407.72 364.94
  Q 407.76 365.26 407.99 365.49
  L 408.23 365.73
  Q 408.92 366.43 407.99 366.12
  Z"
/>
<path fill="#000000" d="
  M 408.00 351.01
  C 410.26 348.99 413.35 351.74 416.00 351.96
  C 418.80 352.19 422.34 350.91 424.36 350.85
  Q 431.74 350.63 439.40 350.78
  Q 441.28 350.81 442.30 352.40
  Q 442.70 353.03 442.64 353.70
  Q 442.40 356.40 439.69 356.54
  Q 433.84 356.83 427.46 356.74
  C 424.66 356.70 422.10 357.22 419.39 357.76
  C 415.52 358.53 411.85 357.57 408.43 355.31
  C 406.94 354.33 406.64 352.22 408.00 351.01
  Z"
/>
<path fill="#ffffff" d="
  M 245.97 380.40
  L 237.00 380.21
  A 0.34 0.34 0.0 0 1 236.83 380.17
  L 226.61 374.17
  A 0.34 0.34 0.0 0 1 226.51 373.67
  L 243.12 351.88
  A 0.34 0.34 0.0 0 1 243.73 352.06
  L 246.31 380.03
  A 0.34 0.34 0.0 0 1 245.97 380.40
  Z"
/>
<path fill="#000000" d="
  M 408.23 365.73
  L 407.99 365.49
  Q 407.76 365.26 407.72 364.94
  C 407.43 362.58 409.71 361.17 411.79 362.06
  Q 413.94 362.99 416.03 362.40
  Q 423.16 360.36 430.78 358.60
  C 432.38 358.23 434.57 358.39 435.25 360.18
  C 436.46 363.38 432.92 364.13 430.38 364.55
  Q 430.30 364.56 430.28 364.64
  Q 430.27 364.69 430.28 364.74
  Q 430.29 364.79 430.35 364.79
  Q 433.49 364.72 436.59 363.75
  Q 442.31 361.97 448.46 361.07
  A 2.45 2.41 -29.1 0 1 450.37 361.60
  Q 451.87 362.83 451.72 364.14
  Q 451.48 366.28 449.37 366.71
  C 443.45 367.92 437.70 369.82 431.46 370.27
  C 427.56 370.55 424.37 372.29 420.59 372.72
  Q 412.71 373.62 406.78 372.00
  C 402.53 370.84 396.80 372.29 393.24 369.66
  A 1.75 1.72 -79.0 0 1 392.59 368.68
  C 392.07 366.49 393.47 364.36 395.83 364.81
  C 399.91 365.58 404.07 364.81 407.99 366.12
  Q 408.92 366.43 408.23 365.73
  Z"
/>
<path fill="#ffffff" d="
  M 370.12 408.74
  Q 370.98 409.03 371.82 409.33
  A 1.36 1.33 -5.6 0 1 372.53 409.90
  Q 373.60 411.64 375.15 411.65
  Q 379.98 411.69 395.28 410.38
  Q 395.34 410.38 395.38 410.43
  Q 395.41 410.48 395.39 410.53
  Q 395.37 410.58 395.31 410.59
  C 391.18 411.29 387.14 412.14 382.86 412.18
  C 377.30 412.23 372.28 413.53 366.66 413.49
  Q 358.37 413.43 349.50 413.79
  Q 346.28 413.92 342.93 415.17
  Q 342.45 415.35 342.89 415.07
  Q 356.03 406.74 367.62 401.16
  C 371.79 399.16 375.37 396.31 379.80 395.25
  C 381.69 394.80 383.33 392.93 382.07 391.02
  Q 381.69 390.45 382.37 390.47
  Q 388.46 390.57 395.05 390.63
  Q 400.58 390.67 407.06 389.77
  Q 428.36 386.79 449.26 385.85
  Q 449.87 385.83 449.43 386.25
  C 442.14 393.32 434.10 399.88 427.13 407.42
  A 1.65 1.65 0.0 0 1 425.94 407.95
  L 423.71 407.98
  Q 423.07 407.99 423.50 407.51
  Q 427.72 402.86 432.05 398.80
  C 433.58 397.37 433.11 395.16 431.24 394.35
  Q 427.40 392.68 422.73 392.60
  Q 408.78 392.36 394.71 392.60
  C 392.04 392.64 389.41 393.18 387.14 394.69
  Q 383.29 397.24 379.19 398.61
  C 375.67 399.78 372.98 402.04 369.76 403.78
  C 367.83 404.82 368.05 408.04 370.12 408.74
  Z"
/>
<path fill="#ffffff" d="
  M 378.92 405.16
  C 382.64 404.07 386.28 402.87 389.37 400.44
  C 391.16 399.03 393.10 398.84 395.26 398.87
  Q 409.27 399.06 423.27 398.94
  Q 423.40 398.93 423.31 399.03
  L 418.18 404.15
  Q 417.99 404.35 417.71 404.34
  C 404.74 403.99 391.71 403.96 378.98 405.43
  Q 377.41 405.61 378.92 405.16
  Z"
/>
</svg>
