<?xml version="1.0" encoding="UTF-8" standalone="no"?>
<!DOCTYPE svg PUBLIC "-//W3C//DTD SVG 1.1//EN" "http://www.w3.org/Graphics/SVG/1.1/DTD/svg11.dtd">
<svg xmlns="http://www.w3.org/2000/svg" version="1.1" viewBox="0.00 0.00 968.00 896.00">
<g stroke-width="2.00" fill="none" stroke-linecap="butt">
<path stroke="#808080" vector-effect="non-scaling-stroke" d="
  M 604.87 214.72
  Q 605.41 213.10 605.55 211.60
  Q 606.35 203.33 606.20 182.55
  C 606.06 162.11 604.52 142.23 598.39 123.83
  Q 593.82 110.09 582.64 99.38
  Q 577.18 94.16 570.52 88.72
  C 564.17 83.55 558.70 77.71 553.03 71.85
  Q 543.70 62.21 530.68 61.49
  Q 515.07 60.63 499.43 63.74
  C 479.63 67.66 463.29 73.43 447.35 83.28
  C 442.42 86.33 435.91 90.92 434.62 96.39
  Q 434.45 97.11 433.89 96.62
  Q 426.57 90.27 418.05 85.70
  Q 403.61 77.95 389.28 69.93
  Q 379.33 64.37 367.98 63.78
  Q 357.85 63.26 351.37 64.76
  Q 345.02 66.22 336.49 69.83
  Q 324.87 74.74 313.41 79.02
  Q 309.58 80.45 308.61 83.85
  Q 308.02 85.95 306.15 86.75
  C 291.42 93.07 279.01 102.19 272.04 116.99
  Q 263.82 134.46 256.17 159.58
  Q 253.15 169.51 251.94 176.94
  Q 251.84 177.59 251.18 177.54
  C 232.25 175.94 212.49 178.31 196.02 187.83
  C 185.47 193.93 174.69 201.38 165.08 208.95
  Q 155.00 216.90 146.76 226.49
  C 141.56 232.55 137.68 239.67 133.60 246.29
  Q 129.12 253.58 123.97 261.39
  C 113.41 277.42 103.02 295.39 97.09 312.60
  Q 94.50 320.12 93.27 328.54
  Q 91.24 342.43 91.80 355.86
  C 91.87 357.57 92.11 359.70 92.72 361.30
  Q 96.82 372.04 100.12 383.10
  C 105.04 399.56 112.72 416.09 120.99 430.24
  C 128.05 442.33 136.95 452.79 146.82 462.45
  C 156.53 471.94 162.43 478.20 169.72 486.54
  Q 178.18 496.22 187.95 504.54
  C 195.37 510.86 203.47 516.32 211.25 522.02
  C 221.07 529.22 230.50 537.43 240.03 545.45
  C 252.22 555.71 262.23 563.21 274.63 569.15
  Q 287.87 575.49 301.55 581.49
  C 310.07 585.22 318.18 590.13 326.29 594.87
  Q 340.17 602.97 355.93 606.86
  C 373.14 611.10 391.99 613.50 409.75 619.00
  Q 422.52 622.96 434.66 624.23
  Q 435.12 624.28 435.20 624.73
  L 439.12 647.31
  A 0.86 0.86 0.0 0 1 438.62 648.24
  C 433.73 650.35 429.40 652.66 425.72 656.68
  Q 409.53 674.36 397.22 692.80
  Q 390.78 702.44 387.33 713.38
  Q 386.26 716.80 386.52 720.06
  C 386.82 723.67 389.17 729.04 393.10 730.18
  Q 396.43 731.14 399.01 729.16
  Q 403.84 725.47 400.79 719.69
  Q 400.51 719.16 400.70 718.60
  Q 403.14 711.48 406.83 705.51
  Q 416.37 690.08 435.30 668.18
  Q 437.88 665.19 440.82 662.99
  A 0.38 0.37 -20.6 0 1 441.42 663.26
  C 443.30 689.57 445.39 715.15 449.11 742.20
  C 449.62 745.85 449.79 749.67 449.94 753.36
  Q 449.96 753.88 449.52 754.15
  Q 446.97 755.72 445.30 757.78
  Q 417.85 791.67 396.42 827.46
  C 393.94 831.60 389.95 841.54 392.82 846.57
  Q 394.62 849.72 397.95 850.25
  C 404.05 851.22 407.44 846.39 407.72 840.75
  C 407.92 836.60 411.92 831.10 414.10 827.64
  Q 432.75 798.08 454.69 769.79
  Q 455.00 769.39 455.50 769.31
  Q 456.99 769.08 458.26 770.00
  C 464.14 774.19 469.41 779.02 474.63 783.87
  Q 491.95 799.94 501.83 821.18
  Q 507.46 833.26 512.19 843.83
  C 515.82 851.90 528.20 846.82 524.49 838.04
  Q 517.98 822.59 510.60 808.40
  C 500.50 788.99 482.73 771.05 464.69 758.42
  Q 464.22 758.10 464.23 757.53
  Q 464.46 747.52 462.82 736.04
  Q 459.02 709.38 456.67 674.42
  Q 456.43 670.92 455.87 667.13
  Q 455.79 666.62 456.27 666.82
  Q 473.76 674.27 488.33 685.05
  C 496.60 691.16 504.90 699.44 507.56 709.55
  Q 509.25 715.99 509.36 723.20
  Q 509.44 728.36 510.36 732.79
  C 511.73 739.41 520.19 740.84 523.42 734.95
  Q 524.44 733.08 524.19 729.91
  Q 523.67 723.57 523.29 716.69
  Q 522.90 709.68 519.85 701.26
  C 516.11 690.91 507.20 681.74 498.43 675.05
  Q 483.86 663.93 467.50 656.53
  Q 462.64 654.34 457.75 652.14
  C 456.73 651.68 455.68 651.67 454.59 651.77
  Q 453.93 651.84 453.84 651.18
  Q 452.21 639.04 449.02 626.81
  Q 448.88 626.30 449.40 626.39
  C 462.87 628.89 476.46 631.86 490.05 632.92
  C 508.46 634.36 527.98 633.48 548.52 630.01
  C 563.26 627.51 578.28 621.96 591.39 614.83
  C 608.70 605.42 624.04 595.75 637.62 582.80
  Q 652.30 568.80 665.42 554.47
  C 670.83 548.57 676.19 541.95 680.69 535.55
  Q 689.92 522.43 701.22 504.64
  C 710.45 490.13 715.52 475.64 720.68 458.98
  C 723.76 449.05 728.10 439.36 731.87 430.01
  C 734.85 422.63 736.88 414.33 737.91 406.29
  Q 739.93 390.63 739.58 373.47
  C 739.50 369.12 738.57 364.35 736.84 360.54
  Q 731.16 347.97 728.27 336.12
  C 726.17 327.49 723.34 319.64 718.04 312.66
  Q 714.48 307.98 710.99 303.49
  C 706.07 297.17 702.45 289.76 698.40 282.78
  C 694.00 275.21 687.60 269.28 681.25 263.17
  C 678.55 260.57 675.77 257.03 674.11 254.41
  C 668.17 245.01 662.59 235.67 652.40 230.69
  C 645.09 227.13 637.84 223.72 630.89 219.30
  C 625.26 215.71 618.95 212.52 612.40 211.64
  Q 607.85 211.03 605.17 214.87
  Q 604.50 215.84 604.87 214.72"
/>
<path stroke="#808080" vector-effect="non-scaling-stroke" d="
  M 898.40 623.39
  Q 901.19 618.57 897.04 615.02
  C 895.67 613.85 893.39 613.37 891.71 613.98
  Q 885.31 616.32 883.27 623.18
  Q 883.10 623.78 882.47 623.84
  Q 876.58 624.44 872.55 625.84
  C 862.15 629.46 850.96 633.52 840.30 633.92
  Q 829.60 634.32 819.54 635.33
  Q 808.55 636.44 799.71 636.48
  Q 786.01 636.54 771.02 635.77
  Q 765.60 635.50 749.56 636.08
  C 746.13 636.20 743.26 637.58 739.97 637.95
  C 737.48 638.24 735.58 639.56 734.80 642.01
  Q 731.19 653.40 728.21 664.28
  Q 727.18 668.03 723.51 683.73
  Q 719.31 701.64 715.19 714.77
  Q 712.59 723.01 708.90 730.46
  Q 708.10 732.08 706.92 733.39
  Q 706.59 733.76 706.11 733.84
  C 699.12 734.97 696.45 742.92 702.61 747.08
  Q 703.21 747.49 702.56 747.80
  Q 696.49 750.78 690.49 754.85
  Q 688.45 756.24 686.32 757.11
  Q 678.10 760.51 671.36 764.23
  Q 649.37 776.38 628.80 790.44
  Q 628.07 790.94 627.53 790.24
  C 625.38 787.48 621.05 787.12 618.57 789.52
  C 612.49 795.40 620.35 803.11 626.28 803.90
  Q 626.87 803.98 626.76 804.56
  C 625.67 810.30 629.94 813.39 635.32 813.06
  C 642.99 812.58 650.56 809.69 656.16 809.75
  Q 675.06 809.96 694.83 810.10
  Q 697.66 810.12 701.01 809.60
  C 706.09 808.79 710.94 807.95 716.18 807.92
  C 725.44 807.86 734.13 807.20 743.17 805.19
  C 751.06 803.43 758.91 802.80 766.81 800.78
  Q 773.01 799.20 777.90 799.10
  Q 789.51 798.86 802.19 798.92
  A 0.53 0.53 0.0 0 1 802.71 799.37
  C 803.49 804.46 809.11 807.05 813.13 803.57
  C 815.01 801.93 815.15 799.50 816.63 797.60
  C 818.41 795.31 818.29 792.53 820.31 790.49
  C 834.75 775.83 850.77 761.32 864.95 745.84
  Q 865.92 744.77 867.20 744.21
  C 869.55 743.19 870.81 742.27 871.97 739.75
  C 873.41 736.65 874.67 733.82 875.61 730.56
  Q 879.55 716.82 887.99 685.56
  Q 894.67 660.81 894.99 638.25
  Q 895.00 637.56 895.67 637.71
  Q 901.60 639.07 908.29 639.78
  C 915.16 640.51 918.70 631.59 912.75 628.12
  Q 906.68 624.58 898.72 624.00
  Q 898.08 623.95 898.40 623.39"
/>
<path stroke="#808080" vector-effect="non-scaling-stroke" d="
  M 492.75 168.72
  C 502.59 169.08 511.21 172.81 512.43 183.80
  C 513.45 193.05 509.39 201.55 503.06 208.24
  Q 495.57 216.17 483.61 215.72
  C 475.35 215.40 472.20 211.30 468.22 204.84
  Q 467.30 203.35 467.11 201.60
  Q 466.94 199.98 466.65 201.59
  Q 465.74 206.74 463.41 211.79
  C 454.76 230.56 439.31 248.16 422.57 260.74
  Q 422.06 261.12 422.51 261.57
  Q 428.03 267.19 431.75 273.75
  C 433.07 276.09 433.91 278.75 434.78 281.28
  C 435.86 284.43 437.81 286.91 440.48 288.88
  Q 446.82 293.56 453.88 297.01
  C 459.31 299.66 465.80 299.41 471.77 299.15
  Q 477.63 298.90 483.09 297.87
  Q 492.69 296.07 501.66 295.07
  C 512.51 293.87 522.90 291.85 531.74 287.14
  Q 544.94 280.12 564.32 264.65
  C 572.56 258.07 580.58 250.97 583.32 241.05
  Q 587.73 225.08 589.02 207.69
  C 589.83 196.82 589.70 184.28 589.46 173.29
  Q 589.04 154.46 585.15 135.70
  Q 581.71 119.07 569.14 108.03
  Q 561.96 101.73 554.91 95.48
  Q 551.01 92.02 548.02 88.55
  C 544.10 84.00 539.08 77.93 533.22 76.78
  C 528.07 75.77 520.88 75.85 515.35 76.37
  C 495.39 78.26 474.28 84.19 456.63 94.70
  Q 456.09 95.02 456.47 95.53
  C 459.39 99.35 457.13 104.25 452.56 105.41
  Q 448.90 106.35 445.96 106.63
  A 0.22 0.22 0.0 0 0 445.85 107.02
  C 456.60 115.24 468.32 127.03 468.72 140.68
  Q 469.29 159.74 468.79 178.67
  Q 468.75 180.51 469.23 178.73
  C 470.97 172.26 477.31 164.43 484.94 166.99
  C 487.56 167.86 489.93 168.62 492.75 168.72"
/>
<path stroke="#808080" vector-effect="non-scaling-stroke" d="
  M 373.03 91.54
  Q 370.17 95.92 365.26 94.27
  C 361.51 93.01 361.38 88.24 356.79 87.75
  C 347.68 86.78 339.02 90.32 330.65 93.25
  Q 319.68 97.10 309.93 101.80
  C 302.73 105.29 294.07 110.72 289.68 117.29
  Q 286.22 122.47 282.96 130.31
  Q 276.17 146.60 270.13 167.18
  C 266.60 179.22 265.32 191.35 265.07 203.56
  C 264.86 213.82 266.91 221.16 273.30 228.91
  Q 282.72 240.33 291.40 249.49
  Q 307.73 266.72 331.66 268.95
  Q 345.61 270.25 363.51 269.90
  Q 367.04 269.83 370.29 269.07
  Q 382.21 266.30 393.67 259.64
  C 412.62 248.61 428.89 233.73 441.25 215.03
  Q 451.09 200.14 451.01 183.77
  Q 450.92 165.70 451.00 144.57
  Q 451.03 137.71 446.55 132.47
  Q 442.83 128.11 437.25 123.13
  Q 424.63 111.86 417.82 106.77
  C 412.74 102.97 407.02 100.03 401.35 97.12
  C 391.81 92.22 382.27 84.84 371.98 82.10
  Q 371.29 81.92 371.69 82.50
  C 373.41 85.03 374.86 88.75 373.03 91.54"
/>
<path stroke="#808080" vector-effect="non-scaling-stroke" d="
  M 457.95 315.83
  C 448.82 314.95 439.27 308.99 431.70 303.54
  C 425.78 299.26 421.56 294.23 419.31 287.86
  C 418.11 284.49 417.19 281.36 414.94 278.46
  Q 412.13 274.84 409.47 270.99
  Q 409.12 270.48 408.62 270.82
  Q 392.83 281.37 374.98 285.75
  Q 370.56 286.83 365.97 286.94
  C 351.55 287.30 336.33 287.25 322.49 284.70
  C 303.48 281.19 289.14 271.56 276.25 257.07
  Q 266.16 245.74 259.34 236.99
  Q 251.75 227.25 250.13 216.60
  Q 248.75 207.53 250.04 191.96
  Q 250.09 191.36 249.49 191.33
  C 234.54 190.54 216.88 192.70 204.20 200.22
  Q 183.44 212.51 167.16 227.43
  Q 157.54 236.25 154.06 242.14
  C 145.81 256.08 136.60 269.79 128.30 283.58
  C 119.18 298.74 110.70 315.46 108.51 333.06
  Q 107.30 342.77 107.28 352.45
  Q 107.27 355.75 108.60 359.19
  C 113.50 371.79 116.54 384.79 122.21 397.46
  C 130.39 415.72 139.54 432.93 153.98 446.72
  Q 165.86 458.07 172.71 465.65
  C 184.75 478.93 195.34 490.66 210.08 500.98
  Q 226.88 512.75 236.27 520.87
  Q 251.61 534.13 264.24 543.78
  Q 273.19 550.62 286.49 556.60
  Q 298.87 562.16 310.11 567.30
  Q 320.96 572.26 335.10 580.88
  Q 347.72 588.56 366.78 592.45
  C 380.47 595.25 394.64 597.59 408.13 601.46
  C 416.35 603.83 424.52 606.37 433.12 607.52
  Q 451.21 609.96 472.27 614.04
  Q 504.05 620.20 540.89 614.84
  Q 561.94 611.78 580.63 602.21
  C 594.78 594.96 610.57 585.61 622.18 575.32
  Q 633.87 564.97 651.96 545.52
  Q 661.13 535.66 667.11 527.12
  Q 679.13 509.97 689.12 493.54
  Q 696.86 480.84 701.23 466.50
  Q 707.53 445.88 715.48 427.45
  C 722.92 410.23 724.00 390.73 723.37 371.91
  C 723.31 370.19 722.67 368.53 722.02 366.94
  Q 715.48 351.10 712.15 337.26
  Q 709.77 327.42 703.39 319.53
  Q 696.59 311.13 692.09 303.38
  C 688.24 296.75 685.20 289.76 680.07 284.10
  C 673.33 276.67 665.85 270.28 660.69 261.71
  C 656.33 254.47 651.99 247.35 644.69 244.08
  Q 632.65 238.69 620.82 231.26
  Q 615.81 228.11 609.47 226.80
  Q 605.52 225.98 603.88 221.57
  Q 603.79 221.33 603.81 221.58
  Q 604.01 224.07 603.62 226.48
  Q 602.41 233.84 600.94 240.78
  C 598.00 254.60 590.98 264.34 580.61 273.25
  Q 562.47 288.81 543.07 300.48
  Q 528.58 309.21 511.19 311.07
  Q 499.25 312.36 485.63 314.77
  Q 472.01 317.18 457.95 315.83"
/>
<path stroke="#808080" vector-effect="non-scaling-stroke" d="
  M 393.99 181.30
  C 392.09 190.22 392.64 200.91 399.32 207.36
  C 405.28 213.11 414.81 215.03 421.56 209.22
  C 427.77 203.88 430.24 196.67 432.93 189.07
  C 435.28 182.47 433.91 177.86 430.63 172.08
  C 426.45 164.68 415.42 162.27 408.14 166.69
  C 406.61 167.63 402.21 169.80 400.31 169.03
  C 394.29 166.59 389.50 175.42 393.58 179.81
  Q 394.17 180.45 393.99 181.30"
/>
<path stroke="#808080" vector-effect="non-scaling-stroke" d="
  M 421.81 371.12
  A 0.35 0.35 0.0 0 1 421.64 371.68
  Q 412.66 374.39 403.00 377.74
  C 393.71 380.97 398.10 393.60 407.57 390.32
  Q 417.02 387.05 426.67 384.06
  C 437.64 380.64 438.24 371.47 432.14 363.54
  C 424.56 353.69 415.50 348.35 404.20 343.98
  Q 401.35 342.88 399.17 340.86
  C 395.89 337.83 391.73 336.51 388.33 340.46
  C 382.18 347.62 395.16 354.61 399.89 356.40
  C 408.69 359.71 415.64 363.49 421.81 371.12"
/>
<path stroke="#808080" vector-effect="non-scaling-stroke" d="
  M 463.01 491.10
  Q 460.32 497.56 455.67 505.71
  C 449.70 516.18 441.83 520.92 430.82 524.31
  Q 427.40 525.37 423.23 525.02
  Q 412.24 524.12 399.18 520.25
  Q 389.79 517.47 381.53 512.01
  C 371.75 505.55 362.58 497.85 354.58 489.38
  Q 350.35 484.89 347.69 479.55
  Q 342.57 469.26 338.70 456.37
  C 337.34 451.85 337.32 446.96 337.14 442.24
  C 337.00 438.51 335.63 434.80 331.30 434.78
  Q 325.75 434.75 325.12 440.15
  C 324.44 446.03 324.02 452.60 325.13 458.43
  Q 327.00 468.14 332.60 481.35
  C 339.62 497.90 352.58 509.27 366.28 520.09
  C 375.86 527.66 385.66 533.07 397.37 536.22
  C 407.96 539.08 419.39 541.71 430.02 540.67
  C 435.57 540.13 441.53 537.52 446.77 535.11
  Q 460.91 528.60 469.44 513.70
  Q 475.28 503.48 478.50 495.11
  Q 485.35 477.35 483.80 456.72
  Q 483.41 451.52 481.64 446.85
  C 478.87 439.54 469.19 440.27 467.02 447.71
  C 466.39 449.87 467.30 452.15 467.80 454.27
  Q 468.30 456.39 468.39 458.88
  Q 469.07 476.48 463.01 491.10"
/>
<path stroke="#808080" vector-effect="non-scaling-stroke" d="
  M 723.70 729.93
  Q 722.89 732.01 721.76 733.97
  Q 721.41 734.59 722.12 734.58
  Q 736.35 734.22 751.31 734.32
  Q 757.31 734.35 762.70 733.33
  C 772.35 731.49 782.15 730.04 791.96 729.23
  Q 799.68 728.59 809.98 727.38
  Q 825.71 725.53 844.31 724.73
  Q 854.48 724.30 861.78 727.00
  Q 862.28 727.19 862.42 726.67
  C 865.75 714.25 869.32 701.27 872.95 689.13
  Q 877.30 674.57 879.90 661.61
  Q 882.05 650.85 882.39 638.37
  A 0.33 0.33 0.0 0 0 881.98 638.04
  Q 874.54 640.02 867.37 642.63
  Q 853.20 647.77 838.19 648.36
  C 825.94 648.84 813.25 650.59 801.16 650.60
  Q 788.69 650.61 773.13 649.84
  Q 760.72 649.22 750.73 649.60
  Q 747.82 649.72 745.44 650.65
  A 1.33 1.33 0.0 0 0 744.65 651.52
  C 742.34 659.65 740.11 667.61 738.34 675.80
  C 734.32 694.34 730.64 712.30 723.70 729.93"
/>
<path stroke="#808080" vector-effect="non-scaling-stroke" d="
  M 718.55 749.29
  C 720.96 755.09 716.91 758.19 711.65 759.18
  Q 707.38 759.99 703.65 762.55
  Q 695.92 767.85 687.65 771.34
  Q 681.79 773.81 676.05 777.02
  Q 657.99 787.13 641.35 797.72
  Q 640.50 798.27 641.46 797.94
  Q 648.89 795.42 657.21 795.33
  Q 675.89 795.14 693.88 794.90
  Q 697.94 794.85 702.57 793.90
  C 707.63 792.86 713.02 792.63 718.17 792.50
  Q 729.95 792.22 741.26 789.69
  Q 741.38 789.67 741.36 789.55
  L 741.36 789.54
  Q 741.34 789.38 741.18 789.40
  Q 723.27 790.76 705.74 791.61
  Q 700.35 791.88 699.17 786.68
  Q 699.06 786.19 698.56 786.27
  C 693.06 787.18 689.50 781.54 692.45 776.92
  C 693.94 774.58 698.11 773.80 700.37 771.95
  C 704.85 768.28 709.42 766.31 714.88 764.56
  C 720.46 762.77 725.36 759.41 730.43 756.38
  C 734.18 754.14 738.80 753.35 742.93 753.29
  Q 762.95 753.00 793.12 753.09
  Q 804.96 753.12 813.84 755.45
  Q 816.72 756.21 818.30 757.62
  C 821.01 760.07 820.62 764.19 817.77 766.50
  Q 811.81 771.32 806.48 777.99
  Q 805.05 779.78 801.00 783.27
  A 0.12 0.12 0.0 0 0 801.07 783.48
  L 807.38 784.19
  Q 807.50 784.20 807.57 784.11
  C 818.36 771.89 830.73 761.44 842.60 750.75
  C 846.10 747.60 849.49 743.91 853.05 740.68
  Q 853.83 739.97 852.78 739.98
  Q 832.95 740.32 815.42 742.28
  C 804.31 743.52 793.72 744.42 782.70 745.48
  C 773.79 746.33 763.50 749.10 754.68 749.19
  Q 737.90 749.36 721.61 749.11
  Q 720.23 749.09 718.85 748.90
  Q 718.36 748.83 718.55 749.29"
/>
<path stroke="#808080" vector-effect="non-scaling-stroke" d="
  M 711.25 779.06
  Q 711.17 779.09 711.09 779.11
  Q 711.07 779.11 711.07 779.13
  Q 711.07 779.14 711.07 779.16
  Q 711.08 779.24 711.15 779.22
  Q 713.90 778.56 716.37 778.36
  Q 729.84 777.27 745.17 776.59
  C 759.68 775.95 774.71 776.40 789.29 776.60
  A 3.32 3.29 -67.6 0 0 791.73 775.57
  L 800.30 766.47
  Q 800.71 766.03 800.11 766.03
  Q 771.58 765.95 742.62 765.96
  C 739.51 765.96 736.75 766.21 734.10 768.26
  C 726.51 774.10 719.55 776.17 711.25 779.06"
/>
<path stroke="#808080" vector-effect="non-scaling-stroke" d="
  M 776.66 681.60
  Q 783.94 685.14 792.39 683.71
  C 797.63 682.82 802.64 681.30 808.04 681.50
  Q 819.69 681.95 834.72 681.08
  C 841.45 680.69 841.11 669.53 833.81 669.48
  Q 815.74 669.37 802.25 669.85
  C 795.56 670.09 788.86 673.91 782.20 671.10
  C 779.36 669.90 775.00 667.28 772.05 668.93
  Q 767.99 671.21 768.99 675.64
  C 769.70 678.79 774.06 680.33 776.66 681.60"
/>
<path stroke="#808080" vector-effect="non-scaling-stroke" d="
  M 816.69 697.00
  Q 819.22 697.11 821.57 696.12
  C 828.07 693.37 825.10 684.03 818.86 684.94
  C 808.09 686.51 796.92 690.13 786.20 692.93
  Q 782.13 694.00 778.35 692.33
  C 774.23 690.51 770.10 692.75 769.74 697.33
  Q 769.63 698.72 770.34 699.94
  Q 770.75 700.66 769.98 700.34
  C 762.77 697.32 755.15 699.78 747.69 697.88
  C 744.12 696.96 740.78 697.97 739.66 701.71
  C 736.63 711.83 755.52 710.75 760.62 710.67
  Q 763.54 710.63 766.24 711.50
  C 770.26 712.80 774.23 714.01 778.46 713.98
  C 784.85 713.95 792.32 714.73 798.49 713.15
  C 803.51 711.86 808.49 709.44 813.58 708.95
  Q 818.76 708.46 823.90 707.92
  Q 831.01 707.18 842.37 703.64
  Q 846.18 702.45 850.93 702.11
  C 860.77 701.41 859.41 688.98 850.14 690.32
  Q 840.58 691.70 831.95 694.34
  Q 828.32 695.45 824.51 696.29
  Q 820.76 697.10 816.80 697.46
  Q 816.66 697.47 816.65 697.33
  L 816.63 697.07
  A 0.06 0.06 0.0 0 1 816.69 697.00"
/>
</g>
<path fill="#ffffff" d="
  M 0.00 0.00
  L 968.00 0.00
  L 968.00 896.00
  L 0.00 896.00
  L 0.00 0.00
  Z
  M 604.87 214.72
  Q 605.41 213.10 605.55 211.60
  Q 606.35 203.33 606.20 182.55
  C 606.06 162.11 604.52 142.23 598.39 123.83
  Q 593.82 110.09 582.64 99.38
  Q 577.18 94.16 570.52 88.72
  C 564.17 83.55 558.70 77.71 553.03 71.85
  Q 543.70 62.21 530.68 61.49
  Q 515.07 60.63 499.43 63.74
  C 479.63 67.66 463.29 73.43 447.35 83.28
  C 442.42 86.33 435.91 90.92 434.62 96.39
  Q 434.45 97.11 433.89 96.62
  Q 426.57 90.27 418.05 85.70
  Q 403.61 77.95 389.28 69.93
  Q 379.33 64.37 367.98 63.78
  Q 357.85 63.26 351.37 64.76
  Q 345.02 66.22 336.49 69.83
  Q 324.87 74.74 313.41 79.02
  Q 309.58 80.45 308.61 83.85
  Q 308.02 85.95 306.15 86.75
  C 291.42 93.07 279.01 102.19 272.04 116.99
  Q 263.82 134.46 256.17 159.58
  Q 253.15 169.51 251.94 176.94
  Q 251.84 177.59 251.18 177.54
  C 232.25 175.94 212.49 178.31 196.02 187.83
  C 185.47 193.93 174.69 201.38 165.08 208.95
  Q 155.00 216.90 146.76 226.49
  C 141.56 232.55 137.68 239.67 133.60 246.29
  Q 129.12 253.58 123.97 261.39
  C 113.41 277.42 103.02 295.39 97.09 312.60
  Q 94.50 320.12 93.27 328.54
  Q 91.24 342.43 91.80 355.86
  C 91.87 357.57 92.11 359.70 92.72 361.30
  Q 96.82 372.04 100.12 383.10
  C 105.04 399.56 112.72 416.09 120.99 430.24
  C 128.05 442.33 136.95 452.79 146.82 462.45
  C 156.53 471.94 162.43 478.20 169.72 486.54
  Q 178.18 496.22 187.95 504.54
  C 195.37 510.86 203.47 516.32 211.25 522.02
  C 221.07 529.22 230.50 537.43 240.03 545.45
  C 252.22 555.71 262.23 563.21 274.63 569.15
  Q 287.87 575.49 301.55 581.49
  C 310.07 585.22 318.18 590.13 326.29 594.87
  Q 340.17 602.97 355.93 606.86
  C 373.14 611.10 391.99 613.50 409.75 619.00
  Q 422.52 622.96 434.66 624.23
  Q 435.12 624.28 435.20 624.73
  L 439.12 647.31
  A 0.86 0.86 0.0 0 1 438.62 648.24
  C 433.73 650.35 429.40 652.66 425.72 656.68
  Q 409.53 674.36 397.22 692.80
  Q 390.78 702.44 387.33 713.38
  Q 386.26 716.80 386.52 720.06
  C 386.82 723.67 389.17 729.04 393.10 730.18
  Q 396.43 731.14 399.01 729.16
  Q 403.84 725.47 400.79 719.69
  Q 400.51 719.16 400.70 718.60
  Q 403.14 711.48 406.83 705.51
  Q 416.37 690.08 435.30 668.18
  Q 437.88 665.19 440.82 662.99
  A 0.38 0.37 -20.6 0 1 441.42 663.26
  C 443.30 689.57 445.39 715.15 449.11 742.20
  C 449.62 745.85 449.79 749.67 449.94 753.36
  Q 449.96 753.88 449.52 754.15
  Q 446.97 755.72 445.30 757.78
  Q 417.85 791.67 396.42 827.46
  C 393.94 831.60 389.95 841.54 392.82 846.57
  Q 394.62 849.72 397.95 850.25
  C 404.05 851.22 407.44 846.39 407.72 840.75
  C 407.92 836.60 411.92 831.10 414.10 827.64
  Q 432.75 798.08 454.69 769.79
  Q 455.00 769.39 455.50 769.31
  Q 456.99 769.08 458.26 770.00
  C 464.14 774.19 469.41 779.02 474.63 783.87
  Q 491.95 799.94 501.83 821.18
  Q 507.46 833.26 512.19 843.83
  C 515.82 851.90 528.20 846.82 524.49 838.04
  Q 517.98 822.59 510.60 808.40
  C 500.50 788.99 482.73 771.05 464.69 758.42
  Q 464.22 758.10 464.23 757.53
  Q 464.46 747.52 462.82 736.04
  Q 459.02 709.38 456.67 674.42
  Q 456.43 670.92 455.87 667.13
  Q 455.79 666.62 456.27 666.82
  Q 473.76 674.27 488.33 685.05
  C 496.60 691.16 504.90 699.44 507.56 709.55
  Q 509.25 715.99 509.36 723.20
  Q 509.44 728.36 510.36 732.79
  C 511.73 739.41 520.19 740.84 523.42 734.95
  Q 524.44 733.08 524.19 729.91
  Q 523.67 723.57 523.29 716.69
  Q 522.90 709.68 519.85 701.26
  C 516.11 690.91 507.20 681.74 498.43 675.05
  Q 483.86 663.93 467.50 656.53
  Q 462.64 654.34 457.75 652.14
  C 456.73 651.68 455.68 651.67 454.59 651.77
  Q 453.93 651.84 453.84 651.18
  Q 452.21 639.04 449.02 626.81
  Q 448.88 626.30 449.40 626.39
  C 462.87 628.89 476.46 631.86 490.05 632.92
  C 508.46 634.36 527.98 633.48 548.52 630.01
  C 563.26 627.51 578.28 621.96 591.39 614.83
  C 608.70 605.42 624.04 595.75 637.62 582.80
  Q 652.30 568.80 665.42 554.47
  C 670.83 548.57 676.19 541.95 680.69 535.55
  Q 689.92 522.43 701.22 504.64
  C 710.45 490.13 715.52 475.64 720.68 458.98
  C 723.76 449.05 728.10 439.36 731.87 430.01
  C 734.85 422.63 736.88 414.33 737.91 406.29
  Q 739.93 390.63 739.58 373.47
  C 739.50 369.12 738.57 364.35 736.84 360.54
  Q 731.16 347.97 728.27 336.12
  C 726.17 327.49 723.34 319.64 718.04 312.66
  Q 714.48 307.98 710.99 303.49
  C 706.07 297.17 702.45 289.76 698.40 282.78
  C 694.00 275.21 687.60 269.28 681.25 263.17
  C 678.55 260.57 675.77 257.03 674.11 254.41
  C 668.17 245.01 662.59 235.67 652.40 230.69
  C 645.09 227.13 637.84 223.72 630.89 219.30
  C 625.26 215.71 618.95 212.52 612.40 211.64
  Q 607.85 211.03 605.17 214.87
  Q 604.50 215.84 604.87 214.72
  Z
  M 898.40 623.39
  Q 901.19 618.57 897.04 615.02
  C 895.67 613.85 893.39 613.37 891.71 613.98
  Q 885.31 616.32 883.27 623.18
  Q 883.10 623.78 882.47 623.84
  Q 876.58 624.44 872.55 625.84
  C 862.15 629.46 850.96 633.52 840.30 633.92
  Q 829.60 634.32 819.54 635.33
  Q 808.55 636.44 799.71 636.48
  Q 786.01 636.54 771.02 635.77
  Q 765.60 635.50 749.56 636.08
  C 746.13 636.20 743.26 637.58 739.97 637.95
  C 737.48 638.24 735.58 639.56 734.80 642.01
  Q 731.19 653.40 728.21 664.28
  Q 727.18 668.03 723.51 683.73
  Q 719.31 701.64 715.19 714.77
  Q 712.59 723.01 708.90 730.46
  Q 708.10 732.08 706.92 733.39
  Q 706.59 733.76 706.11 733.84
  C 699.12 734.97 696.45 742.92 702.61 747.08
  Q 703.21 747.49 702.56 747.80
  Q 696.49 750.78 690.49 754.85
  Q 688.45 756.24 686.32 757.11
  Q 678.10 760.51 671.36 764.23
  Q 649.37 776.38 628.80 790.44
  Q 628.07 790.94 627.53 790.24
  C 625.38 787.48 621.05 787.12 618.57 789.52
  C 612.49 795.40 620.35 803.11 626.28 803.90
  Q 626.87 803.98 626.76 804.56
  C 625.67 810.30 629.94 813.39 635.32 813.06
  C 642.99 812.58 650.56 809.69 656.16 809.75
  Q 675.06 809.96 694.83 810.10
  Q 697.66 810.12 701.01 809.60
  C 706.09 808.79 710.94 807.95 716.18 807.92
  C 725.44 807.86 734.13 807.20 743.17 805.19
  C 751.06 803.43 758.91 802.80 766.81 800.78
  Q 773.01 799.20 777.90 799.10
  Q 789.51 798.86 802.19 798.92
  A 0.53 0.53 0.0 0 1 802.71 799.37
  C 803.49 804.46 809.11 807.05 813.13 803.57
  C 815.01 801.93 815.15 799.50 816.63 797.60
  C 818.41 795.31 818.29 792.53 820.31 790.49
  C 834.75 775.83 850.77 761.32 864.95 745.84
  Q 865.92 744.77 867.20 744.21
  C 869.55 743.19 870.81 742.27 871.97 739.75
  C 873.41 736.65 874.67 733.82 875.61 730.56
  Q 879.55 716.82 887.99 685.56
  Q 894.67 660.81 894.99 638.25
  Q 895.00 637.56 895.67 637.71
  Q 901.60 639.07 908.29 639.78
  C 915.16 640.51 918.70 631.59 912.75 628.12
  Q 906.68 624.58 898.72 624.00
  Q 898.08 623.95 898.40 623.39
  Z"
/>
<path fill="#000000" d="
  M 605.17 214.87
  Q 607.85 211.03 612.40 211.64
  C 618.95 212.52 625.26 215.71 630.89 219.30
  C 637.84 223.72 645.09 227.13 652.40 230.69
  C 662.59 235.67 668.17 245.01 674.11 254.41
  C 675.77 257.03 678.55 260.57 681.25 263.17
  C 687.60 269.28 694.00 275.21 698.40 282.78
  C 702.45 289.76 706.07 297.17 710.99 303.49
  Q 714.48 307.98 718.04 312.66
  C 723.34 319.64 726.17 327.49 728.27 336.12
  Q 731.16 347.97 736.84 360.54
  C 738.57 364.35 739.50 369.12 739.58 373.47
  Q 739.93 390.63 737.91 406.29
  C 736.88 414.33 734.85 422.63 731.87 430.01
  C 728.10 439.36 723.76 449.05 720.68 458.98
  C 715.52 475.64 710.45 490.13 701.22 504.64
  Q 689.92 522.43 680.69 535.55
  C 676.19 541.95 670.83 548.57 665.42 554.47
  Q 652.30 568.80 637.62 582.80
  C 624.04 595.75 608.70 605.42 591.39 614.83
  C 578.28 621.96 563.26 627.51 548.52 630.01
  C 527.98 633.48 508.46 634.36 490.05 632.92
  C 476.46 631.86 462.87 628.89 449.40 626.39
  Q 448.88 626.30 449.02 626.81
  Q 452.21 639.04 453.84 651.18
  Q 453.93 651.84 454.59 651.77
  C 455.68 651.67 456.73 651.68 457.75 652.14
  Q 462.64 654.34 467.50 656.53
  Q 483.86 663.93 498.43 675.05
  C 507.20 681.74 516.11 690.91 519.85 701.26
  Q 522.90 709.68 523.29 716.69
  Q 523.67 723.57 524.19 729.91
  Q 524.44 733.08 523.42 734.95
  C 520.19 740.84 511.73 739.41 510.36 732.79
  Q 509.44 728.36 509.36 723.20
  Q 509.25 715.99 507.56 709.55
  C 504.90 699.44 496.60 691.16 488.33 685.05
  Q 473.76 674.27 456.27 666.82
  Q 455.79 666.62 455.87 667.13
  Q 456.43 670.92 456.67 674.42
  Q 459.02 709.38 462.82 736.04
  Q 464.46 747.52 464.23 757.53
  Q 464.22 758.10 464.69 758.42
  C 482.73 771.05 500.50 788.99 510.60 808.40
  Q 517.98 822.59 524.49 838.04
  C 528.20 846.82 515.82 851.90 512.19 843.83
  Q 507.46 833.26 501.83 821.18
  Q 491.95 799.94 474.63 783.87
  C 469.41 779.02 464.14 774.19 458.26 770.00
  Q 456.99 769.08 455.50 769.31
  Q 455.00 769.39 454.69 769.79
  Q 432.75 798.08 414.10 827.64
  C 411.92 831.10 407.92 836.60 407.72 840.75
  C 407.44 846.39 404.05 851.22 397.95 850.25
  Q 394.62 849.72 392.82 846.57
  C 389.95 841.54 393.94 831.60 396.42 827.46
  Q 417.85 791.67 445.30 757.78
  Q 446.97 755.72 449.52 754.15
  Q 449.96 753.88 449.94 753.36
  C 449.79 749.67 449.62 745.85 449.11 742.20
  C 445.39 715.15 443.30 689.57 441.42 663.26
  A 0.38 0.37 -20.6 0 0 440.82 662.99
  Q 437.88 665.19 435.30 668.18
  Q 416.37 690.08 406.83 705.51
  Q 403.14 711.48 400.70 718.60
  Q 400.51 719.16 400.79 719.69
  Q 403.84 725.47 399.01 729.16
  Q 396.43 731.14 393.10 730.18
  C 389.17 729.04 386.82 723.67 386.52 720.06
  Q 386.26 716.80 387.33 713.38
  Q 390.78 702.44 397.22 692.80
  Q 409.53 674.36 425.72 656.68
  C 429.40 652.66 433.73 650.35 438.62 648.24
  A 0.86 0.86 0.0 0 0 439.12 647.31
  L 435.20 624.73
  Q 435.12 624.28 434.66 624.23
  Q 422.52 622.96 409.75 619.00
  C 391.99 613.50 373.14 611.10 355.93 606.86
  Q 340.17 602.97 326.29 594.87
  C 318.18 590.13 310.07 585.22 301.55 581.49
  Q 287.87 575.49 274.63 569.15
  C 262.23 563.21 252.22 555.71 240.03 545.45
  C 230.50 537.43 221.07 529.22 211.25 522.02
  C 203.47 516.32 195.37 510.86 187.95 504.54
  Q 178.18 496.22 169.72 486.54
  C 162.43 478.20 156.53 471.94 146.82 462.45
  C 136.95 452.79 128.05 442.33 120.99 430.24
  C 112.72 416.09 105.04 399.56 100.12 383.10
  Q 96.82 372.04 92.72 361.30
  C 92.11 359.70 91.87 357.57 91.80 355.86
  Q 91.24 342.43 93.27 328.54
  Q 94.50 320.12 97.09 312.60
  C 103.02 295.39 113.41 277.42 123.97 261.39
  Q 129.12 253.58 133.60 246.29
  C 137.68 239.67 141.56 232.55 146.76 226.49
  Q 155.00 216.90 165.08 208.95
  C 174.69 201.38 185.47 193.93 196.02 187.83
  C 212.49 178.31 232.25 175.94 251.18 177.54
  Q 251.84 177.59 251.94 176.94
  Q 253.15 169.51 256.17 159.58
  Q 263.82 134.46 272.04 116.99
  C 279.01 102.19 291.42 93.07 306.15 86.75
  Q 308.02 85.95 308.61 83.85
  Q 309.58 80.45 313.41 79.02
  Q 324.87 74.74 336.49 69.83
  Q 345.02 66.22 351.37 64.76
  Q 357.85 63.26 367.98 63.78
  Q 379.33 64.37 389.28 69.93
  Q 403.61 77.95 418.05 85.70
  Q 426.57 90.27 433.89 96.62
  Q 434.45 97.11 434.62 96.39
  C 435.91 90.92 442.42 86.33 447.35 83.28
  C 463.29 73.43 479.63 67.66 499.43 63.74
  Q 515.07 60.63 530.68 61.49
  Q 543.70 62.21 553.03 71.85
  C 558.70 77.71 564.17 83.55 570.52 88.72
  Q 577.18 94.16 582.64 99.38
  Q 593.82 110.09 598.39 123.83
  C 604.52 142.23 606.06 162.11 606.20 182.55
  Q 606.35 203.33 605.55 211.60
  Q 605.41 213.10 604.87 214.72
  Q 604.50 215.84 605.17 214.87
  Z
  M 492.75 168.72
  C 502.59 169.08 511.21 172.81 512.43 183.80
  C 513.45 193.05 509.39 201.55 503.06 208.24
  Q 495.57 216.17 483.61 215.72
  C 475.35 215.40 472.20 211.30 468.22 204.84
  Q 467.30 203.35 467.11 201.60
  Q 466.94 199.98 466.65 201.59
  Q 465.74 206.74 463.41 211.79
  C 454.76 230.56 439.31 248.16 422.57 260.74
  Q 422.06 261.12 422.51 261.57
  Q 428.03 267.19 431.75 273.75
  C 433.07 276.09 433.91 278.75 434.78 281.28
  C 435.86 284.43 437.81 286.91 440.48 288.88
  Q 446.82 293.56 453.88 297.01
  C 459.31 299.66 465.80 299.41 471.77 299.15
  Q 477.63 298.90 483.09 297.87
  Q 492.69 296.07 501.66 295.07
  C 512.51 293.87 522.90 291.85 531.74 287.14
  Q 544.94 280.12 564.32 264.65
  C 572.56 258.07 580.58 250.97 583.32 241.05
  Q 587.73 225.08 589.02 207.69
  C 589.83 196.82 589.70 184.28 589.46 173.29
  Q 589.04 154.46 585.15 135.70
  Q 581.71 119.07 569.14 108.03
  Q 561.96 101.73 554.91 95.48
  Q 551.01 92.02 548.02 88.55
  C 544.10 84.00 539.08 77.93 533.22 76.78
  C 528.07 75.77 520.88 75.85 515.35 76.37
  C 495.39 78.26 474.28 84.19 456.63 94.70
  Q 456.09 95.02 456.47 95.53
  C 459.39 99.35 457.13 104.25 452.56 105.41
  Q 448.90 106.35 445.96 106.63
  A 0.22 0.22 0.0 0 0 445.85 107.02
  C 456.60 115.24 468.32 127.03 468.72 140.68
  Q 469.29 159.74 468.79 178.67
  Q 468.75 180.51 469.23 178.73
  C 470.97 172.26 477.31 164.43 484.94 166.99
  C 487.56 167.86 489.93 168.62 492.75 168.72
  Z
  M 373.03 91.54
  Q 370.17 95.92 365.26 94.27
  C 361.51 93.01 361.38 88.24 356.79 87.75
  C 347.68 86.78 339.02 90.32 330.65 93.25
  Q 319.68 97.10 309.93 101.80
  C 302.73 105.29 294.07 110.72 289.68 117.29
  Q 286.22 122.47 282.96 130.31
  Q 276.17 146.60 270.13 167.18
  C 266.60 179.22 265.32 191.35 265.07 203.56
  C 264.86 213.82 266.91 221.16 273.30 228.91
  Q 282.72 240.33 291.40 249.49
  Q 307.73 266.72 331.66 268.95
  Q 345.61 270.25 363.51 269.90
  Q 367.04 269.83 370.29 269.07
  Q 382.21 266.30 393.67 259.64
  C 412.62 248.61 428.89 233.73 441.25 215.03
  Q 451.09 200.14 451.01 183.77
  Q 450.92 165.70 451.00 144.57
  Q 451.03 137.71 446.55 132.47
  Q 442.83 128.11 437.25 123.13
  Q 424.63 111.86 417.82 106.77
  C 412.74 102.97 407.02 100.03 401.35 97.12
  C 391.81 92.22 382.27 84.84 371.98 82.10
  Q 371.29 81.92 371.69 82.50
  C 373.41 85.03 374.86 88.75 373.03 91.54
  Z
  M 457.95 315.83
  C 448.82 314.95 439.27 308.99 431.70 303.54
  C 425.78 299.26 421.56 294.23 419.31 287.86
  C 418.11 284.49 417.19 281.36 414.94 278.46
  Q 412.13 274.84 409.47 270.99
  Q 409.12 270.48 408.62 270.82
  Q 392.83 281.37 374.98 285.75
  Q 370.56 286.83 365.97 286.94
  C 351.55 287.30 336.33 287.25 322.49 284.70
  C 303.48 281.19 289.14 271.56 276.25 257.07
  Q 266.16 245.74 259.34 236.99
  Q 251.75 227.25 250.13 216.60
  Q 248.75 207.53 250.04 191.96
  Q 250.09 191.36 249.49 191.33
  C 234.54 190.54 216.88 192.70 204.20 200.22
  Q 183.44 212.51 167.16 227.43
  Q 157.54 236.25 154.06 242.14
  C 145.81 256.08 136.60 269.79 128.30 283.58
  C 119.18 298.74 110.70 315.46 108.51 333.06
  Q 107.30 342.77 107.28 352.45
  Q 107.27 355.75 108.60 359.19
  C 113.50 371.79 116.54 384.79 122.21 397.46
  C 130.39 415.72 139.54 432.93 153.98 446.72
  Q 165.86 458.07 172.71 465.65
  C 184.75 478.93 195.34 490.66 210.08 500.98
  Q 226.88 512.75 236.27 520.87
  Q 251.61 534.13 264.24 543.78
  Q 273.19 550.62 286.49 556.60
  Q 298.87 562.16 310.11 567.30
  Q 320.96 572.26 335.10 580.88
  Q 347.72 588.56 366.78 592.45
  C 380.47 595.25 394.64 597.59 408.13 601.46
  C 416.35 603.83 424.52 606.37 433.12 607.52
  Q 451.21 609.96 472.27 614.04
  Q 504.05 620.20 540.89 614.84
  Q 561.94 611.78 580.63 602.21
  C 594.78 594.96 610.57 585.61 622.18 575.32
  Q 633.87 564.97 651.96 545.52
  Q 661.13 535.66 667.11 527.12
  Q 679.13 509.97 689.12 493.54
  Q 696.86 480.84 701.23 466.50
  Q 707.53 445.88 715.48 427.45
  C 722.92 410.23 724.00 390.73 723.37 371.91
  C 723.31 370.19 722.67 368.53 722.02 366.94
  Q 715.48 351.10 712.15 337.26
  Q 709.77 327.42 703.39 319.53
  Q 696.59 311.13 692.09 303.38
  C 688.24 296.75 685.20 289.76 680.07 284.10
  C 673.33 276.67 665.85 270.28 660.69 261.71
  C 656.33 254.47 651.99 247.35 644.69 244.08
  Q 632.65 238.69 620.82 231.26
  Q 615.81 228.11 609.47 226.80
  Q 605.52 225.98 603.88 221.57
  Q 603.79 221.33 603.81 221.58
  Q 604.01 224.07 603.62 226.48
  Q 602.41 233.84 600.94 240.78
  C 598.00 254.60 590.98 264.34 580.61 273.25
  Q 562.47 288.81 543.07 300.48
  Q 528.58 309.21 511.19 311.07
  Q 499.25 312.36 485.63 314.77
  Q 472.01 317.18 457.95 315.83
  Z"
/>
<path fill="#ffffff" d="
  M 512.43 183.80
  C 511.21 172.81 502.59 169.08 492.75 168.72
  C 489.93 168.62 487.56 167.86 484.94 166.99
  C 477.31 164.43 470.97 172.26 469.23 178.73
  Q 468.75 180.51 468.79 178.67
  Q 469.29 159.74 468.72 140.68
  C 468.32 127.03 456.60 115.24 445.85 107.02
  A 0.22 0.22 0.0 0 1 445.96 106.63
  Q 448.90 106.35 452.56 105.41
  C 457.13 104.25 459.39 99.35 456.47 95.53
  Q 456.09 95.02 456.63 94.70
  C 474.28 84.19 495.39 78.26 515.35 76.37
  C 520.88 75.85 528.07 75.77 533.22 76.78
  C 539.08 77.93 544.10 84.00 548.02 88.55
  Q 551.01 92.02 554.91 95.48
  Q 561.96 101.73 569.14 108.03
  Q 581.71 119.07 585.15 135.70
  Q 589.04 154.46 589.46 173.29
  C 589.70 184.28 589.83 196.82 589.02 207.69
  Q 587.73 225.08 583.32 241.05
  C 580.58 250.97 572.56 258.07 564.32 264.65
  Q 544.94 280.12 531.74 287.14
  C 522.90 291.85 512.51 293.87 501.66 295.07
  Q 492.69 296.07 483.09 297.87
  Q 477.63 298.90 471.77 299.15
  C 465.80 299.41 459.31 299.66 453.88 297.01
  Q 446.82 293.56 440.48 288.88
  C 437.81 286.91 435.86 284.43 434.78 281.28
  C 433.91 278.75 433.07 276.09 431.75 273.75
  Q 428.03 267.19 422.51 261.57
  Q 422.06 261.12 422.57 260.74
  C 439.31 248.16 454.76 230.56 463.41 211.79
  Q 465.74 206.74 466.65 201.59
  Q 466.94 199.98 467.11 201.60
  Q 467.30 203.35 468.22 204.84
  C 472.20 211.30 475.35 215.40 483.61 215.72
  Q 495.57 216.17 503.06 208.24
  C 509.39 201.55 513.45 193.05 512.43 183.80
  Z"
/>
<path fill="#ffffff" d="
  M 373.03 91.54
  C 374.86 88.75 373.41 85.03 371.69 82.50
  Q 371.29 81.92 371.98 82.10
  C 382.27 84.84 391.81 92.22 401.35 97.12
  C 407.02 100.03 412.74 102.97 417.82 106.77
  Q 424.63 111.86 437.25 123.13
  Q 442.83 128.11 446.55 132.47
  Q 451.03 137.71 451.00 144.57
  Q 450.92 165.70 451.01 183.77
  Q 451.09 200.14 441.25 215.03
  C 428.89 233.73 412.62 248.61 393.67 259.64
  Q 382.21 266.30 370.29 269.07
  Q 367.04 269.83 363.51 269.90
  Q 345.61 270.25 331.66 268.95
  Q 307.73 266.72 291.40 249.49
  Q 282.72 240.33 273.30 228.91
  C 266.91 221.16 264.86 213.82 265.07 203.56
  C 265.32 191.35 266.60 179.22 270.13 167.18
  Q 276.17 146.60 282.96 130.31
  Q 286.22 122.47 289.68 117.29
  C 294.07 110.72 302.73 105.29 309.93 101.80
  Q 319.68 97.10 330.65 93.25
  C 339.02 90.32 347.68 86.78 356.79 87.75
  C 361.38 88.24 361.51 93.01 365.26 94.27
  Q 370.17 95.92 373.03 91.54
  Z
  M 393.99 181.30
  C 392.09 190.22 392.64 200.91 399.32 207.36
  C 405.28 213.11 414.81 215.03 421.56 209.22
  C 427.77 203.88 430.24 196.67 432.93 189.07
  C 435.28 182.47 433.91 177.86 430.63 172.08
  C 426.45 164.68 415.42 162.27 408.14 166.69
  C 406.61 167.63 402.21 169.80 400.31 169.03
  C 394.29 166.59 389.50 175.42 393.58 179.81
  Q 394.17 180.45 393.99 181.30
  Z"
/>
<path fill="#000000" d="
  M 393.58 179.81
  C 389.50 175.42 394.29 166.59 400.31 169.03
  C 402.21 169.80 406.61 167.63 408.14 166.69
  C 415.42 162.27 426.45 164.68 430.63 172.08
  C 433.91 177.86 435.28 182.47 432.93 189.07
  C 430.24 196.67 427.77 203.88 421.56 209.22
  C 414.81 215.03 405.28 213.11 399.32 207.36
  C 392.64 200.91 392.09 190.22 393.99 181.30
  Q 394.17 180.45 393.58 179.81
  Z"
/>
<path fill="#ffffff" d="
  M 431.70 303.54
  C 439.27 308.99 448.82 314.95 457.95 315.83
  Q 472.01 317.18 485.63 314.77
  Q 499.25 312.36 511.19 311.07
  Q 528.58 309.21 543.07 300.48
  Q 562.47 288.81 580.61 273.25
  C 590.98 264.34 598.00 254.60 600.94 240.78
  Q 602.41 233.84 603.62 226.48
  Q 604.01 224.07 603.81 221.58
  Q 603.79 221.33 603.88 221.57
  Q 605.52 225.98 609.47 226.80
  Q 615.81 228.11 620.82 231.26
  Q 632.65 238.69 644.69 244.08
  C 651.99 247.35 656.33 254.47 660.69 261.71
  C 665.85 270.28 673.33 276.67 680.07 284.10
  C 685.20 289.76 688.24 296.75 692.09 303.38
  Q 696.59 311.13 703.39 319.53
  Q 709.77 327.42 712.15 337.26
  Q 715.48 351.10 722.02 366.94
  C 722.67 368.53 723.31 370.19 723.37 371.91
  C 724.00 390.73 722.92 410.23 715.48 427.45
  Q 707.53 445.88 701.23 466.50
  Q 696.86 480.84 689.12 493.54
  Q 679.13 509.97 667.11 527.12
  Q 661.13 535.66 651.96 545.52
  Q 633.87 564.97 622.18 575.32
  C 610.57 585.61 594.78 594.96 580.63 602.21
  Q 561.94 611.78 540.89 614.84
  Q 504.05 620.20 472.27 614.04
  Q 451.21 609.96 433.12 607.52
  C 424.52 606.37 416.35 603.83 408.13 601.46
  C 394.64 597.59 380.47 595.25 366.78 592.45
  Q 347.72 588.56 335.10 580.88
  Q 320.96 572.26 310.11 567.30
  Q 298.87 562.16 286.49 556.60
  Q 273.19 550.62 264.24 543.78
  Q 251.61 534.13 236.27 520.87
  Q 226.88 512.75 210.08 500.98
  C 195.34 490.66 184.75 478.93 172.71 465.65
  Q 165.86 458.07 153.98 446.72
  C 139.54 432.93 130.39 415.72 122.21 397.46
  C 116.54 384.79 113.50 371.79 108.60 359.19
  Q 107.27 355.75 107.28 352.45
  Q 107.30 342.77 108.51 333.06
  C 110.70 315.46 119.18 298.74 128.30 283.58
  C 136.60 269.79 145.81 256.08 154.06 242.14
  Q 157.54 236.25 167.16 227.43
  Q 183.44 212.51 204.20 200.22
  C 216.88 192.70 234.54 190.54 249.49 191.33
  Q 250.09 191.36 250.04 191.96
  Q 248.75 207.53 250.13 216.60
  Q 251.75 227.25 259.34 236.99
  Q 266.16 245.74 276.25 257.07
  C 289.14 271.56 303.48 281.19 322.49 284.70
  C 336.33 287.25 351.55 287.30 365.97 286.94
  Q 370.56 286.83 374.98 285.75
  Q 392.83 281.37 408.62 270.82
  Q 409.12 270.48 409.47 270.99
  Q 412.13 274.84 414.94 278.46
  C 417.19 281.36 418.11 284.49 419.31 287.86
  C 421.56 294.23 425.78 299.26 431.70 303.54
  Z
  M 421.81 371.12
  A 0.35 0.35 0.0 0 1 421.64 371.68
  Q 412.66 374.39 403.00 377.74
  C 393.71 380.97 398.10 393.60 407.57 390.32
  Q 417.02 387.05 426.67 384.06
  C 437.64 380.64 438.24 371.47 432.14 363.54
  C 424.56 353.69 415.50 348.35 404.20 343.98
  Q 401.35 342.88 399.17 340.86
  C 395.89 337.83 391.73 336.51 388.33 340.46
  C 382.18 347.62 395.16 354.61 399.89 356.40
  C 408.69 359.71 415.64 363.49 421.81 371.12
  Z
  M 463.01 491.10
  Q 460.32 497.56 455.67 505.71
  C 449.70 516.18 441.83 520.92 430.82 524.31
  Q 427.40 525.37 423.23 525.02
  Q 412.24 524.12 399.18 520.25
  Q 389.79 517.47 381.53 512.01
  C 371.75 505.55 362.58 497.85 354.58 489.38
  Q 350.35 484.89 347.69 479.55
  Q 342.57 469.26 338.70 456.37
  C 337.34 451.85 337.32 446.96 337.14 442.24
  C 337.00 438.51 335.63 434.80 331.30 434.78
  Q 325.75 434.75 325.12 440.15
  C 324.44 446.03 324.02 452.60 325.13 458.43
  Q 327.00 468.14 332.60 481.35
  C 339.62 497.90 352.58 509.27 366.28 520.09
  C 375.86 527.66 385.66 533.07 397.37 536.22
  C 407.96 539.08 419.39 541.71 430.02 540.67
  C 435.57 540.13 441.53 537.52 446.77 535.11
  Q 460.91 528.60 469.44 513.70
  Q 475.28 503.48 478.50 495.11
  Q 485.35 477.35 483.80 456.72
  Q 483.41 451.52 481.64 446.85
  C 478.87 439.54 469.19 440.27 467.02 447.71
  C 466.39 449.87 467.30 452.15 467.80 454.27
  Q 468.30 456.39 468.39 458.88
  Q 469.07 476.48 463.01 491.10
  Z"
/>
<path fill="#000000" d="
  M 421.81 371.12
  C 415.64 363.49 408.69 359.71 399.89 356.40
  C 395.16 354.61 382.18 347.62 388.33 340.46
  C 391.73 336.51 395.89 337.83 399.17 340.86
  Q 401.35 342.88 404.20 343.98
  C 415.50 348.35 424.56 353.69 432.14 363.54
  C 438.24 371.47 437.64 380.64 426.67 384.06
  Q 417.02 387.05 407.57 390.32
  C 398.10 393.60 393.71 380.97 403.00 377.74
  Q 412.66 374.39 421.64 371.68
  A 0.35 0.35 0.0 0 0 421.81 371.12
  Z"
/>
<path fill="#000000" d="
  M 463.01 491.10
  Q 469.07 476.48 468.39 458.88
  Q 468.30 456.39 467.80 454.27
  C 467.30 452.15 466.39 449.87 467.02 447.71
  C 469.19 440.27 478.87 439.54 481.64 446.85
  Q 483.41 451.52 483.80 456.72
  Q 485.35 477.35 478.50 495.11
  Q 475.28 503.48 469.44 513.70
  Q 460.91 528.60 446.77 535.11
  C 441.53 537.52 435.57 540.13 430.02 540.67
  C 419.39 541.71 407.96 539.08 397.37 536.22
  C 385.66 533.07 375.86 527.66 366.28 520.09
  C 352.58 509.27 339.62 497.90 332.60 481.35
  Q 327.00 468.14 325.13 458.43
  C 324.02 452.60 324.44 446.03 325.12 440.15
  Q 325.75 434.75 331.30 434.78
  C 335.63 434.80 337.00 438.51 337.14 442.24
  C 337.32 446.96 337.34 451.85 338.70 456.37
  Q 342.57 469.26 347.69 479.55
  Q 350.35 484.89 354.58 489.38
  C 362.58 497.85 371.75 505.55 381.53 512.01
  Q 389.79 517.47 399.18 520.25
  Q 412.24 524.12 423.23 525.02
  Q 427.40 525.37 430.82 524.31
  C 441.83 520.92 449.70 516.18 455.67 505.71
  Q 460.32 497.56 463.01 491.10
  Z"
/>
<path fill="#000000" d="
  M 898.72 624.00
  Q 906.68 624.58 912.75 628.12
  C 918.70 631.59 915.16 640.51 908.29 639.78
  Q 901.60 639.07 895.67 637.71
  Q 895.00 637.56 894.99 638.25
  Q 894.67 660.81 887.99 685.56
  Q 879.55 716.82 875.61 730.56
  C 874.67 733.82 873.41 736.65 871.97 739.75
  C 870.81 742.27 869.55 743.19 867.20 744.21
  Q 865.92 744.77 864.95 745.84
  C 850.77 761.32 834.75 775.83 820.31 790.49
  C 818.29 792.53 818.41 795.31 816.63 797.60
  C 815.15 799.50 815.01 801.93 813.13 803.57
  C 809.11 807.05 803.49 804.46 802.71 799.37
  A 0.53 0.53 0.0 0 0 802.19 798.92
  Q 789.51 798.86 777.90 799.10
  Q 773.01 799.20 766.81 800.78
  C 758.91 802.80 751.06 803.43 743.17 805.19
  C 734.13 807.20 725.44 807.86 716.18 807.92
  C 710.94 807.95 706.09 808.79 701.01 809.60
  Q 697.66 810.12 694.83 810.10
  Q 675.06 809.96 656.16 809.75
  C 650.56 809.69 642.99 812.58 635.32 813.06
  C 629.94 813.39 625.67 810.30 626.76 804.56
  Q 626.87 803.98 626.28 803.90
  C 620.35 803.11 612.49 795.40 618.57 789.52
  C 621.05 787.12 625.38 787.48 627.53 790.24
  Q 628.07 790.94 628.80 790.44
  Q 649.37 776.38 671.36 764.23
  Q 678.10 760.51 686.32 757.11
  Q 688.45 756.24 690.49 754.85
  Q 696.49 750.78 702.56 747.80
  Q 703.21 747.49 702.61 747.08
  C 696.45 742.92 699.12 734.97 706.11 733.84
  Q 706.59 733.76 706.92 733.39
  Q 708.10 732.08 708.90 730.46
  Q 712.59 723.01 715.19 714.77
  Q 719.31 701.64 723.51 683.73
  Q 727.18 668.03 728.21 664.28
  Q 731.19 653.40 734.80 642.01
  C 735.58 639.56 737.48 638.24 739.97 637.95
  C 743.26 637.58 746.13 636.20 749.56 636.08
  Q 765.60 635.50 771.02 635.77
  Q 786.01 636.54 799.71 636.48
  Q 808.55 636.44 819.54 635.33
  Q 829.60 634.32 840.30 633.92
  C 850.96 633.52 862.15 629.46 872.55 625.84
  Q 876.58 624.44 882.47 623.84
  Q 883.10 623.78 883.27 623.18
  Q 885.31 616.32 891.71 613.98
  C 893.39 613.37 895.67 613.85 897.04 615.02
  Q 901.19 618.57 898.40 623.39
  Q 898.08 623.95 898.72 624.00
  Z
  M 723.70 729.93
  Q 722.89 732.01 721.76 733.97
  Q 721.41 734.59 722.12 734.58
  Q 736.35 734.22 751.31 734.32
  Q 757.31 734.35 762.70 733.33
  C 772.35 731.49 782.15 730.04 791.96 729.23
  Q 799.68 728.59 809.98 727.38
  Q 825.71 725.53 844.31 724.73
  Q 854.48 724.30 861.78 727.00
  Q 862.28 727.19 862.42 726.67
  C 865.75 714.25 869.32 701.27 872.95 689.13
  Q 877.30 674.57 879.90 661.61
  Q 882.05 650.85 882.39 638.37
  A 0.33 0.33 0.0 0 0 881.98 638.04
  Q 874.54 640.02 867.37 642.63
  Q 853.20 647.77 838.19 648.36
  C 825.94 648.84 813.25 650.59 801.16 650.60
  Q 788.69 650.61 773.13 649.84
  Q 760.72 649.22 750.73 649.60
  Q 747.82 649.72 745.44 650.65
  A 1.33 1.33 0.0 0 0 744.65 651.52
  C 742.34 659.65 740.11 667.61 738.34 675.80
  C 734.32 694.34 730.64 712.30 723.70 729.93
  Z
  M 718.55 749.29
  C 720.96 755.09 716.91 758.19 711.65 759.18
  Q 707.38 759.99 703.65 762.55
  Q 695.92 767.85 687.65 771.34
  Q 681.79 773.81 676.05 777.02
  Q 657.99 787.13 641.35 797.72
  Q 640.50 798.27 641.46 797.94
  Q 648.89 795.42 657.21 795.33
  Q 675.89 795.14 693.88 794.90
  Q 697.94 794.85 702.57 793.90
  C 707.63 792.86 713.02 792.63 718.17 792.50
  Q 729.95 792.22 741.26 789.69
  Q 741.38 789.67 741.36 789.55
  L 741.36 789.54
  Q 741.34 789.38 741.18 789.40
  Q 723.27 790.76 705.74 791.61
  Q 700.35 791.88 699.17 786.68
  Q 699.06 786.19 698.56 786.27
  C 693.06 787.18 689.50 781.54 692.45 776.92
  C 693.94 774.58 698.11 773.80 700.37 771.95
  C 704.85 768.28 709.42 766.31 714.88 764.56
  C 720.46 762.77 725.36 759.41 730.43 756.38
  C 734.18 754.14 738.80 753.35 742.93 753.29
  Q 762.95 753.00 793.12 753.09
  Q 804.96 753.12 813.84 755.45
  Q 816.72 756.21 818.30 757.62
  C 821.01 760.07 820.62 764.19 817.77 766.50
  Q 811.81 771.32 806.48 777.99
  Q 805.05 779.78 801.00 783.27
  A 0.12 0.12 0.0 0 0 801.07 783.48
  L 807.38 784.19
  Q 807.50 784.20 807.57 784.11
  C 818.36 771.89 830.73 761.44 842.60 750.75
  C 846.10 747.60 849.49 743.91 853.05 740.68
  Q 853.83 739.97 852.78 739.98
  Q 832.95 740.32 815.42 742.28
  C 804.31 743.52 793.72 744.42 782.70 745.48
  C 773.79 746.33 763.50 749.10 754.68 749.19
  Q 737.90 749.36 721.61 749.11
  Q 720.23 749.09 718.85 748.90
  Q 718.36 748.83 718.55 749.29
  Z
  M 711.25 779.06
  Q 711.17 779.09 711.09 779.11
  Q 711.07 779.11 711.07 779.13
  Q 711.07 779.14 711.07 779.16
  Q 711.08 779.24 711.15 779.22
  Q 713.90 778.56 716.37 778.36
  Q 729.84 777.27 745.17 776.59
  C 759.68 775.95 774.71 776.40 789.29 776.60
  A 3.32 3.29 -67.6 0 0 791.73 775.57
  L 800.30 766.47
  Q 800.71 766.03 800.11 766.03
  Q 771.58 765.95 742.62 765.96
  C 739.51 765.96 736.75 766.21 734.10 768.26
  C 726.51 774.10 719.55 776.17 711.25 779.06
  Z"
/>
<path fill="#ffffff" d="
  M 723.70 729.93
  C 730.64 712.30 734.32 694.34 738.34 675.80
  C 740.11 667.61 742.34 659.65 744.65 651.52
  A 1.33 1.33 0.0 0 1 745.44 650.65
  Q 747.82 649.72 750.73 649.60
  Q 760.72 649.22 773.13 649.84
  Q 788.69 650.61 801.16 650.60
  C 813.25 650.59 825.94 648.84 838.19 648.36
  Q 853.20 647.77 867.37 642.63
  Q 874.54 640.02 881.98 638.04
  A 0.33 0.33 0.0 0 1 882.39 638.37
  Q 882.05 650.85 879.90 661.61
  Q 877.30 674.57 872.95 689.13
  C 869.32 701.27 865.75 714.25 862.42 726.67
  Q 862.28 727.19 861.78 727.00
  Q 854.48 724.30 844.31 724.73
  Q 825.71 725.53 809.98 727.38
  Q 799.68 728.59 791.96 729.23
  C 782.15 730.04 772.35 731.49 762.70 733.33
  Q 757.31 734.35 751.31 734.32
  Q 736.35 734.22 722.12 734.58
  Q 721.41 734.59 721.76 733.97
  Q 722.89 732.01 723.70 729.93
  Z
  M 776.66 681.60
  Q 783.94 685.14 792.39 683.71
  C 797.63 682.82 802.64 681.30 808.04 681.50
  Q 819.69 681.95 834.72 681.08
  C 841.45 680.69 841.11 669.53 833.81 669.48
  Q 815.74 669.37 802.25 669.85
  C 795.56 670.09 788.86 673.91 782.20 671.10
  C 779.36 669.90 775.00 667.28 772.05 668.93
  Q 767.99 671.21 768.99 675.64
  C 769.70 678.79 774.06 680.33 776.66 681.60
  Z
  M 816.69 697.00
  Q 819.22 697.11 821.57 696.12
  C 828.07 693.37 825.10 684.03 818.86 684.94
  C 808.09 686.51 796.92 690.13 786.20 692.93
  Q 782.13 694.00 778.35 692.33
  C 774.23 690.51 770.10 692.75 769.74 697.33
  Q 769.63 698.72 770.34 699.94
  Q 770.75 700.66 769.98 700.34
  C 762.77 697.32 755.15 699.78 747.69 697.88
  C 744.12 696.96 740.78 697.97 739.66 701.71
  C 736.63 711.83 755.52 710.75 760.62 710.67
  Q 763.54 710.63 766.24 711.50
  C 770.26 712.80 774.23 714.01 778.46 713.98
  C 784.85 713.95 792.32 714.73 798.49 713.15
  C 803.51 711.86 808.49 709.44 813.58 708.95
  Q 818.76 708.46 823.90 707.92
  Q 831.01 707.18 842.37 703.64
  Q 846.18 702.45 850.93 702.11
  C 860.77 701.41 859.41 688.98 850.14 690.32
  Q 840.58 691.70 831.95 694.34
  Q 828.32 695.45 824.51 696.29
  Q 820.76 697.10 816.80 697.46
  Q 816.66 697.47 816.65 697.33
  L 816.63 697.07
  A 0.06 0.06 0.0 0 1 816.69 697.00
  Z"
/>
<path fill="#000000" d="
  M 776.66 681.60
  C 774.06 680.33 769.70 678.79 768.99 675.64
  Q 767.99 671.21 772.05 668.93
  C 775.00 667.28 779.36 669.90 782.20 671.10
  C 788.86 673.91 795.56 670.09 802.25 669.85
  Q 815.74 669.37 833.81 669.48
  C 841.11 669.53 841.45 680.69 834.72 681.08
  Q 819.69 681.95 808.04 681.50
  C 802.64 681.30 797.63 682.82 792.39 683.71
  Q 783.94 685.14 776.66 681.60
  Z"
/>
<path fill="#000000" d="
  M 816.69 697.00
  A 0.06 0.06 0.0 0 0 816.63 697.07
  L 816.65 697.33
  Q 816.66 697.47 816.80 697.46
  Q 820.76 697.10 824.51 696.29
  Q 828.32 695.45 831.95 694.34
  Q 840.58 691.70 850.14 690.32
  C 859.41 688.98 860.77 701.41 850.93 702.11
  Q 846.18 702.45 842.37 703.64
  Q 831.01 707.18 823.90 707.92
  Q 818.76 708.46 813.58 708.95
  C 808.49 709.44 803.51 711.86 798.49 713.15
  C 792.32 714.73 784.85 713.95 778.46 713.98
  C 774.23 714.01 770.26 712.80 766.24 711.50
  Q 763.54 710.63 760.62 710.67
  C 755.52 710.75 736.63 711.83 739.66 701.71
  C 740.78 697.97 744.12 696.96 747.69 697.88
  C 755.15 699.78 762.77 697.32 769.98 700.34
  Q 770.75 700.66 770.34 699.94
  Q 769.63 698.72 769.74 697.33
  C 770.10 692.75 774.23 690.51 778.35 692.33
  Q 782.13 694.00 786.20 692.93
  C 796.92 690.13 808.09 686.51 818.86 684.94
  C 825.10 684.03 828.07 693.37 821.57 696.12
  Q 819.22 697.11 816.69 697.00
  Z"
/>
<path fill="#ffffff" d="
  M 718.55 749.29
  Q 718.36 748.83 718.85 748.90
  Q 720.23 749.09 721.61 749.11
  Q 737.90 749.36 754.68 749.19
  C 763.50 749.10 773.79 746.33 782.70 745.48
  C 793.72 744.42 804.31 743.52 815.42 742.28
  Q 832.95 740.32 852.78 739.98
  Q 853.83 739.97 853.05 740.68
  C 849.49 743.91 846.10 747.60 842.60 750.75
  C 830.73 761.44 818.36 771.89 807.57 784.11
  Q 807.50 784.20 807.38 784.19
  L 801.07 783.48
  A 0.12 0.12 0.0 0 1 801.00 783.27
  Q 805.05 779.78 806.48 777.99
  Q 811.81 771.32 817.77 766.50
  C 820.62 764.19 821.01 760.07 818.30 757.62
  Q 816.72 756.21 813.84 755.45
  Q 804.96 753.12 793.12 753.09
  Q 762.95 753.00 742.93 753.29
  C 738.80 753.35 734.18 754.14 730.43 756.38
  C 725.36 759.41 720.46 762.77 714.88 764.56
  C 709.42 766.31 704.85 768.28 700.37 771.95
  C 698.11 773.80 693.94 774.58 692.45 776.92
  C 689.50 781.54 693.06 787.18 698.56 786.27
  Q 699.06 786.19 699.17 786.68
  Q 700.35 791.88 705.74 791.61
  Q 723.27 790.76 741.18 789.40
  Q 741.34 789.38 741.36 789.54
  L 741.36 789.55
  Q 741.38 789.67 741.26 789.69
  Q 729.95 792.22 718.17 792.50
  C 713.02 792.63 707.63 792.86 702.57 793.90
  Q 697.94 794.85 693.88 794.90
  Q 675.89 795.14 657.21 795.33
  Q 648.89 795.42 641.46 797.94
  Q 640.50 798.27 641.35 797.72
  Q 657.99 787.13 676.05 777.02
  Q 681.79 773.81 687.65 771.34
  Q 695.92 767.85 703.65 762.55
  Q 707.38 759.99 711.65 759.18
  C 716.91 758.19 720.96 755.09 718.55 749.29
  Z"
/>
<path fill="#ffffff" d="
  M 711.25 779.06
  C 719.55 776.17 726.51 774.10 734.10 768.26
  C 736.75 766.21 739.51 765.96 742.62 765.96
  Q 771.58 765.95 800.11 766.03
  Q 800.71 766.03 800.30 766.47
  L 791.73 775.57
  A 3.32 3.29 -67.6 0 1 789.29 776.60
  C 774.71 776.40 759.68 775.95 745.17 776.59
  Q 729.84 777.27 716.37 778.36
  Q 713.90 778.56 711.15 779.22
  Q 711.08 779.24 711.07 779.16
  Q 711.07 779.14 711.07 779.13
  Q 711.07 779.11 711.09 779.11
  Q 711.17 779.09 711.25 779.06
  Z"
/>
</svg>
