<?xml version="1.0" encoding="UTF-8" standalone="no"?>
<!DOCTYPE svg PUBLIC "-//W3C//DTD SVG 1.1//EN" "http://www.w3.org/Graphics/SVG/1.1/DTD/svg11.dtd">
<svg xmlns="http://www.w3.org/2000/svg" version="1.1" viewBox="0.00 0.00 1108.00 472.00">
<g stroke-width="2.00" fill="none" stroke-linecap="butt">
<path stroke="#808080" vector-effect="non-scaling-stroke" d="
  M 326.17 114.88
  Q 327.50 99.84 325.80 84.50
  Q 324.99 77.28 323.21 71.24
  C 321.08 64.05 316.77 58.84 310.47 53.72
  Q 305.46 49.64 300.45 44.32
  C 295.23 38.77 289.24 38.20 282.02 38.75
  C 268.59 39.75 254.46 43.93 243.68 52.19
  Q 241.58 53.79 240.99 56.11
  Q 240.84 56.73 240.37 56.29
  Q 236.94 53.08 232.32 50.66
  Q 225.43 47.05 219.46 43.60
  Q 210.89 38.65 201.26 40.03
  C 194.61 40.99 186.97 45.00 180.26 47.52
  C 178.02 48.36 178.03 50.75 175.81 51.74
  C 169.53 54.54 163.53 58.85 160.31 65.10
  Q 158.07 69.45 156.37 73.93
  Q 151.59 86.56 149.51 96.27
  Q 149.39 96.82 148.84 96.77
  C 138.69 95.79 128.49 97.52 119.87 102.86
  C 109.17 109.49 99.04 116.84 92.36 127.79
  C 86.24 137.82 79.50 147.38 74.52 158.16
  Q 69.40 169.27 69.34 182.82
  Q 69.33 186.66 70.72 190.95
  Q 73.72 200.15 76.61 207.70
  C 81.53 220.55 88.28 230.91 97.91 240.11
  C 105.35 247.22 111.51 255.71 119.57 261.88
  C 125.90 266.73 132.62 271.24 138.65 276.57
  C 146.80 283.77 154.83 290.21 164.54 294.30
  Q 176.34 299.26 184.99 304.43
  C 192.03 308.63 199.19 311.25 207.17 312.68
  Q 220.19 315.01 232.31 318.50
  Q 236.23 319.64 240.53 320.02
  Q 241.12 320.07 241.22 320.65
  L 243.12 331.52
  Q 243.21 332.03 242.73 332.22
  C 240.69 333.03 238.72 334.04 237.19 335.63
  Q 227.03 346.21 220.42 357.35
  C 218.80 360.08 217.08 363.88 216.84 367.04
  C 216.61 370.20 219.06 374.75 222.97 372.63
  C 224.84 371.61 224.68 369.51 224.07 367.81
  A 1.60 1.56 46.8 0 1 224.09 366.67
  Q 226.16 361.45 229.88 356.30
  Q 236.31 347.42 243.39 339.71
  Q 244.24 338.79 244.32 340.04
  Q 245.53 359.79 248.23 380.00
  Q 248.50 381.98 248.55 384.04
  Q 248.56 384.48 248.26 384.79
  Q 245.27 387.86 242.31 391.74
  Q 230.43 407.26 222.04 421.25
  C 220.36 424.06 217.49 430.88 221.60 433.02
  C 223.96 434.25 226.63 432.83 227.02 430.24
  Q 227.53 426.81 229.24 424.05
  Q 239.46 407.51 251.23 392.48
  A 0.57 0.56 37.4 0 1 252.02 392.38
  Q 259.25 397.83 265.16 404.31
  C 270.30 409.96 273.90 416.71 276.86 423.72
  Q 278.38 427.31 279.93 430.21
  Q 281.10 432.40 283.51 431.79
  L 283.83 431.71
  A 3.17 3.17 0.0 0 0 285.98 427.41
  Q 281.79 417.42 277.85 410.38
  C 273.01 401.75 264.97 393.76 256.39 387.57
  Q 255.80 387.15 255.78 386.43
  Q 255.59 379.71 254.68 373.44
  C 253.15 362.99 252.45 352.33 251.54 341.78
  Q 251.48 341.19 252.03 341.44
  C 261.86 345.93 275.86 353.56 277.60 364.00
  Q 278.32 368.29 278.56 373.62
  A 3.80 3.42 84.9 0 0 282.48 377.27
  Q 282.85 377.22 283.21 377.12
  Q 285.65 376.42 285.63 373.88
  C 285.54 363.89 284.37 355.91 276.49 348.73
  Q 265.69 338.87 250.94 333.68
  Q 250.43 333.50 250.36 332.97
  Q 249.58 326.96 248.11 321.60
  Q 247.94 320.97 248.58 321.12
  C 271.53 326.46 296.49 326.93 317.95 316.08
  Q 334.47 307.74 347.56 294.44
  Q 355.58 286.29 360.29 280.44
  Q 365.94 273.43 373.94 260.70
  C 379.77 251.43 382.16 242.60 385.46 233.16
  Q 385.49 233.07 388.75 224.91
  Q 393.08 214.07 393.31 201.98
  C 393.41 196.37 393.72 191.85 391.30 186.52
  Q 388.96 181.36 387.44 175.07
  C 386.68 171.97 385.53 168.83 383.80 166.16
  C 381.14 162.06 377.82 158.52 375.49 154.19
  Q 371.69 147.16 369.74 145.19
  C 366.33 141.75 362.69 138.39 360.15 134.41
  Q 358.23 131.41 356.13 128.63
  C 353.02 124.51 348.65 122.80 344.15 120.53
  C 339.62 118.23 335.95 115.46 330.96 113.97
  Q 328.16 113.13 326.54 115.04
  Q 326.11 115.55 326.17 114.88"
/>
<path stroke="#808080" vector-effect="non-scaling-stroke" d="
  M 735.15 91.90
  Q 735.60 82.93 734.73 75.08
  Q 734.41 72.24 731.56 72.28
  Q 730.99 72.29 730.45 72.60
  Q 728.81 73.55 728.91 75.45
  Q 729.50 86.02 729.18 97.00
  Q 729.16 97.59 728.65 97.91
  C 727.51 98.61 726.20 98.78 725.47 100.02
  C 724.87 101.04 724.70 102.36 723.95 103.30
  Q 720.64 107.44 718.49 112.00
  Q 718.13 112.76 717.82 111.98
  C 716.77 109.35 714.97 107.60 714.82 104.59
  C 714.55 98.97 710.01 95.86 705.06 93.23
  Q 704.58 92.97 704.76 92.45
  L 711.21 74.54
  Q 712.03 72.24 709.88 71.09
  Q 708.85 70.54 707.32 71.02
  A 2.62 2.61 -87.9 0 0 705.64 72.58
  Q 702.39 80.93 699.70 89.76
  Q 699.45 90.58 698.66 90.27
  Q 696.27 89.35 693.73 89.31
  Q 692.97 89.30 693.04 88.55
  L 694.25 74.18
  A 2.30 2.30 0.0 0 0 693.22 72.07
  Q 692.49 71.59 691.66 71.49
  Q 688.85 71.15 688.41 73.94
  Q 687.05 82.52 687.33 88.79
  Q 687.35 89.16 686.99 89.24
  L 681.72 90.41
  A 0.29 0.28 -7.8 0 1 681.37 90.15
  Q 680.68 80.15 676.57 70.18
  A 2.35 2.33 81.9 0 0 674.66 68.74
  Q 673.65 68.63 672.80 69.02
  Q 670.21 70.20 671.14 72.88
  Q 674.30 81.97 675.76 91.23
  Q 675.91 92.15 674.99 92.35
  Q 668.35 93.81 666.54 99.63
  Q 663.94 108.02 661.14 116.18
  Q 660.97 116.67 660.48 116.53
  Q 656.58 115.47 652.60 117.53
  C 637.61 125.31 625.67 134.27 615.84 148.34
  Q 610.06 156.60 607.24 168.55
  C 605.53 175.79 606.38 184.14 606.21 191.64
  C 605.93 204.10 601.23 216.58 603.49 228.90
  Q 606.16 243.41 612.61 258.01
  Q 617.46 268.99 627.10 278.55
  C 637.74 289.10 649.05 299.02 662.58 305.62
  Q 669.55 309.01 680.60 311.59
  Q 694.89 314.91 707.80 316.82
  Q 708.98 316.99 708.97 318.19
  Q 708.95 321.30 709.53 324.19
  Q 709.84 325.72 708.29 325.58
  C 703.18 325.10 700.48 326.43 696.01 322.03
  C 692.07 318.16 689.05 314.47 683.00 313.76
  Q 680.34 313.45 679.36 315.94
  Q 679.18 316.40 679.24 316.88
  Q 679.55 319.12 681.75 319.62
  Q 685.56 320.49 687.71 322.90
  C 692.76 328.55 697.47 332.74 705.67 332.07
  Q 707.56 331.92 709.41 331.68
  Q 710.09 331.59 710.08 332.28
  C 709.89 340.75 711.04 348.58 710.22 357.52
  C 710.04 359.42 707.99 361.07 707.04 362.76
  Q 699.96 375.39 692.83 387.97
  Q 689.74 393.43 688.55 399.27
  Q 688.01 401.91 690.53 402.87
  Q 691.54 403.26 692.76 402.77
  A 2.29 2.27 86.9 0 0 694.10 401.26
  Q 695.66 395.61 698.24 391.19
  Q 705.57 378.68 713.21 364.74
  A 0.55 0.54 25.2 0 1 713.90 364.50
  Q 714.26 364.65 714.48 364.99
  C 719.44 372.40 723.19 380.79 727.40 388.75
  Q 728.76 391.31 730.56 393.36
  Q 731.77 394.73 733.53 394.23
  Q 733.99 394.10 734.35 393.80
  Q 736.43 392.07 735.11 389.70
  Q 733.24 386.33 731.11 382.41
  C 727.88 376.46 725.12 370.36 721.64 364.36
  Q 719.38 360.46 716.48 358.54
  Q 716.05 358.26 716.11 357.75
  C 716.87 351.37 716.08 345.17 716.46 338.74
  Q 716.72 334.23 716.27 330.06
  Q 716.21 329.48 716.79 329.47
  Q 724.43 329.28 730.00 334.21
  C 731.50 335.54 730.41 337.72 731.70 339.23
  C 733.29 341.08 736.66 340.44 736.99 337.83
  C 738.39 327.04 724.10 322.42 715.99 322.83
  Q 715.66 322.85 715.62 322.52
  L 715.06 317.69
  Q 715.02 317.37 715.34 317.40
  Q 732.95 318.88 750.26 312.82
  C 764.72 307.75 775.47 297.72 785.84 286.49
  Q 792.00 279.83 795.97 273.08
  Q 804.97 257.82 810.87 240.73
  Q 816.40 224.70 816.52 206.55
  Q 816.64 189.31 815.72 172.62
  Q 815.35 165.68 814.41 159.20
  C 812.70 147.34 806.34 142.28 795.41 140.67
  Q 789.03 139.73 782.82 137.82
  C 781.73 137.49 780.32 137.34 779.16 137.36
  Q 778.34 137.38 778.61 136.60
  C 783.86 121.55 776.26 111.28 763.97 103.87
  Q 763.44 103.56 763.54 102.95
  Q 763.77 101.39 764.48 100.03
  C 768.26 92.78 774.57 86.41 780.63 80.84
  Q 782.46 79.15 781.30 76.94
  Q 781.11 76.57 780.77 76.32
  Q 778.62 74.68 776.47 76.32
  Q 769.12 81.96 760.82 93.44
  Q 758.36 96.84 758.22 99.50
  Q 758.16 100.68 757.06 100.24
  Q 752.66 98.50 752.66 98.50
  Q 751.57 98.07 751.64 96.89
  Q 751.81 94.02 752.63 92.00
  Q 755.29 85.40 761.16 78.88
  A 2.12 2.11 43.6 0 0 761.08 75.96
  L 760.55 75.43
  A 3.10 3.10 0.0 0 0 756.17 75.45
  Q 750.26 81.43 746.78 90.29
  Q 746.52 90.95 745.89 90.63
  L 744.80 90.08
  Q 744.26 89.81 743.67 89.76
  Q 739.53 89.37 735.83 92.25
  Q 735.11 92.82 735.15 91.90"
/>
<path stroke="#808080" vector-effect="non-scaling-stroke" d="
  M 920.36 106.99
  Q 920.54 103.28 917.16 100.74
  Q 909.53 95.01 899.49 92.47
  Q 891.14 90.35 884.05 94.34
  C 878.03 97.73 871.03 102.20 868.08 108.81
  Q 865.03 115.65 862.44 122.55
  A 0.85 0.85 0.0 0 1 861.82 123.09
  C 846.32 126.24 839.90 135.32 834.41 149.33
  C 830.17 160.15 830.05 171.48 830.07 183.24
  Q 830.08 187.78 831.10 191.40
  Q 834.07 201.99 836.98 211.87
  C 842.62 230.98 856.43 245.11 872.71 256.84
  Q 877.38 260.20 882.57 262.45
  C 892.26 266.65 901.71 270.23 911.60 271.21
  Q 912.24 271.28 912.14 271.91
  Q 911.58 275.40 912.09 278.75
  Q 912.16 279.18 911.74 279.30
  Q 908.35 280.25 905.41 283.87
  Q 893.29 298.77 878.54 311.62
  C 876.74 313.19 876.36 316.10 878.69 317.45
  Q 881.14 318.88 883.27 317.01
  Q 898.72 303.49 910.59 288.87
  Q 912.02 287.11 912.01 289.38
  Q 911.92 306.06 911.71 320.88
  Q 911.63 326.36 911.30 332.36
  Q 911.02 337.68 911.29 343.75
  Q 911.31 344.26 910.87 344.52
  Q 907.99 346.31 906.50 349.98
  C 900.70 364.20 891.52 377.35 882.52 389.98
  Q 880.43 392.91 883.22 395.19
  Q 883.62 395.52 884.13 395.61
  Q 886.97 396.14 888.62 393.77
  Q 898.50 379.54 907.13 364.21
  Q 909.73 359.59 910.97 355.06
  Q 911.12 354.53 911.32 355.04
  C 914.74 363.59 919.77 371.23 924.76 378.98
  Q 928.97 385.51 931.65 393.66
  C 932.45 396.09 933.82 399.25 936.14 400.41
  Q 938.59 401.64 940.56 399.44
  C 942.74 397.00 939.25 393.52 938.43 391.14
  Q 935.38 382.27 932.96 378.49
  C 927.86 370.50 922.44 362.40 918.40 353.91
  Q 917.41 351.83 917.48 349.67
  Q 917.73 341.32 917.71 332.75
  C 917.71 330.82 918.04 328.94 918.09 326.94
  Q 918.47 311.82 918.55 296.41
  Q 918.55 295.82 918.95 296.25
  Q 929.98 308.14 945.24 310.19
  C 946.68 310.38 948.30 311.51 949.72 311.04
  C 952.25 310.19 952.89 306.32 950.34 305.15
  C 948.35 304.23 946.09 303.34 943.94 302.82
  C 934.54 300.55 925.08 294.29 919.34 285.73
  Q 918.20 284.03 918.19 282.00
  Q 918.17 277.33 917.74 272.31
  Q 917.68 271.58 918.39 271.69
  Q 930.68 273.43 943.69 268.20
  C 955.17 263.59 966.13 258.70 975.59 251.68
  Q 981.95 246.97 988.33 241.61
  C 996.42 234.83 1003.26 225.34 1006.69 215.85
  Q 1009.18 208.92 1010.75 198.90
  Q 1013.35 182.29 1013.27 170.41
  C 1013.20 161.37 1008.55 152.60 1003.21 144.92
  Q 995.84 134.31 983.60 134.07
  Q 976.78 133.94 970.06 134.08
  A 0.52 0.52 0.0 0 1 969.56 133.38
  Q 974.72 119.23 963.12 110.07
  Q 954.29 103.10 948.23 101.13
  Q 947.57 100.92 948.08 100.44
  C 948.89 99.69 948.90 98.49 948.45 97.53
  C 944.69 89.65 939.48 90.89 933.58 95.34
  Q 926.10 101.00 920.74 107.15
  Q 920.33 107.61 920.36 106.99"
/>
<path stroke="#808080" vector-effect="non-scaling-stroke" d="
  M 1030.87 271.01
  C 1028.73 270.45 1026.55 269.70 1024.28 269.61
  C 1017.57 269.35 1011.20 268.45 1004.53 268.48
  Q 996.32 268.52 986.08 265.01
  Q 978.53 262.42 969.93 260.82
  C 968.01 260.46 966.16 258.82 964.25 259.29
  C 962.60 259.69 961.20 261.04 961.47 262.86
  C 961.78 264.89 960.50 266.68 960.08 268.56
  Q 956.55 284.45 953.95 301.49
  Q 953.29 305.77 951.25 311.71
  Q 950.15 314.91 950.13 318.08
  C 950.09 324.43 950.03 330.19 947.66 336.27
  C 946.95 338.10 944.59 338.50 944.43 340.34
  C 944.24 342.53 946.64 344.56 948.43 345.30
  C 954.73 347.90 960.77 351.00 967.42 353.10
  C 974.03 355.19 980.48 357.11 986.78 360.14
  Q 993.28 363.27 1000.29 364.26
  C 1003.08 364.65 1005.60 363.02 1008.16 364.94
  C 1010.42 366.63 1012.74 365.24 1013.56 362.70
  C 1015.20 357.63 1015.93 352.43 1017.83 347.48
  C 1021.57 337.76 1023.04 327.38 1025.88 317.52
  Q 1030.56 301.27 1034.89 286.03
  C 1035.74 283.07 1035.79 279.87 1037.16 277.09
  Q 1037.38 276.65 1037.36 276.15
  L 1037.23 271.32
  Q 1037.21 270.78 1036.87 270.37
  C 1035.41 268.60 1033.35 269.00 1031.98 270.65
  Q 1031.54 271.19 1030.87 271.01"
/>
<path stroke="#808080" vector-effect="non-scaling-stroke" d="
  M 252.03 55.69
  C 253.39 59.96 250.56 60.97 246.95 61.12
  Q 246.13 61.15 246.77 61.67
  C 250.83 64.98 255.15 69.00 256.93 73.74
  Q 258.14 76.96 258.08 82.71
  Q 258.00 90.89 257.81 98.35
  Q 257.81 98.43 257.89 98.44
  L 257.90 98.44
  Q 258.02 98.46 258.04 98.34
  C 258.57 94.75 261.82 90.07 265.98 91.49
  Q 268.25 92.27 270.67 92.40
  C 282.32 93.03 281.55 104.62 275.78 111.35
  C 270.32 117.72 259.39 118.10 257.01 108.26
  Q 256.76 107.26 256.68 108.29
  C 256.39 111.76 255.01 114.94 253.11 118.09
  Q 246.06 129.81 235.06 138.17
  Q 234.53 138.57 235.00 139.04
  Q 239.16 143.12 240.83 148.29
  C 241.58 150.60 243.08 151.88 244.95 153.29
  Q 252.15 158.72 260.79 157.47
  Q 268.76 156.32 277.91 155.01
  C 281.26 154.54 285.12 153.66 288.10 152.18
  Q 298.13 147.17 310.45 136.20
  C 314.57 132.53 316.12 126.50 316.94 121.07
  C 318.76 108.99 318.75 96.95 317.66 85.22
  C 316.73 75.31 314.74 67.31 307.00 60.97
  Q 300.43 55.57 295.07 49.52
  Q 292.25 46.34 288.47 46.10
  C 276.26 45.33 262.74 49.25 252.33 54.94
  Q 251.87 55.19 252.03 55.69"
/>
<path stroke="#808080" vector-effect="non-scaling-stroke" d="
  M 209.85 48.93
  Q 208.96 48.61 209.52 49.37
  C 212.68 53.64 207.38 57.57 204.87 54.09
  Q 204.26 53.24 203.56 52.47
  Q 203.17 52.04 202.61 51.95
  Q 199.64 51.48 196.93 52.15
  Q 186.79 54.65 176.72 59.86
  Q 169.30 63.69 166.47 69.97
  C 160.82 82.49 155.88 97.01 156.09 110.78
  Q 156.18 117.30 159.59 121.62
  C 167.41 131.54 174.98 140.77 188.61 142.36
  Q 198.17 143.48 206.18 142.81
  C 219.38 141.70 234.68 128.73 242.15 118.51
  C 246.69 112.31 249.18 106.63 249.07 98.81
  Q 248.95 89.46 249.07 80.25
  C 249.11 76.85 247.31 74.32 244.91 72.06
  C 238.20 65.73 232.35 60.67 224.12 56.39
  C 219.59 54.02 214.81 50.71 209.85 48.93"
/>
<path stroke="#808080" vector-effect="non-scaling-stroke" d="
  M 343.85 128.99
  C 339.98 127.32 336.32 125.02 332.67 122.93
  C 330.63 121.75 327.12 121.72 325.96 119.51
  Q 325.56 118.76 325.48 119.61
  C 324.56 129.49 322.20 137.39 314.46 144.08
  Q 302.56 154.37 292.17 159.76
  C 286.32 162.79 280.43 163.21 273.89 164.19
  C 269.44 164.85 264.70 165.91 260.14 166.02
  C 256.47 166.11 252.66 166.31 249.27 165.11
  C 243.56 163.08 235.71 158.52 233.47 152.36
  Q 231.77 147.68 228.46 143.62
  Q 228.10 143.18 227.63 143.49
  Q 217.58 150.03 209.00 151.13
  Q 200.87 152.18 187.90 150.79
  C 172.76 149.17 164.55 140.31 154.99 128.80
  Q 147.66 119.97 148.23 110.58
  Q 148.42 107.45 148.54 104.15
  Q 148.57 103.59 148.00 103.57
  Q 134.83 103.21 126.62 107.64
  Q 116.12 113.30 105.86 122.87
  C 103.60 124.97 101.51 127.52 99.90 130.15
  C 93.59 140.47 86.35 150.72 81.37 161.88
  Q 77.47 170.62 77.20 182.24
  Q 77.13 185.49 78.34 189.03
  Q 80.37 195.00 82.52 201.08
  C 86.09 211.21 91.59 222.25 98.96 229.72
  C 102.88 233.70 106.85 237.44 110.67 241.61
  C 114.00 245.23 117.21 248.97 120.88 252.31
  C 127.54 258.37 136.09 263.45 140.58 267.41
  Q 150.70 276.31 157.13 280.84
  C 165.73 286.88 178.19 290.44 188.09 296.69
  Q 195.98 301.67 204.45 303.63
  C 212.65 305.52 221.22 306.80 229.47 309.26
  Q 237.19 311.56 246.09 312.63
  Q 250.69 313.19 255.40 314.21
  C 269.35 317.23 283.88 317.38 297.69 314.74
  C 308.70 312.63 318.80 306.97 328.11 300.66
  C 336.24 295.16 344.32 286.63 350.42 279.73
  Q 361.25 267.49 370.93 249.63
  Q 372.68 246.40 375.40 237.47
  C 377.17 231.69 379.49 226.07 381.77 220.50
  C 385.10 212.38 385.62 202.56 385.19 193.95
  Q 385.13 192.75 384.67 191.63
  Q 381.37 183.64 379.31 175.45
  C 378.16 170.89 374.72 167.09 372.03 163.39
  C 368.55 158.60 366.45 152.64 362.43 148.82
  Q 356.21 142.93 352.02 135.88
  C 350.00 132.47 347.42 130.55 343.85 128.99"
/>
<path stroke="#808080" vector-effect="non-scaling-stroke" d="
  M 240.01 102.65
  C 242.61 94.32 234.94 86.99 226.66 91.82
  C 225.26 92.64 223.60 92.49 222.03 92.44
  Q 221.46 92.42 221.05 92.80
  Q 218.66 95.04 220.32 97.80
  Q 220.60 98.28 220.50 98.82
  C 219.63 103.48 219.92 108.76 223.69 112.05
  C 227.52 115.40 232.85 115.09 235.99 110.87
  Q 238.48 107.54 240.01 102.65"
/>
<path stroke="#808080" vector-effect="non-scaling-stroke" d="
  M 697.76 99.61
  L 697.24 97.88
  Q 697.08 97.33 696.54 97.17
  Q 693.90 96.38 691.54 97.36
  Q 690.99 97.58 690.45 97.35
  Q 688.55 96.54 686.50 97.05
  Q 681.99 98.17 677.51 99.42
  C 676.00 99.84 674.15 100.47 673.65 102.11
  C 670.75 111.56 667.33 120.49 665.50 130.51
  Q 665.23 132.00 666.00 130.69
  Q 667.27 128.55 668.72 126.49
  C 671.00 123.24 675.77 124.27 678.89 125.80
  C 680.80 126.73 681.33 129.06 682.59 130.68
  C 684.01 132.53 684.08 135.22 683.36 137.33
  C 681.70 142.23 675.64 147.14 670.01 145.00
  Q 667.86 144.19 665.29 143.63
  Q 664.87 143.53 664.83 143.97
  Q 664.34 150.02 665.66 153.33
  C 667.80 158.72 670.37 164.36 675.02 168.51
  Q 679.14 172.19 682.53 175.50
  C 687.87 180.72 698.07 175.36 702.46 171.07
  Q 705.32 168.28 708.30 165.23
  Q 708.65 164.87 708.43 164.42
  Q 707.18 161.82 706.97 158.78
  Q 705.63 139.25 712.68 123.69
  Q 712.98 123.04 712.78 122.35
  Q 712.27 120.50 712.72 118.52
  C 714.10 112.45 706.28 109.48 705.99 103.26
  Q 705.97 102.75 705.64 102.36
  Q 704.46 100.95 702.72 100.27
  Q 702.27 100.10 701.85 100.32
  Q 700.21 101.17 698.56 100.50
  Q 697.94 100.25 697.76 99.61"
/>
<path stroke="#808080" vector-effect="non-scaling-stroke" d="
  M 767.26 142.46
  C 767.28 139.78 767.87 139.26 770.06 137.98
  Q 770.65 137.64 770.93 137.02
  C 775.12 127.63 772.94 119.58 764.90 113.59
  C 756.23 107.12 744.49 101.89 734.09 103.29
  A 2.75 2.73 -72.2 0 0 732.45 104.14
  C 725.66 111.34 720.88 121.33 717.62 130.58
  Q 713.33 142.73 714.27 156.52
  C 714.44 158.96 714.10 160.89 716.36 162.48
  Q 716.87 162.83 717.06 163.41
  Q 717.94 166.05 720.93 166.84
  C 728.49 168.84 735.96 167.92 742.90 163.67
  Q 756.82 155.14 766.92 143.39
  A 1.45 1.42 65.5 0 0 767.26 142.46"
/>
<path stroke="#808080" vector-effect="non-scaling-stroke" d="
  M 791.00 267.51
  C 798.79 253.62 805.47 238.02 808.04 222.57
  Q 809.29 215.05 809.34 203.16
  Q 809.42 183.87 808.18 166.96
  C 807.91 163.22 807.40 159.33 806.29 155.72
  Q 804.28 149.16 796.31 147.98
  Q 788.83 146.88 781.07 144.78
  Q 778.38 144.05 775.28 144.24
  Q 774.83 144.27 774.58 144.65
  Q 772.33 148.15 769.13 151.52
  Q 758.81 162.40 746.55 170.14
  Q 735.74 176.97 722.26 174.82
  Q 717.04 173.99 713.49 171.11
  Q 713.03 170.74 712.68 171.21
  Q 709.40 175.53 704.88 179.13
  C 699.12 183.74 689.40 187.26 682.23 184.37
  Q 678.91 183.03 674.86 179.01
  C 670.29 174.49 665.63 170.86 662.68 165.02
  C 660.62 160.93 657.55 155.74 657.32 151.14
  Q 656.65 138.11 658.69 125.58
  Q 658.80 124.91 658.34 124.40
  Q 657.75 123.74 656.96 123.31
  Q 656.34 122.98 655.68 123.34
  Q 647.16 127.95 640.93 132.34
  Q 630.96 139.37 622.55 150.65
  C 616.59 158.65 612.87 169.56 613.12 180.01
  C 613.29 186.79 613.49 193.91 612.38 200.74
  C 611.38 206.98 610.31 213.13 610.01 219.51
  C 609.60 228.37 612.25 236.79 615.30 245.73
  C 619.25 257.27 624.21 265.94 632.90 274.37
  C 646.16 287.21 659.66 298.78 676.11 303.10
  C 689.96 306.73 704.25 309.79 719.01 310.55
  C 734.14 311.33 751.40 306.88 762.94 298.26
  C 772.95 290.78 784.52 279.09 791.00 267.51"
/>
<path stroke="#808080" vector-effect="non-scaling-stroke" d="
  M 939.97 99.34
  L 942.06 99.71
  Q 942.88 99.85 942.43 99.16
  Q 942.22 98.83 941.88 98.70
  Q 940.83 98.30 939.90 99.06
  A 0.16 0.16 0.0 0 0 939.97 99.34"
/>
<path stroke="#808080" vector-effect="non-scaling-stroke" d="
  M 874.63 111.89
  C 872.03 117.68 869.13 123.84 867.97 130.11
  C 866.53 137.87 873.03 147.01 878.67 152.29
  C 882.53 155.90 892.00 160.39 897.51 157.05
  Q 903.64 153.33 909.06 148.22
  Q 909.46 147.84 909.23 147.35
  Q 907.98 144.67 907.78 141.76
  Q 906.56 123.65 917.10 111.40
  Q 917.71 110.69 916.77 110.70
  Q 914.14 110.73 913.79 107.92
  Q 913.70 107.21 913.18 106.71
  Q 911.82 105.42 909.87 104.44
  C 904.41 101.69 897.53 98.17 891.32 99.35
  Q 888.55 99.88 885.44 101.95
  C 881.35 104.67 876.66 107.40 874.63 111.89"
/>
<path stroke="#808080" vector-effect="non-scaling-stroke" d="
  M 948.01 109.01
  Q 943.61 106.97 936.81 105.83
  C 934.15 105.39 931.22 106.65 929.34 108.34
  Q 925.38 111.88 920.96 117.96
  Q 914.62 126.69 914.83 139.20
  C 915.00 148.86 923.55 155.99 933.03 155.40
  C 937.49 155.12 941.46 152.83 944.98 150.31
  C 952.82 144.71 962.86 136.32 963.68 125.99
  Q 964.08 120.88 960.27 117.45
  Q 953.96 111.77 948.01 109.01"
/>
<path stroke="#808080" vector-effect="non-scaling-stroke" d="
  M 891.94 165.53
  C 884.65 164.85 877.94 162.04 872.78 156.82
  C 866.20 150.17 859.38 139.80 860.69 130.73
  A 0.32 0.32 0.0 0 0 860.28 130.37
  Q 851.10 132.96 846.53 140.38
  Q 838.32 153.69 837.57 168.37
  Q 837.21 175.52 837.25 182.46
  Q 837.28 186.93 838.49 190.89
  Q 841.12 199.52 843.35 207.80
  C 846.02 217.69 851.07 226.77 858.30 234.48
  Q 867.25 244.03 877.86 251.41
  Q 881.75 254.11 886.03 255.88
  C 892.66 258.62 899.53 261.44 906.50 262.91
  Q 915.23 264.74 926.36 264.71
  C 931.00 264.69 935.56 263.28 939.86 261.67
  Q 953.61 256.52 963.25 250.93
  C 970.73 246.59 978.56 240.31 985.15 234.53
  Q 992.90 227.73 997.96 217.42
  Q 1001.19 210.87 1003.04 200.21
  Q 1005.65 185.20 1005.89 171.61
  C 1006.00 164.96 1003.30 158.93 999.99 153.38
  C 995.64 146.07 991.64 141.35 983.02 141.29
  Q 976.71 141.25 970.58 141.25
  C 969.12 141.26 967.72 140.77 966.29 140.70
  Q 965.77 140.67 965.44 141.08
  Q 957.91 150.68 947.18 157.74
  C 935.65 165.32 922.33 164.36 913.15 153.91
  Q 912.84 153.55 912.53 153.92
  Q 907.48 159.98 899.90 164.10
  C 897.39 165.46 894.76 165.80 891.94 165.53"
/>
<path stroke="#808080" vector-effect="non-scaling-stroke" d="
  M 883.3048 122.4865
  A 8.43 7.13 -43.6 0 0 872.2830 123.1367
  A 8.43 7.13 -43.6 0 0 871.0952 134.1135
  A 8.43 7.13 -43.6 0 0 882.1170 133.4633
  A 8.43 7.13 -43.6 0 0 883.3048 122.4865"
/>
<path stroke="#808080" vector-effect="non-scaling-stroke" d="
  M 729.31 144.25
  Q 732.80 141.56 735.83 137.09
  Q 737.88 134.07 736.60 129.54
  C 735.63 126.08 733.97 123.61 730.03 124.01
  C 726.10 124.42 722.46 124.47 721.32 129.24
  C 720.57 132.37 718.95 136.81 719.86 139.86
  C 721.03 143.73 725.34 147.32 729.31 144.25"
/>
<path stroke="#808080" vector-effect="non-scaling-stroke" d="
  M 234.20 193.98
  Q 229.03 195.25 224.55 197.14
  Q 222.47 198.03 222.52 200.29
  Q 222.53 200.83 222.75 201.30
  Q 224.02 204.14 226.99 203.19
  Q 231.36 201.80 236.85 200.02
  Q 241.85 198.40 241.55 194.44
  C 241.14 189.00 233.65 183.36 229.30 181.58
  Q 224.92 179.79 221.31 177.25
  Q 220.83 176.91 220.24 176.97
  Q 217.00 177.32 216.93 180.69
  A 1.67 1.66 -63.3 0 0 217.27 181.73
  Q 219.52 184.59 223.19 185.98
  C 227.55 187.64 231.53 189.81 234.40 193.39
  Q 234.77 193.85 234.20 193.98"
/>
<path stroke="#808080" vector-effect="non-scaling-stroke" d="
  M 254.86 254.00
  Q 252.32 260.17 249.41 263.65
  Q 242.65 271.76 231.88 270.10
  Q 221.00 268.43 214.35 264.00
  C 209.17 260.55 202.00 255.18 198.61 249.66
  Q 192.39 239.55 191.99 228.34
  C 191.85 224.35 186.51 224.23 186.06 228.19
  Q 185.48 233.39 186.13 237.00
  C 187.57 245.06 191.50 254.00 197.67 260.08
  Q 205.36 267.64 212.42 271.94
  Q 219.87 276.48 232.36 278.18
  C 242.06 279.49 252.05 274.55 257.34 266.33
  Q 265.73 253.30 265.66 239.70
  Q 265.64 235.36 264.54 231.76
  Q 263.69 228.95 260.75 228.90
  C 258.11 228.86 256.64 231.17 257.13 233.48
  Q 259.25 243.33 254.86 254.00"
/>
<path stroke="#808080" vector-effect="non-scaling-stroke" d="
  M 918.8433 136.6780
  A 7.13 6.19 123.9 0 0 927.9578 134.2124
  A 7.13 6.19 123.9 0 0 926.7967 124.8420
  A 7.13 6.19 123.9 0 0 917.6822 127.3076
  A 7.13 6.19 123.9 0 0 918.8433 136.6780"
/>
<path stroke="#808080" vector-effect="non-scaling-stroke" d="
  M 704.64 210.54
  Q 706.87 202.81 709.43 194.80
  Q 709.98 193.09 710.07 191.11
  C 710.21 187.96 708.30 184.79 704.73 186.73
  C 702.95 187.69 703.49 189.76 703.37 191.42
  Q 703.28 192.75 702.85 193.99
  Q 699.85 202.65 697.88 210.68
  Q 697.49 212.28 697.42 214.02
  C 697.27 217.64 700.84 219.06 704.01 218.18
  Q 713.10 215.65 718.81 211.43
  Q 720.86 209.92 720.06 207.50
  Q 719.89 206.99 719.51 206.65
  Q 717.73 205.05 716.38 205.78
  Q 710.76 208.83 705.08 210.95
  Q 704.46 211.19 704.64 210.54"
/>
<path stroke="#808080" vector-effect="non-scaling-stroke" d="
  M 712.76 245.00
  Q 712.11 243.89 710.90 243.61
  C 705.71 242.40 702.98 245.22 700.38 249.06
  C 695.56 256.21 692.29 265.64 694.52 273.48
  C 696.89 281.82 705.18 284.70 712.28 279.78
  C 719.79 274.57 729.94 264.06 724.63 254.00
  C 722.41 249.80 719.17 245.30 713.85 245.58
  Q 713.13 245.62 712.76 245.00"
/>
<path stroke="#808080" vector-effect="non-scaling-stroke" d="
  M 963.32 172.96
  A 3.31 3.31 0.0 0 0 960.01 169.65
  A 3.31 3.31 0.0 0 0 956.70 172.96
  A 3.31 3.31 0.0 0 0 960.01 176.27
  A 3.31 3.31 0.0 0 0 963.32 172.96"
/>
<path stroke="#808080" vector-effect="non-scaling-stroke" d="
  M 909.91 186.28
  C 912.54 184.12 919.83 177.28 916.20 173.37
  Q 914.39 171.41 911.99 172.71
  C 910.66 173.43 910.63 174.93 910.03 176.13
  Q 909.49 177.20 908.63 178.10
  Q 904.97 181.91 901.50 186.27
  C 899.71 188.52 900.57 192.28 903.74 192.62
  C 907.78 193.04 911.01 194.84 914.86 195.81
  C 917.04 196.36 918.50 198.65 920.98 197.51
  C 923.68 196.27 922.74 193.05 920.87 191.36
  Q 919.61 190.22 918.12 189.77
  Q 914.31 188.63 910.04 187.04
  Q 909.31 186.77 909.91 186.28"
/>
<path stroke="#808080" vector-effect="non-scaling-stroke" d="
  M 867.8707 180.4574
  A 3.43 3.06 13.1 0 0 865.2236 176.6996
  A 3.43 3.06 13.1 0 0 861.1893 178.9026
  A 3.43 3.06 13.1 0 0 863.8364 182.6604
  A 3.43 3.06 13.1 0 0 867.8707 180.4574"
/>
<path stroke="#808080" vector-effect="non-scaling-stroke" d="
  M 978.54 180.14
  A 2.97 2.97 0.0 0 0 975.57 177.17
  A 2.97 2.97 0.0 0 0 972.60 180.14
  A 2.97 2.97 0.0 0 0 975.57 183.11
  A 2.97 2.97 0.0 0 0 978.54 180.14"
/>
<path stroke="#808080" vector-effect="non-scaling-stroke" d="
  M 966.42 193.40
  A 3.09 3.09 0.0 0 0 963.33 190.31
  A 3.09 3.09 0.0 0 0 960.24 193.40
  A 3.09 3.09 0.0 0 0 963.33 196.49
  A 3.09 3.09 0.0 0 0 966.42 193.40"
/>
<path stroke="#808080" vector-effect="non-scaling-stroke" d="
  M 860.1514 197.3919
  A 2.76 2.76 0.0 0 0 857.6581 194.3888
  L 857.1204 194.3389
  A 2.76 2.76 0.0 0 0 854.1173 196.8322
  L 854.0286 197.7881
  A 2.76 2.76 0.0 0 0 856.5219 200.7912
  L 857.0596 200.8411
  A 2.76 2.76 0.0 0 0 860.0627 198.3478
  L 860.1514 197.3919"
/>
<path stroke="#808080" vector-effect="non-scaling-stroke" d="
  M 878.55 199.07
  A 3.08 3.08 0.0 0 0 875.47 195.99
  A 3.08 3.08 0.0 0 0 872.39 199.07
  A 3.08 3.08 0.0 0 0 875.47 202.15
  A 3.08 3.08 0.0 0 0 878.55 199.07"
/>
<path stroke="#808080" vector-effect="non-scaling-stroke" d="
  M 945.63 219.24
  C 945.19 222.26 941.71 224.85 939.73 227.01
  C 934.47 232.72 927.21 236.46 919.64 238.35
  C 918.07 238.74 916.24 238.63 914.74 238.04
  Q 910.31 236.30 905.46 235.53
  C 903.50 235.21 901.67 234.05 900.77 232.27
  Q 898.43 227.61 895.75 222.83
  Q 895.50 222.39 895.82 222.00
  C 896.50 221.16 897.21 220.16 896.84 219.02
  C 895.79 215.80 892.94 216.62 890.75 217.78
  Q 886.71 219.92 882.83 222.16
  A 2.25 2.25 0.0 0 0 881.71 224.19
  C 881.84 227.20 884.39 227.91 886.73 226.73
  Q 887.92 226.12 889.14 225.66
  A 0.53 0.52 -20.4 0 1 889.81 225.96
  Q 892.46 232.66 895.44 237.21
  C 899.38 243.24 905.92 242.73 911.82 245.15
  Q 917.19 247.34 923.89 245.23
  Q 933.61 242.18 941.05 236.35
  C 943.84 234.16 945.91 231.35 948.46 228.92
  Q 951.49 226.04 952.33 222.64
  Q 952.48 222.04 952.97 222.42
  C 955.04 224.03 959.82 227.04 961.47 223.26
  Q 962.42 221.09 960.27 219.85
  Q 954.46 216.50 949.00 213.14
  C 947.21 212.04 944.57 211.06 942.49 211.73
  C 937.32 213.37 939.22 222.11 945.17 218.92
  Q 945.72 218.63 945.63 219.24"
/>
<path stroke="#808080" vector-effect="non-scaling-stroke" d="
  M 711.14 254.65
  C 709.43 256.00 707.07 255.49 706.24 253.46
  Q 705.99 252.85 705.62 253.40
  C 702.14 258.70 699.10 266.68 701.39 272.60
  C 702.55 275.61 705.45 275.68 707.78 274.10
  C 712.08 271.19 720.37 264.18 718.56 258.44
  Q 717.76 255.88 715.34 253.25
  Q 714.51 252.36 713.48 253.00
  Q 712.26 253.77 711.14 254.65"
/>
<path stroke="#2a6c35" vector-effect="non-scaling-stroke" d="
  M 991.01 274.01
  Q 988.80 270.06 985.12 272.14"
/>
<path stroke="#808080" vector-effect="non-scaling-stroke" d="
  M 985.12 272.14
  L 967.70 267.25
  A 0.64 0.63 14.5 0 0 966.91 267.71
  Q 962.80 285.32 960.31 303.51
  C 959.84 306.98 956.85 313.08 956.77 318.01
  Q 956.65 324.80 955.91 331.44
  C 955.61 334.14 954.69 337.11 953.41 339.52
  Q 953.08 340.13 953.72 340.41
  C 962.62 344.36 970.95 347.04 979.89 349.70
  Q 984.31 351.02 988.06 352.93
  Q 992.94 355.42 999.16 356.87
  C 1002.29 357.61 1004.88 356.37 1007.94 357.25
  Q 1008.60 357.44 1008.72 356.75
  Q 1009.88 349.71 1011.60 345.60
  C 1015.24 336.88 1016.31 327.53 1018.65 319.26
  Q 1024.02 300.31 1028.78 283.24
  Q 1029.39 281.03 1030.01 278.44
  Q 1030.13 277.95 1029.66 277.78
  Q 1026.92 276.80 1024.80 276.66
  Q 1012.89 275.88 1001.37 275.58
  C 997.75 275.49 994.48 274.75 991.01 274.01"
/>
<path stroke="#aaebb4" vector-effect="non-scaling-stroke" d="
  M 985.12 272.14
  Q 984.10 274.23 981.73 275.16"
/>
<path stroke="#808080" vector-effect="non-scaling-stroke" d="
  M 981.73 275.16
  L 974.39 274.74"
/>
<path stroke="#aaebb4" vector-effect="non-scaling-stroke" d="
  M 974.39 274.74
  Q 973.14 272.20 972.44 271.82
  C 970.20 270.59 967.34 271.16 967.55 274.11
  Q 967.63 275.21 967.94 276.34"
/>
<path stroke="#808080" vector-effect="non-scaling-stroke" d="
  M 967.94 276.34
  C 966.68 280.92 962.34 289.36 971.37 289.53"
/>
<path stroke="#aaebb4" vector-effect="non-scaling-stroke" d="
  M 971.37 289.53
  Q 972.69 290.41 975.10 289.40"
/>
<path stroke="#808080" vector-effect="non-scaling-stroke" d="
  M 975.10 289.40
  Q 979.32 289.99 981.09 286.33
  Q 982.88 282.63 983.41 281.26"
/>
<path stroke="#aaebb4" vector-effect="non-scaling-stroke" d="
  M 983.41 281.26
  L 991.01 274.01"
/>
<path stroke="#2a6c35" vector-effect="non-scaling-stroke" d="
  M 974.39 274.74
  Q 973.45 278.29 974.77 279.94"
/>
<path stroke="#aaebb4" vector-effect="non-scaling-stroke" d="
  M 974.77 279.94
  Q 973.45 281.15 973.90 282.42
  Q 974.09 282.93 974.53 282.62
  Q 976.04 281.55 976.03 279.91"
/>
<path stroke="#2a6c35" vector-effect="non-scaling-stroke" d="
  M 976.03 279.91
  Q 979.36 278.51 981.73 275.16"
/>
<path stroke="#2a6c35" vector-effect="non-scaling-stroke" d="
  M 983.41 281.26
  L 975.10 289.40"
/>
<path stroke="#2a6c35" vector-effect="non-scaling-stroke" d="
  M 971.37 289.53
  Q 969.11 287.00 968.94 284.51
  Q 968.70 280.80 968.95 277.10
  Q 968.97 276.75 968.81 276.42
  Q 968.65 276.09 968.42 275.81
  Q 968.07 275.41 967.92 275.92
  Q 967.86 276.11 967.94 276.34"
/>
<path stroke="#808080" vector-effect="non-scaling-stroke" d="
  M 976.03 279.91
  Q 975.46 279.68 974.77 279.94"
/>
<path stroke="#808080" vector-effect="non-scaling-stroke" d="
  M 992.15 287.66
  C 994.77 289.71 996.58 290.82 999.99 291.13
  Q 1001.48 291.27 1002.88 291.76
  Q 1009.02 293.88 1015.97 294.41
  A 1.89 1.89 0.0 0 0 1017.79 293.41
  Q 1018.28 292.48 1018.13 291.56
  A 2.31 2.29 -1.3 0 0 1016.12 289.65
  Q 1009.85 288.95 1004.39 287.00
  C 1001.24 285.88 998.65 286.82 995.88 284.24
  C 993.59 282.09 990.90 281.47 987.78 281.76
  C 986.38 281.89 985.53 283.00 985.63 284.39
  Q 985.78 286.65 988.04 286.70
  C 989.42 286.73 991.01 286.77 992.15 287.66"
/>
<path stroke="#808080" vector-effect="non-scaling-stroke" d="
  M 976.21 308.06
  C 978.19 304.71 983.12 295.76 978.03 293.34
  Q 976.60 292.66 974.82 293.21
  Q 971.88 294.13 968.27 293.45
  Q 965.94 293.00 964.89 294.74
  Q 964.58 295.26 964.81 295.82
  Q 965.79 298.16 964.81 301.04
  C 963.22 305.73 965.26 309.41 970.19 308.47
  Q 972.45 308.03 974.58 308.69
  A 1.41 1.41 0.0 0 0 976.21 308.06"
/>
<path stroke="#808080" vector-effect="non-scaling-stroke" d="
  M 991.44 306.49
  Q 992.88 308.47 995.22 308.18
  Q 1003.98 307.10 1012.73 309.85
  A 1.94 1.93 -56.1 0 0 1014.54 309.49
  Q 1015.31 308.86 1015.48 308.02
  Q 1015.96 305.72 1013.73 305.02
  Q 1004.96 302.26 995.81 303.15
  A 1.14 1.13 71.4 0 1 994.75 302.62
  Q 993.06 299.91 990.07 300.82
  C 988.05 301.44 982.59 303.18 985.64 306.49
  A 2.32 2.32 0.0 0 0 988.27 307.04
  L 990.24 306.17
  Q 990.97 305.85 991.44 306.49"
/>
<path stroke="#808080" vector-effect="non-scaling-stroke" d="
  M 977.42 317.49
  A 4.51 4.51 0.0 0 0 972.85 310.80
  L 966.20 311.77
  A 4.51 4.51 0.0 0 0 962.35 315.92
  L 962.05 320.40
  A 4.51 4.51 0.0 0 0 966.19 325.20
  L 969.88 325.49
  A 4.51 4.51 0.0 0 0 974.16 323.22
  L 977.42 317.49"
/>
<path stroke="#808080" vector-effect="non-scaling-stroke" d="
  M 999.31 328.40
  C 1000.68 330.33 1002.78 332.43 1005.25 332.59
  A 2.18 2.16 14.5 0 0 1007.34 331.37
  C 1007.94 330.14 1007.68 328.83 1006.43 328.15
  Q 1004.19 326.92 1002.56 324.89
  C 1000.20 321.96 993.37 322.88 989.93 323.01
  A 1.70 1.67 -26.3 0 1 988.83 322.65
  L 983.04 318.06
  Q 982.60 317.72 982.05 317.73
  Q 979.32 317.82 979.40 320.98
  Q 979.46 323.03 981.38 323.73
  Q 983.88 324.63 985.90 326.85
  A 2.28 2.25 75.1 0 0 987.04 327.52
  C 990.54 328.39 994.63 327.60 998.31 327.84
  A 1.37 1.37 0.0 0 1 999.31 328.40"
/>
<path stroke="#808080" vector-effect="non-scaling-stroke" d="
  M 969.30 303.11
  A 0.35 0.35 0.0 0 0 969.76 303.54
  L 973.46 302.11
  A 0.35 0.35 0.0 0 0 973.64 301.94
  L 975.12 299.07
  A 0.35 0.35 0.0 0 0 974.77 298.56
  L 970.76 299.00
  A 0.35 0.35 0.0 0 0 970.46 299.24
  L 969.30 303.11"
/>
<path stroke="#808080" vector-effect="non-scaling-stroke" d="
  M 972.10 316.88
  A 0.53 0.53 0.0 0 0 971.61 316.02
  L 967.92 316.62
  A 0.53 0.53 0.0 0 0 967.48 317.08
  L 967.21 319.72
  A 0.53 0.53 0.0 0 0 967.87 320.29
  L 969.54 319.86
  A 0.53 0.53 0.0 0 0 969.82 319.68
  L 972.10 316.88"
/>
</g>
<path fill="#ffffff" d="
  M 0.00 0.00
  L 1108.00 0.00
  L 1108.00 472.00
  L 0.00 472.00
  L 0.00 0.00
  Z
  M 326.17 114.88
  Q 327.50 99.84 325.80 84.50
  Q 324.99 77.28 323.21 71.24
  C 321.08 64.05 316.77 58.84 310.47 53.72
  Q 305.46 49.64 300.45 44.32
  C 295.23 38.77 289.24 38.20 282.02 38.75
  C 268.59 39.75 254.46 43.93 243.68 52.19
  Q 241.58 53.79 240.99 56.11
  Q 240.84 56.73 240.37 56.29
  Q 236.94 53.08 232.32 50.66
  Q 225.43 47.05 219.46 43.60
  Q 210.89 38.65 201.26 40.03
  C 194.61 40.99 186.97 45.00 180.26 47.52
  C 178.02 48.36 178.03 50.75 175.81 51.74
  C 169.53 54.54 163.53 58.85 160.31 65.10
  Q 158.07 69.45 156.37 73.93
  Q 151.59 86.56 149.51 96.27
  Q 149.39 96.82 148.84 96.77
  C 138.69 95.79 128.49 97.52 119.87 102.86
  C 109.17 109.49 99.04 116.84 92.36 127.79
  C 86.24 137.82 79.50 147.38 74.52 158.16
  Q 69.40 169.27 69.34 182.82
  Q 69.33 186.66 70.72 190.95
  Q 73.72 200.15 76.61 207.70
  C 81.53 220.55 88.28 230.91 97.91 240.11
  C 105.35 247.22 111.51 255.71 119.57 261.88
  C 125.90 266.73 132.62 271.24 138.65 276.57
  C 146.80 283.77 154.83 290.21 164.54 294.30
  Q 176.34 299.26 184.99 304.43
  C 192.03 308.63 199.19 311.25 207.17 312.68
  Q 220.19 315.01 232.31 318.50
  Q 236.23 319.64 240.53 320.02
  Q 241.12 320.07 241.22 320.65
  L 243.12 331.52
  Q 243.21 332.03 242.73 332.22
  C 240.69 333.03 238.72 334.04 237.19 335.63
  Q 227.03 346.21 220.42 357.35
  C 218.80 360.08 217.08 363.88 216.84 367.04
  C 216.61 370.20 219.06 374.75 222.97 372.63
  C 224.84 371.61 224.68 369.51 224.07 367.81
  A 1.60 1.56 46.8 0 1 224.09 366.67
  Q 226.16 361.45 229.88 356.30
  Q 236.31 347.42 243.39 339.71
  Q 244.24 338.79 244.32 340.04
  Q 245.53 359.79 248.23 380.00
  Q 248.50 381.98 248.55 384.04
  Q 248.56 384.48 248.26 384.79
  Q 245.27 387.86 242.31 391.74
  Q 230.43 407.26 222.04 421.25
  C 220.36 424.06 217.49 430.88 221.60 433.02
  C 223.96 434.25 226.63 432.83 227.02 430.24
  Q 227.53 426.81 229.24 424.05
  Q 239.46 407.51 251.23 392.48
  A 0.57 0.56 37.4 0 1 252.02 392.38
  Q 259.25 397.83 265.16 404.31
  C 270.30 409.96 273.90 416.71 276.86 423.72
  Q 278.38 427.31 279.93 430.21
  Q 281.10 432.40 283.51 431.79
  L 283.83 431.71
  A 3.17 3.17 0.0 0 0 285.98 427.41
  Q 281.79 417.42 277.85 410.38
  C 273.01 401.75 264.97 393.76 256.39 387.57
  Q 255.80 387.15 255.78 386.43
  Q 255.59 379.71 254.68 373.44
  C 253.15 362.99 252.45 352.33 251.54 341.78
  Q 251.48 341.19 252.03 341.44
  C 261.86 345.93 275.86 353.56 277.60 364.00
  Q 278.32 368.29 278.56 373.62
  A 3.80 3.42 84.9 0 0 282.48 377.27
  Q 282.85 377.22 283.21 377.12
  Q 285.65 376.42 285.63 373.88
  C 285.54 363.89 284.37 355.91 276.49 348.73
  Q 265.69 338.87 250.94 333.68
  Q 250.43 333.50 250.36 332.97
  Q 249.58 326.96 248.11 321.60
  Q 247.94 320.97 248.58 321.12
  C 271.53 326.46 296.49 326.93 317.95 316.08
  Q 334.47 307.74 347.56 294.44
  Q 355.58 286.29 360.29 280.44
  Q 365.94 273.43 373.94 260.70
  C 379.77 251.43 382.16 242.60 385.46 233.16
  Q 385.49 233.07 388.75 224.91
  Q 393.08 214.07 393.31 201.98
  C 393.41 196.37 393.72 191.85 391.30 186.52
  Q 388.96 181.36 387.44 175.07
  C 386.68 171.97 385.53 168.83 383.80 166.16
  C 381.14 162.06 377.82 158.52 375.49 154.19
  Q 371.69 147.16 369.74 145.19
  C 366.33 141.75 362.69 138.39 360.15 134.41
  Q 358.23 131.41 356.13 128.63
  C 353.02 124.51 348.65 122.80 344.15 120.53
  C 339.62 118.23 335.95 115.46 330.96 113.97
  Q 328.16 113.13 326.54 115.04
  Q 326.11 115.55 326.17 114.88
  Z
  M 735.15 91.90
  Q 735.60 82.93 734.73 75.08
  Q 734.41 72.24 731.56 72.28
  Q 730.99 72.29 730.45 72.60
  Q 728.81 73.55 728.91 75.45
  Q 729.50 86.02 729.18 97.00
  Q 729.16 97.59 728.65 97.91
  C 727.51 98.61 726.20 98.78 725.47 100.02
  C 724.87 101.04 724.70 102.36 723.95 103.30
  Q 720.64 107.44 718.49 112.00
  Q 718.13 112.76 717.82 111.98
  C 716.77 109.35 714.97 107.60 714.82 104.59
  C 714.55 98.97 710.01 95.86 705.06 93.23
  Q 704.58 92.97 704.76 92.45
  L 711.21 74.54
  Q 712.03 72.24 709.88 71.09
  Q 708.85 70.54 707.32 71.02
  A 2.62 2.61 -87.9 0 0 705.64 72.58
  Q 702.39 80.93 699.70 89.76
  Q 699.45 90.58 698.66 90.27
  Q 696.27 89.35 693.73 89.31
  Q 692.97 89.30 693.04 88.55
  L 694.25 74.18
  A 2.30 2.30 0.0 0 0 693.22 72.07
  Q 692.49 71.59 691.66 71.49
  Q 688.85 71.15 688.41 73.94
  Q 687.05 82.52 687.33 88.79
  Q 687.35 89.16 686.99 89.24
  L 681.72 90.41
  A 0.29 0.28 -7.8 0 1 681.37 90.15
  Q 680.68 80.15 676.57 70.18
  A 2.35 2.33 81.9 0 0 674.66 68.74
  Q 673.65 68.63 672.80 69.02
  Q 670.21 70.20 671.14 72.88
  Q 674.30 81.97 675.76 91.23
  Q 675.91 92.15 674.99 92.35
  Q 668.35 93.81 666.54 99.63
  Q 663.94 108.02 661.14 116.18
  Q 660.97 116.67 660.48 116.53
  Q 656.58 115.47 652.60 117.53
  C 637.61 125.31 625.67 134.27 615.84 148.34
  Q 610.06 156.60 607.24 168.55
  C 605.53 175.79 606.38 184.14 606.21 191.64
  C 605.93 204.10 601.23 216.58 603.49 228.90
  Q 606.16 243.41 612.61 258.01
  Q 617.46 268.99 627.10 278.55
  C 637.74 289.10 649.05 299.02 662.58 305.62
  Q 669.55 309.01 680.60 311.59
  Q 694.89 314.91 707.80 316.82
  Q 708.98 316.99 708.97 318.19
  Q 708.95 321.30 709.53 324.19
  Q 709.84 325.72 708.29 325.58
  C 703.18 325.10 700.48 326.43 696.01 322.03
  C 692.07 318.16 689.05 314.47 683.00 313.76
  Q 680.34 313.45 679.36 315.94
  Q 679.18 316.40 679.24 316.88
  Q 679.55 319.12 681.75 319.62
  Q 685.56 320.49 687.71 322.90
  C 692.76 328.55 697.47 332.74 705.67 332.07
  Q 707.56 331.92 709.41 331.68
  Q 710.09 331.59 710.08 332.28
  C 709.89 340.75 711.04 348.58 710.22 357.52
  C 710.04 359.42 707.99 361.07 707.04 362.76
  Q 699.96 375.39 692.83 387.97
  Q 689.74 393.43 688.55 399.27
  Q 688.01 401.91 690.53 402.87
  Q 691.54 403.26 692.76 402.77
  A 2.29 2.27 86.9 0 0 694.10 401.26
  Q 695.66 395.61 698.24 391.19
  Q 705.57 378.68 713.21 364.74
  A 0.55 0.54 25.2 0 1 713.90 364.50
  Q 714.26 364.65 714.48 364.99
  C 719.44 372.40 723.19 380.79 727.40 388.75
  Q 728.76 391.31 730.56 393.36
  Q 731.77 394.73 733.53 394.23
  Q 733.99 394.10 734.35 393.80
  Q 736.43 392.07 735.11 389.70
  Q 733.24 386.33 731.11 382.41
  C 727.88 376.46 725.12 370.36 721.64 364.36
  Q 719.38 360.46 716.48 358.54
  Q 716.05 358.26 716.11 357.75
  C 716.87 351.37 716.08 345.17 716.46 338.74
  Q 716.72 334.23 716.27 330.06
  Q 716.21 329.48 716.79 329.47
  Q 724.43 329.28 730.00 334.21
  C 731.50 335.54 730.41 337.72 731.70 339.23
  C 733.29 341.08 736.66 340.44 736.99 337.83
  C 738.39 327.04 724.10 322.42 715.99 322.83
  Q 715.66 322.85 715.62 322.52
  L 715.06 317.69
  Q 715.02 317.37 715.34 317.40
  Q 732.95 318.88 750.26 312.82
  C 764.72 307.75 775.47 297.72 785.84 286.49
  Q 792.00 279.83 795.97 273.08
  Q 804.97 257.82 810.87 240.73
  Q 816.40 224.70 816.52 206.55
  Q 816.64 189.31 815.72 172.62
  Q 815.35 165.68 814.41 159.20
  C 812.70 147.34 806.34 142.28 795.41 140.67
  Q 789.03 139.73 782.82 137.82
  C 781.73 137.49 780.32 137.34 779.16 137.36
  Q 778.34 137.38 778.61 136.60
  C 783.86 121.55 776.26 111.28 763.97 103.87
  Q 763.44 103.56 763.54 102.95
  Q 763.77 101.39 764.48 100.03
  C 768.26 92.78 774.57 86.41 780.63 80.84
  Q 782.46 79.15 781.30 76.94
  Q 781.11 76.57 780.77 76.32
  Q 778.62 74.68 776.47 76.32
  Q 769.12 81.96 760.82 93.44
  Q 758.36 96.84 758.22 99.50
  Q 758.16 100.68 757.06 100.24
  Q 752.66 98.50 752.66 98.50
  Q 751.57 98.07 751.64 96.89
  Q 751.81 94.02 752.63 92.00
  Q 755.29 85.40 761.16 78.88
  A 2.12 2.11 43.6 0 0 761.08 75.96
  L 760.55 75.43
  A 3.10 3.10 0.0 0 0 756.17 75.45
  Q 750.26 81.43 746.78 90.29
  Q 746.52 90.95 745.89 90.63
  L 744.80 90.08
  Q 744.26 89.81 743.67 89.76
  Q 739.53 89.37 735.83 92.25
  Q 735.11 92.82 735.15 91.90
  Z
  M 920.36 106.99
  Q 920.54 103.28 917.16 100.74
  Q 909.53 95.01 899.49 92.47
  Q 891.14 90.35 884.05 94.34
  C 878.03 97.73 871.03 102.20 868.08 108.81
  Q 865.03 115.65 862.44 122.55
  A 0.85 0.85 0.0 0 1 861.82 123.09
  C 846.32 126.24 839.90 135.32 834.41 149.33
  C 830.17 160.15 830.05 171.48 830.07 183.24
  Q 830.08 187.78 831.10 191.40
  Q 834.07 201.99 836.98 211.87
  C 842.62 230.98 856.43 245.11 872.71 256.84
  Q 877.38 260.20 882.57 262.45
  C 892.26 266.65 901.71 270.23 911.60 271.21
  Q 912.24 271.28 912.14 271.91
  Q 911.58 275.40 912.09 278.75
  Q 912.16 279.18 911.74 279.30
  Q 908.35 280.25 905.41 283.87
  Q 893.29 298.77 878.54 311.62
  C 876.74 313.19 876.36 316.10 878.69 317.45
  Q 881.14 318.88 883.27 317.01
  Q 898.72 303.49 910.59 288.87
  Q 912.02 287.11 912.01 289.38
  Q 911.92 306.06 911.71 320.88
  Q 911.63 326.36 911.30 332.36
  Q 911.02 337.68 911.29 343.75
  Q 911.31 344.26 910.87 344.52
  Q 907.99 346.31 906.50 349.98
  C 900.70 364.20 891.52 377.35 882.52 389.98
  Q 880.43 392.91 883.22 395.19
  Q 883.62 395.52 884.13 395.61
  Q 886.97 396.14 888.62 393.77
  Q 898.50 379.54 907.13 364.21
  Q 909.73 359.59 910.97 355.06
  Q 911.12 354.53 911.32 355.04
  C 914.74 363.59 919.77 371.23 924.76 378.98
  Q 928.97 385.51 931.65 393.66
  C 932.45 396.09 933.82 399.25 936.14 400.41
  Q 938.59 401.64 940.56 399.44
  C 942.74 397.00 939.25 393.52 938.43 391.14
  Q 935.38 382.27 932.96 378.49
  C 927.86 370.50 922.44 362.40 918.40 353.91
  Q 917.41 351.83 917.48 349.67
  Q 917.73 341.32 917.71 332.75
  C 917.71 330.82 918.04 328.94 918.09 326.94
  Q 918.47 311.82 918.55 296.41
  Q 918.55 295.82 918.95 296.25
  Q 929.98 308.14 945.24 310.19
  C 946.68 310.38 948.30 311.51 949.72 311.04
  C 952.25 310.19 952.89 306.32 950.34 305.15
  C 948.35 304.23 946.09 303.34 943.94 302.82
  C 934.54 300.55 925.08 294.29 919.34 285.73
  Q 918.20 284.03 918.19 282.00
  Q 918.17 277.33 917.74 272.31
  Q 917.68 271.58 918.39 271.69
  Q 930.68 273.43 943.69 268.20
  C 955.17 263.59 966.13 258.70 975.59 251.68
  Q 981.95 246.97 988.33 241.61
  C 996.42 234.83 1003.26 225.34 1006.69 215.85
  Q 1009.18 208.92 1010.75 198.90
  Q 1013.35 182.29 1013.27 170.41
  C 1013.20 161.37 1008.55 152.60 1003.21 144.92
  Q 995.84 134.31 983.60 134.07
  Q 976.78 133.94 970.06 134.08
  A 0.52 0.52 0.0 0 1 969.56 133.38
  Q 974.72 119.23 963.12 110.07
  Q 954.29 103.10 948.23 101.13
  Q 947.57 100.92 948.08 100.44
  C 948.89 99.69 948.90 98.49 948.45 97.53
  C 944.69 89.65 939.48 90.89 933.58 95.34
  Q 926.10 101.00 920.74 107.15
  Q 920.33 107.61 920.36 106.99
  Z
  M 1030.87 271.01
  C 1028.73 270.45 1026.55 269.70 1024.28 269.61
  C 1017.57 269.35 1011.20 268.45 1004.53 268.48
  Q 996.32 268.52 986.08 265.01
  Q 978.53 262.42 969.93 260.82
  C 968.01 260.46 966.16 258.82 964.25 259.29
  C 962.60 259.69 961.20 261.04 961.47 262.86
  C 961.78 264.89 960.50 266.68 960.08 268.56
  Q 956.55 284.45 953.95 301.49
  Q 953.29 305.77 951.25 311.71
  Q 950.15 314.91 950.13 318.08
  C 950.09 324.43 950.03 330.19 947.66 336.27
  C 946.95 338.10 944.59 338.50 944.43 340.34
  C 944.24 342.53 946.64 344.56 948.43 345.30
  C 954.73 347.90 960.77 351.00 967.42 353.10
  C 974.03 355.19 980.48 357.11 986.78 360.14
  Q 993.28 363.27 1000.29 364.26
  C 1003.08 364.65 1005.60 363.02 1008.16 364.94
  C 1010.42 366.63 1012.74 365.24 1013.56 362.70
  C 1015.20 357.63 1015.93 352.43 1017.83 347.48
  C 1021.57 337.76 1023.04 327.38 1025.88 317.52
  Q 1030.56 301.27 1034.89 286.03
  C 1035.74 283.07 1035.79 279.87 1037.16 277.09
  Q 1037.38 276.65 1037.36 276.15
  L 1037.23 271.32
  Q 1037.21 270.78 1036.87 270.37
  C 1035.41 268.60 1033.35 269.00 1031.98 270.65
  Q 1031.54 271.19 1030.87 271.01
  Z"
/>
<path fill="#000000" d="
  M 326.54 115.04
  Q 328.16 113.13 330.96 113.97
  C 335.95 115.46 339.62 118.23 344.15 120.53
  C 348.65 122.80 353.02 124.51 356.13 128.63
  Q 358.23 131.41 360.15 134.41
  C 362.69 138.39 366.33 141.75 369.74 145.19
  Q 371.69 147.16 375.49 154.19
  C 377.82 158.52 381.14 162.06 383.80 166.16
  C 385.53 168.83 386.68 171.97 387.44 175.07
  Q 388.96 181.36 391.30 186.52
  C 393.72 191.85 393.41 196.37 393.31 201.98
  Q 393.08 214.07 388.75 224.91
  Q 385.49 233.07 385.46 233.16
  C 382.16 242.60 379.77 251.43 373.94 260.70
  Q 365.94 273.43 360.29 280.44
  Q 355.58 286.29 347.56 294.44
  Q 334.47 307.74 317.95 316.08
  C 296.49 326.93 271.53 326.46 248.58 321.12
  Q 247.94 320.97 248.11 321.60
  Q 249.58 326.96 250.36 332.97
  Q 250.43 333.50 250.94 333.68
  Q 265.69 338.87 276.49 348.73
  C 284.37 355.91 285.54 363.89 285.63 373.88
  Q 285.65 376.42 283.21 377.12
  Q 282.85 377.22 282.48 377.27
  A 3.80 3.42 84.9 0 1 278.56 373.62
  Q 278.32 368.29 277.60 364.00
  C 275.86 353.56 261.86 345.93 252.03 341.44
  Q 251.48 341.19 251.54 341.78
  C 252.45 352.33 253.15 362.99 254.68 373.44
  Q 255.59 379.71 255.78 386.43
  Q 255.80 387.15 256.39 387.57
  C 264.97 393.76 273.01 401.75 277.85 410.38
  Q 281.79 417.42 285.98 427.41
  A 3.17 3.17 0.0 0 1 283.83 431.71
  L 283.51 431.79
  Q 281.10 432.40 279.93 430.21
  Q 278.38 427.31 276.86 423.72
  C 273.90 416.71 270.30 409.96 265.16 404.31
  Q 259.25 397.83 252.02 392.38
  A 0.57 0.56 37.4 0 0 251.23 392.48
  Q 239.46 407.51 229.24 424.05
  Q 227.53 426.81 227.02 430.24
  C 226.63 432.83 223.96 434.25 221.60 433.02
  C 217.49 430.88 220.36 424.06 222.04 421.25
  Q 230.43 407.26 242.31 391.74
  Q 245.27 387.86 248.26 384.79
  Q 248.56 384.48 248.55 384.04
  Q 248.50 381.98 248.23 380.00
  Q 245.53 359.79 244.32 340.04
  Q 244.24 338.79 243.39 339.71
  Q 236.31 347.42 229.88 356.30
  Q 226.16 361.45 224.09 366.67
  A 1.60 1.56 46.8 0 0 224.07 367.81
  C 224.68 369.51 224.84 371.61 222.97 372.63
  C 219.06 374.75 216.61 370.20 216.84 367.04
  C 217.08 363.88 218.80 360.08 220.42 357.35
  Q 227.03 346.21 237.19 335.63
  C 238.72 334.04 240.69 333.03 242.73 332.22
  Q 243.21 332.03 243.12 331.52
  L 241.22 320.65
  Q 241.12 320.07 240.53 320.02
  Q 236.23 319.64 232.31 318.50
  Q 220.19 315.01 207.17 312.68
  C 199.19 311.25 192.03 308.63 184.99 304.43
  Q 176.34 299.26 164.54 294.30
  C 154.83 290.21 146.80 283.77 138.65 276.57
  C 132.62 271.24 125.90 266.73 119.57 261.88
  C 111.51 255.71 105.35 247.22 97.91 240.11
  C 88.28 230.91 81.53 220.55 76.61 207.70
  Q 73.72 200.15 70.72 190.95
  Q 69.33 186.66 69.34 182.82
  Q 69.40 169.27 74.52 158.16
  C 79.50 147.38 86.24 137.82 92.36 127.79
  C 99.04 116.84 109.17 109.49 119.87 102.86
  C 128.49 97.52 138.69 95.79 148.84 96.77
  Q 149.39 96.82 149.51 96.27
  Q 151.59 86.56 156.37 73.93
  Q 158.07 69.45 160.31 65.10
  C 163.53 58.85 169.53 54.54 175.81 51.74
  C 178.03 50.75 178.02 48.36 180.26 47.52
  C 186.97 45.00 194.61 40.99 201.26 40.03
  Q 210.89 38.65 219.46 43.60
  Q 225.43 47.05 232.32 50.66
  Q 236.94 53.08 240.37 56.29
  Q 240.84 56.73 240.99 56.11
  Q 241.58 53.79 243.68 52.19
  C 254.46 43.93 268.59 39.75 282.02 38.75
  C 289.24 38.20 295.23 38.77 300.45 44.32
  Q 305.46 49.64 310.47 53.72
  C 316.77 58.84 321.08 64.05 323.21 71.24
  Q 324.99 77.28 325.80 84.50
  Q 327.50 99.84 326.17 114.88
  Q 326.11 115.55 326.54 115.04
  Z
  M 252.03 55.69
  C 253.39 59.96 250.56 60.97 246.95 61.12
  Q 246.13 61.15 246.77 61.67
  C 250.83 64.98 255.15 69.00 256.93 73.74
  Q 258.14 76.96 258.08 82.71
  Q 258.00 90.89 257.81 98.35
  Q 257.81 98.43 257.89 98.44
  L 257.90 98.44
  Q 258.02 98.46 258.04 98.34
  C 258.57 94.75 261.82 90.07 265.98 91.49
  Q 268.25 92.27 270.67 92.40
  C 282.32 93.03 281.55 104.62 275.78 111.35
  C 270.32 117.72 259.39 118.10 257.01 108.26
  Q 256.76 107.26 256.68 108.29
  C 256.39 111.76 255.01 114.94 253.11 118.09
  Q 246.06 129.81 235.06 138.17
  Q 234.53 138.57 235.00 139.04
  Q 239.16 143.12 240.83 148.29
  C 241.58 150.60 243.08 151.88 244.95 153.29
  Q 252.15 158.72 260.79 157.47
  Q 268.76 156.32 277.91 155.01
  C 281.26 154.54 285.12 153.66 288.10 152.18
  Q 298.13 147.17 310.45 136.20
  C 314.57 132.53 316.12 126.50 316.94 121.07
  C 318.76 108.99 318.75 96.95 317.66 85.22
  C 316.73 75.31 314.74 67.31 307.00 60.97
  Q 300.43 55.57 295.07 49.52
  Q 292.25 46.34 288.47 46.10
  C 276.26 45.33 262.74 49.25 252.33 54.94
  Q 251.87 55.19 252.03 55.69
  Z
  M 209.85 48.93
  Q 208.96 48.61 209.52 49.37
  C 212.68 53.64 207.38 57.57 204.87 54.09
  Q 204.26 53.24 203.56 52.47
  Q 203.17 52.04 202.61 51.95
  Q 199.64 51.48 196.93 52.15
  Q 186.79 54.65 176.72 59.86
  Q 169.30 63.69 166.47 69.97
  C 160.82 82.49 155.88 97.01 156.09 110.78
  Q 156.18 117.30 159.59 121.62
  C 167.41 131.54 174.98 140.77 188.61 142.36
  Q 198.17 143.48 206.18 142.81
  C 219.38 141.70 234.68 128.73 242.15 118.51
  C 246.69 112.31 249.18 106.63 249.07 98.81
  Q 248.95 89.46 249.07 80.25
  C 249.11 76.85 247.31 74.32 244.91 72.06
  C 238.20 65.73 232.35 60.67 224.12 56.39
  C 219.59 54.02 214.81 50.71 209.85 48.93
  Z
  M 343.85 128.99
  C 339.98 127.32 336.32 125.02 332.67 122.93
  C 330.63 121.75 327.12 121.72 325.96 119.51
  Q 325.56 118.76 325.48 119.61
  C 324.56 129.49 322.20 137.39 314.46 144.08
  Q 302.56 154.37 292.17 159.76
  C 286.32 162.79 280.43 163.21 273.89 164.19
  C 269.44 164.85 264.70 165.91 260.14 166.02
  C 256.47 166.11 252.66 166.31 249.27 165.11
  C 243.56 163.08 235.71 158.52 233.47 152.36
  Q 231.77 147.68 228.46 143.62
  Q 228.10 143.18 227.63 143.49
  Q 217.58 150.03 209.00 151.13
  Q 200.87 152.18 187.90 150.79
  C 172.76 149.17 164.55 140.31 154.99 128.80
  Q 147.66 119.97 148.23 110.58
  Q 148.42 107.45 148.54 104.15
  Q 148.57 103.59 148.00 103.57
  Q 134.83 103.21 126.62 107.64
  Q 116.12 113.30 105.86 122.87
  C 103.60 124.97 101.51 127.52 99.90 130.15
  C 93.59 140.47 86.35 150.72 81.37 161.88
  Q 77.47 170.62 77.20 182.24
  Q 77.13 185.49 78.34 189.03
  Q 80.37 195.00 82.52 201.08
  C 86.09 211.21 91.59 222.25 98.96 229.72
  C 102.88 233.70 106.85 237.44 110.67 241.61
  C 114.00 245.23 117.21 248.97 120.88 252.31
  C 127.54 258.37 136.09 263.45 140.58 267.41
  Q 150.70 276.31 157.13 280.84
  C 165.73 286.88 178.19 290.44 188.09 296.69
  Q 195.98 301.67 204.45 303.63
  C 212.65 305.52 221.22 306.80 229.47 309.26
  Q 237.19 311.56 246.09 312.63
  Q 250.69 313.19 255.40 314.21
  C 269.35 317.23 283.88 317.38 297.69 314.74
  C 308.70 312.63 318.80 306.97 328.11 300.66
  C 336.24 295.16 344.32 286.63 350.42 279.73
  Q 361.25 267.49 370.93 249.63
  Q 372.68 246.40 375.40 237.47
  C 377.17 231.69 379.49 226.07 381.77 220.50
  C 385.10 212.38 385.62 202.56 385.19 193.95
  Q 385.13 192.75 384.67 191.63
  Q 381.37 183.64 379.31 175.45
  C 378.16 170.89 374.72 167.09 372.03 163.39
  C 368.55 158.60 366.45 152.64 362.43 148.82
  Q 356.21 142.93 352.02 135.88
  C 350.00 132.47 347.42 130.55 343.85 128.99
  Z"
/>
<path fill="#ffffff" d="
  M 252.03 55.69
  Q 251.87 55.19 252.33 54.94
  C 262.74 49.25 276.26 45.33 288.47 46.10
  Q 292.25 46.34 295.07 49.52
  Q 300.43 55.57 307.00 60.97
  C 314.74 67.31 316.73 75.31 317.66 85.22
  C 318.75 96.95 318.76 108.99 316.94 121.07
  C 316.12 126.50 314.57 132.53 310.45 136.20
  Q 298.13 147.17 288.10 152.18
  C 285.12 153.66 281.26 154.54 277.91 155.01
  Q 268.76 156.32 260.79 157.47
  Q 252.15 158.72 244.95 153.29
  C 243.08 151.88 241.58 150.60 240.83 148.29
  Q 239.16 143.12 235.00 139.04
  Q 234.53 138.57 235.06 138.17
  Q 246.06 129.81 253.11 118.09
  C 255.01 114.94 256.39 111.76 256.68 108.29
  Q 256.76 107.26 257.01 108.26
  C 259.39 118.10 270.32 117.72 275.78 111.35
  C 281.55 104.62 282.32 93.03 270.67 92.40
  Q 268.25 92.27 265.98 91.49
  C 261.82 90.07 258.57 94.75 258.04 98.34
  Q 258.02 98.46 257.90 98.44
  L 257.89 98.44
  Q 257.81 98.43 257.81 98.35
  Q 258.00 90.89 258.08 82.71
  Q 258.14 76.96 256.93 73.74
  C 255.15 69.00 250.83 64.98 246.77 61.67
  Q 246.13 61.15 246.95 61.12
  C 250.56 60.97 253.39 59.96 252.03 55.69
  Z"
/>
<path fill="#ffffff" d="
  M 209.85 48.93
  C 214.81 50.71 219.59 54.02 224.12 56.39
  C 232.35 60.67 238.20 65.73 244.91 72.06
  C 247.31 74.32 249.11 76.85 249.07 80.25
  Q 248.95 89.46 249.07 98.81
  C 249.18 106.63 246.69 112.31 242.15 118.51
  C 234.68 128.73 219.38 141.70 206.18 142.81
  Q 198.17 143.48 188.61 142.36
  C 174.98 140.77 167.41 131.54 159.59 121.62
  Q 156.18 117.30 156.09 110.78
  C 155.88 97.01 160.82 82.49 166.47 69.97
  Q 169.30 63.69 176.72 59.86
  Q 186.79 54.65 196.93 52.15
  Q 199.64 51.48 202.61 51.95
  Q 203.17 52.04 203.56 52.47
  Q 204.26 53.24 204.87 54.09
  C 207.38 57.57 212.68 53.64 209.52 49.37
  Q 208.96 48.61 209.85 48.93
  Z
  M 240.01 102.65
  C 242.61 94.32 234.94 86.99 226.66 91.82
  C 225.26 92.64 223.60 92.49 222.03 92.44
  Q 221.46 92.42 221.05 92.80
  Q 218.66 95.04 220.32 97.80
  Q 220.60 98.28 220.50 98.82
  C 219.63 103.48 219.92 108.76 223.69 112.05
  C 227.52 115.40 232.85 115.09 235.99 110.87
  Q 238.48 107.54 240.01 102.65
  Z"
/>
<path fill="#000000" d="
  M 735.15 91.90
  Q 735.11 92.82 735.83 92.25
  Q 739.53 89.37 743.67 89.76
  Q 744.26 89.81 744.80 90.08
  L 745.89 90.63
  Q 746.52 90.95 746.78 90.29
  Q 750.26 81.43 756.17 75.45
  A 3.10 3.10 0.0 0 1 760.55 75.43
  L 761.08 75.96
  A 2.12 2.11 43.6 0 1 761.16 78.88
  Q 755.29 85.40 752.63 92.00
  Q 751.81 94.02 751.64 96.89
  Q 751.57 98.07 752.66 98.50
  Q 752.66 98.50 757.06 100.24
  Q 758.16 100.68 758.22 99.50
  Q 758.36 96.84 760.82 93.44
  Q 769.12 81.96 776.47 76.32
  Q 778.62 74.68 780.77 76.32
  Q 781.11 76.57 781.30 76.94
  Q 782.46 79.15 780.63 80.84
  C 774.57 86.41 768.26 92.78 764.48 100.03
  Q 763.77 101.39 763.54 102.95
  Q 763.44 103.56 763.97 103.87
  C 776.26 111.28 783.86 121.55 778.61 136.60
  Q 778.34 137.38 779.16 137.36
  C 780.32 137.34 781.73 137.49 782.82 137.82
  Q 789.03 139.73 795.41 140.67
  C 806.34 142.28 812.70 147.34 814.41 159.20
  Q 815.35 165.68 815.72 172.62
  Q 816.64 189.31 816.52 206.55
  Q 816.40 224.70 810.87 240.73
  Q 804.97 257.82 795.97 273.08
  Q 792.00 279.83 785.84 286.49
  C 775.47 297.72 764.72 307.75 750.26 312.82
  Q 732.95 318.88 715.34 317.40
  Q 715.02 317.37 715.06 317.69
  L 715.62 322.52
  Q 715.66 322.85 715.99 322.83
  C 724.10 322.42 738.39 327.04 736.99 337.83
  C 736.66 340.44 733.29 341.08 731.70 339.23
  C 730.41 337.72 731.50 335.54 730.00 334.21
  Q 724.43 329.28 716.79 329.47
  Q 716.21 329.48 716.27 330.06
  Q 716.72 334.23 716.46 338.74
  C 716.08 345.17 716.87 351.37 716.11 357.75
  Q 716.05 358.26 716.48 358.54
  Q 719.38 360.46 721.64 364.36
  C 725.12 370.36 727.88 376.46 731.11 382.41
  Q 733.24 386.33 735.11 389.70
  Q 736.43 392.07 734.35 393.80
  Q 733.99 394.10 733.53 394.23
  Q 731.77 394.73 730.56 393.36
  Q 728.76 391.31 727.40 388.75
  C 723.19 380.79 719.44 372.40 714.48 364.99
  Q 714.26 364.65 713.90 364.50
  A 0.55 0.54 25.2 0 0 713.21 364.74
  Q 705.57 378.68 698.24 391.19
  Q 695.66 395.61 694.10 401.26
  A 2.29 2.27 86.9 0 1 692.76 402.77
  Q 691.54 403.26 690.53 402.87
  Q 688.01 401.91 688.55 399.27
  Q 689.74 393.43 692.83 387.97
  Q 699.96 375.39 707.04 362.76
  C 707.99 361.07 710.04 359.42 710.22 357.52
  C 711.04 348.58 709.89 340.75 710.08 332.28
  Q 710.09 331.59 709.41 331.68
  Q 707.56 331.92 705.67 332.07
  C 697.47 332.74 692.76 328.55 687.71 322.90
  Q 685.56 320.49 681.75 319.62
  Q 679.55 319.12 679.24 316.88
  Q 679.18 316.40 679.36 315.94
  Q 680.34 313.45 683.00 313.76
  C 689.05 314.47 692.07 318.16 696.01 322.03
  C 700.48 326.43 703.18 325.10 708.29 325.58
  Q 709.84 325.72 709.53 324.19
  Q 708.95 321.30 708.97 318.19
  Q 708.98 316.99 707.80 316.82
  Q 694.89 314.91 680.60 311.59
  Q 669.55 309.01 662.58 305.62
  C 649.05 299.02 637.74 289.10 627.10 278.55
  Q 617.46 268.99 612.61 258.01
  Q 606.16 243.41 603.49 228.90
  C 601.23 216.58 605.93 204.10 606.21 191.64
  C 606.38 184.14 605.53 175.79 607.24 168.55
  Q 610.06 156.60 615.84 148.34
  C 625.67 134.27 637.61 125.31 652.60 117.53
  Q 656.58 115.47 660.48 116.53
  Q 660.97 116.67 661.14 116.18
  Q 663.94 108.02 666.54 99.63
  Q 668.35 93.81 674.99 92.35
  Q 675.91 92.15 675.76 91.23
  Q 674.30 81.97 671.14 72.88
  Q 670.21 70.20 672.80 69.02
  Q 673.65 68.63 674.66 68.74
  A 2.35 2.33 81.9 0 1 676.57 70.18
  Q 680.68 80.15 681.37 90.15
  A 0.29 0.28 -7.8 0 0 681.72 90.41
  L 686.99 89.24
  Q 687.35 89.16 687.33 88.79
  Q 687.05 82.52 688.41 73.94
  Q 688.85 71.15 691.66 71.49
  Q 692.49 71.59 693.22 72.07
  A 2.30 2.30 0.0 0 1 694.25 74.18
  L 693.04 88.55
  Q 692.97 89.30 693.73 89.31
  Q 696.27 89.35 698.66 90.27
  Q 699.45 90.58 699.70 89.76
  Q 702.39 80.93 705.64 72.58
  A 2.62 2.61 -87.9 0 1 707.32 71.02
  Q 708.85 70.54 709.88 71.09
  Q 712.03 72.24 711.21 74.54
  L 704.76 92.45
  Q 704.58 92.97 705.06 93.23
  C 710.01 95.86 714.55 98.97 714.82 104.59
  C 714.97 107.60 716.77 109.35 717.82 111.98
  Q 718.13 112.76 718.49 112.00
  Q 720.64 107.44 723.95 103.30
  C 724.70 102.36 724.87 101.04 725.47 100.02
  C 726.20 98.78 727.51 98.61 728.65 97.91
  Q 729.16 97.59 729.18 97.00
  Q 729.50 86.02 728.91 75.45
  Q 728.81 73.55 730.45 72.60
  Q 730.99 72.29 731.56 72.28
  Q 734.41 72.24 734.73 75.08
  Q 735.60 82.93 735.15 91.90
  Z
  M 697.76 99.61
  L 697.24 97.88
  Q 697.08 97.33 696.54 97.17
  Q 693.90 96.38 691.54 97.36
  Q 690.99 97.58 690.45 97.35
  Q 688.55 96.54 686.50 97.05
  Q 681.99 98.17 677.51 99.42
  C 676.00 99.84 674.15 100.47 673.65 102.11
  C 670.75 111.56 667.33 120.49 665.50 130.51
  Q 665.23 132.00 666.00 130.69
  Q 667.27 128.55 668.72 126.49
  C 671.00 123.24 675.77 124.27 678.89 125.80
  C 680.80 126.73 681.33 129.06 682.59 130.68
  C 684.01 132.53 684.08 135.22 683.36 137.33
  C 681.70 142.23 675.64 147.14 670.01 145.00
  Q 667.86 144.19 665.29 143.63
  Q 664.87 143.53 664.83 143.97
  Q 664.34 150.02 665.66 153.33
  C 667.80 158.72 670.37 164.36 675.02 168.51
  Q 679.14 172.19 682.53 175.50
  C 687.87 180.72 698.07 175.36 702.46 171.07
  Q 705.32 168.28 708.30 165.23
  Q 708.65 164.87 708.43 164.42
  Q 707.18 161.82 706.97 158.78
  Q 705.63 139.25 712.68 123.69
  Q 712.98 123.04 712.78 122.35
  Q 712.27 120.50 712.72 118.52
  C 714.10 112.45 706.28 109.48 705.99 103.26
  Q 705.97 102.75 705.64 102.36
  Q 704.46 100.95 702.72 100.27
  Q 702.27 100.10 701.85 100.32
  Q 700.21 101.17 698.56 100.50
  Q 697.94 100.25 697.76 99.61
  Z
  M 767.26 142.46
  C 767.28 139.78 767.87 139.26 770.06 137.98
  Q 770.65 137.64 770.93 137.02
  C 775.12 127.63 772.94 119.58 764.90 113.59
  C 756.23 107.12 744.49 101.89 734.09 103.29
  A 2.75 2.73 -72.2 0 0 732.45 104.14
  C 725.66 111.34 720.88 121.33 717.62 130.58
  Q 713.33 142.73 714.27 156.52
  C 714.44 158.96 714.10 160.89 716.36 162.48
  Q 716.87 162.83 717.06 163.41
  Q 717.94 166.05 720.93 166.84
  C 728.49 168.84 735.96 167.92 742.90 163.67
  Q 756.82 155.14 766.92 143.39
  A 1.45 1.42 65.5 0 0 767.26 142.46
  Z
  M 791.00 267.51
  C 798.79 253.62 805.47 238.02 808.04 222.57
  Q 809.29 215.05 809.34 203.16
  Q 809.42 183.87 808.18 166.96
  C 807.91 163.22 807.40 159.33 806.29 155.72
  Q 804.28 149.16 796.31 147.98
  Q 788.83 146.88 781.07 144.78
  Q 778.38 144.05 775.28 144.24
  Q 774.83 144.27 774.58 144.65
  Q 772.33 148.15 769.13 151.52
  Q 758.81 162.40 746.55 170.14
  Q 735.74 176.97 722.26 174.82
  Q 717.04 173.99 713.49 171.11
  Q 713.03 170.74 712.68 171.21
  Q 709.40 175.53 704.88 179.13
  C 699.12 183.74 689.40 187.26 682.23 184.37
  Q 678.91 183.03 674.86 179.01
  C 670.29 174.49 665.63 170.86 662.68 165.02
  C 660.62 160.93 657.55 155.74 657.32 151.14
  Q 656.65 138.11 658.69 125.58
  Q 658.80 124.91 658.34 124.40
  Q 657.75 123.74 656.96 123.31
  Q 656.34 122.98 655.68 123.34
  Q 647.16 127.95 640.93 132.34
  Q 630.96 139.37 622.55 150.65
  C 616.59 158.65 612.87 169.56 613.12 180.01
  C 613.29 186.79 613.49 193.91 612.38 200.74
  C 611.38 206.98 610.31 213.13 610.01 219.51
  C 609.60 228.37 612.25 236.79 615.30 245.73
  C 619.25 257.27 624.21 265.94 632.90 274.37
  C 646.16 287.21 659.66 298.78 676.11 303.10
  C 689.96 306.73 704.25 309.79 719.01 310.55
  C 734.14 311.33 751.40 306.88 762.94 298.26
  C 772.95 290.78 784.52 279.09 791.00 267.51
  Z"
/>
<path fill="#000000" d="
  M 240.01 102.65
  Q 238.48 107.54 235.99 110.87
  C 232.85 115.09 227.52 115.40 223.69 112.05
  C 219.92 108.76 219.63 103.48 220.50 98.82
  Q 220.60 98.28 220.32 97.80
  Q 218.66 95.04 221.05 92.80
  Q 221.46 92.42 222.03 92.44
  C 223.60 92.49 225.26 92.64 226.66 91.82
  C 234.94 86.99 242.61 94.32 240.01 102.65
  Z"
/>
<path fill="#000000" d="
  M 920.74 107.15
  Q 926.10 101.00 933.58 95.34
  C 939.48 90.89 944.69 89.65 948.45 97.53
  C 948.90 98.49 948.89 99.69 948.08 100.44
  Q 947.57 100.92 948.23 101.13
  Q 954.29 103.10 963.12 110.07
  Q 974.72 119.23 969.56 133.38
  A 0.52 0.52 0.0 0 0 970.06 134.08
  Q 976.78 133.94 983.60 134.07
  Q 995.84 134.31 1003.21 144.92
  C 1008.55 152.60 1013.20 161.37 1013.27 170.41
  Q 1013.35 182.29 1010.75 198.90
  Q 1009.18 208.92 1006.69 215.85
  C 1003.26 225.34 996.42 234.83 988.33 241.61
  Q 981.95 246.97 975.59 251.68
  C 966.13 258.70 955.17 263.59 943.69 268.20
  Q 930.68 273.43 918.39 271.69
  Q 917.68 271.58 917.74 272.31
  Q 918.17 277.33 918.19 282.00
  Q 918.20 284.03 919.34 285.73
  C 925.08 294.29 934.54 300.55 943.94 302.82
  C 946.09 303.34 948.35 304.23 950.34 305.15
  C 952.89 306.32 952.25 310.19 949.72 311.04
  C 948.30 311.51 946.68 310.38 945.24 310.19
  Q 929.98 308.14 918.95 296.25
  Q 918.55 295.82 918.55 296.41
  Q 918.47 311.82 918.09 326.94
  C 918.04 328.94 917.71 330.82 917.71 332.75
  Q 917.73 341.32 917.48 349.67
  Q 917.41 351.83 918.40 353.91
  C 922.44 362.40 927.86 370.50 932.96 378.49
  Q 935.38 382.27 938.43 391.14
  C 939.25 393.52 942.74 397.00 940.56 399.44
  Q 938.59 401.64 936.14 400.41
  C 933.82 399.25 932.45 396.09 931.65 393.66
  Q 928.97 385.51 924.76 378.98
  C 919.77 371.23 914.74 363.59 911.32 355.04
  Q 911.12 354.53 910.97 355.06
  Q 909.73 359.59 907.13 364.21
  Q 898.50 379.54 888.62 393.77
  Q 886.97 396.14 884.13 395.61
  Q 883.62 395.52 883.22 395.19
  Q 880.43 392.91 882.52 389.98
  C 891.52 377.35 900.70 364.20 906.50 349.98
  Q 907.99 346.31 910.87 344.52
  Q 911.31 344.26 911.29 343.75
  Q 911.02 337.68 911.30 332.36
  Q 911.63 326.36 911.71 320.88
  Q 911.92 306.06 912.01 289.38
  Q 912.02 287.11 910.59 288.87
  Q 898.72 303.49 883.27 317.01
  Q 881.14 318.88 878.69 317.45
  C 876.36 316.10 876.74 313.19 878.54 311.62
  Q 893.29 298.77 905.41 283.87
  Q 908.35 280.25 911.74 279.30
  Q 912.16 279.18 912.09 278.75
  Q 911.58 275.40 912.14 271.91
  Q 912.24 271.28 911.60 271.21
  C 901.71 270.23 892.26 266.65 882.57 262.45
  Q 877.38 260.20 872.71 256.84
  C 856.43 245.11 842.62 230.98 836.98 211.87
  Q 834.07 201.99 831.10 191.40
  Q 830.08 187.78 830.07 183.24
  C 830.05 171.48 830.17 160.15 834.41 149.33
  C 839.90 135.32 846.32 126.24 861.82 123.09
  A 0.85 0.85 0.0 0 0 862.44 122.55
  Q 865.03 115.65 868.08 108.81
  C 871.03 102.20 878.03 97.73 884.05 94.34
  Q 891.14 90.35 899.49 92.47
  Q 909.53 95.01 917.16 100.74
  Q 920.54 103.28 920.36 106.99
  Q 920.33 107.61 920.74 107.15
  Z
  M 939.97 99.34
  L 942.06 99.71
  Q 942.88 99.85 942.43 99.16
  Q 942.22 98.83 941.88 98.70
  Q 940.83 98.30 939.90 99.06
  A 0.16 0.16 0.0 0 0 939.97 99.34
  Z
  M 874.63 111.89
  C 872.03 117.68 869.13 123.84 867.97 130.11
  C 866.53 137.87 873.03 147.01 878.67 152.29
  C 882.53 155.90 892.00 160.39 897.51 157.05
  Q 903.64 153.33 909.06 148.22
  Q 909.46 147.84 909.23 147.35
  Q 907.98 144.67 907.78 141.76
  Q 906.56 123.65 917.10 111.40
  Q 917.71 110.69 916.77 110.70
  Q 914.14 110.73 913.79 107.92
  Q 913.70 107.21 913.18 106.71
  Q 911.82 105.42 909.87 104.44
  C 904.41 101.69 897.53 98.17 891.32 99.35
  Q 888.55 99.88 885.44 101.95
  C 881.35 104.67 876.66 107.40 874.63 111.89
  Z
  M 948.01 109.01
  Q 943.61 106.97 936.81 105.83
  C 934.15 105.39 931.22 106.65 929.34 108.34
  Q 925.38 111.88 920.96 117.96
  Q 914.62 126.69 914.83 139.20
  C 915.00 148.86 923.55 155.99 933.03 155.40
  C 937.49 155.12 941.46 152.83 944.98 150.31
  C 952.82 144.71 962.86 136.32 963.68 125.99
  Q 964.08 120.88 960.27 117.45
  Q 953.96 111.77 948.01 109.01
  Z
  M 891.94 165.53
  C 884.65 164.85 877.94 162.04 872.78 156.82
  C 866.20 150.17 859.38 139.80 860.69 130.73
  A 0.32 0.32 0.0 0 0 860.28 130.37
  Q 851.10 132.96 846.53 140.38
  Q 838.32 153.69 837.57 168.37
  Q 837.21 175.52 837.25 182.46
  Q 837.28 186.93 838.49 190.89
  Q 841.12 199.52 843.35 207.80
  C 846.02 217.69 851.07 226.77 858.30 234.48
  Q 867.25 244.03 877.86 251.41
  Q 881.75 254.11 886.03 255.88
  C 892.66 258.62 899.53 261.44 906.50 262.91
  Q 915.23 264.74 926.36 264.71
  C 931.00 264.69 935.56 263.28 939.86 261.67
  Q 953.61 256.52 963.25 250.93
  C 970.73 246.59 978.56 240.31 985.15 234.53
  Q 992.90 227.73 997.96 217.42
  Q 1001.19 210.87 1003.04 200.21
  Q 1005.65 185.20 1005.89 171.61
  C 1006.00 164.96 1003.30 158.93 999.99 153.38
  C 995.64 146.07 991.64 141.35 983.02 141.29
  Q 976.71 141.25 970.58 141.25
  C 969.12 141.26 967.72 140.77 966.29 140.70
  Q 965.77 140.67 965.44 141.08
  Q 957.91 150.68 947.18 157.74
  C 935.65 165.32 922.33 164.36 913.15 153.91
  Q 912.84 153.55 912.53 153.92
  Q 907.48 159.98 899.90 164.10
  C 897.39 165.46 894.76 165.80 891.94 165.53
  Z"
/>
<path fill="#ffffff" d="
  M 698.56 100.50
  Q 700.21 101.17 701.85 100.32
  Q 702.27 100.10 702.72 100.27
  Q 704.46 100.95 705.64 102.36
  Q 705.97 102.75 705.99 103.26
  C 706.28 109.48 714.10 112.45 712.72 118.52
  Q 712.27 120.50 712.78 122.35
  Q 712.98 123.04 712.68 123.69
  Q 705.63 139.25 706.97 158.78
  Q 707.18 161.82 708.43 164.42
  Q 708.65 164.87 708.30 165.23
  Q 705.32 168.28 702.46 171.07
  C 698.07 175.36 687.87 180.72 682.53 175.50
  Q 679.14 172.19 675.02 168.51
  C 670.37 164.36 667.80 158.72 665.66 153.33
  Q 664.34 150.02 664.83 143.97
  Q 664.87 143.53 665.29 143.63
  Q 667.86 144.19 670.01 145.00
  C 675.64 147.14 681.70 142.23 683.36 137.33
  C 684.08 135.22 684.01 132.53 682.59 130.68
  C 681.33 129.06 680.80 126.73 678.89 125.80
  C 675.77 124.27 671.00 123.24 668.72 126.49
  Q 667.27 128.55 666.00 130.69
  Q 665.23 132.00 665.50 130.51
  C 667.33 120.49 670.75 111.56 673.65 102.11
  C 674.15 100.47 676.00 99.84 677.51 99.42
  Q 681.99 98.17 686.50 97.05
  Q 688.55 96.54 690.45 97.35
  Q 690.99 97.58 691.54 97.36
  Q 693.90 96.38 696.54 97.17
  Q 697.08 97.33 697.24 97.88
  L 697.76 99.61
  Q 697.94 100.25 698.56 100.50
  Z"
/>
<path fill="#ffffff" d="
  M 939.97 99.34
  A 0.16 0.16 0.0 0 1 939.90 99.06
  Q 940.83 98.30 941.88 98.70
  Q 942.22 98.83 942.43 99.16
  Q 942.88 99.85 942.06 99.71
  L 939.97 99.34
  Z"
/>
<path fill="#ffffff" d="
  M 867.97 130.11
  C 869.13 123.84 872.03 117.68 874.63 111.89
  C 876.66 107.40 881.35 104.67 885.44 101.95
  Q 888.55 99.88 891.32 99.35
  C 897.53 98.17 904.41 101.69 909.87 104.44
  Q 911.82 105.42 913.18 106.71
  Q 913.70 107.21 913.79 107.92
  Q 914.14 110.73 916.77 110.70
  Q 917.71 110.69 917.10 111.40
  Q 906.56 123.65 907.78 141.76
  Q 907.98 144.67 909.23 147.35
  Q 909.46 147.84 909.06 148.22
  Q 903.64 153.33 897.51 157.05
  C 892.00 160.39 882.53 155.90 878.67 152.29
  C 873.03 147.01 866.53 137.87 867.97 130.11
  Z
  M 883.3048 122.4865
  A 8.43 7.13 -43.6 0 0 872.2830 123.1367
  A 8.43 7.13 -43.6 0 0 871.0952 134.1135
  A 8.43 7.13 -43.6 0 0 882.1170 133.4633
  A 8.43 7.13 -43.6 0 0 883.3048 122.4865
  Z"
/>
<path fill="#ffffff" d="
  M 770.06 137.98
  C 767.87 139.26 767.28 139.78 767.26 142.46
  A 1.45 1.42 65.5 0 1 766.92 143.39
  Q 756.82 155.14 742.90 163.67
  C 735.96 167.92 728.49 168.84 720.93 166.84
  Q 717.94 166.05 717.06 163.41
  Q 716.87 162.83 716.36 162.48
  C 714.10 160.89 714.44 158.96 714.27 156.52
  Q 713.33 142.73 717.62 130.58
  C 720.88 121.33 725.66 111.34 732.45 104.14
  A 2.75 2.73 -72.2 0 1 734.09 103.29
  C 744.49 101.89 756.23 107.12 764.90 113.59
  C 772.94 119.58 775.12 127.63 770.93 137.02
  Q 770.65 137.64 770.06 137.98
  Z
  M 729.31 144.25
  Q 732.80 141.56 735.83 137.09
  Q 737.88 134.07 736.60 129.54
  C 735.63 126.08 733.97 123.61 730.03 124.01
  C 726.10 124.42 722.46 124.47 721.32 129.24
  C 720.57 132.37 718.95 136.81 719.86 139.86
  C 721.03 143.73 725.34 147.32 729.31 144.25
  Z"
/>
<path fill="#ffffff" d="
  M 343.85 128.99
  C 347.42 130.55 350.00 132.47 352.02 135.88
  Q 356.21 142.93 362.43 148.82
  C 366.45 152.64 368.55 158.60 372.03 163.39
  C 374.72 167.09 378.16 170.89 379.31 175.45
  Q 381.37 183.64 384.67 191.63
  Q 385.13 192.75 385.19 193.95
  C 385.62 202.56 385.10 212.38 381.77 220.50
  C 379.49 226.07 377.17 231.69 375.40 237.47
  Q 372.68 246.40 370.93 249.63
  Q 361.25 267.49 350.42 279.73
  C 344.32 286.63 336.24 295.16 328.11 300.66
  C 318.80 306.97 308.70 312.63 297.69 314.74
  C 283.88 317.38 269.35 317.23 255.40 314.21
  Q 250.69 313.19 246.09 312.63
  Q 237.19 311.56 229.47 309.26
  C 221.22 306.80 212.65 305.52 204.45 303.63
  Q 195.98 301.67 188.09 296.69
  C 178.19 290.44 165.73 286.88 157.13 280.84
  Q 150.70 276.31 140.58 267.41
  C 136.09 263.45 127.54 258.37 120.88 252.31
  C 117.21 248.97 114.00 245.23 110.67 241.61
  C 106.85 237.44 102.88 233.70 98.96 229.72
  C 91.59 222.25 86.09 211.21 82.52 201.08
  Q 80.37 195.00 78.34 189.03
  Q 77.13 185.49 77.20 182.24
  Q 77.47 170.62 81.37 161.88
  C 86.35 150.72 93.59 140.47 99.90 130.15
  C 101.51 127.52 103.60 124.97 105.86 122.87
  Q 116.12 113.30 126.62 107.64
  Q 134.83 103.21 148.00 103.57
  Q 148.57 103.59 148.54 104.15
  Q 148.42 107.45 148.23 110.58
  Q 147.66 119.97 154.99 128.80
  C 164.55 140.31 172.76 149.17 187.90 150.79
  Q 200.87 152.18 209.00 151.13
  Q 217.58 150.03 227.63 143.49
  Q 228.10 143.18 228.46 143.62
  Q 231.77 147.68 233.47 152.36
  C 235.71 158.52 243.56 163.08 249.27 165.11
  C 252.66 166.31 256.47 166.11 260.14 166.02
  C 264.70 165.91 269.44 164.85 273.89 164.19
  C 280.43 163.21 286.32 162.79 292.17 159.76
  Q 302.56 154.37 314.46 144.08
  C 322.20 137.39 324.56 129.49 325.48 119.61
  Q 325.56 118.76 325.96 119.51
  C 327.12 121.72 330.63 121.75 332.67 122.93
  C 336.32 125.02 339.98 127.32 343.85 128.99
  Z
  M 234.20 193.98
  Q 229.03 195.25 224.55 197.14
  Q 222.47 198.03 222.52 200.29
  Q 222.53 200.83 222.75 201.30
  Q 224.02 204.14 226.99 203.19
  Q 231.36 201.80 236.85 200.02
  Q 241.85 198.40 241.55 194.44
  C 241.14 189.00 233.65 183.36 229.30 181.58
  Q 224.92 179.79 221.31 177.25
  Q 220.83 176.91 220.24 176.97
  Q 217.00 177.32 216.93 180.69
  A 1.67 1.66 -63.3 0 0 217.27 181.73
  Q 219.52 184.59 223.19 185.98
  C 227.55 187.64 231.53 189.81 234.40 193.39
  Q 234.77 193.85 234.20 193.98
  Z
  M 254.86 254.00
  Q 252.32 260.17 249.41 263.65
  Q 242.65 271.76 231.88 270.10
  Q 221.00 268.43 214.35 264.00
  C 209.17 260.55 202.00 255.18 198.61 249.66
  Q 192.39 239.55 191.99 228.34
  C 191.85 224.35 186.51 224.23 186.06 228.19
  Q 185.48 233.39 186.13 237.00
  C 187.57 245.06 191.50 254.00 197.67 260.08
  Q 205.36 267.64 212.42 271.94
  Q 219.87 276.48 232.36 278.18
  C 242.06 279.49 252.05 274.55 257.34 266.33
  Q 265.73 253.30 265.66 239.70
  Q 265.64 235.36 264.54 231.76
  Q 263.69 228.95 260.75 228.90
  C 258.11 228.86 256.64 231.17 257.13 233.48
  Q 259.25 243.33 254.86 254.00
  Z"
/>
<path fill="#ffffff" d="
  M 948.01 109.01
  Q 953.96 111.77 960.27 117.45
  Q 964.08 120.88 963.68 125.99
  C 962.86 136.32 952.82 144.71 944.98 150.31
  C 941.46 152.83 937.49 155.12 933.03 155.40
  C 923.55 155.99 915.00 148.86 914.83 139.20
  Q 914.62 126.69 920.96 117.96
  Q 925.38 111.88 929.34 108.34
  C 931.22 106.65 934.15 105.39 936.81 105.83
  Q 943.61 106.97 948.01 109.01
  Z
  M 918.8433 136.6780
  A 7.13 6.19 123.9 0 0 927.9578 134.2124
  A 7.13 6.19 123.9 0 0 926.7967 124.8420
  A 7.13 6.19 123.9 0 0 917.6822 127.3076
  A 7.13 6.19 123.9 0 0 918.8433 136.6780
  Z"
/>
<ellipse fill="#000000" cx="0.00" cy="0.00" transform="translate(877.20,128.30) rotate(-43.6)" rx="8.43" ry="7.13"/>
<path fill="#ffffff" d="
  M 808.04 222.57
  C 805.47 238.02 798.79 253.62 791.00 267.51
  C 784.52 279.09 772.95 290.78 762.94 298.26
  C 751.40 306.88 734.14 311.33 719.01 310.55
  C 704.25 309.79 689.96 306.73 676.11 303.10
  C 659.66 298.78 646.16 287.21 632.90 274.37
  C 624.21 265.94 619.25 257.27 615.30 245.73
  C 612.25 236.79 609.60 228.37 610.01 219.51
  C 610.31 213.13 611.38 206.98 612.38 200.74
  C 613.49 193.91 613.29 186.79 613.12 180.01
  C 612.87 169.56 616.59 158.65 622.55 150.65
  Q 630.96 139.37 640.93 132.34
  Q 647.16 127.95 655.68 123.34
  Q 656.34 122.98 656.96 123.31
  Q 657.75 123.74 658.34 124.40
  Q 658.80 124.91 658.69 125.58
  Q 656.65 138.11 657.32 151.14
  C 657.55 155.74 660.62 160.93 662.68 165.02
  C 665.63 170.86 670.29 174.49 674.86 179.01
  Q 678.91 183.03 682.23 184.37
  C 689.40 187.26 699.12 183.74 704.88 179.13
  Q 709.40 175.53 712.68 171.21
  Q 713.03 170.74 713.49 171.11
  Q 717.04 173.99 722.26 174.82
  Q 735.74 176.97 746.55 170.14
  Q 758.81 162.40 769.13 151.52
  Q 772.33 148.15 774.58 144.65
  Q 774.83 144.27 775.28 144.24
  Q 778.38 144.05 781.07 144.78
  Q 788.83 146.88 796.31 147.98
  Q 804.28 149.16 806.29 155.72
  C 807.40 159.33 807.91 163.22 808.18 166.96
  Q 809.42 183.87 809.34 203.16
  Q 809.29 215.05 808.04 222.57
  Z
  M 704.64 210.54
  Q 706.87 202.81 709.43 194.80
  Q 709.98 193.09 710.07 191.11
  C 710.21 187.96 708.30 184.79 704.73 186.73
  C 702.95 187.69 703.49 189.76 703.37 191.42
  Q 703.28 192.75 702.85 193.99
  Q 699.85 202.65 697.88 210.68
  Q 697.49 212.28 697.42 214.02
  C 697.27 217.64 700.84 219.06 704.01 218.18
  Q 713.10 215.65 718.81 211.43
  Q 720.86 209.92 720.06 207.50
  Q 719.89 206.99 719.51 206.65
  Q 717.73 205.05 716.38 205.78
  Q 710.76 208.83 705.08 210.95
  Q 704.46 211.19 704.64 210.54
  Z
  M 712.76 245.00
  Q 712.11 243.89 710.90 243.61
  C 705.71 242.40 702.98 245.22 700.38 249.06
  C 695.56 256.21 692.29 265.64 694.52 273.48
  C 696.89 281.82 705.18 284.70 712.28 279.78
  C 719.79 274.57 729.94 264.06 724.63 254.00
  C 722.41 249.80 719.17 245.30 713.85 245.58
  Q 713.13 245.62 712.76 245.00
  Z"
/>
<path fill="#000000" d="
  M 729.31 144.25
  C 725.34 147.32 721.03 143.73 719.86 139.86
  C 718.95 136.81 720.57 132.37 721.32 129.24
  C 722.46 124.47 726.10 124.42 730.03 124.01
  C 733.97 123.61 735.63 126.08 736.60 129.54
  Q 737.88 134.07 735.83 137.09
  Q 732.80 141.56 729.31 144.25
  Z"
/>
<ellipse fill="#000000" cx="0.00" cy="0.00" transform="translate(922.82,130.76) rotate(123.9)" rx="7.13" ry="6.19"/>
<path fill="#ffffff" d="
  M 872.78 156.82
  C 877.94 162.04 884.65 164.85 891.94 165.53
  C 894.76 165.80 897.39 165.46 899.90 164.10
  Q 907.48 159.98 912.53 153.92
  Q 912.84 153.55 913.15 153.91
  C 922.33 164.36 935.65 165.32 947.18 157.74
  Q 957.91 150.68 965.44 141.08
  Q 965.77 140.67 966.29 140.70
  C 967.72 140.77 969.12 141.26 970.58 141.25
  Q 976.71 141.25 983.02 141.29
  C 991.64 141.35 995.64 146.07 999.99 153.38
  C 1003.30 158.93 1006.00 164.96 1005.89 171.61
  Q 1005.65 185.20 1003.04 200.21
  Q 1001.19 210.87 997.96 217.42
  Q 992.90 227.73 985.15 234.53
  C 978.56 240.31 970.73 246.59 963.25 250.93
  Q 953.61 256.52 939.86 261.67
  C 935.56 263.28 931.00 264.69 926.36 264.71
  Q 915.23 264.74 906.50 262.91
  C 899.53 261.44 892.66 258.62 886.03 255.88
  Q 881.75 254.11 877.86 251.41
  Q 867.25 244.03 858.30 234.48
  C 851.07 226.77 846.02 217.69 843.35 207.80
  Q 841.12 199.52 838.49 190.89
  Q 837.28 186.93 837.25 182.46
  Q 837.21 175.52 837.57 168.37
  Q 838.32 153.69 846.53 140.38
  Q 851.10 132.96 860.28 130.37
  A 0.32 0.32 0.0 0 1 860.69 130.73
  C 859.38 139.80 866.20 150.17 872.78 156.82
  Z
  M 963.32 172.96
  A 3.31 3.31 0.0 0 0 960.01 169.65
  A 3.31 3.31 0.0 0 0 956.70 172.96
  A 3.31 3.31 0.0 0 0 960.01 176.27
  A 3.31 3.31 0.0 0 0 963.32 172.96
  Z
  M 909.91 186.28
  C 912.54 184.12 919.83 177.28 916.20 173.37
  Q 914.39 171.41 911.99 172.71
  C 910.66 173.43 910.63 174.93 910.03 176.13
  Q 909.49 177.20 908.63 178.10
  Q 904.97 181.91 901.50 186.27
  C 899.71 188.52 900.57 192.28 903.74 192.62
  C 907.78 193.04 911.01 194.84 914.86 195.81
  C 917.04 196.36 918.50 198.65 920.98 197.51
  C 923.68 196.27 922.74 193.05 920.87 191.36
  Q 919.61 190.22 918.12 189.77
  Q 914.31 188.63 910.04 187.04
  Q 909.31 186.77 909.91 186.28
  Z
  M 867.8707 180.4574
  A 3.43 3.06 13.1 0 0 865.2236 176.6996
  A 3.43 3.06 13.1 0 0 861.1893 178.9026
  A 3.43 3.06 13.1 0 0 863.8364 182.6604
  A 3.43 3.06 13.1 0 0 867.8707 180.4574
  Z
  M 978.54 180.14
  A 2.97 2.97 0.0 0 0 975.57 177.17
  A 2.97 2.97 0.0 0 0 972.60 180.14
  A 2.97 2.97 0.0 0 0 975.57 183.11
  A 2.97 2.97 0.0 0 0 978.54 180.14
  Z
  M 966.42 193.40
  A 3.09 3.09 0.0 0 0 963.33 190.31
  A 3.09 3.09 0.0 0 0 960.24 193.40
  A 3.09 3.09 0.0 0 0 963.33 196.49
  A 3.09 3.09 0.0 0 0 966.42 193.40
  Z
  M 860.1514 197.3919
  A 2.76 2.76 0.0 0 0 857.6581 194.3888
  L 857.1204 194.3389
  A 2.76 2.76 0.0 0 0 854.1173 196.8322
  L 854.0286 197.7881
  A 2.76 2.76 0.0 0 0 856.5219 200.7912
  L 857.0596 200.8411
  A 2.76 2.76 0.0 0 0 860.0627 198.3478
  L 860.1514 197.3919
  Z
  M 878.55 199.07
  A 3.08 3.08 0.0 0 0 875.47 195.99
  A 3.08 3.08 0.0 0 0 872.39 199.07
  A 3.08 3.08 0.0 0 0 875.47 202.15
  A 3.08 3.08 0.0 0 0 878.55 199.07
  Z
  M 945.63 219.24
  C 945.19 222.26 941.71 224.85 939.73 227.01
  C 934.47 232.72 927.21 236.46 919.64 238.35
  C 918.07 238.74 916.24 238.63 914.74 238.04
  Q 910.31 236.30 905.46 235.53
  C 903.50 235.21 901.67 234.05 900.77 232.27
  Q 898.43 227.61 895.75 222.83
  Q 895.50 222.39 895.82 222.00
  C 896.50 221.16 897.21 220.16 896.84 219.02
  C 895.79 215.80 892.94 216.62 890.75 217.78
  Q 886.71 219.92 882.83 222.16
  A 2.25 2.25 0.0 0 0 881.71 224.19
  C 881.84 227.20 884.39 227.91 886.73 226.73
  Q 887.92 226.12 889.14 225.66
  A 0.53 0.52 -20.4 0 1 889.81 225.96
  Q 892.46 232.66 895.44 237.21
  C 899.38 243.24 905.92 242.73 911.82 245.15
  Q 917.19 247.34 923.89 245.23
  Q 933.61 242.18 941.05 236.35
  C 943.84 234.16 945.91 231.35 948.46 228.92
  Q 951.49 226.04 952.33 222.64
  Q 952.48 222.04 952.97 222.42
  C 955.04 224.03 959.82 227.04 961.47 223.26
  Q 962.42 221.09 960.27 219.85
  Q 954.46 216.50 949.00 213.14
  C 947.21 212.04 944.57 211.06 942.49 211.73
  C 937.32 213.37 939.22 222.11 945.17 218.92
  Q 945.72 218.63 945.63 219.24
  Z"
/>
<circle fill="#000000" cx="960.01" cy="172.96" r="3.31"/>
<path fill="#000000" d="
  M 910.04 187.04
  Q 914.31 188.63 918.12 189.77
  Q 919.61 190.22 920.87 191.36
  C 922.74 193.05 923.68 196.27 920.98 197.51
  C 918.50 198.65 917.04 196.36 914.86 195.81
  C 911.01 194.84 907.78 193.04 903.74 192.62
  C 900.57 192.28 899.71 188.52 901.50 186.27
  Q 904.97 181.91 908.63 178.10
  Q 909.49 177.20 910.03 176.13
  C 910.63 174.93 910.66 173.43 911.99 172.71
  Q 914.39 171.41 916.20 173.37
  C 919.83 177.28 912.54 184.12 909.91 186.28
  Q 909.31 186.77 910.04 187.04
  Z"
/>
<ellipse fill="#000000" cx="0.00" cy="0.00" transform="translate(864.53,179.68) rotate(13.1)" rx="3.43" ry="3.06"/>
<path fill="#000000" d="
  M 234.40 193.39
  C 231.53 189.81 227.55 187.64 223.19 185.98
  Q 219.52 184.59 217.27 181.73
  A 1.67 1.66 -63.3 0 1 216.93 180.69
  Q 217.00 177.32 220.24 176.97
  Q 220.83 176.91 221.31 177.25
  Q 224.92 179.79 229.30 181.58
  C 233.65 183.36 241.14 189.00 241.55 194.44
  Q 241.85 198.40 236.85 200.02
  Q 231.36 201.80 226.99 203.19
  Q 224.02 204.14 222.75 201.30
  Q 222.53 200.83 222.52 200.29
  Q 222.47 198.03 224.55 197.14
  Q 229.03 195.25 234.20 193.98
  Q 234.77 193.85 234.40 193.39
  Z"
/>
<circle fill="#000000" cx="975.57" cy="180.14" r="2.97"/>
<path fill="#000000" d="
  M 705.08 210.95
  Q 710.76 208.83 716.38 205.78
  Q 717.73 205.05 719.51 206.65
  Q 719.89 206.99 720.06 207.50
  Q 720.86 209.92 718.81 211.43
  Q 713.10 215.65 704.01 218.18
  C 700.84 219.06 697.27 217.64 697.42 214.02
  Q 697.49 212.28 697.88 210.68
  Q 699.85 202.65 702.85 193.99
  Q 703.28 192.75 703.37 191.42
  C 703.49 189.76 702.95 187.69 704.73 186.73
  C 708.30 184.79 710.21 187.96 710.07 191.11
  Q 709.98 193.09 709.43 194.80
  Q 706.87 202.81 704.64 210.54
  Q 704.46 211.19 705.08 210.95
  Z"
/>
<circle fill="#000000" cx="963.33" cy="193.40" r="3.09"/>
<rect fill="#000000" x="-3.03" y="-3.24" transform="translate(857.09,197.59) rotate(5.3)" width="6.06" height="6.48" rx="2.76"/>
<circle fill="#000000" cx="875.47" cy="199.07" r="3.08"/>
<path fill="#000000" d="
  M 945.17 218.92
  C 939.22 222.11 937.32 213.37 942.49 211.73
  C 944.57 211.06 947.21 212.04 949.00 213.14
  Q 954.46 216.50 960.27 219.85
  Q 962.42 221.09 961.47 223.26
  C 959.82 227.04 955.04 224.03 952.97 222.42
  Q 952.48 222.04 952.33 222.64
  Q 951.49 226.04 948.46 228.92
  C 945.91 231.35 943.84 234.16 941.05 236.35
  Q 933.61 242.18 923.89 245.23
  Q 917.19 247.34 911.82 245.15
  C 905.92 242.73 899.38 243.24 895.44 237.21
  Q 892.46 232.66 889.81 225.96
  A 0.53 0.52 -20.4 0 0 889.14 225.66
  Q 887.92 226.12 886.73 226.73
  C 884.39 227.91 881.84 227.20 881.71 224.19
  A 2.25 2.25 0.0 0 1 882.83 222.16
  Q 886.71 219.92 890.75 217.78
  C 892.94 216.62 895.79 215.80 896.84 219.02
  C 897.21 220.16 896.50 221.16 895.82 222.00
  Q 895.50 222.39 895.75 222.83
  Q 898.43 227.61 900.77 232.27
  C 901.67 234.05 903.50 235.21 905.46 235.53
  Q 910.31 236.30 914.74 238.04
  C 916.24 238.63 918.07 238.74 919.64 238.35
  C 927.21 236.46 934.47 232.72 939.73 227.01
  C 941.71 224.85 945.19 222.26 945.63 219.24
  Q 945.72 218.63 945.17 218.92
  Z"
/>
<path fill="#000000" d="
  M 254.86 254.00
  Q 259.25 243.33 257.13 233.48
  C 256.64 231.17 258.11 228.86 260.75 228.90
  Q 263.69 228.95 264.54 231.76
  Q 265.64 235.36 265.66 239.70
  Q 265.73 253.30 257.34 266.33
  C 252.05 274.55 242.06 279.49 232.36 278.18
  Q 219.87 276.48 212.42 271.94
  Q 205.36 267.64 197.67 260.08
  C 191.50 254.00 187.57 245.06 186.13 237.00
  Q 185.48 233.39 186.06 228.19
  C 186.51 224.23 191.85 224.35 191.99 228.34
  Q 192.39 239.55 198.61 249.66
  C 202.00 255.18 209.17 260.55 214.35 264.00
  Q 221.00 268.43 231.88 270.10
  Q 242.65 271.76 249.41 263.65
  Q 252.32 260.17 254.86 254.00
  Z"
/>
<path fill="#000000" d="
  M 713.85 245.58
  C 719.17 245.30 722.41 249.80 724.63 254.00
  C 729.94 264.06 719.79 274.57 712.28 279.78
  C 705.18 284.70 696.89 281.82 694.52 273.48
  C 692.29 265.64 695.56 256.21 700.38 249.06
  C 702.98 245.22 705.71 242.40 710.90 243.61
  Q 712.11 243.89 712.76 245.00
  Q 713.13 245.62 713.85 245.58
  Z
  M 711.14 254.65
  C 709.43 256.00 707.07 255.49 706.24 253.46
  Q 705.99 252.85 705.62 253.40
  C 702.14 258.70 699.10 266.68 701.39 272.60
  C 702.55 275.61 705.45 275.68 707.78 274.10
  C 712.08 271.19 720.37 264.18 718.56 258.44
  Q 717.76 255.88 715.34 253.25
  Q 714.51 252.36 713.48 253.00
  Q 712.26 253.77 711.14 254.65
  Z"
/>
<path fill="#ffffff" d="
  M 711.14 254.65
  Q 712.26 253.77 713.48 253.00
  Q 714.51 252.36 715.34 253.25
  Q 717.76 255.88 718.56 258.44
  C 720.37 264.18 712.08 271.19 707.78 274.10
  C 705.45 275.68 702.55 275.61 701.39 272.60
  C 699.10 266.68 702.14 258.70 705.62 253.40
  Q 705.99 252.85 706.24 253.46
  C 707.07 255.49 709.43 256.00 711.14 254.65
  Z"
/>
<path fill="#000000" d="
  M 1031.98 270.65
  C 1033.35 269.00 1035.41 268.60 1036.87 270.37
  Q 1037.21 270.78 1037.23 271.32
  L 1037.36 276.15
  Q 1037.38 276.65 1037.16 277.09
  C 1035.79 279.87 1035.74 283.07 1034.89 286.03
  Q 1030.56 301.27 1025.88 317.52
  C 1023.04 327.38 1021.57 337.76 1017.83 347.48
  C 1015.93 352.43 1015.20 357.63 1013.56 362.70
  C 1012.74 365.24 1010.42 366.63 1008.16 364.94
  C 1005.60 363.02 1003.08 364.65 1000.29 364.26
  Q 993.28 363.27 986.78 360.14
  C 980.48 357.11 974.03 355.19 967.42 353.10
  C 960.77 351.00 954.73 347.90 948.43 345.30
  C 946.64 344.56 944.24 342.53 944.43 340.34
  C 944.59 338.50 946.95 338.10 947.66 336.27
  C 950.03 330.19 950.09 324.43 950.13 318.08
  Q 950.15 314.91 951.25 311.71
  Q 953.29 305.77 953.95 301.49
  Q 956.55 284.45 960.08 268.56
  C 960.50 266.68 961.78 264.89 961.47 262.86
  C 961.20 261.04 962.60 259.69 964.25 259.29
  C 966.16 258.82 968.01 260.46 969.93 260.82
  Q 978.53 262.42 986.08 265.01
  Q 996.32 268.52 1004.53 268.48
  C 1011.20 268.45 1017.57 269.35 1024.28 269.61
  C 1026.55 269.70 1028.73 270.45 1030.87 271.01
  Q 1031.54 271.19 1031.98 270.65
  Z
  M 991.01 274.01
  Q 988.80 270.06 985.12 272.14
  L 967.70 267.25
  A 0.64 0.63 14.5 0 0 966.91 267.71
  Q 962.80 285.32 960.31 303.51
  C 959.84 306.98 956.85 313.08 956.77 318.01
  Q 956.65 324.80 955.91 331.44
  C 955.61 334.14 954.69 337.11 953.41 339.52
  Q 953.08 340.13 953.72 340.41
  C 962.62 344.36 970.95 347.04 979.89 349.70
  Q 984.31 351.02 988.06 352.93
  Q 992.94 355.42 999.16 356.87
  C 1002.29 357.61 1004.88 356.37 1007.94 357.25
  Q 1008.60 357.44 1008.72 356.75
  Q 1009.88 349.71 1011.60 345.60
  C 1015.24 336.88 1016.31 327.53 1018.65 319.26
  Q 1024.02 300.31 1028.78 283.24
  Q 1029.39 281.03 1030.01 278.44
  Q 1030.13 277.95 1029.66 277.78
  Q 1026.92 276.80 1024.80 276.66
  Q 1012.89 275.88 1001.37 275.58
  C 997.75 275.49 994.48 274.75 991.01 274.01
  Z"
/>
<path fill="#ffffff" d="
  M 985.12 272.14
  Q 984.10 274.23 981.73 275.16
  L 974.39 274.74
  Q 973.14 272.20 972.44 271.82
  C 970.20 270.59 967.34 271.16 967.55 274.11
  Q 967.63 275.21 967.94 276.34
  C 966.68 280.92 962.34 289.36 971.37 289.53
  Q 972.69 290.41 975.10 289.40
  Q 979.32 289.99 981.09 286.33
  Q 982.88 282.63 983.41 281.26
  L 991.01 274.01
  C 994.48 274.75 997.75 275.49 1001.37 275.58
  Q 1012.89 275.88 1024.80 276.66
  Q 1026.92 276.80 1029.66 277.78
  Q 1030.13 277.95 1030.01 278.44
  Q 1029.39 281.03 1028.78 283.24
  Q 1024.02 300.31 1018.65 319.26
  C 1016.31 327.53 1015.24 336.88 1011.60 345.60
  Q 1009.88 349.71 1008.72 356.75
  Q 1008.60 357.44 1007.94 357.25
  C 1004.88 356.37 1002.29 357.61 999.16 356.87
  Q 992.94 355.42 988.06 352.93
  Q 984.31 351.02 979.89 349.70
  C 970.95 347.04 962.62 344.36 953.72 340.41
  Q 953.08 340.13 953.41 339.52
  C 954.69 337.11 955.61 334.14 955.91 331.44
  Q 956.65 324.80 956.77 318.01
  C 956.85 313.08 959.84 306.98 960.31 303.51
  Q 962.80 285.32 966.91 267.71
  A 0.64 0.63 14.5 0 1 967.70 267.25
  L 985.12 272.14
  Z
  M 992.15 287.66
  C 994.77 289.71 996.58 290.82 999.99 291.13
  Q 1001.48 291.27 1002.88 291.76
  Q 1009.02 293.88 1015.97 294.41
  A 1.89 1.89 0.0 0 0 1017.79 293.41
  Q 1018.28 292.48 1018.13 291.56
  A 2.31 2.29 -1.3 0 0 1016.12 289.65
  Q 1009.85 288.95 1004.39 287.00
  C 1001.24 285.88 998.65 286.82 995.88 284.24
  C 993.59 282.09 990.90 281.47 987.78 281.76
  C 986.38 281.89 985.53 283.00 985.63 284.39
  Q 985.78 286.65 988.04 286.70
  C 989.42 286.73 991.01 286.77 992.15 287.66
  Z
  M 976.21 308.06
  C 978.19 304.71 983.12 295.76 978.03 293.34
  Q 976.60 292.66 974.82 293.21
  Q 971.88 294.13 968.27 293.45
  Q 965.94 293.00 964.89 294.74
  Q 964.58 295.26 964.81 295.82
  Q 965.79 298.16 964.81 301.04
  C 963.22 305.73 965.26 309.41 970.19 308.47
  Q 972.45 308.03 974.58 308.69
  A 1.41 1.41 0.0 0 0 976.21 308.06
  Z
  M 991.44 306.49
  Q 992.88 308.47 995.22 308.18
  Q 1003.98 307.10 1012.73 309.85
  A 1.94 1.93 -56.1 0 0 1014.54 309.49
  Q 1015.31 308.86 1015.48 308.02
  Q 1015.96 305.72 1013.73 305.02
  Q 1004.96 302.26 995.81 303.15
  A 1.14 1.13 71.4 0 1 994.75 302.62
  Q 993.06 299.91 990.07 300.82
  C 988.05 301.44 982.59 303.18 985.64 306.49
  A 2.32 2.32 0.0 0 0 988.27 307.04
  L 990.24 306.17
  Q 990.97 305.85 991.44 306.49
  Z
  M 977.42 317.49
  A 4.51 4.51 0.0 0 0 972.85 310.80
  L 966.20 311.77
  A 4.51 4.51 0.0 0 0 962.35 315.92
  L 962.05 320.40
  A 4.51 4.51 0.0 0 0 966.19 325.20
  L 969.88 325.49
  A 4.51 4.51 0.0 0 0 974.16 323.22
  L 977.42 317.49
  Z
  M 999.31 328.40
  C 1000.68 330.33 1002.78 332.43 1005.25 332.59
  A 2.18 2.16 14.5 0 0 1007.34 331.37
  C 1007.94 330.14 1007.68 328.83 1006.43 328.15
  Q 1004.19 326.92 1002.56 324.89
  C 1000.20 321.96 993.37 322.88 989.93 323.01
  A 1.70 1.67 -26.3 0 1 988.83 322.65
  L 983.04 318.06
  Q 982.60 317.72 982.05 317.73
  Q 979.32 317.82 979.40 320.98
  Q 979.46 323.03 981.38 323.73
  Q 983.88 324.63 985.90 326.85
  A 2.28 2.25 75.1 0 0 987.04 327.52
  C 990.54 328.39 994.63 327.60 998.31 327.84
  A 1.37 1.37 0.0 0 1 999.31 328.40
  Z"
/>
<path fill="#54d769" d="
  M 974.39 274.74
  Q 973.45 278.29 974.77 279.94
  Q 973.45 281.15 973.90 282.42
  Q 974.09 282.93 974.53 282.62
  Q 976.04 281.55 976.03 279.91
  Q 979.36 278.51 981.73 275.16
  Q 984.10 274.23 985.12 272.14
  Q 988.80 270.06 991.01 274.01
  L 983.41 281.26
  L 975.10 289.40
  Q 972.69 290.41 971.37 289.53
  Q 969.11 287.00 968.94 284.51
  Q 968.70 280.80 968.95 277.10
  Q 968.97 276.75 968.81 276.42
  Q 968.65 276.09 968.42 275.81
  Q 968.07 275.41 967.92 275.92
  Q 967.86 276.11 967.94 276.34
  Q 967.63 275.21 967.55 274.11
  C 967.34 271.16 970.20 270.59 972.44 271.82
  Q 973.14 272.20 974.39 274.74
  Z"
/>
<path fill="#000000" d="
  M 974.39 274.74
  L 981.73 275.16
  Q 979.36 278.51 976.03 279.91
  Q 975.46 279.68 974.77 279.94
  Q 973.45 278.29 974.39 274.74
  Z"
/>
<path fill="#000000" d="
  M 971.37 289.53
  C 962.34 289.36 966.68 280.92 967.94 276.34
  Q 967.86 276.11 967.92 275.92
  Q 968.07 275.41 968.42 275.81
  Q 968.65 276.09 968.81 276.42
  Q 968.97 276.75 968.95 277.10
  Q 968.70 280.80 968.94 284.51
  Q 969.11 287.00 971.37 289.53
  Z"
/>
<path fill="#ffffff" d="
  M 974.77 279.94
  Q 975.46 279.68 976.03 279.91
  Q 976.04 281.55 974.53 282.62
  Q 974.09 282.93 973.90 282.42
  Q 973.45 281.15 974.77 279.94
  Z"
/>
<path fill="#000000" d="
  M 983.41 281.26
  Q 982.88 282.63 981.09 286.33
  Q 979.32 289.99 975.10 289.40
  L 983.41 281.26
  Z"
/>
<path fill="#000000" d="
  M 992.15 287.66
  C 991.01 286.77 989.42 286.73 988.04 286.70
  Q 985.78 286.65 985.63 284.39
  C 985.53 283.00 986.38 281.89 987.78 281.76
  C 990.90 281.47 993.59 282.09 995.88 284.24
  C 998.65 286.82 1001.24 285.88 1004.39 287.00
  Q 1009.85 288.95 1016.12 289.65
  A 2.31 2.29 -1.3 0 1 1018.13 291.56
  Q 1018.28 292.48 1017.79 293.41
  A 1.89 1.89 0.0 0 1 1015.97 294.41
  Q 1009.02 293.88 1002.88 291.76
  Q 1001.48 291.27 999.99 291.13
  C 996.58 290.82 994.77 289.71 992.15 287.66
  Z"
/>
<path fill="#000000" d="
  M 978.03 293.34
  C 983.12 295.76 978.19 304.71 976.21 308.06
  A 1.41 1.41 0.0 0 1 974.58 308.69
  Q 972.45 308.03 970.19 308.47
  C 965.26 309.41 963.22 305.73 964.81 301.04
  Q 965.79 298.16 964.81 295.82
  Q 964.58 295.26 964.89 294.74
  Q 965.94 293.00 968.27 293.45
  Q 971.88 294.13 974.82 293.21
  Q 976.60 292.66 978.03 293.34
  Z
  M 969.30 303.11
  A 0.35 0.35 0.0 0 0 969.76 303.54
  L 973.46 302.11
  A 0.35 0.35 0.0 0 0 973.64 301.94
  L 975.12 299.07
  A 0.35 0.35 0.0 0 0 974.77 298.56
  L 970.76 299.00
  A 0.35 0.35 0.0 0 0 970.46 299.24
  L 969.30 303.11
  Z"
/>
<path fill="#ffffff" d="
  M 969.30 303.11
  L 970.46 299.24
  A 0.35 0.35 0.0 0 1 970.76 299.00
  L 974.77 298.56
  A 0.35 0.35 0.0 0 1 975.12 299.07
  L 973.64 301.94
  A 0.35 0.35 0.0 0 1 973.46 302.11
  L 969.76 303.54
  A 0.35 0.35 0.0 0 1 969.30 303.11
  Z"
/>
<path fill="#000000" d="
  M 990.24 306.17
  L 988.27 307.04
  A 2.32 2.32 0.0 0 1 985.64 306.49
  C 982.59 303.18 988.05 301.44 990.07 300.82
  Q 993.06 299.91 994.75 302.62
  A 1.14 1.13 71.4 0 0 995.81 303.15
  Q 1004.96 302.26 1013.73 305.02
  Q 1015.96 305.72 1015.48 308.02
  Q 1015.31 308.86 1014.54 309.49
  A 1.94 1.93 -56.1 0 1 1012.73 309.85
  Q 1003.98 307.10 995.22 308.18
  Q 992.88 308.47 991.44 306.49
  Q 990.97 305.85 990.24 306.17
  Z"
/>
<path fill="#000000" d="
  M 977.42 317.49
  L 974.16 323.22
  A 4.51 4.51 0.0 0 1 969.88 325.49
  L 966.19 325.20
  A 4.51 4.51 0.0 0 1 962.05 320.40
  L 962.35 315.92
  A 4.51 4.51 0.0 0 1 966.20 311.77
  L 972.85 310.80
  A 4.51 4.51 0.0 0 1 977.42 317.49
  Z
  M 972.10 316.88
  A 0.53 0.53 0.0 0 0 971.61 316.02
  L 967.92 316.62
  A 0.53 0.53 0.0 0 0 967.48 317.08
  L 967.21 319.72
  A 0.53 0.53 0.0 0 0 967.87 320.29
  L 969.54 319.86
  A 0.53 0.53 0.0 0 0 969.82 319.68
  L 972.10 316.88
  Z"
/>
<path fill="#ffffff" d="
  M 972.10 316.88
  L 969.82 319.68
  A 0.53 0.53 0.0 0 1 969.54 319.86
  L 967.87 320.29
  A 0.53 0.53 0.0 0 1 967.21 319.72
  L 967.48 317.08
  A 0.53 0.53 0.0 0 1 967.92 316.62
  L 971.61 316.02
  A 0.53 0.53 0.0 0 1 972.10 316.88
  Z"
/>
<path fill="#000000" d="
  M 998.31 327.84
  C 994.63 327.60 990.54 328.39 987.04 327.52
  A 2.28 2.25 75.1 0 1 985.90 326.85
  Q 983.88 324.63 981.38 323.73
  Q 979.46 323.03 979.40 320.98
  Q 979.32 317.82 982.05 317.73
  Q 982.60 317.72 983.04 318.06
  L 988.83 322.65
  A 1.70 1.67 -26.3 0 0 989.93 323.01
  C 993.37 322.88 1000.20 321.96 1002.56 324.89
  Q 1004.19 326.92 1006.43 328.15
  C 1007.68 328.83 1007.94 330.14 1007.34 331.37
  A 2.18 2.16 14.5 0 1 1005.25 332.59
  C 1002.78 332.43 1000.68 330.33 999.31 328.40
  A 1.37 1.37 0.0 0 0 998.31 327.84
  Z"
/>
</svg>
