<?xml version="1.0" encoding="UTF-8" standalone="no"?>
<!DOCTYPE svg PUBLIC "-//W3C//DTD SVG 1.1//EN" "http://www.w3.org/Graphics/SVG/1.1/DTD/svg11.dtd">
<svg xmlns="http://www.w3.org/2000/svg" version="1.1" viewBox="0.00 0.00 1416.00 780.00">
<g stroke-width="2.00" fill="none" stroke-linecap="butt">
<path stroke="#808080" vector-effect="non-scaling-stroke" d="
  M 896.92 95.16
  Q 897.54 82.23 896.28 70.53
  C 895.97 67.56 894.65 64.96 891.19 65.42
  C 887.72 65.88 887.25 68.28 887.48 71.44
  C 887.76 75.32 888.14 79.17 888.07 83.03
  Q 887.88 92.45 888.05 102.09
  Q 888.07 103.40 886.87 103.95
  C 885.29 104.67 881.83 106.03 881.68 108.02
  Q 881.54 109.95 880.45 111.33
  Q 875.36 117.86 871.44 125.25
  Q 870.97 126.16 870.97 125.13
  C 870.97 122.13 866.84 119.40 866.56 116.26
  C 866.37 114.04 866.45 111.90 865.66 109.79
  C 863.36 103.67 857.39 99.66 851.59 96.68
  Q 851.05 96.40 851.25 95.84
  Q 855.81 82.91 860.95 68.75
  C 861.79 66.44 860.51 64.09 858.22 63.36
  C 853.46 61.84 851.75 67.58 850.56 70.94
  Q 846.82 81.46 843.45 92.17
  Q 843.25 92.80 842.64 92.54
  Q 838.86 90.96 834.30 90.91
  Q 833.78 90.90 833.80 90.38
  Q 834.15 81.79 835.37 69.75
  C 836.05 63.13 827.64 61.90 826.70 67.95
  Q 824.90 79.56 825.04 90.48
  Q 825.04 90.92 824.60 90.97
  Q 820.64 91.43 816.71 92.70
  A 0.37 0.37 0.0 0 1 816.23 92.38
  Q 815.16 77.85 809.46 63.37
  C 806.97 57.05 798.56 60.45 801.02 67.14
  Q 805.77 80.07 807.75 94.44
  Q 807.83 95.04 807.25 95.19
  C 801.22 96.72 795.87 99.83 794.06 106.01
  Q 791.78 113.76 785.74 131.43
  Q 785.51 132.09 784.85 131.87
  C 778.30 129.74 773.09 133.05 767.47 136.21
  Q 757.27 141.96 750.30 146.74
  Q 734.15 157.82 720.03 176.38
  C 712.84 185.84 708.59 196.26 705.52 207.46
  C 704.04 212.89 703.45 218.59 703.48 224.24
  Q 703.54 234.93 703.39 244.78
  C 703.25 254.53 700.91 264.53 699.60 274.50
  C 698.41 283.57 697.83 293.99 699.79 302.97
  C 705.25 327.88 713.69 352.59 730.94 370.82
  Q 741.87 382.38 758.84 396.55
  C 772.54 407.98 788.70 417.42 805.82 421.94
  Q 832.63 429.02 856.69 432.24
  Q 857.15 432.30 857.20 432.77
  L 858.40 444.52
  Q 858.45 445.02 857.96 445.04
  Q 854.04 445.21 849.80 445.30
  C 842.72 445.45 837.55 439.97 833.03 435.08
  Q 826.53 428.03 817.79 427.64
  C 812.28 427.39 811.07 434.78 816.52 436.35
  C 819.98 437.34 823.23 438.42 825.66 441.26
  C 832.84 449.70 840.31 455.93 852.25 455.10
  Q 855.66 454.86 858.74 454.55
  Q 859.31 454.49 859.27 455.06
  Q 858.80 461.55 859.53 469.19
  C 860.32 477.51 860.62 486.80 859.07 494.99
  Q 858.96 495.59 858.54 496.03
  C 857.17 497.45 855.94 498.73 854.97 500.49
  Q 845.21 518.24 835.19 535.57
  C 832.20 540.74 829.45 546.57 827.63 552.49
  C 826.52 556.12 826.10 560.97 830.94 561.52
  C 833.22 561.78 835.00 560.11 835.55 558.02
  C 837.12 552.03 839.74 546.45 842.81 541.31
  Q 853.69 523.11 864.01 503.82
  A 0.64 0.64 0.0 0 1 865.08 503.73
  Q 868.36 507.91 870.47 511.88
  Q 877.91 525.91 885.14 539.96
  Q 887.00 543.56 889.66 546.76
  C 893.18 550.99 899.45 546.76 897.00 542.06
  Q 894.22 536.73 891.42 531.82
  C 884.91 520.40 880.45 507.82 872.19 497.39
  C 871.25 496.21 870.03 495.46 868.68 494.85
  Q 868.14 494.61 868.22 494.03
  Q 869.59 483.73 868.41 471.35
  C 868.18 468.98 869.04 466.72 869.05 464.30
  Q 869.07 458.03 868.53 451.57
  Q 868.48 451.03 869.03 451.09
  Q 870.98 451.32 872.98 451.34
  C 878.89 451.39 885.20 454.76 889.51 458.61
  A 2.10 2.05 -78.1 0 1 890.12 459.57
  C 890.69 461.55 890.19 463.65 891.32 465.41
  C 892.54 467.31 895.22 468.06 897.23 466.96
  Q 899.78 465.58 899.80 462.19
  C 899.83 454.07 895.66 450.11 889.30 446.39
  Q 878.87 440.30 868.02 441.40
  A 0.40 0.40 0.0 0 1 867.58 441.04
  L 866.80 433.26
  Q 866.77 433.00 867.03 433.02
  Q 879.40 433.98 888.45 433.07
  Q 900.79 431.83 914.95 427.70
  C 928.59 423.72 940.88 416.65 951.48 407.54
  Q 966.97 394.22 979.36 379.17
  Q 984.04 373.49 987.64 367.35
  C 1004.44 338.75 1017.63 306.61 1018.69 273.74
  Q 1019.73 241.82 1016.83 204.51
  C 1015.71 190.09 1012.48 175.79 997.49 170.48
  C 992.74 168.80 987.38 168.04 982.27 167.14
  C 975.47 165.95 969.26 163.39 962.53 162.78
  Q 961.91 162.73 962.11 162.15
  Q 970.77 135.89 948.80 118.82
  Q 944.70 115.64 940.08 112.64
  Q 939.63 112.34 939.67 111.81
  Q 939.93 108.00 941.93 104.77
  C 948.05 94.89 956.21 86.27 964.93 78.36
  C 969.71 74.03 963.83 67.38 958.94 71.35
  Q 951.22 77.63 946.18 83.46
  Q 940.87 89.62 935.57 96.82
  C 934.04 98.90 930.64 104.28 931.17 107.09
  Q 931.32 107.86 930.59 107.58
  L 921.99 104.28
  Q 921.50 104.09 921.63 103.58
  C 922.16 101.40 921.49 99.31 922.23 97.13
  C 924.71 89.81 929.65 82.16 934.79 76.59
  C 939.30 71.70 932.45 65.79 928.21 70.27
  Q 918.81 80.20 914.10 92.85
  Q 913.89 93.42 913.39 93.08
  C 908.59 89.89 901.88 92.10 897.50 95.46
  Q 896.88 95.94 896.92 95.16"
/>
<path stroke="#808080" vector-effect="non-scaling-stroke" d="
  M 1161.25 489.82
  C 1164.14 497.83 1169.23 506.46 1173.66 513.42
  Q 1177.78 519.89 1181.99 526.58
  C 1186.43 533.62 1189.46 541.10 1192.15 549.06
  C 1193.67 553.55 1198.12 560.97 1203.76 557.25
  C 1206.22 555.63 1206.99 552.28 1205.11 549.85
  C 1203.74 548.08 1202.65 546.29 1201.95 544.13
  Q 1197.09 529.12 1187.77 515.35
  Q 1178.45 501.58 1171.13 486.54
  Q 1170.30 484.85 1170.34 483.11
  Q 1170.64 470.85 1170.57 458.32
  C 1170.54 453.14 1171.53 448.00 1171.59 442.82
  C 1171.71 433.02 1171.52 422.88 1171.96 412.88
  Q 1172.20 407.28 1171.84 401.63
  Q 1171.80 401.01 1172.24 401.44
  Q 1183.55 412.54 1196.21 418.17
  Q 1202.76 421.07 1211.65 422.08
  C 1212.97 422.23 1214.18 422.75 1215.37 423.31
  C 1221.34 426.10 1225.77 416.00 1217.98 413.84
  C 1215.26 413.08 1212.78 411.68 1210.05 411.11
  Q 1204.56 409.96 1200.66 408.18
  Q 1182.91 400.04 1172.60 384.67
  C 1171.98 383.74 1171.55 383.00 1171.50 381.85
  Q 1171.16 373.51 1170.86 365.12
  Q 1170.84 364.63 1171.33 364.66
  Q 1181.98 365.44 1189.52 364.74
  C 1197.43 364.01 1206.31 360.58 1213.80 357.57
  C 1226.89 352.31 1241.00 345.98 1251.75 338.51
  Q 1263.50 330.35 1275.40 320.44
  Q 1295.44 303.77 1304.18 280.59
  Q 1307.19 272.62 1309.12 261.68
  C 1312.10 244.74 1314.36 227.28 1313.92 210.66
  C 1313.60 198.66 1306.76 185.72 1299.55 175.22
  Q 1295.97 170.00 1290.81 165.54
  C 1283.99 159.65 1275.39 158.02 1266.29 158.00
  Q 1257.04 157.99 1248.92 158.04
  Q 1248.24 158.04 1248.47 157.40
  Q 1250.93 150.36 1250.68 142.90
  C 1250.43 135.37 1247.11 129.66 1241.72 124.74
  Q 1229.65 113.71 1216.48 108.53
  Q 1215.89 108.29 1216.28 107.80
  C 1218.76 104.70 1215.57 100.75 1213.63 98.27
  C 1206.75 89.49 1195.90 98.62 1189.87 103.61
  Q 1181.14 110.83 1174.90 117.95
  Q 1174.28 118.65 1174.50 117.74
  C 1176.87 107.53 1154.65 99.33 1147.94 96.89
  Q 1139.77 93.91 1129.97 94.98
  C 1125.77 95.44 1121.85 97.44 1118.23 99.61
  Q 1110.73 104.11 1104.31 109.40
  Q 1098.83 113.90 1095.56 121.53
  Q 1091.14 131.85 1087.67 141.06
  Q 1087.42 141.74 1086.69 141.81
  C 1076.99 142.79 1066.43 148.90 1060.22 155.35
  Q 1056.11 159.62 1052.59 166.33
  Q 1048.89 173.36 1046.43 179.09
  C 1039.31 195.63 1038.84 215.98 1039.36 235.00
  Q 1039.50 239.87 1040.77 244.24
  C 1043.25 252.71 1045.77 260.90 1047.98 269.50
  C 1051.47 283.10 1058.23 297.73 1067.00 308.56
  C 1077.32 321.30 1088.98 331.91 1102.83 341.99
  Q 1109.20 346.62 1115.18 349.35
  C 1129.58 355.92 1145.51 362.12 1161.76 363.83
  Q 1162.30 363.89 1162.25 364.43
  Q 1161.70 369.99 1162.04 375.55
  Q 1162.08 376.09 1161.53 376.14
  C 1157.61 376.52 1153.23 381.49 1150.81 384.43
  Q 1132.72 406.43 1112.32 423.97
  C 1109.89 426.06 1108.57 429.30 1110.99 432.01
  Q 1114.77 436.22 1119.59 432.00
  Q 1141.44 412.84 1157.86 392.84
  Q 1159.46 390.88 1161.23 389.13
  Q 1161.77 388.60 1161.81 389.36
  C 1162.52 402.94 1161.54 416.06 1161.79 429.53
  Q 1161.98 439.24 1161.58 445.09
  Q 1160.64 458.75 1161.01 473.00
  Q 1161.02 473.44 1160.64 473.65
  Q 1156.38 475.98 1154.30 481.00
  Q 1147.65 497.07 1138.05 512.14
  Q 1128.80 526.66 1117.89 541.88
  C 1116.01 544.51 1115.95 547.59 1118.83 549.59
  C 1124.00 553.18 1127.67 546.98 1130.09 543.33
  Q 1142.09 525.24 1152.69 507.20
  Q 1157.08 499.74 1160.90 489.81
  Q 1161.08 489.35 1161.25 489.82"
/>
<path stroke="#808080" vector-effect="non-scaling-stroke" d="
  M 460.18 263.14
  Q 460.96 257.23 461.05 250.05
  C 461.24 232.65 460.62 217.37 456.85 201.19
  Q 453.29 185.92 442.29 176.01
  Q 437.46 171.65 432.41 167.44
  C 424.00 160.44 418.39 150.21 406.63 148.87
  Q 398.04 147.90 388.35 149.10
  C 372.56 151.07 356.41 156.00 342.76 164.33
  C 338.93 166.67 333.23 170.34 332.38 174.81
  Q 332.26 175.43 331.78 175.01
  Q 326.11 169.99 320.38 166.99
  Q 311.44 162.32 301.76 156.73
  C 292.04 151.10 283.63 149.27 272.67 150.53
  Q 267.29 151.15 258.01 155.09
  Q 249.42 158.74 241.30 161.72
  Q 238.66 162.70 237.88 165.24
  Q 237.37 166.90 235.91 167.54
  C 226.51 171.62 217.21 177.72 212.40 186.45
  Q 208.06 194.34 204.37 204.47
  C 200.68 214.61 196.86 225.11 195.25 235.20
  Q 195.17 235.70 194.67 235.65
  C 180.67 234.26 165.10 236.31 152.95 243.53
  C 139.09 251.76 124.43 262.05 114.53 274.66
  C 110.22 280.15 106.18 288.03 101.68 294.85
  C 94.70 305.42 88.03 316.33 82.78 327.73
  Q 73.64 347.60 75.35 371.07
  Q 75.47 372.65 76.12 374.32
  C 79.92 383.98 82.36 394.01 86.36 403.50
  C 91.17 414.90 96.68 425.93 104.08 435.52
  C 112.29 446.16 122.63 454.83 131.45 464.97
  C 139.12 473.77 147.29 481.51 156.52 488.03
  C 163.68 493.10 170.45 498.00 177.03 503.71
  C 188.77 513.91 199.61 523.30 213.12 529.72
  Q 222.94 534.39 231.46 538.09
  C 238.80 541.28 245.54 545.38 252.53 549.39
  Q 263.61 555.75 277.80 558.67
  Q 288.60 560.90 299.78 563.14
  C 306.78 564.55 313.42 566.75 320.26 568.51
  Q 325.79 569.94 332.18 570.64
  Q 332.69 570.69 332.77 571.20
  L 335.64 587.85
  Q 335.77 588.59 335.06 588.83
  Q 329.87 590.62 326.09 594.53
  C 319.63 601.22 313.95 608.61 308.36 616.08
  Q 300.04 627.19 296.83 637.48
  Q 295.00 643.32 298.31 647.97
  C 302.25 653.51 310.35 648.51 306.91 642.06
  A 1.30 1.27 -49.0 0 1 306.85 641.00
  Q 310.57 631.65 318.52 621.22
  Q 326.86 610.28 333.14 603.26
  Q 334.82 601.38 336.86 599.65
  A 0.35 0.35 0.0 0 1 337.44 599.89
  Q 339.31 630.56 343.25 660.00
  Q 343.65 662.98 343.73 667.21
  Q 343.74 667.71 343.34 668.01
  Q 341.19 669.64 339.44 671.83
  Q 318.81 697.58 303.60 723.18
  C 301.62 726.53 298.67 734.16 301.06 737.96
  C 304.37 743.22 311.17 740.57 311.80 734.72
  Q 312.24 730.69 314.58 726.91
  Q 329.63 702.60 347.73 679.31
  A 0.94 0.93 37.2 0 1 349.03 679.14
  C 361.97 688.76 373.61 700.31 380.82 714.60
  Q 385.56 724.00 390.05 734.49
  C 393.14 741.71 402.64 737.90 399.51 730.53
  Q 395.05 720.04 390.14 710.32
  C 382.33 694.89 369.21 681.56 354.95 671.30
  A 1.07 1.07 0.0 0 1 354.50 670.43
  Q 354.45 662.72 354.09 660.02
  Q 350.26 630.82 348.36 603.00
  Q 348.33 602.50 348.79 602.70
  C 360.60 607.73 372.86 614.75 381.38 624.34
  Q 387.77 631.52 388.17 641.95
  Q 388.38 647.40 389.06 652.00
  C 390.00 658.34 399.71 657.65 399.45 651.08
  Q 399.20 644.64 398.67 638.78
  C 397.44 625.07 389.20 615.31 378.57 607.51
  Q 366.30 598.49 349.49 591.54
  Q 348.41 591.10 347.30 591.22
  Q 346.74 591.29 346.67 590.73
  Q 345.57 582.21 343.18 572.76
  Q 343.02 572.14 343.65 572.26
  C 352.36 573.97 361.11 575.82 369.79 576.73
  Q 392.19 579.08 415.12 575.42
  Q 433.53 572.48 450.01 563.54
  C 461.68 557.21 473.85 549.68 483.63 540.39
  Q 492.62 531.86 501.72 522.32
  C 514.06 509.38 523.04 495.67 533.11 479.54
  C 539.60 469.15 543.13 458.72 546.97 446.36
  C 549.98 436.72 555.41 426.15 557.52 418.30
  Q 561.59 403.13 560.98 382.01
  Q 560.84 377.12 558.90 372.78
  Q 554.58 363.09 551.95 352.38
  C 549.75 343.37 545.56 337.70 540.11 330.78
  C 536.67 326.41 534.04 321.48 531.37 316.65
  C 528.87 312.14 525.84 308.15 522.09 304.60
  C 517.37 300.13 513.34 295.93 509.95 290.25
  C 506.37 284.27 501.72 278.24 495.44 275.37
  Q 486.71 271.38 477.97 265.99
  C 474.35 263.76 470.66 262.24 466.70 261.30
  Q 462.74 260.36 460.59 263.31
  Q 460.06 264.04 460.18 263.14"
/>
<path stroke="#808080" vector-effect="non-scaling-stroke" d="
  M 799.13 174.41
  Q 795.81 172.87 791.57 172.71
  Q 791.07 172.69 791.10 173.19
  C 791.39 177.00 790.73 183.02 792.11 186.16
  Q 795.68 194.25 799.84 201.90
  C 800.73 203.54 802.32 205.58 803.68 206.84
  Q 809.96 212.60 815.65 218.19
  Q 819.02 221.51 821.59 222.60
  C 827.75 225.22 838.24 221.12 842.97 217.56
  Q 848.95 213.07 854.59 206.61
  C 855.14 205.99 855.93 205.44 856.62 204.96
  Q 857.12 204.61 856.87 204.05
  Q 855.11 200.28 854.81 197.25
  Q 851.89 167.58 863.39 141.68
  Q 863.68 141.03 863.40 140.38
  Q 862.45 138.20 863.01 135.84
  C 864.41 129.84 861.48 125.92 857.78 121.94
  Q 853.15 116.94 852.98 111.03
  Q 852.96 110.38 852.41 110.04
  L 848.18 107.31
  A 1.04 1.04 0.0 0 0 847.06 107.31
  Q 843.80 109.43 841.21 106.90
  C 840.33 106.05 840.19 104.76 839.91 103.62
  Q 839.78 103.04 839.21 102.90
  Q 836.46 102.21 834.07 102.22
  C 832.11 102.22 831.09 103.88 828.90 102.75
  Q 827.20 101.88 825.43 102.26
  Q 816.86 104.11 807.94 106.94
  C 806.57 107.38 805.29 108.31 804.82 109.73
  Q 799.94 124.57 795.96 137.29
  Q 794.02 143.49 792.31 153.15
  Q 792.16 154.01 792.68 153.30
  Q 794.74 150.50 796.58 147.62
  C 800.44 141.57 806.85 143.31 812.36 145.55
  C 815.38 146.77 815.77 150.26 817.75 152.60
  C 819.68 154.88 820.25 158.03 819.65 160.90
  Q 817.19 172.63 804.32 175.18
  Q 801.85 175.66 799.13 174.41"
/>
<path stroke="#808080" vector-effect="non-scaling-stroke" d="
  M 941.78 127.59
  C 928.61 117.63 911.76 110.15 894.99 111.94
  Q 893.84 112.06 893.04 112.90
  C 882.97 123.54 875.93 137.87 870.75 152.22
  Q 864.70 168.94 865.30 186.83
  C 865.44 190.97 865.15 194.75 866.53 198.70
  A 1.66 1.62 -85.8 0 0 867.29 199.60
  Q 869.74 200.94 870.37 203.55
  Q 870.51 204.15 870.96 204.59
  C 876.23 209.86 890.08 209.13 896.73 207.59
  C 902.65 206.22 909.08 202.32 914.36 198.78
  Q 929.08 188.90 943.86 173.01
  Q 945.25 171.51 945.04 169.49
  C 944.53 164.68 949.29 165.43 950.58 162.48
  C 956.61 148.74 953.79 136.67 941.78 127.59"
/>
<path stroke="#808080" vector-effect="non-scaling-stroke" d="
  M 891.89 219.74
  C 882.34 220.28 871.73 219.81 864.13 213.53
  Q 863.63 213.12 863.25 213.63
  C 854.54 225.19 843.03 233.59 828.24 234.93
  Q 817.50 235.90 809.86 228.66
  Q 803.55 222.68 796.75 216.11
  C 789.70 209.30 786.06 200.60 782.09 191.82
  Q 780.30 187.85 780.08 183.63
  Q 779.05 163.93 782.29 144.70
  Q 782.40 144.05 781.79 143.82
  Q 780.28 143.24 779.45 141.73
  Q 779.08 141.06 778.43 141.44
  Q 765.68 148.70 760.08 152.32
  Q 743.10 163.31 729.52 180.84
  Q 721.45 191.27 717.79 202.59
  C 716.07 207.92 714.12 213.62 714.00 219.12
  Q 713.72 231.27 713.88 243.10
  Q 713.97 249.91 712.86 257.03
  C 711.39 266.42 709.71 275.58 709.19 285.28
  Q 708.75 293.50 709.58 297.95
  Q 712.57 313.97 719.45 332.08
  C 725.17 347.13 733.13 358.82 745.21 370.25
  C 761.31 385.47 775.41 397.80 794.35 406.59
  C 802.65 410.44 811.68 412.61 820.77 414.74
  C 842.60 419.85 865.41 424.24 886.86 422.55
  Q 897.51 421.71 911.73 417.60
  C 925.01 413.76 936.73 406.69 946.97 397.54
  Q 961.38 384.65 971.93 371.34
  Q 976.84 365.14 980.85 357.86
  C 995.93 330.47 1007.51 301.61 1007.99 270.48
  Q 1008.45 239.92 1006.85 213.48
  Q 1006.42 206.34 1005.40 198.75
  C 1004.01 188.30 1000.61 180.73 989.26 179.09
  Q 978.06 177.47 967.56 174.53
  Q 962.60 173.14 956.83 173.32
  A 0.81 0.80 -74.9 0 0 956.16 173.71
  Q 953.23 178.48 949.59 182.37
  Q 934.58 198.41 918.56 209.21
  C 910.45 214.69 901.69 219.18 891.89 219.74"
/>
<path stroke="#808080" vector-effect="non-scaling-stroke" d="
  M 1204.44 105.94
  L 1207.51 106.50
  Q 1208.26 106.64 1207.83 106.01
  Q 1206.47 104.05 1204.33 105.32
  Q 1203.55 105.78 1204.44 105.94"
/>
<path stroke="#808080" vector-effect="non-scaling-stroke" d="
  M 1163.92 116.85
  C 1158.49 112.80 1151.32 109.97 1145.06 107.48
  Q 1140.13 105.52 1133.51 105.64
  C 1129.93 105.71 1126.96 107.09 1123.99 108.91
  Q 1117.26 113.04 1111.73 117.46
  Q 1108.05 120.40 1105.96 124.98
  Q 1100.82 136.21 1097.65 145.44
  C 1095.58 151.50 1094.92 158.27 1097.53 164.53
  Q 1102.36 176.08 1111.57 184.90
  Q 1120.68 193.62 1134.49 194.31
  Q 1136.77 194.43 1138.98 193.23
  C 1146.61 189.08 1151.70 184.43 1157.90 179.31
  Q 1158.39 178.91 1158.10 178.34
  Q 1156.25 174.69 1155.90 170.77
  Q 1153.41 143.44 1169.76 123.99
  Q 1170.45 123.16 1169.37 123.16
  Q 1166.68 123.13 1165.42 121.12
  C 1164.78 120.10 1164.91 118.79 1164.52 117.67
  Q 1164.35 117.17 1163.92 116.85"
/>
<path stroke="#808080" vector-effect="non-scaling-stroke" d="
  M 1193.38 116.55
  C 1191.71 117.65 1189.93 117.49 1188.34 119.06
  Q 1177.21 130.05 1171.68 140.30
  Q 1167.56 147.93 1166.61 158.70
  C 1166.02 165.34 1165.96 171.50 1169.65 177.33
  Q 1178.89 191.89 1195.45 189.86
  C 1200.33 189.26 1204.50 187.08 1208.49 184.49
  Q 1217.39 178.72 1225.82 170.50
  C 1233.79 162.74 1239.76 155.14 1239.64 143.93
  C 1239.60 141.00 1238.88 138.05 1236.92 135.85
  Q 1228.71 126.66 1215.95 120.36
  C 1210.62 117.73 1204.14 116.76 1198.27 115.53
  Q 1195.73 115.00 1193.38 116.55"
/>
<path stroke="#808080" vector-effect="non-scaling-stroke" d="
  M 1133.22 205.33
  C 1123.02 204.69 1112.36 200.82 1104.98 193.82
  C 1094.88 184.24 1083.04 167.82 1085.24 152.94
  Q 1085.36 152.16 1084.61 152.39
  Q 1073.09 155.93 1066.74 163.55
  Q 1063.69 167.22 1060.20 174.26
  Q 1056.24 182.25 1054.97 185.99
  C 1049.73 201.39 1049.89 218.56 1050.22 235.27
  C 1050.26 237.31 1050.78 239.37 1051.36 241.33
  Q 1055.42 255.04 1058.96 268.09
  Q 1065.31 291.45 1081.50 308.61
  Q 1094.59 322.49 1109.32 333.00
  C 1119.11 339.99 1130.13 343.83 1141.36 347.83
  C 1155.10 352.73 1171.27 354.54 1186.34 353.85
  Q 1192.86 353.54 1202.05 350.14
  Q 1218.27 344.15 1232.17 337.16
  C 1245.98 330.22 1258.46 320.24 1270.16 310.27
  Q 1285.18 297.47 1293.10 278.55
  C 1296.25 271.04 1297.85 262.15 1299.20 253.97
  C 1301.66 239.07 1303.11 225.70 1302.86 211.54
  C 1302.77 206.59 1301.57 202.68 1299.69 198.31
  Q 1293.81 184.60 1286.55 176.45
  Q 1280.22 169.35 1270.32 169.01
  Q 1259.95 168.66 1248.80 168.79
  C 1246.95 168.81 1245.31 168.26 1243.55 167.80
  Q 1243.02 167.66 1242.68 168.10
  Q 1233.63 179.92 1220.22 189.90
  C 1214.09 194.48 1206.19 199.41 1198.66 200.45
  C 1188.03 201.91 1178.61 200.27 1169.61 193.42
  C 1167.40 191.74 1165.70 189.63 1163.76 187.69
  Q 1163.28 187.22 1162.87 187.75
  Q 1156.02 196.71 1143.16 203.51
  C 1140.12 205.12 1136.58 205.54 1133.22 205.33"
/>
<path stroke="#808080" vector-effect="non-scaling-stroke" d="
  M 1100.7585 158.1039
  A 12.63 10.72 136.5 0 0 1117.2992 157.1860
  A 12.63 10.72 136.5 0 0 1119.0815 140.7161
  A 12.63 10.72 136.5 0 0 1102.5408 141.6340
  A 12.63 10.72 136.5 0 0 1100.7585 158.1039"
/>
<path stroke="#808080" vector-effect="non-scaling-stroke" d="
  M 873.53 162.88
  C 872.93 166.68 876.10 172.60 879.71 174.17
  Q 885.36 176.64 890.53 171.34
  C 895.04 166.72 901.92 160.09 899.39 152.77
  C 897.77 148.08 897.34 143.71 891.28 143.00
  C 889.13 142.75 887.08 143.48 884.93 143.53
  C 880.05 143.64 877.09 146.50 875.90 151.34
  Q 874.33 157.70 873.53 162.88"
/>
<path stroke="#808080" vector-effect="non-scaling-stroke" d="
  M 1177.17 163.08
  C 1183.78 162.76 1188.28 157.70 1188.28 151.24
  Q 1188.28 149.09 1186.81 147.10
  Q 1183.43 142.55 1178.30 142.87
  C 1171.70 143.27 1169.11 149.38 1168.95 155.20
  Q 1168.72 163.48 1177.17 163.08"
/>
<path stroke="#808080" vector-effect="non-scaling-stroke" d="
  M 851.20 272.94
  Q 854.18 261.60 858.16 249.67
  Q 859.62 245.29 858.91 240.68
  C 858.42 237.52 855.83 235.62 852.63 236.40
  C 847.44 237.68 850.04 243.07 848.87 246.44
  Q 844.16 259.95 840.78 273.75
  Q 839.91 277.33 840.47 279.55
  C 841.79 284.67 846.71 285.48 851.29 283.99
  C 858.90 281.50 865.63 278.96 872.38 274.08
  C 877.44 270.42 872.76 263.14 867.64 266.12
  Q 859.97 270.59 851.55 273.28
  Q 851.07 273.43 851.20 272.94"
/>
<path stroke="#808080" vector-effect="non-scaling-stroke" d="
  M 847.73 335.68
  C 837.79 335.86 833.57 331.34 831.05 322.20
  Q 829.00 314.73 827.53 307.62
  Q 827.06 305.35 827.82 303.19
  C 829.98 297.03 820.95 293.62 818.30 300.20
  Q 816.69 304.22 817.11 308.26
  Q 817.82 315.18 820.33 324.49
  C 823.81 337.45 831.10 346.05 845.18 346.61
  Q 854.24 346.96 864.36 347.00
  C 873.30 347.03 879.25 343.19 885.68 336.86
  Q 894.57 328.11 902.08 318.71
  C 906.37 313.34 911.04 306.74 911.63 300.04
  C 912.08 294.85 911.73 289.42 911.18 284.23
  Q 910.84 280.95 909.25 278.75
  C 906.77 275.32 901.31 276.29 900.22 280.46
  C 899.83 281.92 900.45 283.44 900.74 284.87
  Q 901.07 286.48 901.00 288.21
  C 900.78 293.69 901.12 299.68 898.07 304.38
  C 892.19 313.44 884.91 321.31 877.51 328.79
  C 874.68 331.65 870.23 335.44 866.03 335.46
  Q 857.08 335.52 847.73 335.68"
/>
<path stroke="#808080" vector-effect="non-scaling-stroke" d="
  M 348.72 174.18
  C 350.73 177.12 349.21 180.56 345.90 181.48
  Q 343.51 182.14 341.16 182.28
  Q 340.30 182.33 340.98 182.86
  C 347.10 187.62 354.17 194.37 356.66 201.82
  Q 358.05 205.99 358.08 213.15
  Q 358.12 225.51 357.94 236.85
  Q 357.94 236.99 358.11 237.02
  Q 358.20 237.04 358.22 236.95
  C 359.47 231.76 364.27 225.56 370.16 227.75
  C 374.34 229.31 378.65 228.83 382.73 230.18
  C 389.19 232.32 391.52 238.41 390.61 244.88
  Q 389.71 251.26 385.26 256.81
  Q 378.18 265.63 366.69 264.02
  C 361.79 263.33 358.36 258.29 356.53 254.12
  Q 356.26 253.49 356.14 254.17
  Q 355.52 257.83 353.85 261.39
  C 347.18 275.64 336.04 288.21 323.40 297.90
  A 0.58 0.57 48.4 0 0 323.35 298.76
  Q 329.80 305.29 332.23 312.84
  C 334.16 318.86 341.21 322.48 346.45 325.07
  C 350.71 327.18 355.19 326.91 359.76 326.82
  Q 363.43 326.75 366.40 326.21
  Q 375.20 324.62 383.69 323.61
  C 393.87 322.39 402.10 320.15 410.13 314.96
  Q 419.57 308.85 428.61 301.74
  C 435.41 296.39 441.87 290.83 444.08 282.35
  Q 446.05 274.80 447.22 266.51
  C 448.80 255.42 448.64 243.54 448.41 232.48
  Q 448.12 218.35 445.23 204.46
  C 443.55 196.43 439.85 189.41 433.99 184.20
  C 427.10 178.09 420.16 172.51 414.15 165.35
  Q 410.11 160.55 405.31 159.92
  Q 399.47 159.15 393.70 159.68
  Q 369.07 161.93 348.92 173.29
  Q 348.33 173.62 348.72 174.18"
/>
<path stroke="#808080" vector-effect="non-scaling-stroke" d="
  M 285.39 163.78
  A 0.20 0.19 -89.6 0 0 285.13 164.04
  C 285.86 165.60 286.88 167.25 286.72 169.03
  Q 286.41 172.51 283.02 173.39
  C 280.06 174.15 278.42 171.93 276.86 169.89
  C 272.67 164.39 251.67 173.25 245.58 175.74
  Q 238.53 178.61 232.19 182.54
  Q 224.27 187.44 220.53 195.76
  C 215.46 207.03 211.35 218.92 208.24 230.39
  Q 205.15 241.78 205.15 256.88
  C 205.15 262.83 206.64 268.16 210.29 272.77
  Q 217.62 282.07 225.28 289.93
  Q 236.82 301.79 252.48 303.84
  Q 261.34 305.00 275.85 304.92
  Q 282.87 304.88 288.10 303.18
  Q 295.94 300.64 303.80 295.80
  Q 324.73 282.89 337.64 263.33
  Q 344.60 252.79 344.55 239.25
  Q 344.48 222.64 344.47 209.20
  C 344.46 204.63 340.25 200.28 337.14 197.47
  C 328.07 189.25 320.24 181.94 309.46 176.35
  Q 301.26 172.09 293.31 167.33
  C 290.88 165.88 287.97 165.05 285.39 163.78"
/>
<path stroke="#808080" vector-effect="non-scaling-stroke" d="
  M 466.40 273.37
  C 463.41 272.52 461.16 272.33 459.36 269.40
  Q 458.84 268.56 459.05 269.53
  Q 459.24 270.49 459.12 271.47
  C 457.50 284.25 454.80 295.28 444.83 304.57
  Q 436.17 312.63 424.31 320.93
  C 414.61 327.71 404.45 333.79 393.71 335.18
  Q 380.68 336.86 368.11 338.88
  C 359.83 340.20 349.26 340.62 341.50 336.90
  Q 335.74 334.14 330.27 330.23
  C 325.35 326.72 322.39 322.89 320.53 317.50
  C 318.82 312.54 316.48 309.92 313.43 305.72
  Q 313.12 305.29 312.68 305.59
  C 303.28 311.92 290.97 317.46 279.46 317.74
  Q 264.88 318.10 252.89 316.71
  Q 232.16 314.32 217.97 299.84
  Q 211.42 293.16 204.34 284.69
  C 198.52 277.73 194.10 270.83 193.55 261.81
  Q 193.09 254.29 193.89 246.38
  Q 193.95 245.87 193.43 245.85
  C 180.38 245.31 167.26 247.48 156.27 254.51
  Q 139.14 265.48 129.16 275.37
  C 126.21 278.30 123.35 281.61 121.18 285.18
  Q 113.83 297.28 105.62 310.16
  Q 98.84 320.79 93.66 331.88
  Q 86.35 347.54 86.90 367.41
  C 86.98 370.57 88.46 373.49 89.50 376.42
  Q 90.68 379.75 91.80 383.52
  C 95.89 397.33 102.28 411.18 109.95 423.11
  Q 114.96 430.90 121.96 437.59
  Q 132.74 447.92 144.12 460.71
  Q 152.60 470.25 162.84 477.39
  Q 178.06 488.00 195.96 503.55
  Q 207.34 513.45 218.85 518.78
  Q 228.13 523.07 238.01 527.51
  Q 246.42 531.29 257.32 537.90
  Q 267.02 543.77 279.53 546.38
  Q 291.69 548.91 303.95 551.44
  C 313.33 553.37 322.20 556.95 331.72 558.17
  Q 344.17 559.77 355.00 561.98
  Q 366.30 564.28 374.92 564.92
  Q 393.18 566.28 410.77 563.77
  C 423.02 562.02 434.11 558.37 444.87 552.53
  Q 456.89 546.00 466.21 539.32
  Q 472.83 534.57 480.54 526.84
  C 489.73 517.63 499.24 508.31 506.14 498.52
  Q 514.84 486.18 522.89 473.15
  C 528.97 463.31 532.30 452.73 535.76 441.68
  C 539.10 431.01 544.97 420.88 546.98 410.02
  Q 549.07 398.74 548.96 387.76
  C 548.92 384.66 549.29 381.00 548.13 378.28
  Q 544.42 369.55 542.58 363.01
  C 540.67 356.17 539.66 350.72 536.68 346.16
  C 533.36 341.05 529.16 336.46 526.12 331.17
  Q 523.02 325.79 519.90 320.21
  Q 518.58 317.85 516.67 315.87
  C 512.47 311.50 507.18 306.69 503.71 301.43
  Q 499.90 295.64 496.44 290.79
  C 493.19 286.23 486.38 283.86 481.36 281.36
  C 476.45 278.92 471.65 274.86 466.40 273.37"
/>
<path stroke="#808080" vector-effect="non-scaling-stroke" d="
  M 1232.3409 221.1883
  A 5.08 4.82 110.5 0 0 1238.6348 218.1180
  A 5.08 4.82 110.5 0 0 1235.8991 211.6717
  A 5.08 4.82 110.5 0 0 1229.6052 214.7420
  A 5.08 4.82 110.5 0 0 1232.3409 221.1883"
/>
<path stroke="#808080" vector-effect="non-scaling-stroke" d="
  M 1159.20 236.60
  Q 1163.37 232.39 1167.20 227.76
  C 1169.89 224.50 1171.42 218.75 1167.27 216.02
  C 1165.03 214.54 1162.02 215.29 1160.55 217.48
  C 1159.51 219.01 1159.95 220.77 1158.57 222.32
  Q 1153.56 227.96 1148.18 234.01
  C 1145.25 237.30 1143.30 241.23 1147.00 244.69
  C 1149.33 246.88 1152.97 245.71 1155.75 246.96
  Q 1161.53 249.55 1167.04 250.86
  Q 1168.85 251.29 1170.28 252.62
  C 1174.00 256.07 1179.96 251.43 1177.72 247.05
  Q 1175.45 242.62 1170.34 241.27
  Q 1164.64 239.76 1159.36 237.44
  Q 1158.67 237.13 1159.20 236.60"
/>
<path stroke="#808080" vector-effect="non-scaling-stroke" d="
  M 1095.8839 227.7435
  A 5.11 4.64 14.2 0 0 1092.0682 221.9918
  A 5.11 4.64 14.2 0 0 1085.9761 225.2365
  A 5.11 4.64 14.2 0 0 1089.7918 230.9882
  A 5.11 4.64 14.2 0 0 1095.8839 227.7435"
/>
<path stroke="#808080" vector-effect="non-scaling-stroke" d="
  M 1261.91 227.19
  A 4.44 4.44 0.0 0 0 1257.47 222.75
  A 4.44 4.44 0.0 0 0 1253.03 227.19
  A 4.44 4.44 0.0 0 0 1257.47 231.63
  A 4.44 4.44 0.0 0 0 1261.91 227.19"
/>
<path stroke="#808080" vector-effect="non-scaling-stroke" d="
  M 1243.74 247.05
  A 4.63 4.63 0.0 0 0 1239.11 242.42
  A 4.63 4.63 0.0 0 0 1234.48 247.05
  A 4.63 4.63 0.0 0 0 1239.11 251.68
  A 4.63 4.63 0.0 0 0 1243.74 247.05"
/>
<path stroke="#808080" vector-effect="non-scaling-stroke" d="
  M 1079.2424 258.3852
  A 5.01 4.63 95.7 0 0 1084.3471 253.8599
  A 5.01 4.63 95.7 0 0 1080.2376 248.4148
  A 5.01 4.63 95.7 0 0 1075.1329 252.9401
  A 5.01 4.63 95.7 0 0 1079.2424 258.3852"
/>
<path stroke="#808080" vector-effect="non-scaling-stroke" d="
  M 1111.92 255.58
  A 4.60 4.60 0.0 0 0 1107.32 250.98
  A 4.60 4.60 0.0 0 0 1102.72 255.58
  A 4.60 4.60 0.0 0 0 1107.32 260.18
  A 4.60 4.60 0.0 0 0 1111.92 255.58"
/>
<path stroke="#808080" vector-effect="non-scaling-stroke" d="
  M 1212.54 285.19
  C 1212.13 287.63 1211.34 289.90 1209.48 291.63
  C 1204.92 295.86 1201.02 300.85 1195.90 304.42
  Q 1186.34 311.08 1174.35 314.32
  C 1171.76 315.02 1168.59 315.06 1166.10 314.03
  Q 1159.87 311.44 1152.71 310.36
  C 1148.63 309.75 1145.96 307.21 1144.28 303.59
  Q 1141.16 296.85 1137.61 291.12
  Q 1137.31 290.65 1137.70 290.25
  Q 1141.11 286.79 1138.00 283.29
  C 1136.56 281.66 1134.11 281.71 1132.29 282.64
  Q 1125.82 285.97 1119.14 289.69
  Q 1115.76 291.57 1117.04 295.10
  C 1118.88 300.20 1124.80 296.80 1127.91 295.48
  Q 1128.44 295.26 1128.67 295.78
  Q 1131.28 301.68 1134.11 307.46
  C 1137.91 315.25 1142.43 319.84 1151.11 321.44
  Q 1155.97 322.33 1160.64 324.28
  Q 1167.76 327.24 1174.57 326.07
  Q 1180.14 325.10 1187.70 322.03
  Q 1195.94 318.68 1204.01 312.78
  C 1209.27 308.93 1213.33 303.78 1217.86 299.22
  Q 1221.83 295.22 1222.60 290.78
  Q 1222.72 290.09 1223.29 290.50
  Q 1226.53 292.83 1230.40 294.29
  C 1236.02 296.40 1239.19 289.18 1234.02 286.36
  Q 1226.06 282.02 1218.33 277.02
  C 1215.03 274.89 1209.40 272.88 1205.80 275.46
  C 1200.00 279.63 1205.69 290.92 1212.11 284.96
  Q 1212.66 284.44 1212.54 285.19"
/>
<path stroke="#808080" vector-effect="non-scaling-stroke" d="
  M 301.76 238.19
  C 300.52 246.77 300.74 256.16 309.40 260.47
  C 322.62 267.07 328.66 252.05 331.52 242.58
  C 333.10 237.34 329.80 229.80 324.84 227.31
  Q 318.06 223.89 311.05 228.20
  C 309.71 229.03 307.81 229.45 306.24 229.13
  Q 301.84 228.22 300.40 233.43
  Q 299.85 235.41 301.36 236.96
  A 1.44 1.42 -63.4 0 1 301.76 238.19"
/>
<path stroke="#808080" vector-effect="non-scaling-stroke" d="
  M 322.61 381.20
  Q 315.57 383.17 307.92 386.12
  C 301.92 388.44 305.16 397.32 311.28 395.33
  Q 317.44 393.32 323.45 391.48
  Q 329.56 389.61 331.28 387.66
  C 338.93 378.98 323.43 367.06 316.57 363.57
  C 312.47 361.49 308.29 360.40 304.69 357.31
  C 299.77 353.09 293.60 359.66 297.83 364.20
  C 301.48 368.10 306.09 369.65 310.90 371.73
  Q 317.99 374.79 322.75 380.77
  A 0.27 0.27 0.0 0 1 322.61 381.20"
/>
<path stroke="#808080" vector-effect="non-scaling-stroke" d="
  M 357.68 447.33
  C 358.02 461.44 353.74 473.47 346.14 484.76
  Q 341.38 491.86 330.64 495.30
  C 324.52 497.27 317.91 495.58 311.69 494.25
  Q 298.29 491.40 287.23 482.83
  Q 279.95 477.18 273.68 471.01
  C 266.78 464.23 263.31 454.55 260.44 445.05
  C 259.42 441.68 259.31 438.14 259.22 434.62
  C 259.13 431.23 257.97 428.01 253.92 428.58
  Q 250.71 429.03 250.26 432.19
  Q 248.99 441.03 250.47 447.61
  C 252.60 457.10 257.01 468.47 263.30 475.96
  Q 272.11 486.46 286.84 496.66
  C 295.52 502.68 306.17 505.59 316.53 507.38
  Q 322.41 508.39 328.39 507.95
  C 332.84 507.63 337.30 505.67 341.34 503.79
  Q 350.65 499.44 356.06 491.34
  C 366.03 476.44 370.75 461.21 368.95 442.90
  Q 368.55 438.84 366.83 436.25
  C 363.13 430.69 354.69 434.99 356.79 441.73
  Q 357.61 444.38 357.68 447.33"
/>
</g>
<path fill="#ffffff" d="
  M 0.00 0.00
  L 1416.00 0.00
  L 1416.00 780.00
  L 0.00 780.00
  L 0.00 0.00
  Z
  M 896.92 95.16
  Q 897.54 82.23 896.28 70.53
  C 895.97 67.56 894.65 64.96 891.19 65.42
  C 887.72 65.88 887.25 68.28 887.48 71.44
  C 887.76 75.32 888.14 79.17 888.07 83.03
  Q 887.88 92.45 888.05 102.09
  Q 888.07 103.40 886.87 103.95
  C 885.29 104.67 881.83 106.03 881.68 108.02
  Q 881.54 109.95 880.45 111.33
  Q 875.36 117.86 871.44 125.25
  Q 870.97 126.16 870.97 125.13
  C 870.97 122.13 866.84 119.40 866.56 116.26
  C 866.37 114.04 866.45 111.90 865.66 109.79
  C 863.36 103.67 857.39 99.66 851.59 96.68
  Q 851.05 96.40 851.25 95.84
  Q 855.81 82.91 860.95 68.75
  C 861.79 66.44 860.51 64.09 858.22 63.36
  C 853.46 61.84 851.75 67.58 850.56 70.94
  Q 846.82 81.46 843.45 92.17
  Q 843.25 92.80 842.64 92.54
  Q 838.86 90.96 834.30 90.91
  Q 833.78 90.90 833.80 90.38
  Q 834.15 81.79 835.37 69.75
  C 836.05 63.13 827.64 61.90 826.70 67.95
  Q 824.90 79.56 825.04 90.48
  Q 825.04 90.92 824.60 90.97
  Q 820.64 91.43 816.71 92.70
  A 0.37 0.37 0.0 0 1 816.23 92.38
  Q 815.16 77.85 809.46 63.37
  C 806.97 57.05 798.56 60.45 801.02 67.14
  Q 805.77 80.07 807.75 94.44
  Q 807.83 95.04 807.25 95.19
  C 801.22 96.72 795.87 99.83 794.06 106.01
  Q 791.78 113.76 785.74 131.43
  Q 785.51 132.09 784.85 131.87
  C 778.30 129.74 773.09 133.05 767.47 136.21
  Q 757.27 141.96 750.30 146.74
  Q 734.15 157.82 720.03 176.38
  C 712.84 185.84 708.59 196.26 705.52 207.46
  C 704.04 212.89 703.45 218.59 703.48 224.24
  Q 703.54 234.93 703.39 244.78
  C 703.25 254.53 700.91 264.53 699.60 274.50
  C 698.41 283.57 697.83 293.99 699.79 302.97
  C 705.25 327.88 713.69 352.59 730.94 370.82
  Q 741.87 382.38 758.84 396.55
  C 772.54 407.98 788.70 417.42 805.82 421.94
  Q 832.63 429.02 856.69 432.24
  Q 857.15 432.30 857.20 432.77
  L 858.40 444.52
  Q 858.45 445.02 857.96 445.04
  Q 854.04 445.21 849.80 445.30
  C 842.72 445.45 837.55 439.97 833.03 435.08
  Q 826.53 428.03 817.79 427.64
  C 812.28 427.39 811.07 434.78 816.52 436.35
  C 819.98 437.34 823.23 438.42 825.66 441.26
  C 832.84 449.70 840.31 455.93 852.25 455.10
  Q 855.66 454.86 858.74 454.55
  Q 859.31 454.49 859.27 455.06
  Q 858.80 461.55 859.53 469.19
  C 860.32 477.51 860.62 486.80 859.07 494.99
  Q 858.96 495.59 858.54 496.03
  C 857.17 497.45 855.94 498.73 854.97 500.49
  Q 845.21 518.24 835.19 535.57
  C 832.20 540.74 829.45 546.57 827.63 552.49
  C 826.52 556.12 826.10 560.97 830.94 561.52
  C 833.22 561.78 835.00 560.11 835.55 558.02
  C 837.12 552.03 839.74 546.45 842.81 541.31
  Q 853.69 523.11 864.01 503.82
  A 0.64 0.64 0.0 0 1 865.08 503.73
  Q 868.36 507.91 870.47 511.88
  Q 877.91 525.91 885.14 539.96
  Q 887.00 543.56 889.66 546.76
  C 893.18 550.99 899.45 546.76 897.00 542.06
  Q 894.22 536.73 891.42 531.82
  C 884.91 520.40 880.45 507.82 872.19 497.39
  C 871.25 496.21 870.03 495.46 868.68 494.85
  Q 868.14 494.61 868.22 494.03
  Q 869.59 483.73 868.41 471.35
  C 868.18 468.98 869.04 466.72 869.05 464.30
  Q 869.07 458.03 868.53 451.57
  Q 868.48 451.03 869.03 451.09
  Q 870.98 451.32 872.98 451.34
  C 878.89 451.39 885.20 454.76 889.51 458.61
  A 2.10 2.05 -78.1 0 1 890.12 459.57
  C 890.69 461.55 890.19 463.65 891.32 465.41
  C 892.54 467.31 895.22 468.06 897.23 466.96
  Q 899.78 465.58 899.80 462.19
  C 899.83 454.07 895.66 450.11 889.30 446.39
  Q 878.87 440.30 868.02 441.40
  A 0.40 0.40 0.0 0 1 867.58 441.04
  L 866.80 433.26
  Q 866.77 433.00 867.03 433.02
  Q 879.40 433.98 888.45 433.07
  Q 900.79 431.83 914.95 427.70
  C 928.59 423.72 940.88 416.65 951.48 407.54
  Q 966.97 394.22 979.36 379.17
  Q 984.04 373.49 987.64 367.35
  C 1004.44 338.75 1017.63 306.61 1018.69 273.74
  Q 1019.73 241.82 1016.83 204.51
  C 1015.71 190.09 1012.48 175.79 997.49 170.48
  C 992.74 168.80 987.38 168.04 982.27 167.14
  C 975.47 165.95 969.26 163.39 962.53 162.78
  Q 961.91 162.73 962.11 162.15
  Q 970.77 135.89 948.80 118.82
  Q 944.70 115.64 940.08 112.64
  Q 939.63 112.34 939.67 111.81
  Q 939.93 108.00 941.93 104.77
  C 948.05 94.89 956.21 86.27 964.93 78.36
  C 969.71 74.03 963.83 67.38 958.94 71.35
  Q 951.22 77.63 946.18 83.46
  Q 940.87 89.62 935.57 96.82
  C 934.04 98.90 930.64 104.28 931.17 107.09
  Q 931.32 107.86 930.59 107.58
  L 921.99 104.28
  Q 921.50 104.09 921.63 103.58
  C 922.16 101.40 921.49 99.31 922.23 97.13
  C 924.71 89.81 929.65 82.16 934.79 76.59
  C 939.30 71.70 932.45 65.79 928.21 70.27
  Q 918.81 80.20 914.10 92.85
  Q 913.89 93.42 913.39 93.08
  C 908.59 89.89 901.88 92.10 897.50 95.46
  Q 896.88 95.94 896.92 95.16
  Z
  M 1161.25 489.82
  C 1164.14 497.83 1169.23 506.46 1173.66 513.42
  Q 1177.78 519.89 1181.99 526.58
  C 1186.43 533.62 1189.46 541.10 1192.15 549.06
  C 1193.67 553.55 1198.12 560.97 1203.76 557.25
  C 1206.22 555.63 1206.99 552.28 1205.11 549.85
  C 1203.74 548.08 1202.65 546.29 1201.95 544.13
  Q 1197.09 529.12 1187.77 515.35
  Q 1178.45 501.58 1171.13 486.54
  Q 1170.30 484.85 1170.34 483.11
  Q 1170.64 470.85 1170.57 458.32
  C 1170.54 453.14 1171.53 448.00 1171.59 442.82
  C 1171.71 433.02 1171.52 422.88 1171.96 412.88
  Q 1172.20 407.28 1171.84 401.63
  Q 1171.80 401.01 1172.24 401.44
  Q 1183.55 412.54 1196.21 418.17
  Q 1202.76 421.07 1211.65 422.08
  C 1212.97 422.23 1214.18 422.75 1215.37 423.31
  C 1221.34 426.10 1225.77 416.00 1217.98 413.84
  C 1215.26 413.08 1212.78 411.68 1210.05 411.11
  Q 1204.56 409.96 1200.66 408.18
  Q 1182.91 400.04 1172.60 384.67
  C 1171.98 383.74 1171.55 383.00 1171.50 381.85
  Q 1171.16 373.51 1170.86 365.12
  Q 1170.84 364.63 1171.33 364.66
  Q 1181.98 365.44 1189.52 364.74
  C 1197.43 364.01 1206.31 360.58 1213.80 357.57
  C 1226.89 352.31 1241.00 345.98 1251.75 338.51
  Q 1263.50 330.35 1275.40 320.44
  Q 1295.44 303.77 1304.18 280.59
  Q 1307.19 272.62 1309.12 261.68
  C 1312.10 244.74 1314.36 227.28 1313.92 210.66
  C 1313.60 198.66 1306.76 185.72 1299.55 175.22
  Q 1295.97 170.00 1290.81 165.54
  C 1283.99 159.65 1275.39 158.02 1266.29 158.00
  Q 1257.04 157.99 1248.92 158.04
  Q 1248.24 158.04 1248.47 157.40
  Q 1250.93 150.36 1250.68 142.90
  C 1250.43 135.37 1247.11 129.66 1241.72 124.74
  Q 1229.65 113.71 1216.48 108.53
  Q 1215.89 108.29 1216.28 107.80
  C 1218.76 104.70 1215.57 100.75 1213.63 98.27
  C 1206.75 89.49 1195.90 98.62 1189.87 103.61
  Q 1181.14 110.83 1174.90 117.95
  Q 1174.28 118.65 1174.50 117.74
  C 1176.87 107.53 1154.65 99.33 1147.94 96.89
  Q 1139.77 93.91 1129.97 94.98
  C 1125.77 95.44 1121.85 97.44 1118.23 99.61
  Q 1110.73 104.11 1104.31 109.40
  Q 1098.83 113.90 1095.56 121.53
  Q 1091.14 131.85 1087.67 141.06
  Q 1087.42 141.74 1086.69 141.81
  C 1076.99 142.79 1066.43 148.90 1060.22 155.35
  Q 1056.11 159.62 1052.59 166.33
  Q 1048.89 173.36 1046.43 179.09
  C 1039.31 195.63 1038.84 215.98 1039.36 235.00
  Q 1039.50 239.87 1040.77 244.24
  C 1043.25 252.71 1045.77 260.90 1047.98 269.50
  C 1051.47 283.10 1058.23 297.73 1067.00 308.56
  C 1077.32 321.30 1088.98 331.91 1102.83 341.99
  Q 1109.20 346.62 1115.18 349.35
  C 1129.58 355.92 1145.51 362.12 1161.76 363.83
  Q 1162.30 363.89 1162.25 364.43
  Q 1161.70 369.99 1162.04 375.55
  Q 1162.08 376.09 1161.53 376.14
  C 1157.61 376.52 1153.23 381.49 1150.81 384.43
  Q 1132.72 406.43 1112.32 423.97
  C 1109.89 426.06 1108.57 429.30 1110.99 432.01
  Q 1114.77 436.22 1119.59 432.00
  Q 1141.44 412.84 1157.86 392.84
  Q 1159.46 390.88 1161.23 389.13
  Q 1161.77 388.60 1161.81 389.36
  C 1162.52 402.94 1161.54 416.06 1161.79 429.53
  Q 1161.98 439.24 1161.58 445.09
  Q 1160.64 458.75 1161.01 473.00
  Q 1161.02 473.44 1160.64 473.65
  Q 1156.38 475.98 1154.30 481.00
  Q 1147.65 497.07 1138.05 512.14
  Q 1128.80 526.66 1117.89 541.88
  C 1116.01 544.51 1115.95 547.59 1118.83 549.59
  C 1124.00 553.18 1127.67 546.98 1130.09 543.33
  Q 1142.09 525.24 1152.69 507.20
  Q 1157.08 499.74 1160.90 489.81
  Q 1161.08 489.35 1161.25 489.82
  Z
  M 460.18 263.14
  Q 460.96 257.23 461.05 250.05
  C 461.24 232.65 460.62 217.37 456.85 201.19
  Q 453.29 185.92 442.29 176.01
  Q 437.46 171.65 432.41 167.44
  C 424.00 160.44 418.39 150.21 406.63 148.87
  Q 398.04 147.90 388.35 149.10
  C 372.56 151.07 356.41 156.00 342.76 164.33
  C 338.93 166.67 333.23 170.34 332.38 174.81
  Q 332.26 175.43 331.78 175.01
  Q 326.11 169.99 320.38 166.99
  Q 311.44 162.32 301.76 156.73
  C 292.04 151.10 283.63 149.27 272.67 150.53
  Q 267.29 151.15 258.01 155.09
  Q 249.42 158.74 241.30 161.72
  Q 238.66 162.70 237.88 165.24
  Q 237.37 166.90 235.91 167.54
  C 226.51 171.62 217.21 177.72 212.40 186.45
  Q 208.06 194.34 204.37 204.47
  C 200.68 214.61 196.86 225.11 195.25 235.20
  Q 195.17 235.70 194.67 235.65
  C 180.67 234.26 165.10 236.31 152.95 243.53
  C 139.09 251.76 124.43 262.05 114.53 274.66
  C 110.22 280.15 106.18 288.03 101.68 294.85
  C 94.70 305.42 88.03 316.33 82.78 327.73
  Q 73.64 347.60 75.35 371.07
  Q 75.47 372.65 76.12 374.32
  C 79.92 383.98 82.36 394.01 86.36 403.50
  C 91.17 414.90 96.68 425.93 104.08 435.52
  C 112.29 446.16 122.63 454.83 131.45 464.97
  C 139.12 473.77 147.29 481.51 156.52 488.03
  C 163.68 493.10 170.45 498.00 177.03 503.71
  C 188.77 513.91 199.61 523.30 213.12 529.72
  Q 222.94 534.39 231.46 538.09
  C 238.80 541.28 245.54 545.38 252.53 549.39
  Q 263.61 555.75 277.80 558.67
  Q 288.60 560.90 299.78 563.14
  C 306.78 564.55 313.42 566.75 320.26 568.51
  Q 325.79 569.94 332.18 570.64
  Q 332.69 570.69 332.77 571.20
  L 335.64 587.85
  Q 335.77 588.59 335.06 588.83
  Q 329.87 590.62 326.09 594.53
  C 319.63 601.22 313.95 608.61 308.36 616.08
  Q 300.04 627.19 296.83 637.48
  Q 295.00 643.32 298.31 647.97
  C 302.25 653.51 310.35 648.51 306.91 642.06
  A 1.30 1.27 -49.0 0 1 306.85 641.00
  Q 310.57 631.65 318.52 621.22
  Q 326.86 610.28 333.14 603.26
  Q 334.82 601.38 336.86 599.65
  A 0.35 0.35 0.0 0 1 337.44 599.89
  Q 339.31 630.56 343.25 660.00
  Q 343.65 662.98 343.73 667.21
  Q 343.74 667.71 343.34 668.01
  Q 341.19 669.64 339.44 671.83
  Q 318.81 697.58 303.60 723.18
  C 301.62 726.53 298.67 734.16 301.06 737.96
  C 304.37 743.22 311.17 740.57 311.80 734.72
  Q 312.24 730.69 314.58 726.91
  Q 329.63 702.60 347.73 679.31
  A 0.94 0.93 37.2 0 1 349.03 679.14
  C 361.97 688.76 373.61 700.31 380.82 714.60
  Q 385.56 724.00 390.05 734.49
  C 393.14 741.71 402.64 737.90 399.51 730.53
  Q 395.05 720.04 390.14 710.32
  C 382.33 694.89 369.21 681.56 354.95 671.30
  A 1.07 1.07 0.0 0 1 354.50 670.43
  Q 354.45 662.72 354.09 660.02
  Q 350.26 630.82 348.36 603.00
  Q 348.33 602.50 348.79 602.70
  C 360.60 607.73 372.86 614.75 381.38 624.34
  Q 387.77 631.52 388.17 641.95
  Q 388.38 647.40 389.06 652.00
  C 390.00 658.34 399.71 657.65 399.45 651.08
  Q 399.20 644.64 398.67 638.78
  C 397.44 625.07 389.20 615.31 378.57 607.51
  Q 366.30 598.49 349.49 591.54
  Q 348.41 591.10 347.30 591.22
  Q 346.74 591.29 346.67 590.73
  Q 345.57 582.21 343.18 572.76
  Q 343.02 572.14 343.65 572.26
  C 352.36 573.97 361.11 575.82 369.79 576.73
  Q 392.19 579.08 415.12 575.42
  Q 433.53 572.48 450.01 563.54
  C 461.68 557.21 473.85 549.68 483.63 540.39
  Q 492.62 531.86 501.72 522.32
  C 514.06 509.38 523.04 495.67 533.11 479.54
  C 539.60 469.15 543.13 458.72 546.97 446.36
  C 549.98 436.72 555.41 426.15 557.52 418.30
  Q 561.59 403.13 560.98 382.01
  Q 560.84 377.12 558.90 372.78
  Q 554.58 363.09 551.95 352.38
  C 549.75 343.37 545.56 337.70 540.11 330.78
  C 536.67 326.41 534.04 321.48 531.37 316.65
  C 528.87 312.14 525.84 308.15 522.09 304.60
  C 517.37 300.13 513.34 295.93 509.95 290.25
  C 506.37 284.27 501.72 278.24 495.44 275.37
  Q 486.71 271.38 477.97 265.99
  C 474.35 263.76 470.66 262.24 466.70 261.30
  Q 462.74 260.36 460.59 263.31
  Q 460.06 264.04 460.18 263.14
  Z"
/>
<path fill="#000000" d="
  M 897.50 95.46
  C 901.88 92.10 908.59 89.89 913.39 93.08
  Q 913.89 93.42 914.10 92.85
  Q 918.81 80.20 928.21 70.27
  C 932.45 65.79 939.30 71.70 934.79 76.59
  C 929.65 82.16 924.71 89.81 922.23 97.13
  C 921.49 99.31 922.16 101.40 921.63 103.58
  Q 921.50 104.09 921.99 104.28
  L 930.59 107.58
  Q 931.32 107.86 931.17 107.09
  C 930.64 104.28 934.04 98.90 935.57 96.82
  Q 940.87 89.62 946.18 83.46
  Q 951.22 77.63 958.94 71.35
  C 963.83 67.38 969.71 74.03 964.93 78.36
  C 956.21 86.27 948.05 94.89 941.93 104.77
  Q 939.93 108.00 939.67 111.81
  Q 939.63 112.34 940.08 112.64
  Q 944.70 115.64 948.80 118.82
  Q 970.77 135.89 962.11 162.15
  Q 961.91 162.73 962.53 162.78
  C 969.26 163.39 975.47 165.95 982.27 167.14
  C 987.38 168.04 992.74 168.80 997.49 170.48
  C 1012.48 175.79 1015.71 190.09 1016.83 204.51
  Q 1019.73 241.82 1018.69 273.74
  C 1017.63 306.61 1004.44 338.75 987.64 367.35
  Q 984.04 373.49 979.36 379.17
  Q 966.97 394.22 951.48 407.54
  C 940.88 416.65 928.59 423.72 914.95 427.70
  Q 900.79 431.83 888.45 433.07
  Q 879.40 433.98 867.03 433.02
  Q 866.77 433.00 866.80 433.26
  L 867.58 441.04
  A 0.40 0.40 0.0 0 0 868.02 441.40
  Q 878.87 440.30 889.30 446.39
  C 895.66 450.11 899.83 454.07 899.80 462.19
  Q 899.78 465.58 897.23 466.96
  C 895.22 468.06 892.54 467.31 891.32 465.41
  C 890.19 463.65 890.69 461.55 890.12 459.57
  A 2.10 2.05 -78.1 0 0 889.51 458.61
  C 885.20 454.76 878.89 451.39 872.98 451.34
  Q 870.98 451.32 869.03 451.09
  Q 868.48 451.03 868.53 451.57
  Q 869.07 458.03 869.05 464.30
  C 869.04 466.72 868.18 468.98 868.41 471.35
  Q 869.59 483.73 868.22 494.03
  Q 868.14 494.61 868.68 494.85
  C 870.03 495.46 871.25 496.21 872.19 497.39
  C 880.45 507.82 884.91 520.40 891.42 531.82
  Q 894.22 536.73 897.00 542.06
  C 899.45 546.76 893.18 550.99 889.66 546.76
  Q 887.00 543.56 885.14 539.96
  Q 877.91 525.91 870.47 511.88
  Q 868.36 507.91 865.08 503.73
  A 0.64 0.64 0.0 0 0 864.01 503.82
  Q 853.69 523.11 842.81 541.31
  C 839.74 546.45 837.12 552.03 835.55 558.02
  C 835.00 560.11 833.22 561.78 830.94 561.52
  C 826.10 560.97 826.52 556.12 827.63 552.49
  C 829.45 546.57 832.20 540.74 835.19 535.57
  Q 845.21 518.24 854.97 500.49
  C 855.94 498.73 857.17 497.45 858.54 496.03
  Q 858.96 495.59 859.07 494.99
  C 860.62 486.80 860.32 477.51 859.53 469.19
  Q 858.80 461.55 859.27 455.06
  Q 859.31 454.49 858.74 454.55
  Q 855.66 454.86 852.25 455.10
  C 840.31 455.93 832.84 449.70 825.66 441.26
  C 823.23 438.42 819.98 437.34 816.52 436.35
  C 811.07 434.78 812.28 427.39 817.79 427.64
  Q 826.53 428.03 833.03 435.08
  C 837.55 439.97 842.72 445.45 849.80 445.30
  Q 854.04 445.21 857.96 445.04
  Q 858.45 445.02 858.40 444.52
  L 857.20 432.77
  Q 857.15 432.30 856.69 432.24
  Q 832.63 429.02 805.82 421.94
  C 788.70 417.42 772.54 407.98 758.84 396.55
  Q 741.87 382.38 730.94 370.82
  C 713.69 352.59 705.25 327.88 699.79 302.97
  C 697.83 293.99 698.41 283.57 699.60 274.50
  C 700.91 264.53 703.25 254.53 703.39 244.78
  Q 703.54 234.93 703.48 224.24
  C 703.45 218.59 704.04 212.89 705.52 207.46
  C 708.59 196.26 712.84 185.84 720.03 176.38
  Q 734.15 157.82 750.30 146.74
  Q 757.27 141.96 767.47 136.21
  C 773.09 133.05 778.30 129.74 784.85 131.87
  Q 785.51 132.09 785.74 131.43
  Q 791.78 113.76 794.06 106.01
  C 795.87 99.83 801.22 96.72 807.25 95.19
  Q 807.83 95.04 807.75 94.44
  Q 805.77 80.07 801.02 67.14
  C 798.56 60.45 806.97 57.05 809.46 63.37
  Q 815.16 77.85 816.23 92.38
  A 0.37 0.37 0.0 0 0 816.71 92.70
  Q 820.64 91.43 824.60 90.97
  Q 825.04 90.92 825.04 90.48
  Q 824.90 79.56 826.70 67.95
  C 827.64 61.90 836.05 63.13 835.37 69.75
  Q 834.15 81.79 833.80 90.38
  Q 833.78 90.90 834.30 90.91
  Q 838.86 90.96 842.64 92.54
  Q 843.25 92.80 843.45 92.17
  Q 846.82 81.46 850.56 70.94
  C 851.75 67.58 853.46 61.84 858.22 63.36
  C 860.51 64.09 861.79 66.44 860.95 68.75
  Q 855.81 82.91 851.25 95.84
  Q 851.05 96.40 851.59 96.68
  C 857.39 99.66 863.36 103.67 865.66 109.79
  C 866.45 111.90 866.37 114.04 866.56 116.26
  C 866.84 119.40 870.97 122.13 870.97 125.13
  Q 870.97 126.16 871.44 125.25
  Q 875.36 117.86 880.45 111.33
  Q 881.54 109.95 881.68 108.02
  C 881.83 106.03 885.29 104.67 886.87 103.95
  Q 888.07 103.40 888.05 102.09
  Q 887.88 92.45 888.07 83.03
  C 888.14 79.17 887.76 75.32 887.48 71.44
  C 887.25 68.28 887.72 65.88 891.19 65.42
  C 894.65 64.96 895.97 67.56 896.28 70.53
  Q 897.54 82.23 896.92 95.16
  Q 896.88 95.94 897.50 95.46
  Z
  M 799.13 174.41
  Q 795.81 172.87 791.57 172.71
  Q 791.07 172.69 791.10 173.19
  C 791.39 177.00 790.73 183.02 792.11 186.16
  Q 795.68 194.25 799.84 201.90
  C 800.73 203.54 802.32 205.58 803.68 206.84
  Q 809.96 212.60 815.65 218.19
  Q 819.02 221.51 821.59 222.60
  C 827.75 225.22 838.24 221.12 842.97 217.56
  Q 848.95 213.07 854.59 206.61
  C 855.14 205.99 855.93 205.44 856.62 204.96
  Q 857.12 204.61 856.87 204.05
  Q 855.11 200.28 854.81 197.25
  Q 851.89 167.58 863.39 141.68
  Q 863.68 141.03 863.40 140.38
  Q 862.45 138.20 863.01 135.84
  C 864.41 129.84 861.48 125.92 857.78 121.94
  Q 853.15 116.94 852.98 111.03
  Q 852.96 110.38 852.41 110.04
  L 848.18 107.31
  A 1.04 1.04 0.0 0 0 847.06 107.31
  Q 843.80 109.43 841.21 106.90
  C 840.33 106.05 840.19 104.76 839.91 103.62
  Q 839.78 103.04 839.21 102.90
  Q 836.46 102.21 834.07 102.22
  C 832.11 102.22 831.09 103.88 828.90 102.75
  Q 827.20 101.88 825.43 102.26
  Q 816.86 104.11 807.94 106.94
  C 806.57 107.38 805.29 108.31 804.82 109.73
  Q 799.94 124.57 795.96 137.29
  Q 794.02 143.49 792.31 153.15
  Q 792.16 154.01 792.68 153.30
  Q 794.74 150.50 796.58 147.62
  C 800.44 141.57 806.85 143.31 812.36 145.55
  C 815.38 146.77 815.77 150.26 817.75 152.60
  C 819.68 154.88 820.25 158.03 819.65 160.90
  Q 817.19 172.63 804.32 175.18
  Q 801.85 175.66 799.13 174.41
  Z
  M 941.78 127.59
  C 928.61 117.63 911.76 110.15 894.99 111.94
  Q 893.84 112.06 893.04 112.90
  C 882.97 123.54 875.93 137.87 870.75 152.22
  Q 864.70 168.94 865.30 186.83
  C 865.44 190.97 865.15 194.75 866.53 198.70
  A 1.66 1.62 -85.8 0 0 867.29 199.60
  Q 869.74 200.94 870.37 203.55
  Q 870.51 204.15 870.96 204.59
  C 876.23 209.86 890.08 209.13 896.73 207.59
  C 902.65 206.22 909.08 202.32 914.36 198.78
  Q 929.08 188.90 943.86 173.01
  Q 945.25 171.51 945.04 169.49
  C 944.53 164.68 949.29 165.43 950.58 162.48
  C 956.61 148.74 953.79 136.67 941.78 127.59
  Z
  M 891.89 219.74
  C 882.34 220.28 871.73 219.81 864.13 213.53
  Q 863.63 213.12 863.25 213.63
  C 854.54 225.19 843.03 233.59 828.24 234.93
  Q 817.50 235.90 809.86 228.66
  Q 803.55 222.68 796.75 216.11
  C 789.70 209.30 786.06 200.60 782.09 191.82
  Q 780.30 187.85 780.08 183.63
  Q 779.05 163.93 782.29 144.70
  Q 782.40 144.05 781.79 143.82
  Q 780.28 143.24 779.45 141.73
  Q 779.08 141.06 778.43 141.44
  Q 765.68 148.70 760.08 152.32
  Q 743.10 163.31 729.52 180.84
  Q 721.45 191.27 717.79 202.59
  C 716.07 207.92 714.12 213.62 714.00 219.12
  Q 713.72 231.27 713.88 243.10
  Q 713.97 249.91 712.86 257.03
  C 711.39 266.42 709.71 275.58 709.19 285.28
  Q 708.75 293.50 709.58 297.95
  Q 712.57 313.97 719.45 332.08
  C 725.17 347.13 733.13 358.82 745.21 370.25
  C 761.31 385.47 775.41 397.80 794.35 406.59
  C 802.65 410.44 811.68 412.61 820.77 414.74
  C 842.60 419.85 865.41 424.24 886.86 422.55
  Q 897.51 421.71 911.73 417.60
  C 925.01 413.76 936.73 406.69 946.97 397.54
  Q 961.38 384.65 971.93 371.34
  Q 976.84 365.14 980.85 357.86
  C 995.93 330.47 1007.51 301.61 1007.99 270.48
  Q 1008.45 239.92 1006.85 213.48
  Q 1006.42 206.34 1005.40 198.75
  C 1004.01 188.30 1000.61 180.73 989.26 179.09
  Q 978.06 177.47 967.56 174.53
  Q 962.60 173.14 956.83 173.32
  A 0.81 0.80 -74.9 0 0 956.16 173.71
  Q 953.23 178.48 949.59 182.37
  Q 934.58 198.41 918.56 209.21
  C 910.45 214.69 901.69 219.18 891.89 219.74
  Z"
/>
<path fill="#000000" d="
  M 1160.90 489.81
  Q 1157.08 499.74 1152.69 507.20
  Q 1142.09 525.24 1130.09 543.33
  C 1127.67 546.98 1124.00 553.18 1118.83 549.59
  C 1115.95 547.59 1116.01 544.51 1117.89 541.88
  Q 1128.80 526.66 1138.05 512.14
  Q 1147.65 497.07 1154.30 481.00
  Q 1156.38 475.98 1160.64 473.65
  Q 1161.02 473.44 1161.01 473.00
  Q 1160.64 458.75 1161.58 445.09
  Q 1161.98 439.24 1161.79 429.53
  C 1161.54 416.06 1162.52 402.94 1161.81 389.36
  Q 1161.77 388.60 1161.23 389.13
  Q 1159.46 390.88 1157.86 392.84
  Q 1141.44 412.84 1119.59 432.00
  Q 1114.77 436.22 1110.99 432.01
  C 1108.57 429.30 1109.89 426.06 1112.32 423.97
  Q 1132.72 406.43 1150.81 384.43
  C 1153.23 381.49 1157.61 376.52 1161.53 376.14
  Q 1162.08 376.09 1162.04 375.55
  Q 1161.70 369.99 1162.25 364.43
  Q 1162.30 363.89 1161.76 363.83
  C 1145.51 362.12 1129.58 355.92 1115.18 349.35
  Q 1109.20 346.62 1102.83 341.99
  C 1088.98 331.91 1077.32 321.30 1067.00 308.56
  C 1058.23 297.73 1051.47 283.10 1047.98 269.50
  C 1045.77 260.90 1043.25 252.71 1040.77 244.24
  Q 1039.50 239.87 1039.36 235.00
  C 1038.84 215.98 1039.31 195.63 1046.43 179.09
  Q 1048.89 173.36 1052.59 166.33
  Q 1056.11 159.62 1060.22 155.35
  C 1066.43 148.90 1076.99 142.79 1086.69 141.81
  Q 1087.42 141.74 1087.67 141.06
  Q 1091.14 131.85 1095.56 121.53
  Q 1098.83 113.90 1104.31 109.40
  Q 1110.73 104.11 1118.23 99.61
  C 1121.85 97.44 1125.77 95.44 1129.97 94.98
  Q 1139.77 93.91 1147.94 96.89
  C 1154.65 99.33 1176.87 107.53 1174.50 117.74
  Q 1174.28 118.65 1174.90 117.95
  Q 1181.14 110.83 1189.87 103.61
  C 1195.90 98.62 1206.75 89.49 1213.63 98.27
  C 1215.57 100.75 1218.76 104.70 1216.28 107.80
  Q 1215.89 108.29 1216.48 108.53
  Q 1229.65 113.71 1241.72 124.74
  C 1247.11 129.66 1250.43 135.37 1250.68 142.90
  Q 1250.93 150.36 1248.47 157.40
  Q 1248.24 158.04 1248.92 158.04
  Q 1257.04 157.99 1266.29 158.00
  C 1275.39 158.02 1283.99 159.65 1290.81 165.54
  Q 1295.97 170.00 1299.55 175.22
  C 1306.76 185.72 1313.60 198.66 1313.92 210.66
  C 1314.36 227.28 1312.10 244.74 1309.12 261.68
  Q 1307.19 272.62 1304.18 280.59
  Q 1295.44 303.77 1275.40 320.44
  Q 1263.50 330.35 1251.75 338.51
  C 1241.00 345.98 1226.89 352.31 1213.80 357.57
  C 1206.31 360.58 1197.43 364.01 1189.52 364.74
  Q 1181.98 365.44 1171.33 364.66
  Q 1170.84 364.63 1170.86 365.12
  Q 1171.16 373.51 1171.50 381.85
  C 1171.55 383.00 1171.98 383.74 1172.60 384.67
  Q 1182.91 400.04 1200.66 408.18
  Q 1204.56 409.96 1210.05 411.11
  C 1212.78 411.68 1215.26 413.08 1217.98 413.84
  C 1225.77 416.00 1221.34 426.10 1215.37 423.31
  C 1214.18 422.75 1212.97 422.23 1211.65 422.08
  Q 1202.76 421.07 1196.21 418.17
  Q 1183.55 412.54 1172.24 401.44
  Q 1171.80 401.01 1171.84 401.63
  Q 1172.20 407.28 1171.96 412.88
  C 1171.52 422.88 1171.71 433.02 1171.59 442.82
  C 1171.53 448.00 1170.54 453.14 1170.57 458.32
  Q 1170.64 470.85 1170.34 483.11
  Q 1170.30 484.85 1171.13 486.54
  Q 1178.45 501.58 1187.77 515.35
  Q 1197.09 529.12 1201.95 544.13
  C 1202.65 546.29 1203.74 548.08 1205.11 549.85
  C 1206.99 552.28 1206.22 555.63 1203.76 557.25
  C 1198.12 560.97 1193.67 553.55 1192.15 549.06
  C 1189.46 541.10 1186.43 533.62 1181.99 526.58
  Q 1177.78 519.89 1173.66 513.42
  C 1169.23 506.46 1164.14 497.83 1161.25 489.82
  Q 1161.08 489.35 1160.90 489.81
  Z
  M 1204.44 105.94
  L 1207.51 106.50
  Q 1208.26 106.64 1207.83 106.01
  Q 1206.47 104.05 1204.33 105.32
  Q 1203.55 105.78 1204.44 105.94
  Z
  M 1163.92 116.85
  C 1158.49 112.80 1151.32 109.97 1145.06 107.48
  Q 1140.13 105.52 1133.51 105.64
  C 1129.93 105.71 1126.96 107.09 1123.99 108.91
  Q 1117.26 113.04 1111.73 117.46
  Q 1108.05 120.40 1105.96 124.98
  Q 1100.82 136.21 1097.65 145.44
  C 1095.58 151.50 1094.92 158.27 1097.53 164.53
  Q 1102.36 176.08 1111.57 184.90
  Q 1120.68 193.62 1134.49 194.31
  Q 1136.77 194.43 1138.98 193.23
  C 1146.61 189.08 1151.70 184.43 1157.90 179.31
  Q 1158.39 178.91 1158.10 178.34
  Q 1156.25 174.69 1155.90 170.77
  Q 1153.41 143.44 1169.76 123.99
  Q 1170.45 123.16 1169.37 123.16
  Q 1166.68 123.13 1165.42 121.12
  C 1164.78 120.10 1164.91 118.79 1164.52 117.67
  Q 1164.35 117.17 1163.92 116.85
  Z
  M 1193.38 116.55
  C 1191.71 117.65 1189.93 117.49 1188.34 119.06
  Q 1177.21 130.05 1171.68 140.30
  Q 1167.56 147.93 1166.61 158.70
  C 1166.02 165.34 1165.96 171.50 1169.65 177.33
  Q 1178.89 191.89 1195.45 189.86
  C 1200.33 189.26 1204.50 187.08 1208.49 184.49
  Q 1217.39 178.72 1225.82 170.50
  C 1233.79 162.74 1239.76 155.14 1239.64 143.93
  C 1239.60 141.00 1238.88 138.05 1236.92 135.85
  Q 1228.71 126.66 1215.95 120.36
  C 1210.62 117.73 1204.14 116.76 1198.27 115.53
  Q 1195.73 115.00 1193.38 116.55
  Z
  M 1133.22 205.33
  C 1123.02 204.69 1112.36 200.82 1104.98 193.82
  C 1094.88 184.24 1083.04 167.82 1085.24 152.94
  Q 1085.36 152.16 1084.61 152.39
  Q 1073.09 155.93 1066.74 163.55
  Q 1063.69 167.22 1060.20 174.26
  Q 1056.24 182.25 1054.97 185.99
  C 1049.73 201.39 1049.89 218.56 1050.22 235.27
  C 1050.26 237.31 1050.78 239.37 1051.36 241.33
  Q 1055.42 255.04 1058.96 268.09
  Q 1065.31 291.45 1081.50 308.61
  Q 1094.59 322.49 1109.32 333.00
  C 1119.11 339.99 1130.13 343.83 1141.36 347.83
  C 1155.10 352.73 1171.27 354.54 1186.34 353.85
  Q 1192.86 353.54 1202.05 350.14
  Q 1218.27 344.15 1232.17 337.16
  C 1245.98 330.22 1258.46 320.24 1270.16 310.27
  Q 1285.18 297.47 1293.10 278.55
  C 1296.25 271.04 1297.85 262.15 1299.20 253.97
  C 1301.66 239.07 1303.11 225.70 1302.86 211.54
  C 1302.77 206.59 1301.57 202.68 1299.69 198.31
  Q 1293.81 184.60 1286.55 176.45
  Q 1280.22 169.35 1270.32 169.01
  Q 1259.95 168.66 1248.80 168.79
  C 1246.95 168.81 1245.31 168.26 1243.55 167.80
  Q 1243.02 167.66 1242.68 168.10
  Q 1233.63 179.92 1220.22 189.90
  C 1214.09 194.48 1206.19 199.41 1198.66 200.45
  C 1188.03 201.91 1178.61 200.27 1169.61 193.42
  C 1167.40 191.74 1165.70 189.63 1163.76 187.69
  Q 1163.28 187.22 1162.87 187.75
  Q 1156.02 196.71 1143.16 203.51
  C 1140.12 205.12 1136.58 205.54 1133.22 205.33
  Z"
/>
<path fill="#ffffff" d="
  M 799.13 174.41
  Q 801.85 175.66 804.32 175.18
  Q 817.19 172.63 819.65 160.90
  C 820.25 158.03 819.68 154.88 817.75 152.60
  C 815.77 150.26 815.38 146.77 812.36 145.55
  C 806.85 143.31 800.44 141.57 796.58 147.62
  Q 794.74 150.50 792.68 153.30
  Q 792.16 154.01 792.31 153.15
  Q 794.02 143.49 795.96 137.29
  Q 799.94 124.57 804.82 109.73
  C 805.29 108.31 806.57 107.38 807.94 106.94
  Q 816.86 104.11 825.43 102.26
  Q 827.20 101.88 828.90 102.75
  C 831.09 103.88 832.11 102.22 834.07 102.22
  Q 836.46 102.21 839.21 102.90
  Q 839.78 103.04 839.91 103.62
  C 840.19 104.76 840.33 106.05 841.21 106.90
  Q 843.80 109.43 847.06 107.31
  A 1.04 1.04 0.0 0 1 848.18 107.31
  L 852.41 110.04
  Q 852.96 110.38 852.98 111.03
  Q 853.15 116.94 857.78 121.94
  C 861.48 125.92 864.41 129.84 863.01 135.84
  Q 862.45 138.20 863.40 140.38
  Q 863.68 141.03 863.39 141.68
  Q 851.89 167.58 854.81 197.25
  Q 855.11 200.28 856.87 204.05
  Q 857.12 204.61 856.62 204.96
  C 855.93 205.44 855.14 205.99 854.59 206.61
  Q 848.95 213.07 842.97 217.56
  C 838.24 221.12 827.75 225.22 821.59 222.60
  Q 819.02 221.51 815.65 218.19
  Q 809.96 212.60 803.68 206.84
  C 802.32 205.58 800.73 203.54 799.84 201.90
  Q 795.68 194.25 792.11 186.16
  C 790.73 183.02 791.39 177.00 791.10 173.19
  Q 791.07 172.69 791.57 172.71
  Q 795.81 172.87 799.13 174.41
  Z"
/>
<path fill="#ffffff" d="
  M 1207.51 106.50
  L 1204.44 105.94
  Q 1203.55 105.78 1204.33 105.32
  Q 1206.47 104.05 1207.83 106.01
  Q 1208.26 106.64 1207.51 106.50
  Z"
/>
<path fill="#ffffff" d="
  M 1145.06 107.48
  C 1151.32 109.97 1158.49 112.80 1163.92 116.85
  Q 1164.35 117.17 1164.52 117.67
  C 1164.91 118.79 1164.78 120.10 1165.42 121.12
  Q 1166.68 123.13 1169.37 123.16
  Q 1170.45 123.16 1169.76 123.99
  Q 1153.41 143.44 1155.90 170.77
  Q 1156.25 174.69 1158.10 178.34
  Q 1158.39 178.91 1157.90 179.31
  C 1151.70 184.43 1146.61 189.08 1138.98 193.23
  Q 1136.77 194.43 1134.49 194.31
  Q 1120.68 193.62 1111.57 184.90
  Q 1102.36 176.08 1097.53 164.53
  C 1094.92 158.27 1095.58 151.50 1097.65 145.44
  Q 1100.82 136.21 1105.96 124.98
  Q 1108.05 120.40 1111.73 117.46
  Q 1117.26 113.04 1123.99 108.91
  C 1126.96 107.09 1129.93 105.71 1133.51 105.64
  Q 1140.13 105.52 1145.06 107.48
  Z
  M 1100.7585 158.1039
  A 12.63 10.72 136.5 0 0 1117.2992 157.1860
  A 12.63 10.72 136.5 0 0 1119.0815 140.7161
  A 12.63 10.72 136.5 0 0 1102.5408 141.6340
  A 12.63 10.72 136.5 0 0 1100.7585 158.1039
  Z"
/>
<path fill="#ffffff" d="
  M 894.99 111.94
  C 911.76 110.15 928.61 117.63 941.78 127.59
  C 953.79 136.67 956.61 148.74 950.58 162.48
  C 949.29 165.43 944.53 164.68 945.04 169.49
  Q 945.25 171.51 943.86 173.01
  Q 929.08 188.90 914.36 198.78
  C 909.08 202.32 902.65 206.22 896.73 207.59
  C 890.08 209.13 876.23 209.86 870.96 204.59
  Q 870.51 204.15 870.37 203.55
  Q 869.74 200.94 867.29 199.60
  A 1.66 1.62 -85.8 0 1 866.53 198.70
  C 865.15 194.75 865.44 190.97 865.30 186.83
  Q 864.70 168.94 870.75 152.22
  C 875.93 137.87 882.97 123.54 893.04 112.90
  Q 893.84 112.06 894.99 111.94
  Z
  M 873.53 162.88
  C 872.93 166.68 876.10 172.60 879.71 174.17
  Q 885.36 176.64 890.53 171.34
  C 895.04 166.72 901.92 160.09 899.39 152.77
  C 897.77 148.08 897.34 143.71 891.28 143.00
  C 889.13 142.75 887.08 143.48 884.93 143.53
  C 880.05 143.64 877.09 146.50 875.90 151.34
  Q 874.33 157.70 873.53 162.88
  Z"
/>
<path fill="#ffffff" d="
  M 1193.38 116.55
  Q 1195.73 115.00 1198.27 115.53
  C 1204.14 116.76 1210.62 117.73 1215.95 120.36
  Q 1228.71 126.66 1236.92 135.85
  C 1238.88 138.05 1239.60 141.00 1239.64 143.93
  C 1239.76 155.14 1233.79 162.74 1225.82 170.50
  Q 1217.39 178.72 1208.49 184.49
  C 1204.50 187.08 1200.33 189.26 1195.45 189.86
  Q 1178.89 191.89 1169.65 177.33
  C 1165.96 171.50 1166.02 165.34 1166.61 158.70
  Q 1167.56 147.93 1171.68 140.30
  Q 1177.21 130.05 1188.34 119.06
  C 1189.93 117.49 1191.71 117.65 1193.38 116.55
  Z
  M 1177.17 163.08
  C 1183.78 162.76 1188.28 157.70 1188.28 151.24
  Q 1188.28 149.09 1186.81 147.10
  Q 1183.43 142.55 1178.30 142.87
  C 1171.70 143.27 1169.11 149.38 1168.95 155.20
  Q 1168.72 163.48 1177.17 163.08
  Z"
/>
<ellipse fill="#000000" cx="0.00" cy="0.00" transform="translate(1109.92,149.41) rotate(136.5)" rx="12.63" ry="10.72"/>
<path fill="#ffffff" d="
  M 864.13 213.53
  C 871.73 219.81 882.34 220.28 891.89 219.74
  C 901.69 219.18 910.45 214.69 918.56 209.21
  Q 934.58 198.41 949.59 182.37
  Q 953.23 178.48 956.16 173.71
  A 0.81 0.80 -74.9 0 1 956.83 173.32
  Q 962.60 173.14 967.56 174.53
  Q 978.06 177.47 989.26 179.09
  C 1000.61 180.73 1004.01 188.30 1005.40 198.75
  Q 1006.42 206.34 1006.85 213.48
  Q 1008.45 239.92 1007.99 270.48
  C 1007.51 301.61 995.93 330.47 980.85 357.86
  Q 976.84 365.14 971.93 371.34
  Q 961.38 384.65 946.97 397.54
  C 936.73 406.69 925.01 413.76 911.73 417.60
  Q 897.51 421.71 886.86 422.55
  C 865.41 424.24 842.60 419.85 820.77 414.74
  C 811.68 412.61 802.65 410.44 794.35 406.59
  C 775.41 397.80 761.31 385.47 745.21 370.25
  C 733.13 358.82 725.17 347.13 719.45 332.08
  Q 712.57 313.97 709.58 297.95
  Q 708.75 293.50 709.19 285.28
  C 709.71 275.58 711.39 266.42 712.86 257.03
  Q 713.97 249.91 713.88 243.10
  Q 713.72 231.27 714.00 219.12
  C 714.12 213.62 716.07 207.92 717.79 202.59
  Q 721.45 191.27 729.52 180.84
  Q 743.10 163.31 760.08 152.32
  Q 765.68 148.70 778.43 141.44
  Q 779.08 141.06 779.45 141.73
  Q 780.28 143.24 781.79 143.82
  Q 782.40 144.05 782.29 144.70
  Q 779.05 163.93 780.08 183.63
  Q 780.30 187.85 782.09 191.82
  C 786.06 200.60 789.70 209.30 796.75 216.11
  Q 803.55 222.68 809.86 228.66
  Q 817.50 235.90 828.24 234.93
  C 843.03 233.59 854.54 225.19 863.25 213.63
  Q 863.63 213.12 864.13 213.53
  Z
  M 851.20 272.94
  Q 854.18 261.60 858.16 249.67
  Q 859.62 245.29 858.91 240.68
  C 858.42 237.52 855.83 235.62 852.63 236.40
  C 847.44 237.68 850.04 243.07 848.87 246.44
  Q 844.16 259.95 840.78 273.75
  Q 839.91 277.33 840.47 279.55
  C 841.79 284.67 846.71 285.48 851.29 283.99
  C 858.90 281.50 865.63 278.96 872.38 274.08
  C 877.44 270.42 872.76 263.14 867.64 266.12
  Q 859.97 270.59 851.55 273.28
  Q 851.07 273.43 851.20 272.94
  Z
  M 847.73 335.68
  C 837.79 335.86 833.57 331.34 831.05 322.20
  Q 829.00 314.73 827.53 307.62
  Q 827.06 305.35 827.82 303.19
  C 829.98 297.03 820.95 293.62 818.30 300.20
  Q 816.69 304.22 817.11 308.26
  Q 817.82 315.18 820.33 324.49
  C 823.81 337.45 831.10 346.05 845.18 346.61
  Q 854.24 346.96 864.36 347.00
  C 873.30 347.03 879.25 343.19 885.68 336.86
  Q 894.57 328.11 902.08 318.71
  C 906.37 313.34 911.04 306.74 911.63 300.04
  C 912.08 294.85 911.73 289.42 911.18 284.23
  Q 910.84 280.95 909.25 278.75
  C 906.77 275.32 901.31 276.29 900.22 280.46
  C 899.83 281.92 900.45 283.44 900.74 284.87
  Q 901.07 286.48 901.00 288.21
  C 900.78 293.69 901.12 299.68 898.07 304.38
  C 892.19 313.44 884.91 321.31 877.51 328.79
  C 874.68 331.65 870.23 335.44 866.03 335.46
  Q 857.08 335.52 847.73 335.68
  Z"
/>
<path fill="#000000" d="
  M 879.71 174.17
  C 876.10 172.60 872.93 166.68 873.53 162.88
  Q 874.33 157.70 875.90 151.34
  C 877.09 146.50 880.05 143.64 884.93 143.53
  C 887.08 143.48 889.13 142.75 891.28 143.00
  C 897.34 143.71 897.77 148.08 899.39 152.77
  C 901.92 160.09 895.04 166.72 890.53 171.34
  Q 885.36 176.64 879.71 174.17
  Z"
/>
<path fill="#000000" d="
  M 1188.28 151.24
  C 1188.28 157.70 1183.78 162.76 1177.17 163.08
  Q 1168.72 163.48 1168.95 155.20
  C 1169.11 149.38 1171.70 143.27 1178.30 142.87
  Q 1183.43 142.55 1186.81 147.10
  Q 1188.28 149.09 1188.28 151.24
  Z"
/>
<path fill="#000000" d="
  M 460.59 263.31
  Q 462.74 260.36 466.70 261.30
  C 470.66 262.24 474.35 263.76 477.97 265.99
  Q 486.71 271.38 495.44 275.37
  C 501.72 278.24 506.37 284.27 509.95 290.25
  C 513.34 295.93 517.37 300.13 522.09 304.60
  C 525.84 308.15 528.87 312.14 531.37 316.65
  C 534.04 321.48 536.67 326.41 540.11 330.78
  C 545.56 337.70 549.75 343.37 551.95 352.38
  Q 554.58 363.09 558.90 372.78
  Q 560.84 377.12 560.98 382.01
  Q 561.59 403.13 557.52 418.30
  C 555.41 426.15 549.98 436.72 546.97 446.36
  C 543.13 458.72 539.60 469.15 533.11 479.54
  C 523.04 495.67 514.06 509.38 501.72 522.32
  Q 492.62 531.86 483.63 540.39
  C 473.85 549.68 461.68 557.21 450.01 563.54
  Q 433.53 572.48 415.12 575.42
  Q 392.19 579.08 369.79 576.73
  C 361.11 575.82 352.36 573.97 343.65 572.26
  Q 343.02 572.14 343.18 572.76
  Q 345.57 582.21 346.67 590.73
  Q 346.74 591.29 347.30 591.22
  Q 348.41 591.10 349.49 591.54
  Q 366.30 598.49 378.57 607.51
  C 389.20 615.31 397.44 625.07 398.67 638.78
  Q 399.20 644.64 399.45 651.08
  C 399.71 657.65 390.00 658.34 389.06 652.00
  Q 388.38 647.40 388.17 641.95
  Q 387.77 631.52 381.38 624.34
  C 372.86 614.75 360.60 607.73 348.79 602.70
  Q 348.33 602.50 348.36 603.00
  Q 350.26 630.82 354.09 660.02
  Q 354.45 662.72 354.50 670.43
  A 1.07 1.07 0.0 0 0 354.95 671.30
  C 369.21 681.56 382.33 694.89 390.14 710.32
  Q 395.05 720.04 399.51 730.53
  C 402.64 737.90 393.14 741.71 390.05 734.49
  Q 385.56 724.00 380.82 714.60
  C 373.61 700.31 361.97 688.76 349.03 679.14
  A 0.94 0.93 37.2 0 0 347.73 679.31
  Q 329.63 702.60 314.58 726.91
  Q 312.24 730.69 311.80 734.72
  C 311.17 740.57 304.37 743.22 301.06 737.96
  C 298.67 734.16 301.62 726.53 303.60 723.18
  Q 318.81 697.58 339.44 671.83
  Q 341.19 669.64 343.34 668.01
  Q 343.74 667.71 343.73 667.21
  Q 343.65 662.98 343.25 660.00
  Q 339.31 630.56 337.44 599.89
  A 0.35 0.35 0.0 0 0 336.86 599.65
  Q 334.82 601.38 333.14 603.26
  Q 326.86 610.28 318.52 621.22
  Q 310.57 631.65 306.85 641.00
  A 1.30 1.27 -49.0 0 0 306.91 642.06
  C 310.35 648.51 302.25 653.51 298.31 647.97
  Q 295.00 643.32 296.83 637.48
  Q 300.04 627.19 308.36 616.08
  C 313.95 608.61 319.63 601.22 326.09 594.53
  Q 329.87 590.62 335.06 588.83
  Q 335.77 588.59 335.64 587.85
  L 332.77 571.20
  Q 332.69 570.69 332.18 570.64
  Q 325.79 569.94 320.26 568.51
  C 313.42 566.75 306.78 564.55 299.78 563.14
  Q 288.60 560.90 277.80 558.67
  Q 263.61 555.75 252.53 549.39
  C 245.54 545.38 238.80 541.28 231.46 538.09
  Q 222.94 534.39 213.12 529.72
  C 199.61 523.30 188.77 513.91 177.03 503.71
  C 170.45 498.00 163.68 493.10 156.52 488.03
  C 147.29 481.51 139.12 473.77 131.45 464.97
  C 122.63 454.83 112.29 446.16 104.08 435.52
  C 96.68 425.93 91.17 414.90 86.36 403.50
  C 82.36 394.01 79.92 383.98 76.12 374.32
  Q 75.47 372.65 75.35 371.07
  Q 73.64 347.60 82.78 327.73
  C 88.03 316.33 94.70 305.42 101.68 294.85
  C 106.18 288.03 110.22 280.15 114.53 274.66
  C 124.43 262.05 139.09 251.76 152.95 243.53
  C 165.10 236.31 180.67 234.26 194.67 235.65
  Q 195.17 235.70 195.25 235.20
  C 196.86 225.11 200.68 214.61 204.37 204.47
  Q 208.06 194.34 212.40 186.45
  C 217.21 177.72 226.51 171.62 235.91 167.54
  Q 237.37 166.90 237.88 165.24
  Q 238.66 162.70 241.30 161.72
  Q 249.42 158.74 258.01 155.09
  Q 267.29 151.15 272.67 150.53
  C 283.63 149.27 292.04 151.10 301.76 156.73
  Q 311.44 162.32 320.38 166.99
  Q 326.11 169.99 331.78 175.01
  Q 332.26 175.43 332.38 174.81
  C 333.23 170.34 338.93 166.67 342.76 164.33
  C 356.41 156.00 372.56 151.07 388.35 149.10
  Q 398.04 147.90 406.63 148.87
  C 418.39 150.21 424.00 160.44 432.41 167.44
  Q 437.46 171.65 442.29 176.01
  Q 453.29 185.92 456.85 201.19
  C 460.62 217.37 461.24 232.65 461.05 250.05
  Q 460.96 257.23 460.18 263.14
  Q 460.06 264.04 460.59 263.31
  Z
  M 348.72 174.18
  C 350.73 177.12 349.21 180.56 345.90 181.48
  Q 343.51 182.14 341.16 182.28
  Q 340.30 182.33 340.98 182.86
  C 347.10 187.62 354.17 194.37 356.66 201.82
  Q 358.05 205.99 358.08 213.15
  Q 358.12 225.51 357.94 236.85
  Q 357.94 236.99 358.11 237.02
  Q 358.20 237.04 358.22 236.95
  C 359.47 231.76 364.27 225.56 370.16 227.75
  C 374.34 229.31 378.65 228.83 382.73 230.18
  C 389.19 232.32 391.52 238.41 390.61 244.88
  Q 389.71 251.26 385.26 256.81
  Q 378.18 265.63 366.69 264.02
  C 361.79 263.33 358.36 258.29 356.53 254.12
  Q 356.26 253.49 356.14 254.17
  Q 355.52 257.83 353.85 261.39
  C 347.18 275.64 336.04 288.21 323.40 297.90
  A 0.58 0.57 48.4 0 0 323.35 298.76
  Q 329.80 305.29 332.23 312.84
  C 334.16 318.86 341.21 322.48 346.45 325.07
  C 350.71 327.18 355.19 326.91 359.76 326.82
  Q 363.43 326.75 366.40 326.21
  Q 375.20 324.62 383.69 323.61
  C 393.87 322.39 402.10 320.15 410.13 314.96
  Q 419.57 308.85 428.61 301.74
  C 435.41 296.39 441.87 290.83 444.08 282.35
  Q 446.05 274.80 447.22 266.51
  C 448.80 255.42 448.64 243.54 448.41 232.48
  Q 448.12 218.35 445.23 204.46
  C 443.55 196.43 439.85 189.41 433.99 184.20
  C 427.10 178.09 420.16 172.51 414.15 165.35
  Q 410.11 160.55 405.31 159.92
  Q 399.47 159.15 393.70 159.68
  Q 369.07 161.93 348.92 173.29
  Q 348.33 173.62 348.72 174.18
  Z
  M 285.39 163.78
  A 0.20 0.19 -89.6 0 0 285.13 164.04
  C 285.86 165.60 286.88 167.25 286.72 169.03
  Q 286.41 172.51 283.02 173.39
  C 280.06 174.15 278.42 171.93 276.86 169.89
  C 272.67 164.39 251.67 173.25 245.58 175.74
  Q 238.53 178.61 232.19 182.54
  Q 224.27 187.44 220.53 195.76
  C 215.46 207.03 211.35 218.92 208.24 230.39
  Q 205.15 241.78 205.15 256.88
  C 205.15 262.83 206.64 268.16 210.29 272.77
  Q 217.62 282.07 225.28 289.93
  Q 236.82 301.79 252.48 303.84
  Q 261.34 305.00 275.85 304.92
  Q 282.87 304.88 288.10 303.18
  Q 295.94 300.64 303.80 295.80
  Q 324.73 282.89 337.64 263.33
  Q 344.60 252.79 344.55 239.25
  Q 344.48 222.64 344.47 209.20
  C 344.46 204.63 340.25 200.28 337.14 197.47
  C 328.07 189.25 320.24 181.94 309.46 176.35
  Q 301.26 172.09 293.31 167.33
  C 290.88 165.88 287.97 165.05 285.39 163.78
  Z
  M 466.40 273.37
  C 463.41 272.52 461.16 272.33 459.36 269.40
  Q 458.84 268.56 459.05 269.53
  Q 459.24 270.49 459.12 271.47
  C 457.50 284.25 454.80 295.28 444.83 304.57
  Q 436.17 312.63 424.31 320.93
  C 414.61 327.71 404.45 333.79 393.71 335.18
  Q 380.68 336.86 368.11 338.88
  C 359.83 340.20 349.26 340.62 341.50 336.90
  Q 335.74 334.14 330.27 330.23
  C 325.35 326.72 322.39 322.89 320.53 317.50
  C 318.82 312.54 316.48 309.92 313.43 305.72
  Q 313.12 305.29 312.68 305.59
  C 303.28 311.92 290.97 317.46 279.46 317.74
  Q 264.88 318.10 252.89 316.71
  Q 232.16 314.32 217.97 299.84
  Q 211.42 293.16 204.34 284.69
  C 198.52 277.73 194.10 270.83 193.55 261.81
  Q 193.09 254.29 193.89 246.38
  Q 193.95 245.87 193.43 245.85
  C 180.38 245.31 167.26 247.48 156.27 254.51
  Q 139.14 265.48 129.16 275.37
  C 126.21 278.30 123.35 281.61 121.18 285.18
  Q 113.83 297.28 105.62 310.16
  Q 98.84 320.79 93.66 331.88
  Q 86.35 347.54 86.90 367.41
  C 86.98 370.57 88.46 373.49 89.50 376.42
  Q 90.68 379.75 91.80 383.52
  C 95.89 397.33 102.28 411.18 109.95 423.11
  Q 114.96 430.90 121.96 437.59
  Q 132.74 447.92 144.12 460.71
  Q 152.60 470.25 162.84 477.39
  Q 178.06 488.00 195.96 503.55
  Q 207.34 513.45 218.85 518.78
  Q 228.13 523.07 238.01 527.51
  Q 246.42 531.29 257.32 537.90
  Q 267.02 543.77 279.53 546.38
  Q 291.69 548.91 303.95 551.44
  C 313.33 553.37 322.20 556.95 331.72 558.17
  Q 344.17 559.77 355.00 561.98
  Q 366.30 564.28 374.92 564.92
  Q 393.18 566.28 410.77 563.77
  C 423.02 562.02 434.11 558.37 444.87 552.53
  Q 456.89 546.00 466.21 539.32
  Q 472.83 534.57 480.54 526.84
  C 489.73 517.63 499.24 508.31 506.14 498.52
  Q 514.84 486.18 522.89 473.15
  C 528.97 463.31 532.30 452.73 535.76 441.68
  C 539.10 431.01 544.97 420.88 546.98 410.02
  Q 549.07 398.74 548.96 387.76
  C 548.92 384.66 549.29 381.00 548.13 378.28
  Q 544.42 369.55 542.58 363.01
  C 540.67 356.17 539.66 350.72 536.68 346.16
  C 533.36 341.05 529.16 336.46 526.12 331.17
  Q 523.02 325.79 519.90 320.21
  Q 518.58 317.85 516.67 315.87
  C 512.47 311.50 507.18 306.69 503.71 301.43
  Q 499.90 295.64 496.44 290.79
  C 493.19 286.23 486.38 283.86 481.36 281.36
  C 476.45 278.92 471.65 274.86 466.40 273.37
  Z"
/>
<path fill="#ffffff" d="
  M 1104.98 193.82
  C 1112.36 200.82 1123.02 204.69 1133.22 205.33
  C 1136.58 205.54 1140.12 205.12 1143.16 203.51
  Q 1156.02 196.71 1162.87 187.75
  Q 1163.28 187.22 1163.76 187.69
  C 1165.70 189.63 1167.40 191.74 1169.61 193.42
  C 1178.61 200.27 1188.03 201.91 1198.66 200.45
  C 1206.19 199.41 1214.09 194.48 1220.22 189.90
  Q 1233.63 179.92 1242.68 168.10
  Q 1243.02 167.66 1243.55 167.80
  C 1245.31 168.26 1246.95 168.81 1248.80 168.79
  Q 1259.95 168.66 1270.32 169.01
  Q 1280.22 169.35 1286.55 176.45
  Q 1293.81 184.60 1299.69 198.31
  C 1301.57 202.68 1302.77 206.59 1302.86 211.54
  C 1303.11 225.70 1301.66 239.07 1299.20 253.97
  C 1297.85 262.15 1296.25 271.04 1293.10 278.55
  Q 1285.18 297.47 1270.16 310.27
  C 1258.46 320.24 1245.98 330.22 1232.17 337.16
  Q 1218.27 344.15 1202.05 350.14
  Q 1192.86 353.54 1186.34 353.85
  C 1171.27 354.54 1155.10 352.73 1141.36 347.83
  C 1130.13 343.83 1119.11 339.99 1109.32 333.00
  Q 1094.59 322.49 1081.50 308.61
  Q 1065.31 291.45 1058.96 268.09
  Q 1055.42 255.04 1051.36 241.33
  C 1050.78 239.37 1050.26 237.31 1050.22 235.27
  C 1049.89 218.56 1049.73 201.39 1054.97 185.99
  Q 1056.24 182.25 1060.20 174.26
  Q 1063.69 167.22 1066.74 163.55
  Q 1073.09 155.93 1084.61 152.39
  Q 1085.36 152.16 1085.24 152.94
  C 1083.04 167.82 1094.88 184.24 1104.98 193.82
  Z
  M 1232.3409 221.1883
  A 5.08 4.82 110.5 0 0 1238.6348 218.1180
  A 5.08 4.82 110.5 0 0 1235.8991 211.6717
  A 5.08 4.82 110.5 0 0 1229.6052 214.7420
  A 5.08 4.82 110.5 0 0 1232.3409 221.1883
  Z
  M 1159.20 236.60
  Q 1163.37 232.39 1167.20 227.76
  C 1169.89 224.50 1171.42 218.75 1167.27 216.02
  C 1165.03 214.54 1162.02 215.29 1160.55 217.48
  C 1159.51 219.01 1159.95 220.77 1158.57 222.32
  Q 1153.56 227.96 1148.18 234.01
  C 1145.25 237.30 1143.30 241.23 1147.00 244.69
  C 1149.33 246.88 1152.97 245.71 1155.75 246.96
  Q 1161.53 249.55 1167.04 250.86
  Q 1168.85 251.29 1170.28 252.62
  C 1174.00 256.07 1179.96 251.43 1177.72 247.05
  Q 1175.45 242.62 1170.34 241.27
  Q 1164.64 239.76 1159.36 237.44
  Q 1158.67 237.13 1159.20 236.60
  Z
  M 1095.8839 227.7435
  A 5.11 4.64 14.2 0 0 1092.0682 221.9918
  A 5.11 4.64 14.2 0 0 1085.9761 225.2365
  A 5.11 4.64 14.2 0 0 1089.7918 230.9882
  A 5.11 4.64 14.2 0 0 1095.8839 227.7435
  Z
  M 1261.91 227.19
  A 4.44 4.44 0.0 0 0 1257.47 222.75
  A 4.44 4.44 0.0 0 0 1253.03 227.19
  A 4.44 4.44 0.0 0 0 1257.47 231.63
  A 4.44 4.44 0.0 0 0 1261.91 227.19
  Z
  M 1243.74 247.05
  A 4.63 4.63 0.0 0 0 1239.11 242.42
  A 4.63 4.63 0.0 0 0 1234.48 247.05
  A 4.63 4.63 0.0 0 0 1239.11 251.68
  A 4.63 4.63 0.0 0 0 1243.74 247.05
  Z
  M 1079.2424 258.3852
  A 5.01 4.63 95.7 0 0 1084.3471 253.8599
  A 5.01 4.63 95.7 0 0 1080.2376 248.4148
  A 5.01 4.63 95.7 0 0 1075.1329 252.9401
  A 5.01 4.63 95.7 0 0 1079.2424 258.3852
  Z
  M 1111.92 255.58
  A 4.60 4.60 0.0 0 0 1107.32 250.98
  A 4.60 4.60 0.0 0 0 1102.72 255.58
  A 4.60 4.60 0.0 0 0 1107.32 260.18
  A 4.60 4.60 0.0 0 0 1111.92 255.58
  Z
  M 1212.54 285.19
  C 1212.13 287.63 1211.34 289.90 1209.48 291.63
  C 1204.92 295.86 1201.02 300.85 1195.90 304.42
  Q 1186.34 311.08 1174.35 314.32
  C 1171.76 315.02 1168.59 315.06 1166.10 314.03
  Q 1159.87 311.44 1152.71 310.36
  C 1148.63 309.75 1145.96 307.21 1144.28 303.59
  Q 1141.16 296.85 1137.61 291.12
  Q 1137.31 290.65 1137.70 290.25
  Q 1141.11 286.79 1138.00 283.29
  C 1136.56 281.66 1134.11 281.71 1132.29 282.64
  Q 1125.82 285.97 1119.14 289.69
  Q 1115.76 291.57 1117.04 295.10
  C 1118.88 300.20 1124.80 296.80 1127.91 295.48
  Q 1128.44 295.26 1128.67 295.78
  Q 1131.28 301.68 1134.11 307.46
  C 1137.91 315.25 1142.43 319.84 1151.11 321.44
  Q 1155.97 322.33 1160.64 324.28
  Q 1167.76 327.24 1174.57 326.07
  Q 1180.14 325.10 1187.70 322.03
  Q 1195.94 318.68 1204.01 312.78
  C 1209.27 308.93 1213.33 303.78 1217.86 299.22
  Q 1221.83 295.22 1222.60 290.78
  Q 1222.72 290.09 1223.29 290.50
  Q 1226.53 292.83 1230.40 294.29
  C 1236.02 296.40 1239.19 289.18 1234.02 286.36
  Q 1226.06 282.02 1218.33 277.02
  C 1215.03 274.89 1209.40 272.88 1205.80 275.46
  C 1200.00 279.63 1205.69 290.92 1212.11 284.96
  Q 1212.66 284.44 1212.54 285.19
  Z"
/>
<path fill="#ffffff" d="
  M 345.90 181.48
  C 349.21 180.56 350.73 177.12 348.72 174.18
  Q 348.33 173.62 348.92 173.29
  Q 369.07 161.93 393.70 159.68
  Q 399.47 159.15 405.31 159.92
  Q 410.11 160.55 414.15 165.35
  C 420.16 172.51 427.10 178.09 433.99 184.20
  C 439.85 189.41 443.55 196.43 445.23 204.46
  Q 448.12 218.35 448.41 232.48
  C 448.64 243.54 448.80 255.42 447.22 266.51
  Q 446.05 274.80 444.08 282.35
  C 441.87 290.83 435.41 296.39 428.61 301.74
  Q 419.57 308.85 410.13 314.96
  C 402.10 320.15 393.87 322.39 383.69 323.61
  Q 375.20 324.62 366.40 326.21
  Q 363.43 326.75 359.76 326.82
  C 355.19 326.91 350.71 327.18 346.45 325.07
  C 341.21 322.48 334.16 318.86 332.23 312.84
  Q 329.80 305.29 323.35 298.76
  A 0.58 0.57 48.4 0 1 323.40 297.90
  C 336.04 288.21 347.18 275.64 353.85 261.39
  Q 355.52 257.83 356.14 254.17
  Q 356.26 253.49 356.53 254.12
  C 358.36 258.29 361.79 263.33 366.69 264.02
  Q 378.18 265.63 385.26 256.81
  Q 389.71 251.26 390.61 244.88
  C 391.52 238.41 389.19 232.32 382.73 230.18
  C 378.65 228.83 374.34 229.31 370.16 227.75
  C 364.27 225.56 359.47 231.76 358.22 236.95
  Q 358.20 237.04 358.11 237.02
  Q 357.94 236.99 357.94 236.85
  Q 358.12 225.51 358.08 213.15
  Q 358.05 205.99 356.66 201.82
  C 354.17 194.37 347.10 187.62 340.98 182.86
  Q 340.30 182.33 341.16 182.28
  Q 343.51 182.14 345.90 181.48
  Z"
/>
<path fill="#ffffff" d="
  M 285.39 163.78
  C 287.97 165.05 290.88 165.88 293.31 167.33
  Q 301.26 172.09 309.46 176.35
  C 320.24 181.94 328.07 189.25 337.14 197.47
  C 340.25 200.28 344.46 204.63 344.47 209.20
  Q 344.48 222.64 344.55 239.25
  Q 344.60 252.79 337.64 263.33
  Q 324.73 282.89 303.80 295.80
  Q 295.94 300.64 288.10 303.18
  Q 282.87 304.88 275.85 304.92
  Q 261.34 305.00 252.48 303.84
  Q 236.82 301.79 225.28 289.93
  Q 217.62 282.07 210.29 272.77
  C 206.64 268.16 205.15 262.83 205.15 256.88
  Q 205.15 241.78 208.24 230.39
  C 211.35 218.92 215.46 207.03 220.53 195.76
  Q 224.27 187.44 232.19 182.54
  Q 238.53 178.61 245.58 175.74
  C 251.67 173.25 272.67 164.39 276.86 169.89
  C 278.42 171.93 280.06 174.15 283.02 173.39
  Q 286.41 172.51 286.72 169.03
  C 286.88 167.25 285.86 165.60 285.13 164.04
  A 0.20 0.19 -89.6 0 1 285.39 163.78
  Z
  M 301.76 238.19
  C 300.52 246.77 300.74 256.16 309.40 260.47
  C 322.62 267.07 328.66 252.05 331.52 242.58
  C 333.10 237.34 329.80 229.80 324.84 227.31
  Q 318.06 223.89 311.05 228.20
  C 309.71 229.03 307.81 229.45 306.24 229.13
  Q 301.84 228.22 300.40 233.43
  Q 299.85 235.41 301.36 236.96
  A 1.44 1.42 -63.4 0 1 301.76 238.19
  Z"
/>
<ellipse fill="#000000" cx="0.00" cy="0.00" transform="translate(1234.12,216.43) rotate(110.5)" rx="5.08" ry="4.82"/>
<path fill="#000000" d="
  M 1159.36 237.44
  Q 1164.64 239.76 1170.34 241.27
  Q 1175.45 242.62 1177.72 247.05
  C 1179.96 251.43 1174.00 256.07 1170.28 252.62
  Q 1168.85 251.29 1167.04 250.86
  Q 1161.53 249.55 1155.75 246.96
  C 1152.97 245.71 1149.33 246.88 1147.00 244.69
  C 1143.30 241.23 1145.25 237.30 1148.18 234.01
  Q 1153.56 227.96 1158.57 222.32
  C 1159.95 220.77 1159.51 219.01 1160.55 217.48
  C 1162.02 215.29 1165.03 214.54 1167.27 216.02
  C 1171.42 218.75 1169.89 224.50 1167.20 227.76
  Q 1163.37 232.39 1159.20 236.60
  Q 1158.67 237.13 1159.36 237.44
  Z"
/>
<ellipse fill="#000000" cx="0.00" cy="0.00" transform="translate(1090.93,226.49) rotate(14.2)" rx="5.11" ry="4.64"/>
<circle fill="#000000" cx="1257.47" cy="227.19" r="4.44"/>
<path fill="#000000" d="
  M 301.36 236.96
  Q 299.85 235.41 300.40 233.43
  Q 301.84 228.22 306.24 229.13
  C 307.81 229.45 309.71 229.03 311.05 228.20
  Q 318.06 223.89 324.84 227.31
  C 329.80 229.80 333.10 237.34 331.52 242.58
  C 328.66 252.05 322.62 267.07 309.40 260.47
  C 300.74 256.16 300.52 246.77 301.76 238.19
  A 1.44 1.42 -63.4 0 0 301.36 236.96
  Z"
/>
<path fill="#000000" d="
  M 851.55 273.28
  Q 859.97 270.59 867.64 266.12
  C 872.76 263.14 877.44 270.42 872.38 274.08
  C 865.63 278.96 858.90 281.50 851.29 283.99
  C 846.71 285.48 841.79 284.67 840.47 279.55
  Q 839.91 277.33 840.78 273.75
  Q 844.16 259.95 848.87 246.44
  C 850.04 243.07 847.44 237.68 852.63 236.40
  C 855.83 235.62 858.42 237.52 858.91 240.68
  Q 859.62 245.29 858.16 249.67
  Q 854.18 261.60 851.20 272.94
  Q 851.07 273.43 851.55 273.28
  Z"
/>
<circle fill="#000000" cx="1239.11" cy="247.05" r="4.63"/>
<path fill="#ffffff" d="
  M 459.36 269.40
  C 461.16 272.33 463.41 272.52 466.40 273.37
  C 471.65 274.86 476.45 278.92 481.36 281.36
  C 486.38 283.86 493.19 286.23 496.44 290.79
  Q 499.90 295.64 503.71 301.43
  C 507.18 306.69 512.47 311.50 516.67 315.87
  Q 518.58 317.85 519.90 320.21
  Q 523.02 325.79 526.12 331.17
  C 529.16 336.46 533.36 341.05 536.68 346.16
  C 539.66 350.72 540.67 356.17 542.58 363.01
  Q 544.42 369.55 548.13 378.28
  C 549.29 381.00 548.92 384.66 548.96 387.76
  Q 549.07 398.74 546.98 410.02
  C 544.97 420.88 539.10 431.01 535.76 441.68
  C 532.30 452.73 528.97 463.31 522.89 473.15
  Q 514.84 486.18 506.14 498.52
  C 499.24 508.31 489.73 517.63 480.54 526.84
  Q 472.83 534.57 466.21 539.32
  Q 456.89 546.00 444.87 552.53
  C 434.11 558.37 423.02 562.02 410.77 563.77
  Q 393.18 566.28 374.92 564.92
  Q 366.30 564.28 355.00 561.98
  Q 344.17 559.77 331.72 558.17
  C 322.20 556.95 313.33 553.37 303.95 551.44
  Q 291.69 548.91 279.53 546.38
  Q 267.02 543.77 257.32 537.90
  Q 246.42 531.29 238.01 527.51
  Q 228.13 523.07 218.85 518.78
  Q 207.34 513.45 195.96 503.55
  Q 178.06 488.00 162.84 477.39
  Q 152.60 470.25 144.12 460.71
  Q 132.74 447.92 121.96 437.59
  Q 114.96 430.90 109.95 423.11
  C 102.28 411.18 95.89 397.33 91.80 383.52
  Q 90.68 379.75 89.50 376.42
  C 88.46 373.49 86.98 370.57 86.90 367.41
  Q 86.35 347.54 93.66 331.88
  Q 98.84 320.79 105.62 310.16
  Q 113.83 297.28 121.18 285.18
  C 123.35 281.61 126.21 278.30 129.16 275.37
  Q 139.14 265.48 156.27 254.51
  C 167.26 247.48 180.38 245.31 193.43 245.85
  Q 193.95 245.87 193.89 246.38
  Q 193.09 254.29 193.55 261.81
  C 194.10 270.83 198.52 277.73 204.34 284.69
  Q 211.42 293.16 217.97 299.84
  Q 232.16 314.32 252.89 316.71
  Q 264.88 318.10 279.46 317.74
  C 290.97 317.46 303.28 311.92 312.68 305.59
  Q 313.12 305.29 313.43 305.72
  C 316.48 309.92 318.82 312.54 320.53 317.50
  C 322.39 322.89 325.35 326.72 330.27 330.23
  Q 335.74 334.14 341.50 336.90
  C 349.26 340.62 359.83 340.20 368.11 338.88
  Q 380.68 336.86 393.71 335.18
  C 404.45 333.79 414.61 327.71 424.31 320.93
  Q 436.17 312.63 444.83 304.57
  C 454.80 295.28 457.50 284.25 459.12 271.47
  Q 459.24 270.49 459.05 269.53
  Q 458.84 268.56 459.36 269.40
  Z
  M 322.61 381.20
  Q 315.57 383.17 307.92 386.12
  C 301.92 388.44 305.16 397.32 311.28 395.33
  Q 317.44 393.32 323.45 391.48
  Q 329.56 389.61 331.28 387.66
  C 338.93 378.98 323.43 367.06 316.57 363.57
  C 312.47 361.49 308.29 360.40 304.69 357.31
  C 299.77 353.09 293.60 359.66 297.83 364.20
  C 301.48 368.10 306.09 369.65 310.90 371.73
  Q 317.99 374.79 322.75 380.77
  A 0.27 0.27 0.0 0 1 322.61 381.20
  Z
  M 357.68 447.33
  C 358.02 461.44 353.74 473.47 346.14 484.76
  Q 341.38 491.86 330.64 495.30
  C 324.52 497.27 317.91 495.58 311.69 494.25
  Q 298.29 491.40 287.23 482.83
  Q 279.95 477.18 273.68 471.01
  C 266.78 464.23 263.31 454.55 260.44 445.05
  C 259.42 441.68 259.31 438.14 259.22 434.62
  C 259.13 431.23 257.97 428.01 253.92 428.58
  Q 250.71 429.03 250.26 432.19
  Q 248.99 441.03 250.47 447.61
  C 252.60 457.10 257.01 468.47 263.30 475.96
  Q 272.11 486.46 286.84 496.66
  C 295.52 502.68 306.17 505.59 316.53 507.38
  Q 322.41 508.39 328.39 507.95
  C 332.84 507.63 337.30 505.67 341.34 503.79
  Q 350.65 499.44 356.06 491.34
  C 366.03 476.44 370.75 461.21 368.95 442.90
  Q 368.55 438.84 366.83 436.25
  C 363.13 430.69 354.69 434.99 356.79 441.73
  Q 357.61 444.38 357.68 447.33
  Z"
/>
<ellipse fill="#000000" cx="0.00" cy="0.00" transform="translate(1079.74,253.40) rotate(95.7)" rx="5.01" ry="4.63"/>
<circle fill="#000000" cx="1107.32" cy="255.58" r="4.60"/>
<path fill="#000000" d="
  M 1212.54 285.19
  Q 1212.66 284.44 1212.11 284.96
  C 1205.69 290.92 1200.00 279.63 1205.80 275.46
  C 1209.40 272.88 1215.03 274.89 1218.33 277.02
  Q 1226.06 282.02 1234.02 286.36
  C 1239.19 289.18 1236.02 296.40 1230.40 294.29
  Q 1226.53 292.83 1223.29 290.50
  Q 1222.72 290.09 1222.60 290.78
  Q 1221.83 295.22 1217.86 299.22
  C 1213.33 303.78 1209.27 308.93 1204.01 312.78
  Q 1195.94 318.68 1187.70 322.03
  Q 1180.14 325.10 1174.57 326.07
  Q 1167.76 327.24 1160.64 324.28
  Q 1155.97 322.33 1151.11 321.44
  C 1142.43 319.84 1137.91 315.25 1134.11 307.46
  Q 1131.28 301.68 1128.67 295.78
  Q 1128.44 295.26 1127.91 295.48
  C 1124.80 296.80 1118.88 300.20 1117.04 295.10
  Q 1115.76 291.57 1119.14 289.69
  Q 1125.82 285.97 1132.29 282.64
  C 1134.11 281.71 1136.56 281.66 1138.00 283.29
  Q 1141.11 286.79 1137.70 290.25
  Q 1137.31 290.65 1137.61 291.12
  Q 1141.16 296.85 1144.28 303.59
  C 1145.96 307.21 1148.63 309.75 1152.71 310.36
  Q 1159.87 311.44 1166.10 314.03
  C 1168.59 315.06 1171.76 315.02 1174.35 314.32
  Q 1186.34 311.08 1195.90 304.42
  C 1201.02 300.85 1204.92 295.86 1209.48 291.63
  C 1211.34 289.90 1212.13 287.63 1212.54 285.19
  Z"
/>
<path fill="#000000" d="
  M 831.05 322.20
  C 833.57 331.34 837.79 335.86 847.73 335.68
  Q 857.08 335.52 866.03 335.46
  C 870.23 335.44 874.68 331.65 877.51 328.79
  C 884.91 321.31 892.19 313.44 898.07 304.38
  C 901.12 299.68 900.78 293.69 901.00 288.21
  Q 901.07 286.48 900.74 284.87
  C 900.45 283.44 899.83 281.92 900.22 280.46
  C 901.31 276.29 906.77 275.32 909.25 278.75
  Q 910.84 280.95 911.18 284.23
  C 911.73 289.42 912.08 294.85 911.63 300.04
  C 911.04 306.74 906.37 313.34 902.08 318.71
  Q 894.57 328.11 885.68 336.86
  C 879.25 343.19 873.30 347.03 864.36 347.00
  Q 854.24 346.96 845.18 346.61
  C 831.10 346.05 823.81 337.45 820.33 324.49
  Q 817.82 315.18 817.11 308.26
  Q 816.69 304.22 818.30 300.20
  C 820.95 293.62 829.98 297.03 827.82 303.19
  Q 827.06 305.35 827.53 307.62
  Q 829.00 314.73 831.05 322.20
  Z"
/>
<path fill="#000000" d="
  M 322.61 381.20
  A 0.27 0.27 0.0 0 0 322.75 380.77
  Q 317.99 374.79 310.90 371.73
  C 306.09 369.65 301.48 368.10 297.83 364.20
  C 293.60 359.66 299.77 353.09 304.69 357.31
  C 308.29 360.40 312.47 361.49 316.57 363.57
  C 323.43 367.06 338.93 378.98 331.28 387.66
  Q 329.56 389.61 323.45 391.48
  Q 317.44 393.32 311.28 395.33
  C 305.16 397.32 301.92 388.44 307.92 386.12
  Q 315.57 383.17 322.61 381.20
  Z"
/>
<path fill="#000000" d="
  M 346.14 484.76
  C 353.74 473.47 358.02 461.44 357.68 447.33
  Q 357.61 444.38 356.79 441.73
  C 354.69 434.99 363.13 430.69 366.83 436.25
  Q 368.55 438.84 368.95 442.90
  C 370.75 461.21 366.03 476.44 356.06 491.34
  Q 350.65 499.44 341.34 503.79
  C 337.30 505.67 332.84 507.63 328.39 507.95
  Q 322.41 508.39 316.53 507.38
  C 306.17 505.59 295.52 502.68 286.84 496.66
  Q 272.11 486.46 263.30 475.96
  C 257.01 468.47 252.60 457.10 250.47 447.61
  Q 248.99 441.03 250.26 432.19
  Q 250.71 429.03 253.92 428.58
  C 257.97 428.01 259.13 431.23 259.22 434.62
  C 259.31 438.14 259.42 441.68 260.44 445.05
  C 263.31 454.55 266.78 464.23 273.68 471.01
  Q 279.95 477.18 287.23 482.83
  Q 298.29 491.40 311.69 494.25
  C 317.91 495.58 324.52 497.27 330.64 495.30
  Q 341.38 491.86 346.14 484.76
  Z"
/>
</svg>
