<svg xmlns="http://www.w3.org/2000/svg" version="1.1" viewBox="0 0 512 512"><g fill="none" stroke-linecap="butt" stroke-width="2"><path stroke="#906a11" d="M 280.89 223.94 C 271.53 260.60 262.87 296.33 266.55 333.41 C 267.18 339.83 268.70 346.68 276.53 346.98 C 289.96 347.50 318.96 345.68 319.18 326.84 Q 319.42 305.70 323.28 282.78 Q 328.62 250.96 337.95 217.51 A 0.44 0.43 4.7 0 1 338.33 217.20 Q 344.75 216.63 350.89 217.04 Q 350.93 217.04 400.90 219.32 Q 411.03 219.78 413.87 209.89 Q 416.37 201.20 419.13 192.17 C 420.40 188.00 419.86 181.97 414.08 181.88 Q 380.92 181.35 348.83 180.90 Q 348.02 180.89 348.26 180.11 C 354.93 158.82 361.44 136.59 365.35 114.18 A 0.37 0.36 4.6 0 1 365.71 113.88 Q 405.48 113.86 450.17 114.32 C 461.97 114.44 469.41 110.83 473.36 99.36 Q 475.28 93.77 478.22 88.19 Q 480.28 84.28 480.45 81.55 C 480.88 74.68 474.47 73.92 469.33 73.83 Q 415.93 72.92 362.18 72.17 C 330.91 71.73 299.14 76.38 270.84 89.29 C 252.95 97.45 235.27 111.08 234.01 132.38 C 233.68 137.99 234.65 144.49 238.78 148.43 C 241.78 151.29 245.45 148.91 247.91 146.68 Q 251.71 143.25 255.47 139.49 C 271.93 123.01 292.48 115.40 315.89 113.93 Q 316.35 113.90 316.17 114.32 Q 300.76 150.72 290.34 188.43 A 1.39 1.37 -88.8 0 1 289.34 189.40 Q 272.75 193.58 260.08 200.56 C 252.58 204.68 243.44 212.26 242.00 220.94 C 241.32 225.04 243.58 226.36 247.01 226.25 Q 263.29 225.77 280.31 223.29 Q 281.09 223.18 280.89 223.94" vector-effect="non-scaling-stroke"/><path stroke="#906a11" d="M 139.12 327.04 L 133.87 349.67 A 1.17 1.15 -89.1 0 1 132.98 350.55 Q 110.63 355.14 87.10 359.30 Q 77.82 360.94 65.90 364.40 C 53.62 367.95 39.10 375.31 38.26 389.79 C 36.49 420.31 64.17 439.31 92.09 440.26 C 115.47 441.05 137.74 434.72 151.38 414.83 Q 156.15 407.87 158.94 401.27 Q 165.08 386.75 169.81 370.51 A 2.44 2.40 85.9 0 1 171.10 369.00 Q 207.58 351.87 233.11 321.28 C 245.65 306.27 257.07 288.63 257.69 269.18 Q 257.83 264.86 256.58 261.31 C 253.76 253.29 245.60 261.49 242.69 264.97 Q 233.93 275.43 224.02 287.77 Q 206.04 310.16 184.25 327.52 Q 183.15 328.40 183.55 327.05 Q 194.79 289.09 204.73 251.86 Q 209.82 232.79 213.17 215.68 Q 214.71 207.84 215.45 199.54 C 216.24 190.74 209.06 179.43 203.45 171.99 C 192.50 157.50 176.82 159.22 171.61 177.27 Q 171.43 177.90 170.83 177.65 Q 154.20 170.90 135.64 169.79 C 117.36 168.70 99.72 174.32 84.49 184.55 Q 48.06 209.03 36.63 250.60 C 32.68 264.96 31.05 281.04 31.83 295.21 C 33.12 318.83 49.72 337.69 73.07 342.73 C 96.40 347.76 120.74 343.05 138.61 326.74 Q 139.34 326.07 139.12 327.04" vector-effect="non-scaling-stroke"/><path stroke="#906a11" d="M 144.85 275.81 C 146.08 272.98 147.34 270.35 148.01 267.29 C 153.77 240.84 160.16 218.24 166.84 194.04 A 0.42 0.41 -86.2 0 0 166.39 193.52 C 144.81 196.46 125.48 206.85 109.31 221.62 Q 84.23 244.53 84.54 279.37 Q 84.61 286.25 86.19 291.80 C 91.03 308.74 108.32 308.60 121.21 301.99 Q 136.97 293.90 144.85 275.81" vector-effect="non-scaling-stroke"/><path stroke="#906a11" d="M 108.80 405.43 C 114.32 399.35 118.30 391.86 122.05 384.16 Q 122.36 383.51 121.65 383.64 Q 103.76 386.98 83.30 390.06 Q 78.39 390.80 74.22 392.61 Q 70.95 394.03 71.26 397.88 C 71.89 405.65 81.21 410.14 87.96 411.91 C 96.20 414.06 102.96 411.85 108.80 405.43" vector-effect="non-scaling-stroke"/></g><path fill="#212121" d="M 49.56 0.00 L 462.76 0.00 C 489.85 1.85 510.28 21.70 512.00 48.81 L 512.00 463.30 C 509.91 489.96 490.54 509.75 463.98 512.00 L 47.91 512.00 C 21.38 509.43 1.71 489.80 0.00 463.18 L 0.00 48.69 Q 0.98 34.00 8.59 22.83 Q 23.01 1.64 49.56 0.00 Z M 280.89 223.94 C 271.53 260.60 262.87 296.33 266.55 333.41 C 267.18 339.83 268.70 346.68 276.53 346.98 C 289.96 347.50 318.96 345.68 319.18 326.84 Q 319.42 305.70 323.28 282.78 Q 328.62 250.96 337.95 217.51 A 0.44 0.43 4.7 0 1 338.33 217.20 Q 344.75 216.63 350.89 217.04 Q 350.93 217.04 400.90 219.32 Q 411.03 219.78 413.87 209.89 Q 416.37 201.20 419.13 192.17 C 420.40 188.00 419.86 181.97 414.08 181.88 Q 380.92 181.35 348.83 180.90 Q 348.02 180.89 348.26 180.11 C 354.93 158.82 361.44 136.59 365.35 114.18 A 0.37 0.36 4.6 0 1 365.71 113.88 Q 405.48 113.86 450.17 114.32 C 461.97 114.44 469.41 110.83 473.36 99.36 Q 475.28 93.77 478.22 88.19 Q 480.28 84.28 480.45 81.55 C 480.88 74.68 474.47 73.92 469.33 73.83 Q 415.93 72.92 362.18 72.17 C 330.91 71.73 299.14 76.38 270.84 89.29 C 252.95 97.45 235.27 111.08 234.01 132.38 C 233.68 137.99 234.65 144.49 238.78 148.43 C 241.78 151.29 245.45 148.91 247.91 146.68 Q 251.71 143.25 255.47 139.49 C 271.93 123.01 292.48 115.40 315.89 113.93 Q 316.35 113.90 316.17 114.32 Q 300.76 150.72 290.34 188.43 A 1.39 1.37 -88.8 0 1 289.34 189.40 Q 272.75 193.58 260.08 200.56 C 252.58 204.68 243.44 212.26 242.00 220.94 C 241.32 225.04 243.58 226.36 247.01 226.25 Q 263.29 225.77 280.31 223.29 Q 281.09 223.18 280.89 223.94 Z M 139.12 327.04 L 133.87 349.67 A 1.17 1.15 -89.1 0 1 132.98 350.55 Q 110.63 355.14 87.10 359.30 Q 77.82 360.94 65.90 364.40 C 53.62 367.95 39.10 375.31 38.26 389.79 C 36.49 420.31 64.17 439.31 92.09 440.26 C 115.47 441.05 137.74 434.72 151.38 414.83 Q 156.15 407.87 158.94 401.27 Q 165.08 386.75 169.81 370.51 A 2.44 2.40 85.9 0 1 171.10 369.00 Q 207.58 351.87 233.11 321.28 C 245.65 306.27 257.07 288.63 257.69 269.18 Q 257.83 264.86 256.58 261.31 C 253.76 253.29 245.60 261.49 242.69 264.97 Q 233.93 275.43 224.02 287.77 Q 206.04 310.16 184.25 327.52 Q 183.15 328.40 183.55 327.05 Q 194.79 289.09 204.73 251.86 Q 209.82 232.79 213.17 215.68 Q 214.71 207.84 215.45 199.54 C 216.24 190.74 209.06 179.43 203.45 171.99 C 192.50 157.50 176.82 159.22 171.61 177.27 Q 171.43 177.90 170.83 177.65 Q 154.20 170.90 135.64 169.79 C 117.36 168.70 99.72 174.32 84.49 184.55 Q 48.06 209.03 36.63 250.60 C 32.68 264.96 31.05 281.04 31.83 295.21 C 33.12 318.83 49.72 337.69 73.07 342.73 C 96.40 347.76 120.74 343.05 138.61 326.74 Q 139.34 326.07 139.12 327.04 Z"/><path fill="#ffb300" d="M 280.31 223.29 Q 263.29 225.77 247.01 226.25 C 243.58 226.36 241.32 225.04 242.00 220.94 C 243.44 212.26 252.58 204.68 260.08 200.56 Q 272.75 193.58 289.34 189.40 A 1.39 1.37 -88.8 0 0 290.34 188.43 Q 300.76 150.72 316.17 114.32 Q 316.35 113.90 315.89 113.93 C 292.48 115.40 271.93 123.01 255.47 139.49 Q 251.71 143.25 247.91 146.68 C 245.45 148.91 241.78 151.29 238.78 148.43 C 234.65 144.49 233.68 137.99 234.01 132.38 C 235.27 111.08 252.95 97.45 270.84 89.29 C 299.14 76.38 330.91 71.73 362.18 72.17 Q 415.93 72.92 469.33 73.83 C 474.47 73.92 480.88 74.68 480.45 81.55 Q 480.28 84.28 478.22 88.19 Q 475.28 93.77 473.36 99.36 C 469.41 110.83 461.97 114.44 450.17 114.32 Q 405.48 113.86 365.71 113.88 A 0.37 0.36 4.6 0 0 365.35 114.18 C 361.44 136.59 354.93 158.82 348.26 180.11 Q 348.02 180.89 348.83 180.90 Q 380.92 181.35 414.08 181.88 C 419.86 181.97 420.40 188.00 419.13 192.17 Q 416.37 201.20 413.87 209.89 Q 411.03 219.78 400.90 219.32 Q 350.93 217.04 350.89 217.04 Q 344.75 216.63 338.33 217.20 A 0.44 0.43 4.7 0 0 337.95 217.51 Q 328.62 250.96 323.28 282.78 Q 319.42 305.70 319.18 326.84 C 318.96 345.68 289.96 347.50 276.53 346.98 C 268.70 346.68 267.18 339.83 266.55 333.41 C 262.87 296.33 271.53 260.60 280.89 223.94 Q 281.09 223.18 280.31 223.29 Z"/><path fill="#ffb300" d="M 139.12 327.04 Q 139.34 326.07 138.61 326.74 C 120.74 343.05 96.40 347.76 73.07 342.73 C 49.72 337.69 33.12 318.83 31.83 295.21 C 31.05 281.04 32.68 264.96 36.63 250.60 Q 48.06 209.03 84.49 184.55 C 99.72 174.32 117.36 168.70 135.64 169.79 Q 154.20 170.90 170.83 177.65 Q 171.43 177.90 171.61 177.27 C 176.82 159.22 192.50 157.50 203.45 171.99 C 209.06 179.43 216.24 190.74 215.45 199.54 Q 214.71 207.84 213.17 215.68 Q 209.82 232.79 204.73 251.86 Q 194.79 289.09 183.55 327.05 Q 183.15 328.40 184.25 327.52 Q 206.04 310.16 224.02 287.77 Q 233.93 275.43 242.69 264.97 C 245.60 261.49 253.76 253.29 256.58 261.31 Q 257.83 264.86 257.69 269.18 C 257.07 288.63 245.65 306.27 233.11 321.28 Q 207.58 351.87 171.10 369.00 A 2.44 2.40 85.9 0 0 169.81 370.51 Q 165.08 386.75 158.94 401.27 Q 156.15 407.87 151.38 414.83 C 137.74 434.72 115.47 441.05 92.09 440.26 C 64.17 439.31 36.49 420.31 38.26 389.79 C 39.10 375.31 53.62 367.95 65.90 364.40 Q 77.82 360.94 87.10 359.30 Q 110.63 355.14 132.98 350.55 A 1.17 1.15 -89.1 0 0 133.87 349.67 L 139.12 327.04 Z M 144.85 275.81 C 146.08 272.98 147.34 270.35 148.01 267.29 C 153.77 240.84 160.16 218.24 166.84 194.04 A 0.42 0.41 -86.2 0 0 166.39 193.52 C 144.81 196.46 125.48 206.85 109.31 221.62 Q 84.23 244.53 84.54 279.37 Q 84.61 286.25 86.19 291.80 C 91.03 308.74 108.32 308.60 121.21 301.99 Q 136.97 293.90 144.85 275.81 Z M 108.80 405.43 C 114.32 399.35 118.30 391.86 122.05 384.16 Q 122.36 383.51 121.65 383.64 Q 103.76 386.98 83.30 390.06 Q 78.39 390.80 74.22 392.61 Q 70.95 394.03 71.26 397.88 C 71.89 405.65 81.21 410.14 87.96 411.91 C 96.20 414.06 102.96 411.85 108.80 405.43 Z"/><path fill="#212121" d="M 144.85 275.81 Q 136.97 293.90 121.21 301.99 C 108.32 308.60 91.03 308.74 86.19 291.80 Q 84.61 286.25 84.54 279.37 Q 84.23 244.53 109.31 221.62 C 125.48 206.85 144.81 196.46 166.39 193.52 A 0.42 0.41 -86.2 0 1 166.84 194.04 C 160.16 218.24 153.77 240.84 148.01 267.29 C 147.34 270.35 146.08 272.98 144.85 275.81 Z"/><path fill="#212121" d="M 122.05 384.16 C 118.30 391.86 114.32 399.35 108.80 405.43 C 102.96 411.85 96.20 414.06 87.96 411.91 C 81.21 410.14 71.89 405.65 71.26 397.88 Q 70.95 394.03 74.22 392.61 Q 78.39 390.80 83.30 390.06 Q 103.76 386.98 121.65 383.64 Q 122.36 383.51 122.05 384.16 Z"/></svg>